<?xml version="1.0" standalone="no"?>
<!DOCTYPE svg PUBLIC "-//W3C//DTD SVG 20010904//EN"
 "http://www.w3.org/TR/2001/REC-SVG-20010904/DTD/svg10.dtd">
<svg version="1.0" xmlns="http://www.w3.org/2000/svg"
 width="385.000000pt" height="385.000000pt" viewBox="0 0 385.000000 385.000000"
 preserveAspectRatio="xMidYMid meet">
<metadata>
Created by potrace 1.14, written by Peter Selinger 2001-2017
</metadata>
<g transform="translate(0.000000,385.000000) scale(0.100000,-0.100000)"
fill="#000000" stroke="none">
<path d="M0 2351 c0 -989 3 -1502 10 -1506 13 -8 13 -95 0 -95 -6 0 -10 -132
-10 -375 l0 -375 1925 0 1925 0 0 1925 0 1925 -1925 0 -1925 0 0 -1499z m940
-38 c0 -834 4 -1324 10 -1333 8 -13 10 -12 10 3 0 20 3 20 53 6 38 -10 42 -15
31 -43 -4 -11 -14 -13 -35 -9 -18 3 -29 1 -29 -6 0 -6 6 -11 13 -11 23 0 38
-16 31 -34 -5 -13 -13 -16 -35 -11 -36 8 -50 -17 -25 -44 16 -17 15 -19 -16
-26 -18 -4 -41 -7 -50 -6 -13 2 -18 -5 -18 -23 0 -16 -6 -26 -15 -26 -11 0
-15 12 -15 50 0 28 5 50 10 50 7 0 10 470 10 1390 l0 1390 35 0 35 0 0 -1317z
m790 682 c50 -7 68 -24 45 -41 -19 -14 -19 -24 0 -24 22 0 20 -56 -2 -70 -16
-9 -15 -10 5 -5 20 6 22 3 22 -38 0 -24 3 -78 6 -120 l7 -77 -31 0 c-17 0 -34
-4 -37 -10 -4 -6 8 -10 29 -10 l36 0 0 -54 c0 -30 3 -61 6 -70 5 -13 -2 -16
-35 -16 -23 0 -41 -4 -41 -10 0 -5 18 -10 40 -10 l40 0 0 -62 c0 -35 7 -216
15 -403 19 -457 19 -475 -2 -476 -16 -1 -16 -2 -2 -6 22 -5 29 -33 29 -117 l0
-69 -42 7 c-23 4 -43 8 -44 9 -1 1 -5 37 -9 80 -6 70 -5 77 12 78 15 1 15 2 2
6 -18 4 -19 8 -43 493 l-12 225 -7 -140 c-4 -77 -10 -162 -14 -188 l-6 -48
-41 6 c-22 4 -42 9 -44 10 -4 3 24 664 39 924 8 153 13 187 27 198 12 11 14
16 5 19 -7 3 -13 10 -13 15 0 6 3 8 8 5 4 -2 28 -7 52 -11z m-42 -1184 c11 -6
11 -55 2 -267 -6 -142 -13 -283 -16 -311 l-5 -53 -45 0 c-35 0 -44 3 -44 18 0
12 28 596 30 620 0 6 66 1 78 -7z m1072 -113 c0 6 4 12 9 12 5 0 7 -10 5 -22
-4 -20 -3 -20 4 -4 10 22 41 31 38 11 -3 -24 -27 -43 -46 -38 -18 5 -60 43
-46 43 4 0 2 10 -5 23 -8 16 -4 14 15 -8 14 -16 25 -24 26 -17z m-60 -10 c35
-25 36 -35 10 -66 l-19 -23 -41 21 c-22 11 -38 25 -35 30 4 7 13 6 25 0 26
-14 33 -13 27 4 -4 10 -1 13 9 9 19 -7 18 6 -3 29 -22 25 -9 23 27 -4z m173
-67 c-3 -11 -11 -22 -19 -25 -17 -7 -18 -1 -2 24 16 25 28 26 21 1z m-258 -1
c3 -6 -1 -7 -9 -4 -18 7 -21 14 -7 14 6 0 13 -4 16 -10z m59 -38 c2 -4 -2 -15
-9 -25 -13 -19 -45 -14 -45 8 0 6 -10 17 -22 23 -22 11 -21 11 5 6 17 -4 27
-2 27 5 0 12 34 -1 44 -17z m245 -24 c-43 -19 -59 -17 -59 8 0 8 13 17 30 21
17 3 33 10 37 16 4 6 11 3 19 -8 12 -17 10 -20 -27 -37z m-324 2 c3 -5 2 -10
-4 -10 -5 0 -13 5 -16 10 -3 6 -2 10 4 10 5 0 13 -4 16 -10z m11 -28 c23 4 42
-28 27 -43 -22 -22 -104 25 -88 51 4 7 12 7 26 0 10 -6 26 -10 35 -8z m374 -2
c0 -13 -9 -22 -26 -26 -18 -5 -22 -9 -13 -14 7 -5 23 -2 36 7 21 14 23 14 23
-1 0 -8 -12 -19 -26 -22 -16 -4 -22 -10 -16 -16 6 -6 17 -6 30 1 25 13 32 14
32 2 0 -7 -70 -41 -85 -41 -3 0 -16 22 -30 49 -21 42 -22 51 -10 61 8 7 21 10
30 7 8 -4 17 -2 20 3 11 18 35 10 35 -10z m-363 -64 c1 -1 -9 -26 -23 -56 -14
-30 -28 -50 -32 -44 -4 6 -22 19 -39 28 -18 9 -33 18 -33 20 0 2 9 24 20 50
l21 46 42 -21 c23 -12 43 -22 44 -23z m445 -154 c-10 -7 -19 -9 -25 -3 -6 6
-19 4 -33 -6 -13 -8 -24 -14 -24 -12 0 2 -9 28 -20 57 l-20 53 42 18 43 19 26
-57 c24 -50 25 -57 11 -69z m-545 52 c-7 -7 -37 7 -37 17 0 6 9 5 21 -1 11 -7
19 -14 16 -16z m-5 -22 l38 -17 -29 -58 c-16 -32 -31 -60 -34 -63 -6 -7 -77
28 -77 38 0 12 54 118 60 117 3 0 22 -8 42 -17z m-648 -114 c3 -40 8 -142 11
-225 6 -143 5 -153 -12 -154 -15 -1 -15 -2 -2 -6 19 -5 29 -50 29 -133 0 -69
16 -101 26 -52 6 32 9 33 40 27 42 -7 44 2 4 16 -35 13 -43 49 -10 49 22 0 27
16 8 23 -7 2 -2 2 11 0 13 -2 27 1 31 6 4 7 13 6 26 -4 15 -12 16 -16 5 -24
-7 -5 -11 -13 -7 -19 3 -6 -6 -71 -20 -146 -21 -105 -31 -136 -43 -137 -14 -1
-14 -2 0 -6 14 -3 15 -9 6 -39 -10 -32 -13 -34 -36 -28 -14 5 -43 8 -63 7 -30
-1 -38 3 -38 17 0 10 -3 25 -6 34 -4 11 4 18 28 25 l33 11 -32 -5 c-31 -4 -31
-3 -37 43 -9 69 -26 305 -23 308 1 2 14 7 27 13 l25 10 -26 0 c-26 1 -26 3
-32 84 -4 45 -10 148 -13 230 l-7 147 46 0 45 0 6 -72z m1246 26 c11 -26 20
-50 20 -53 0 -6 -64 -41 -75 -41 -2 0 -16 20 -30 43 -30 51 -34 90 -8 80 9 -4
14 -2 11 3 -4 5 9 10 28 11 31 3 35 0 54 -43z m-690 -44 c8 -5 11 -10 5 -10
-5 0 -17 5 -25 10 -8 5 -10 10 -5 10 6 0 17 -5 25 -10z m-1288 -34 c-3 -19 -2
-19 32 -6 24 9 25 7 51 -71 15 -44 24 -83 20 -87 -3 -4 -24 -12 -45 -18 l-39
-11 -11 46 c-6 25 -17 56 -23 69 -12 21 -14 19 -32 -33 -10 -31 -22 -58 -27
-61 -4 -3 -26 1 -48 7 -29 9 -39 17 -35 28 2 9 14 46 25 83 20 66 21 67 47 57
20 -7 30 -6 41 5 18 18 48 13 44 -8z m1290 -16 c33 -34 32 -46 -4 -34 -13 4
-25 7 -28 6 -3 0 -13 4 -22 9 -15 8 -16 13 -5 29 16 27 23 25 59 -10z m38 10
c8 -5 11 -10 5 -10 -5 0 -17 5 -25 10 -8 5 -10 10 -5 10 6 0 17 -5 25 -10z
m690 5 c0 -2 -9 -9 -20 -15 -12 -6 -20 -7 -20 -1 0 5 8 12 18 14 9 3 18 5 20
6 1 0 2 -1 2 -4z m-1484 -117 c-3 -57 -9 -132 -12 -168 l-6 -65 -45 4 -45 3 6
92 c3 50 9 124 12 164 l6 72 46 0 45 0 -7 -102z m1500 57 c-3 -9 -10 -14 -16
-10 -5 3 -21 -2 -35 -11 -35 -23 -31 -6 7 28 32 29 57 25 44 -7z m-56 20 c0
-2 -10 -10 -22 -16 -21 -11 -22 -11 -9 4 13 16 31 23 31 12z m-727 -30 c30
-31 29 -61 -2 -58 -22 3 -29 -13 -8 -20 9 -3 9 -7 -2 -20 -11 -15 -16 -15 -40
-2 -48 24 -54 39 -29 71 12 16 23 31 24 33 2 2 20 -7 41 -19 l38 -23 -35 31
c-19 17 -30 31 -24 32 6 0 23 -11 37 -25z m42 -5 c3 -5 1 -10 -4 -10 -6 0 -11
5 -11 10 0 6 2 10 4 10 3 0 8 -4 11 -10z m765 -9 c0 -5 -7 -11 -15 -15 -15 -5
-20 5 -8 17 9 10 23 9 23 -2z m46 -76 c-4 -11 -60 -45 -74 -45 -3 0 7 14 23
30 31 32 20 40 -20 14 -23 -15 -25 -15 -31 1 -4 10 0 21 12 30 11 7 28 20 39
28 18 14 21 13 38 -15 10 -17 16 -36 13 -43z m-106 55 c-8 -5 -19 -10 -25 -10
-5 0 -3 5 5 10 8 5 20 10 25 10 6 0 3 -5 -5 -10z m-852 -59 c7 -4 20 -20 27
-35 l14 -26 -35 26 c-42 32 -47 62 -6 35z m1004 -28 c14 -16 14 -21 -9 -56
-13 -22 -27 -36 -30 -33 -3 3 -1 12 5 19 17 20 1 30 -19 11 -30 -27 -33 4 -4
41 30 40 36 42 57 18z m-2032 -4 c0 -13 -68 -42 -80 -34 -19 12 -9 23 28 33
50 13 52 14 52 1z m1000 -22 c0 -6 7 -19 17 -29 9 -10 12 -18 7 -18 -10 0 -54
61 -54 74 0 5 7 3 15 -4 8 -7 15 -17 15 -23z m-24 -14 l18 -28 -24 16 c-26 17
-38 39 -22 39 5 0 18 -12 28 -27z m-938 -29 c23 -35 23 -37 5 -53 -10 -9 -12
-9 -5 -1 20 23 14 32 -10 16 -30 -21 -41 -20 -35 4 6 22 -12 27 -31 8 -6 -6
-15 -9 -19 -5 -6 7 54 67 66 67 3 0 17 -16 29 -36z m904 -13 c22 -52 5 -44
-23 11 -13 25 -16 39 -8 36 7 -2 21 -23 31 -47z m1138 40 c0 -21 -13 -40 -22
-35 -6 4 -19 -4 -29 -17 -12 -15 -19 -19 -19 -10 0 8 12 28 27 43 27 28 43 35
43 19z m-1160 -64 c0 -5 -7 -2 -15 7 -8 8 -15 20 -15 27 0 14 29 -20 30 -34z
m1227 -10 c-5 -26 -14 -47 -17 -47 -9 0 3 71 14 89 14 21 15 8 3 -42z m93 -7
c5 0 11 12 13 28 4 26 4 25 6 -5 1 -31 1 -32 56 -32 30 0 59 -2 65 -6 5 -3 10
-26 10 -51 0 -40 -2 -44 -25 -44 -21 0 -25 5 -25 30 0 17 -4 30 -10 30 -5 0
-10 -13 -10 -30 0 -16 -4 -30 -10 -30 -5 0 -10 11 -10 25 0 22 -4 25 -35 25
-42 0 -56 24 -46 80 5 33 6 33 9 8 2 -16 7 -28 12 -28z m-1365 30 c3 -5 1 -10
-4 -10 -6 0 -11 5 -11 10 0 6 2 10 4 10 3 0 8 -4 11 -10z m1176 -23 c-10 -9
-11 -8 -5 6 3 10 9 15 12 12 3 -3 0 -11 -7 -18z m-3231 -67 c0 -43 -3 -50 -20
-50 -17 0 -20 7 -20 43 0 46 5 57 27 57 9 0 13 -15 13 -50z m50 0 c0 -38 -4
-50 -15 -50 -11 0 -15 12 -15 50 0 38 4 50 15 50 11 0 15 -12 15 -50z m50 0
c0 -38 -4 -50 -15 -50 -11 0 -15 12 -15 50 0 38 4 50 15 50 11 0 15 -12 15
-50z m58 -3 c3 -42 1 -47 -17 -47 -18 0 -21 6 -21 51 0 43 3 50 18 47 13 -2
18 -15 20 -51z m52 3 c0 -43 -3 -50 -20 -50 -17 0 -20 7 -20 50 0 43 3 50 20
50 17 0 20 -7 20 -50z m50 0 c0 -38 -4 -50 -15 -50 -11 0 -15 12 -15 50 0 38
4 50 15 50 11 0 15 -12 15 -50z m50 0 c0 -38 -4 -50 -15 -50 -11 0 -15 12 -15
50 0 38 4 50 15 50 11 0 15 -12 15 -50z m58 -3 c3 -42 1 -47 -17 -47 -18 0
-21 6 -21 51 0 43 3 50 18 47 13 -2 18 -15 20 -51z m52 3 c0 -43 -3 -50 -20
-50 -17 0 -20 7 -20 50 0 43 3 50 20 50 17 0 20 -7 20 -50z m50 0 c0 -43 -3
-50 -20 -50 -17 0 -20 7 -20 43 0 46 5 57 27 57 9 0 13 -15 13 -50z m50 0 c0
-38 -4 -50 -15 -50 -11 0 -15 12 -15 50 0 38 4 50 15 50 11 0 15 -12 15 -50z
m120 0 l0 -50 -50 0 -50 0 0 50 0 50 50 0 50 0 0 -50z m60 0 c0 -47 -2 -50
-25 -50 -23 0 -25 4 -25 43 0 48 5 57 32 57 15 0 18 -8 18 -50z m68 -2 c3 -46
2 -48 -22 -48 -24 0 -26 3 -26 51 0 47 2 50 23 47 19 -3 22 -10 25 -50z m592
25 c0 -32 29 -56 51 -42 23 14 29 11 44 -23 l13 -33 7 30 c4 17 8 35 10 41 4
13 70 23 85 14 7 -4 6 -35 0 -91 -14 -118 -18 -129 -39 -129 -11 0 -21 -5 -23
-10 -5 -17 -45 -19 -65 -5 -10 9 -13 14 -5 15 6 0 12 4 12 9 0 6 -12 9 -27 8
-45 -3 -42 29 4 41 l38 11 -40 -5 -40 -5 -15 48 c-16 48 -16 48 -63 51 -45 3
-47 4 -49 35 l-1 32 -4 -32 c-5 -39 -23 -44 -23 -7 0 23 -3 26 -30 22 -25 -4
-30 -1 -30 15 0 11 3 18 6 15 3 -4 16 -1 28 6 13 6 53 13 90 14 l66 3 0 -28z
m584 12 c3 -8 15 -14 27 -12 24 2 33 -11 20 -32 -7 -11 -13 -10 -35 4 -14 9
-24 21 -21 25 3 5 -3 13 -12 19 -16 9 -16 10 -2 11 9 0 19 -7 23 -15z m1686
-35 c0 -47 -2 -50 -25 -50 -23 0 -25 3 -25 50 0 47 2 50 25 50 23 0 25 -3 25
-50z m70 0 c0 -47 -2 -50 -25 -50 -23 0 -25 3 -25 50 0 47 2 50 25 50 23 0 25
-3 25 -50z m68 -2 c3 -46 2 -48 -22 -48 -24 0 -26 3 -26 51 0 47 2 50 23 47
19 -3 22 -10 25 -50z"/>
<path d="M1663 2543 c9 -2 25 -2 35 0 9 3 1 5 -18 5 -19 0 -27 -2 -17 -5z"/>
<path d="M1980 750 c0 -5 7 -10 15 -10 8 0 15 5 15 10 0 6 -7 10 -15 10 -8 0
-15 -4 -15 -10z"/>
<path d="M998 1033 c7 -3 16 -2 19 1 4 3 -2 6 -13 5 -11 0 -14 -3 -6 -6z"/>
</g>
</svg>
