<?xml version="1.0" encoding="utf-8"?>
<!-- Generator: Adobe Illustrator 26.1.0, SVG Export Plug-In . SVG Version: 6.00 Build 0)  -->
<svg version="1.1" id="Layer_1" xmlns="http://www.w3.org/2000/svg" xmlns:xlink="http://www.w3.org/1999/xlink" x="0px" y="0px"
	 viewBox="0 0 22.1 13.8" style="enable-background:new 0 0 22.1 13.8;" xml:space="preserve">
<style type="text/css">
	.st0{fill:none;stroke:#000000;stroke-width:0.4659;stroke-linecap:round;stroke-linejoin:round;stroke-miterlimit:500;}
</style>
<line class="st0" x1="5.8" y1="3.4" x2="2" y2="9.7"/>
<line class="st0" x1="2.8" y1="9.2" x2="5.8" y2="4.2"/>
<line class="st0" x1="5.8" y1="8" x2="5.8" y2="5.4"/>
<line class="st0" x1="0.7" y1="11.1" x2="0.7" y2="2.8"/>
<line class="st0" x1="21.4" y1="2.8" x2="21.4" y2="11.1"/>
<line class="st0" x1="5.8" y1="4.2" x2="8.8" y2="9.2"/>
<line class="st0" x1="9.5" y1="9.7" x2="5.8" y2="3.4"/>
<line class="st0" x1="19.4" y1="13.2" x2="2.7" y2="13.2"/>
<line class="st0" x1="2" y1="9.7" x2="9.5" y2="9.7"/>
<line class="st0" x1="8.8" y1="9.2" x2="2.8" y2="9.2"/>
<line class="st0" x1="2.7" y1="0.7" x2="19.4" y2="0.7"/>
<path class="st0" d="M0.8,11.8c0,0.1,0,0.1,0.1,0.2"/>
<path class="st0" d="M0.7,11.4c0,0.1,0,0.2,0.1,0.3"/>
<path class="st0" d="M0.7,11.1c0,0.1,0,0.2,0,0.3"/>
<path class="st0" d="M2.5,13.2c0.1,0,0.2,0,0.2,0"/>
<path class="st0" d="M1,12.2c0,0,0.1,0.1,0.1,0.2"/>
<path class="st0" d="M0.9,12c0,0.1,0,0.1,0.1,0.2"/>
<path class="st0" d="M19.8,13.1c0.1,0,0.1,0,0.2,0"/>
<path class="st0" d="M19.4,13.2c0.1,0,0.2,0,0.3,0"/>
<path class="st0" d="M0.7,2.6c0,0.1,0,0.1,0,0.2"/>
<path class="st0" d="M0.8,2.2c0.1-0.4,0,0.1,0.1-0.2C1.1,1.5,0.7,2.2,1,1.6c0.4-0.5-0.1,0.1,0.2-0.3C1.7,0.9,1,1.4,1.5,1.1
	S1.3,1.2,1.8,0.9c0.6-0.2-0.2,0,0.4-0.1s-0.2,0,0.4,0"/>
<path class="st0" d="M19.4,0.7c0.6,0-0.2,0,0.4,0c0.6,0.2-0.2-0.1,0.4,0.1C20.7,1.1,20,0.7,20.5,1c0.5,0.4-0.1-0.1,0.3,0.2
	C21.2,1.7,20.7,1,21,1.5c0.4,0.7,0,0,0.3,0.5c0.2,0.6,0-0.2,0.1,0.4s0-0.2,0,0.4"/>
<path class="st0" d="M21.4,11.1c0,0.6,0-0.2,0,0.4c-0.2,0.6,0.1-0.2-0.1,0.4c-0.3,0.5,0.1-0.2-0.2,0.3c-0.4,0.5,0.1-0.1-0.2,0.3
	c-0.5,0.4,0.2-0.1-0.3,0.2s0.2-0.1-0.3,0.2l0,0"/>
<path class="st0" d="M2.4,13.1C2.2,13.1,2.5,13.1,2.4,13.1C1.7,13,2.5,13.2,1.9,13c-0.5-0.3,0.2,0.1-0.3-0.2c-0.1-0.1,0,0,0,0"/>
<path class="st0" d="M5.8,8.6L5.8,8.6L5.8,8.6L5.8,8.6L5.8,8.6L5.8,8.6C5.8,8.7,5.8,8.6,5.8,8.6c0.1,0.1,0,0.1,0,0.1l0,0l0,0l0,0
	l0,0l0,0l0,0l0,0l0,0l0,0l0,0l0,0l0,0l0,0l0,0l0,0l0,0l0,0l0,0l0,0l0,0l0,0l0,0"/>
<line class="st0" x1="0.5" y1="2.8" x2="0.5" y2="11.1"/>
<line class="st0" x1="0.7" y1="2.8" x2="0.7" y2="11.1"/>
<line class="st0" x1="21.4" y1="11.1" x2="21.4" y2="2.8"/>
<line class="st0" x1="21.6" y1="11.1" x2="21.6" y2="2.8"/>
<line class="st0" x1="2.7" y1="13.4" x2="19.4" y2="13.4"/>
<line class="st0" x1="2.7" y1="13.2" x2="19.4" y2="13.2"/>
<line class="st0" x1="19.4" y1="0.7" x2="2.7" y2="0.7"/>
<line class="st0" x1="19.4" y1="0.5" x2="2.7" y2="0.5"/>
<path class="st0" d="M0.5,11.1c0,1.2,1,2.2,2.2,2.2"/>
<path class="st0" d="M0.7,11.1c0,1.1,0.9,2,2,2"/>
<path class="st0" d="M19.4,13.4c1.2,0,2.2-1,2.2-2.2"/>
<path class="st0" d="M19.4,13.2c1.1,0,2-0.9,2-2"/>
<path class="st0" d="M2.7,0.5c-1.2,0-2.2,1-2.2,2.2"/>
<path class="st0" d="M21.6,2.8c0-1.2-1-2.2-2.2-2.2"/>
<path class="st0" d="M2.7,0.7c-1.1,0-2,0.9-2,2"/>
<path class="st0" d="M21.4,2.8c0-1.1-0.9-2-2-2"/>
<g>
	<path d="M9.8,8.1V4.6h1.1c0.6,0,1.1,0.1,1.4,0.4c0.3,0.3,0.5,0.7,0.5,1.3c0,0.5-0.2,1-0.5,1.3c-0.3,0.3-0.8,0.5-1.4,0.5H9.8z
		 M10.4,5.1v2.5h0.5c0.4,0,0.7-0.1,0.9-0.3C12,7,12.1,6.7,12.1,6.3c0-0.4-0.1-0.7-0.3-0.9c-0.2-0.2-0.5-0.3-0.9-0.3H10.4z"/>
	<path d="M14.9,8.2c-0.5,0-0.9-0.2-1.2-0.5c-0.3-0.3-0.5-0.8-0.5-1.3c0-0.6,0.2-1,0.5-1.3s0.7-0.5,1.3-0.5c0.5,0,0.9,0.2,1.2,0.5
		c0.3,0.3,0.5,0.8,0.5,1.3c0,0.6-0.2,1-0.5,1.3C15.8,8,15.4,8.2,14.9,8.2z M14.9,7.6c0.3,0,0.6-0.1,0.8-0.3C15.9,7.1,16,6.8,16,6.4
		c0-0.4-0.1-0.7-0.3-1c-0.2-0.2-0.4-0.3-0.8-0.3c-0.3,0-0.6,0.1-0.8,0.4c-0.2,0.2-0.3,0.5-0.3,0.9c0,0.4,0.1,0.7,0.3,0.9
		C14.3,7.5,14.6,7.6,14.9,7.6z"/>
	<path d="M18.7,8.2c-0.5,0-0.9-0.2-1.2-0.5C17.2,7.4,17,6.9,17,6.4c0-0.6,0.2-1,0.5-1.3s0.7-0.5,1.3-0.5c0.5,0,0.9,0.2,1.2,0.5
		c0.3,0.3,0.5,0.8,0.5,1.3c0,0.6-0.2,1-0.5,1.3C19.6,8,19.2,8.2,18.7,8.2z M18.7,7.6c0.3,0,0.6-0.1,0.8-0.3c0.2-0.2,0.3-0.5,0.3-0.9
		c0-0.4-0.1-0.7-0.3-1c-0.2-0.2-0.4-0.3-0.8-0.3c-0.3,0-0.6,0.1-0.8,0.4c-0.2,0.2-0.3,0.5-0.3,0.9c0,0.4,0.1,0.7,0.3,0.9
		C18.2,7.5,18.4,7.6,18.7,7.6z"/>
</g>
</svg>
