<?xml version="1.0" encoding="utf-8"?>
<!-- Generator: Adobe Illustrator 26.1.0, SVG Export Plug-In . SVG Version: 6.00 Build 0)  -->
<svg version="1.1" id="Layer_1" xmlns="http://www.w3.org/2000/svg" xmlns:xlink="http://www.w3.org/1999/xlink" x="0px" y="0px"
	 viewBox="0 0 22.1 13.8" style="enable-background:new 0 0 22.1 13.8;" xml:space="preserve">
<style type="text/css">
	.st0{fill:#ED1E24;}
	.st1{fill:none;stroke:#000000;stroke-width:0.4659;stroke-linecap:round;stroke-linejoin:round;stroke-miterlimit:500;}
</style>
<g id="XMLID_00000020374440807180840240000001711533289089708982_">
	<g>
		<path class="st0" d="M0.8,11.7c-0.1-0.2-0.1-0.4-0.1-0.6c0,0.1,0,0.2,0,0.3C0.7,11.5,0.7,11.6,0.8,11.7z M1.5,1.1
			c-0.1,0-0.1,0.1-0.1,0.1c0,0,0,0,0,0c0,0,0,0,0,0c0,0,0,0,0,0c0,0-0.1,0.1-0.1,0.1C1.1,1.4,1.1,1.4,1.1,1.4c0,0,0,0,0,0
			c0,0,0,0.1-0.1,0.2C0.9,1.8,0.9,1.9,0.9,1.9C1,1.6,1.2,1.3,1.5,1.1z M1.7,1C1.7,1,1.6,1,1.7,1C1.6,1,1.6,1,1.6,1
			C1.6,1,1.6,1,1.7,1C1.7,1,1.7,1,1.7,1C1.7,1,1.7,1,1.7,1C1.7,1,1.7,1,1.7,1z M2,0.8L2,0.8C2,0.8,2,0.8,2,0.8c-0.1,0-0.1,0-0.1,0
			c0,0-0.1,0-0.1,0c0,0,0,0,0,0c0.1,0,0.1-0.1,0.2-0.1C2,0.9,2,0.8,2,0.8C2,0.8,2,0.8,2,0.8z M2.1,13.1C2,13.1,2.2,13.1,2.1,13.1
			L2.1,13.1z M20.8,12.6C20.8,12.6,20.8,12.6,20.8,12.6C20.8,12.6,20.8,12.6,20.8,12.6C20.8,12.6,20.8,12.6,20.8,12.6L20.8,12.6
			C20.8,12.6,20.8,12.6,20.8,12.6C20.8,12.6,20.8,12.6,20.8,12.6z M21.2,12L21.2,12c-0.3,0.5-0.7,0.9-1.2,1.1
			c-0.2,0.1-0.4,0.1-0.6,0.1H2.7c0,0-0.1,0-0.2,0v0.1c-1.1-0.1-2-1.1-2-2.2V2.8V2.7c0-1.2,1-2.2,2.2-2.2h16.7v0.1
			c0.3,0,0.6,0.1,0.8,0.2l0,0c0.1,0.1,0.2,0.1,0.2,0.1l-0.1,0c0,0,0.1,0,0.2,0.1c0.1,0.1,0.2,0.1,0.2,0.1c0,0,0,0,0,0
			c0,0,0.1,0,0.1,0.1c0,0,0.1,0.1,0.1,0.1c0,0,0,0,0,0c0,0,0,0,0,0c0,0,0,0,0,0c0,0,0,0.1,0.1,0.1c0.1,0.2,0.2,0.3,0.2,0.3
			c0,0,0,0,0,0c0,0,0,0.1,0.1,0.2c0,0.1,0.1,0.2,0.1,0.2c0,0,0,0,0,0s0,0,0,0c0,0,0,0,0,0c0,0,0,0.1,0,0.2c0,0.1,0,0.1,0,0.2
			c0,0,0,0,0,0.2v8.3c0,0,0,0.1,0,0.1c0,0,0,0,0,0.1c0,0.1,0,0.2,0,0.3c0,0,0,0.1,0,0.1C21.3,11.8,21.3,11.9,21.2,12
			C21.2,12,21.2,12,21.2,12C21.2,12,21.2,12,21.2,12L21.2,12z"/>
		<path class="st0" d="M21.4,11.3c0,0,0,0.1,0,0.2c0,0,0,0.1,0,0.1C21.4,11.5,21.4,11.4,21.4,11.3L21.4,11.3z"/>
		<path class="st0" d="M21.4,2.2C21.4,2.2,21.4,2.2,21.4,2.2C21.4,2.2,21.4,2.2,21.4,2.2z"/>
		<path class="st0" d="M21.4,2.2C21.4,2.2,21.4,2.2,21.4,2.2C21.4,2.2,21.4,2.2,21.4,2.2C21.4,2.2,21.4,2.2,21.4,2.2z"/>
		<path class="st0" d="M21.3,11.7c-0.1,0.2,0.1-0.3,0,0.2c0,0,0,0.1-0.1,0.1C21.3,11.9,21.3,11.8,21.3,11.7z"/>
		<path class="st0" d="M21.2,12C21.2,12,21.2,12,21.2,12C21.2,12,21.2,12,21.2,12C21.2,12,21.2,12,21.2,12z"/>
		<path class="st0" d="M21.2,12C21.2,12,21.2,12,21.2,12C21.2,12.1,21.2,12.1,21.2,12L21.2,12L21.2,12z"/>
		<path class="st0" d="M21.2,1.8C21.2,1.8,21.2,1.8,21.2,1.8C21.2,1.8,21.2,1.8,21.2,1.8z"/>
		<path class="st0" d="M21,1.4C21,1.4,20.9,1.4,21,1.4C20.9,1.4,20.9,1.4,21,1.4C20.9,1.3,20.9,1.3,21,1.4C20.9,1.4,21,1.4,21,1.4z"
			/>
		<path class="st0" d="M20.9,1.3C20.9,1.3,20.9,1.3,20.9,1.3C20.9,1.3,20.9,1.3,20.9,1.3C20.9,1.3,20.9,1.3,20.9,1.3z"/>
		<path class="st0" d="M20.8,12.6C20.8,12.6,20.8,12.6,20.8,12.6C20.8,12.6,20.8,12.6,20.8,12.6z"/>
		<path class="st0" d="M20.8,12.6C20.8,12.6,20.8,12.6,20.8,12.6L20.8,12.6C20.8,12.6,20.8,12.6,20.8,12.6
			C20.8,12.6,20.8,12.6,20.8,12.6z"/>
		<path class="st0" d="M2.1,13.1C2.2,13.1,2,13.1,2.1,13.1L2.1,13.1z"/>
		<path class="st0" d="M2,0.8L2,0.8C2,0.8,2,0.8,2,0.8C2,0.8,2,0.8,2,0.8C2,0.8,2,0.8,2,0.8z"/>
		<path class="st0" d="M2,0.8C2,0.8,2,0.9,2,0.8C1.9,0.9,2,0.8,2,0.8C2,0.8,2,0.8,2,0.8z"/>
		<path class="st0" d="M1.9,0.9c-0.1,0-0.1,0.1-0.2,0.1c0,0,0,0,0,0C1.9,0.9,1.9,0.9,1.9,0.9z"/>
		<path class="st0" d="M1.7,1C1.7,1,1.7,1,1.7,1C1.7,1,1.7,1,1.7,1C1.6,1,1.6,1,1.7,1C1.6,1,1.7,1,1.7,1z"/>
		<path class="st0" d="M1.7,1C1.7,1,1.7,1,1.7,1L1.7,1C1.7,1,1.7,1,1.7,1z"/>
		<path class="st0" d="M1.6,1L1.6,1C1.7,1,1.7,1,1.6,1z"/>
		<path class="st0" d="M1.6,1C1.6,1,1.6,1,1.6,1C1.6,1,1.6,1,1.6,1C1.6,1,1.6,1,1.6,1z"/>
		<path class="st0" d="M1.1,1.4C1.1,1.4,1.1,1.4,1.1,1.4c0,0,0,0,0.1-0.1c0,0,0.1-0.1,0.1-0.1c0,0,0,0,0,0h0c0,0,0,0,0,0
			c0,0,0.1,0,0.1-0.1C1.2,1.3,1,1.6,0.9,1.9c0,0,0-0.1,0.1-0.3C1.1,1.5,1.1,1.4,1.1,1.4z"/>
		<path class="st0" d="M1.4,1.1C1.4,1.1,1.4,1.2,1.4,1.1C1.3,1.2,1.3,1.2,1.4,1.1L1.4,1.1C1.4,1.2,1.4,1.1,1.4,1.1z"/>
		<path class="st0" d="M1.3,1.2C1.3,1.2,1.3,1.2,1.3,1.2C1.3,1.2,1.3,1.2,1.3,1.2z"/>
		<path class="st0" d="M0.7,11.1c0,0.2,0,0.4,0.1,0.6c-0.1-0.1-0.1-0.2-0.1-0.3C0.7,11.3,0.7,11.2,0.7,11.1z"/>
	</g>
	<g>
		<path class="st1" d="M0.8,11.8c0,0.1,0,0.1,0.1,0.2"/>
		<path class="st1" d="M0.7,11.4c0,0.1,0,0.2,0.1,0.3"/>
		<path class="st1" d="M0.7,11.1c0,0.1,0,0.2,0,0.3"/>
		<path class="st1" d="M2.5,13.2c0.1,0,0.2,0,0.2,0"/>
		<path class="st1" d="M1,12.2c0,0,0.1,0.1,0.1,0.2"/>
		<path class="st1" d="M0.9,12c0,0.1,0,0.1,0.1,0.2"/>
		<path class="st1" d="M19.8,13.1c0.1,0,0.1,0,0.2,0"/>
		<path class="st1" d="M19.4,13.2c0.1,0,0.2,0,0.3,0"/>
		<path class="st1" d="M0.7,2.7C0.7,2.7,0.7,2.8,0.7,2.7"/>
		<path class="st1" d="M2.4,0.8c0,0,0.1,0,0.2,0"/>
		<path class="st1" d="M2,0.8c0,0,0.1,0,0.2,0s0.1,0,0.2,0c0,0,0.1,0,0.1,0"/>
		<path class="st1" d="M2,0.8C2,0.8,2,0.8,2,0.8"/>
		<path class="st1" d="M2,0.8C2,0.8,2,0.8,2,0.8"/>
		<path class="st1" d="M1.8,0.9C1.8,0.9,1.8,0.9,1.8,0.9c0.1-0.1,0.1-0.1,0.2-0.1c0,0,0.1,0,0.1,0c0,0,0,0,0,0"/>
		<path class="st1" d="M1.6,1C1.6,1,1.7,1,1.6,1"/>
		<line class="st1" x1="1.7" y1="1" x2="1.6" y2="1"/>
		<path class="st1" d="M1.6,1C1.6,1,1.6,1,1.6,1C1.7,1,1.7,1,1.6,1C1.7,1,1.7,1,1.7,1"/>
		<path class="st1" d="M1.4,1.2c0,0,0.1,0,0.1-0.1"/>
		<path class="st1" d="M1.4,1.1C1.4,1.1,1.4,1.2,1.4,1.1C1.3,1.2,1.3,1.2,1.4,1.1"/>
		<path class="st1" d="M1.1,1.5L1.1,1.5c0,0,0-0.1,0.1-0.2c0,0,0.1-0.1,0.1-0.1c0,0,0,0,0,0h0c0,0,0,0,0,0c0,0,0,0,0,0c0,0,0,0,0,0"
			/>
		<path class="st1" d="M1.2,1.4C1.2,1.4,1.2,1.4,1.2,1.4C1.1,1.4,1.1,1.4,1.2,1.4"/>
		<path class="st1" d="M0.8,2.2c0.1-0.4,0,0.1,0.1-0.2c0.1-0.3,0-0.1,0-0.1s0-0.1,0.1-0.3c0.1-0.1,0.1-0.2,0.1-0.2"/>
		<path class="st1" d="M21.4,2.6C21.4,2.6,21.4,2.6,21.4,2.6c0-0.1,0,0,0,0.2"/>
		<path class="st1" d="M21.4,2.2c0,0,0,0.1,0,0.2c0,0.1,0,0.1,0,0.2"/>
		<path class="st1" d="M21.2,1.8C21.2,1.8,21.2,1.8,21.2,1.8C21.2,1.8,21.2,1.8,21.2,1.8c0,0,0,0.1,0.1,0.2c0,0.1,0.1,0.2,0.1,0.2
			c0,0,0,0,0,0s0,0,0,0c0,0,0,0,0,0c0,0,0,0,0,0c0,0,0,0,0,0c0,0,0,0,0,0"/>
		<path class="st1" d="M20.9,1.4c0,0,0,0.1,0.1,0.1c0.1,0.2,0.2,0.3,0.2,0.3"/>
		<path class="st1" d="M20.9,1.3C20.9,1.3,20.9,1.3,20.9,1.3C20.9,1.3,20.9,1.3,20.9,1.3"/>
		<path class="st1" d="M21,1.4C21,1.4,21,1.4,21,1.4C21,1.4,20.9,1.4,21,1.4"/>
		<path class="st1" d="M20.6,1.1L20.6,1.1c0,0,0.1,0,0.1,0.1c0,0,0.1,0.1,0.1,0.1c0,0,0,0,0,0c0,0,0,0,0,0c0,0,0,0,0,0c0,0,0,0,0,0"
			/>
		<path class="st1" d="M20.7,1.1C20.7,1.1,20.7,1.1,20.7,1.1"/>
		<path class="st1" d="M20.3,0.9c0,0,0.1,0,0.2,0.1c0.1,0.1,0.2,0.1,0.2,0.1c0,0,0,0,0,0"/>
		<polyline class="st1" points="20.4,0.9 20.4,0.9 20.3,0.9 20.3,0.9 		"/>
		<path class="st1" d="M19.4,0.7c0.2,0,0.2,0,0.2,0c0,0,0.1,0,0.2,0c0.6,0.2-0.2-0.1,0.4,0.1c0.1,0.1,0.2,0.1,0.2,0.1"/>
		<path class="st1" d="M20.5,12.8C20.5,12.8,20.5,12.8,20.5,12.8c0,0-0.1,0.1-0.2,0.1"/>
		<polyline class="st1" points="20.4,12.8 20.4,12.8 20.5,12.8 		"/>
		<path class="st1" d="M20.8,12.6c0,0-0.1,0-0.1,0.1c-0.1,0.1-0.2,0.1-0.2,0.1"/>
		<path class="st1" d="M20.8,12.6C20.8,12.6,20.8,12.6,20.8,12.6"/>
		<path class="st1" d="M20.8,12.6C20.8,12.6,20.8,12.6,20.8,12.6"/>
		<path class="st1" d="M21,12.4c0,0,0,0.1-0.1,0.1c0,0-0.1,0.1-0.1,0.1c0,0,0,0,0,0c0,0,0,0,0,0c0,0,0,0,0,0v0c0,0,0,0,0,0"/>
		<path class="st1" d="M20.9,12.4C20.9,12.4,20.9,12.4,20.9,12.4C21,12.4,21,12.4,20.9,12.4C21,12.4,21,12.4,20.9,12.4"/>
		<path class="st1" d="M21.2,12c0,0,0,0.1-0.1,0.2C21,12.3,21,12.4,21,12.4"/>
		<polyline class="st1" points="21.2,12.1 21.2,12 21.2,12 		"/>
		<path class="st1" d="M21.2,12.1C21.2,12.1,21.2,12.1,21.2,12.1"/>
		<path class="st1" d="M21.2,12C21.2,12,21.2,12,21.2,12"/>
		<path class="st1" d="M21.3,11.7c-0.1,0.2,0.1-0.3,0,0.2c0,0,0,0.1-0.1,0.1"/>
		<path class="st1" d="M21.4,11.6c0,0,0-0.1,0-0.1c0-0.1,0-0.1,0-0.2v-0.1"/>
		<path class="st1" d="M21.4,11.1C21.4,11.1,21.4,11.2,21.4,11.1"/>
		<path class="st1" d="M1.8,12.9c0,0-0.1,0-0.2-0.1l0,0"/>
		<polyline class="st1" points="1.7,12.9 1.7,12.9 1.8,12.9 1.8,12.9 		"/>
		<path class="st1" d="M2.1,13.1c0,0-0.1,0-0.2-0.1c-0.1-0.1-0.2-0.1-0.2-0.1"/>
		<path class="st1" d="M2.1,13.1C2,13.1,2.2,13.1,2.1,13.1L2.1,13.1z"/>
		<path class="st1" d="M2.4,13.1c-0.2,0-0.2,0-0.3,0"/>
		<polyline class="st1" points="2.3,13.1 2.4,13.1 2.4,13.1 		"/>
		<line class="st1" x1="0.5" y1="2.8" x2="0.5" y2="11.1"/>
		<line class="st1" x1="0.7" y1="2.8" x2="0.7" y2="11.1"/>
		<line class="st1" x1="21.4" y1="11.1" x2="21.4" y2="2.8"/>
		<line class="st1" x1="21.6" y1="11.1" x2="21.6" y2="2.8"/>
		<line class="st1" x1="2.7" y1="13.4" x2="19.4" y2="13.4"/>
		<line class="st1" x1="2.7" y1="13.2" x2="19.4" y2="13.2"/>
		<line class="st1" x1="19.4" y1="0.7" x2="2.7" y2="0.7"/>
		<line class="st1" x1="19.4" y1="0.5" x2="2.7" y2="0.5"/>
		<path class="st1" d="M0.5,11.1c0,1.1,0.9,2.1,2,2.2c0.1,0,0.1,0,0.2,0"/>
		<path class="st1" d="M0.7,11.1c0,0.2,0,0.4,0.1,0.6c0,0,0,0,0,0c0.2,0.8,1,1.4,1.9,1.4"/>
		<path class="st1" d="M19.4,13.4c1.2,0,2.2-1,2.2-2.2"/>
		<path class="st1" d="M19.4,13.2c0.2,0,0.4,0,0.6-0.1c0.5-0.2,1-0.5,1.2-1c0,0,0,0,0,0c0,0,0,0,0,0c0,0,0,0,0,0c0,0,0,0,0,0
			c0-0.1,0.1-0.2,0.1-0.3c0,0,0-0.1,0-0.1c0-0.1,0-0.2,0-0.3c0,0,0,0,0-0.1"/>
		<path class="st1" d="M2.7,0.5c-1.2,0-2.2,1-2.2,2.2"/>
		<path class="st1" d="M21.6,2.8c0-0.9-0.6-1.7-1.4-2c-0.2-0.1-0.5-0.2-0.8-0.2"/>
		<path class="st1" d="M2.7,0.7c-0.2,0-0.5,0-0.7,0.1v0c0,0,0,0,0,0s0,0-0.1,0c-0.1,0-0.1,0.1-0.2,0.1c0,0,0,0,0,0c0,0,0,0,0,0
			c0,0,0,0-0.1,0c0,0,0,0,0,0c0,0,0,0,0,0c0,0-0.1,0-0.1,0.1C1.2,1.3,1,1.6,0.9,1.9C0.8,2.1,0.7,2.3,0.7,2.6c0,0,0,0.1,0,0.1"/>
		<path class="st1" d="M21.4,2.8c0-1.1-0.9-2-2-2"/>
	</g>
</g>
<g id="XMLID_00000009578333619862225440000008841773969233727399_">
	<g>
	</g>
	<g>
		<line class="st1" x1="5.8" y1="3.4" x2="2" y2="9.7"/>
		<line class="st1" x1="2.8" y1="9.2" x2="5.8" y2="4.2"/>
		<line class="st1" x1="5.8" y1="8" x2="5.8" y2="5.4"/>
		<line class="st1" x1="5.8" y1="4.2" x2="8.8" y2="9.2"/>
		<line class="st1" x1="9.5" y1="9.7" x2="5.8" y2="3.4"/>
		<line class="st1" x1="2" y1="9.7" x2="9.5" y2="9.7"/>
		<line class="st1" x1="8.8" y1="9.2" x2="2.8" y2="9.2"/>
		<path class="st1" d="M5.8,8.6C5.9,8.7,5.8,8.7,5.8,8.6"/>
		<path class="st1" d="M5.8,8.6C5.8,8.6,5.8,8.6,5.8,8.6"/>
	</g>
</g>
<g>
	<path d="M9.8,8.1V4.6h1.1c0.6,0,1.1,0.1,1.4,0.4c0.3,0.3,0.5,0.7,0.5,1.3c0,0.5-0.2,1-0.5,1.3s-0.8,0.5-1.4,0.5H9.8z M10.4,5.1v2.5
		h0.5c0.4,0,0.7-0.1,0.9-0.3c0.2-0.3,0.3-0.6,0.3-1c0-0.4-0.1-0.7-0.3-0.9c-0.2-0.2-0.5-0.3-0.9-0.3H10.4z"/>
	<path d="M14.9,8.2c-0.5,0-0.9-0.2-1.2-0.5s-0.5-0.8-0.5-1.3c0-0.6,0.2-1,0.5-1.3s0.7-0.5,1.3-0.5c0.5,0,0.9,0.2,1.2,0.5
		c0.3,0.3,0.5,0.8,0.5,1.3c0,0.6-0.2,1-0.5,1.3C15.8,8,15.4,8.2,14.9,8.2z M14.9,7.6c0.3,0,0.6-0.1,0.8-0.3C15.9,7.1,16,6.8,16,6.4
		s-0.1-0.7-0.3-1c-0.2-0.2-0.4-0.3-0.8-0.3c-0.3,0-0.6,0.1-0.8,0.4c-0.2,0.2-0.3,0.5-0.3,0.9s0.1,0.7,0.3,0.9
		C14.3,7.5,14.6,7.6,14.9,7.6z"/>
	<path d="M18.7,8.2c-0.5,0-0.9-0.2-1.2-0.5C17.2,7.4,17,6.9,17,6.4c0-0.6,0.2-1,0.5-1.3s0.7-0.5,1.3-0.5c0.5,0,0.9,0.2,1.2,0.5
		c0.3,0.3,0.5,0.8,0.5,1.3c0,0.6-0.2,1-0.5,1.3C19.6,8,19.2,8.2,18.7,8.2z M18.7,7.6c0.3,0,0.6-0.1,0.8-0.3c0.2-0.2,0.3-0.5,0.3-0.9
		s-0.1-0.7-0.3-1c-0.2-0.2-0.4-0.3-0.8-0.3c-0.3,0-0.6,0.1-0.8,0.4c-0.2,0.2-0.3,0.5-0.3,0.9s0.1,0.7,0.3,0.9
		C18.2,7.5,18.4,7.6,18.7,7.6z"/>
</g>
</svg>
