<?xml version="1.0" encoding="utf-8"?>
<!-- Generator: Adobe Illustrator 26.1.0, SVG Export Plug-In . SVG Version: 6.00 Build 0)  -->
<svg version="1.1" id="Layer_1" xmlns="http://www.w3.org/2000/svg" xmlns:xlink="http://www.w3.org/1999/xlink" x="0px" y="0px"
	 viewBox="0 0 22.4 14.2" style="enable-background:new 0 0 22.4 14.2;" xml:space="preserve">
<style type="text/css">
	.st0{fill:none;stroke:#000000;stroke-width:0.4659;stroke-linecap:round;stroke-linejoin:round;stroke-miterlimit:500;}
	.st1{fill:none;stroke:#000000;stroke-width:0.4659;stroke-linecap:round;stroke-linejoin:round;stroke-miterlimit:10;}
</style>
<line class="st0" x1="0.6" y1="11.2" x2="0.6" y2="2.9"/>
<line class="st0" x1="1.2" y1="11.2" x2="1.2" y2="2.9"/>
<line class="st0" x1="11.2" y1="10.1" x2="15.2" y2="5.3"/>
<line class="st0" x1="21.3" y1="2.9" x2="21.3" y2="11.2"/>
<line class="st0" x1="21.9" y1="2.9" x2="21.9" y2="11.2"/>
<line class="st0" x1="7.3" y1="5.3" x2="11.2" y2="10.1"/>
<line class="st0" x1="19.6" y1="13.6" x2="2.9" y2="13.6"/>
<line class="st0" x1="19.6" y1="13" x2="2.9" y2="13"/>
<line class="st0" x1="15.2" y1="5.3" x2="7.3" y2="5.3"/>
<line class="st0" x1="2.9" y1="1.2" x2="19.6" y2="1.2"/>
<line class="st0" x1="2.9" y1="0.6" x2="19.6" y2="0.6"/>
<path class="st0" d="M0.6,2.9c0.1-0.7,0,0.2,0.1-0.5C0.8,1.8,0.5,2.7,0.8,2C1.1,1.4,0.7,2.2,1,1.6c0.4-0.5-0.2,0.2,0.3-0.4
	C1.8,0.8,1.1,1.4,1.6,1C2.2,0.6,1.4,1.1,2,0.7c0.7-0.2-0.2,0.1,0.4-0.1c0.7-0.1-0.2,0,0.5-0.1"/>
<path class="st0" d="M19.6,0.6c0.7,0.1-0.2,0,0.5,0.1c0.7,0.2-0.2-0.1,0.4,0.1c0.6,0.3-0.2-0.1,0.4,0.2c0.5,0.4-0.2-0.2,0.3,0.3
	c0.4,0.5-0.1-0.2,0.3,0.4c0.3,0.6-0.1-0.2,0.2,0.4c0.2,0.7-0.1-0.2,0.1,0.4c0.1,0.7,0-0.2,0.1,0.5"/>
<path class="st0" d="M21.9,11.2c-0.1,0.7,0-0.2-0.1,0.5c-0.2,0.7,0.1-0.2-0.1,0.4c-0.3,0.6,0.1-0.2-0.2,0.4
	c-0.4,0.5,0.2-0.2-0.3,0.4c-0.5,0.4,0.2-0.1-0.3,0.3c-0.6,0.3,0.2-0.1-0.4,0.2c-0.7,0.2,0.2-0.1-0.4,0.1c-0.7,0.1,0.2,0-0.5,0.1"/>
<path class="st0" d="M2.9,13.6c-0.7-0.1,0.2,0-0.5-0.1c-0.7-0.2,0.2,0.1-0.4-0.1c-0.6-0.3,0.2,0.1-0.4-0.2c-0.5-0.4,0.2,0.2-0.3-0.3
	c-0.4-0.5,0.1,0.2-0.3-0.4c-0.3-0.6,0.1,0.2-0.2-0.4c-0.2-0.7,0.1,0.2-0.1-0.4c-0.1-0.7,0,0.2-0.1-0.5"/>
<path class="st0" d="M1.2,2.9c0-0.5,0,0.2,0-0.4c0.1-0.5-0.1,0.2,0.1-0.3c0.2-0.4-0.1,0.1,0.2-0.3c0.3-0.4-0.1,0.1,0.2-0.3
	C2.1,1.3,1.6,1.8,2,1.5c0.4-0.2-0.2,0.1,0.3-0.2c0.5-0.2-0.2,0,0.3-0.1c0.5-0.1-0.2,0,0.3,0"/>
<path class="st0" d="M19.6,1.2c0.5,0-0.2,0,0.4,0c0.5,0.1-0.2-0.1,0.3,0.1c0.4,0.2-0.1-0.1,0.3,0.2c0.4,0.3-0.1-0.1,0.3,0.2
	C21.1,2,20.7,1.5,21,1.9c0.2,0.4-0.1-0.2,0.2,0.3c0.2,0.5,0-0.2,0.1,0.3c0.1,0.5,0-0.2,0,0.4"/>
<path class="st0" d="M21.3,11.2c0,0.5,0-0.2,0,0.4c-0.1,0.5,0.1-0.2-0.1,0.3c-0.2,0.4,0.1-0.1-0.2,0.3c-0.3,0.4,0.1-0.1-0.2,0.3
	c-0.4,0.3,0.1-0.1-0.3,0.2c-0.4,0.2,0.2-0.1-0.3,0.2c-0.5,0.2,0.2,0-0.3,0.1c-0.5,0.1,0.2,0-0.4,0"/>
<path class="st0" d="M2.9,13c-0.5,0,0.2,0-0.3,0c-0.5-0.1,0.2,0.1-0.3-0.1C1.8,12.6,2.4,13,2,12.7c-0.4-0.3,0.1,0.1-0.3-0.2
	c-0.3-0.4,0.1,0.1-0.2-0.3c-0.3-0.4,0.1,0.2-0.2-0.3c-0.2-0.5,0,0.2-0.1-0.3c-0.1-0.5,0,0.2,0-0.4"/>
<ellipse class="st1" cx="11.3" cy="7.1" rx="5.4" ry="5.4"/>
<path class="st0" d="M20.3,6.1"/>
</svg>
