<?xml version="1.0" encoding="utf-8"?>
<!-- Generator: Adobe Illustrator 26.1.0, SVG Export Plug-In . SVG Version: 6.00 Build 0)  -->
<svg version="1.1" id="Layer_1" xmlns="http://www.w3.org/2000/svg" xmlns:xlink="http://www.w3.org/1999/xlink" x="0px" y="0px"
	 viewBox="0 0 22.4 14.2" style="enable-background:new 0 0 22.4 14.2;" xml:space="preserve">
<style type="text/css">
	.st0{fill:#231F20;}
	.st1{fill:none;stroke:#FFFFFF;stroke-width:0.4659;stroke-linecap:round;stroke-linejoin:round;stroke-miterlimit:500;}
	.st2{fill:#FFFFFF;}
	.st3{fill:none;stroke:#FFFFFF;stroke-width:0.4659;stroke-linecap:round;stroke-linejoin:round;stroke-miterlimit:10;}
</style>
<g id="XMLID_00000065756589979084844180000001335955711666271163_">
	<g>
		<path class="st0" d="M21.6,1.9C21.6,1.9,21.6,1.9,21.6,1.9L21.6,1.9L21.6,1.9z"/>
		<path class="st0" d="M21.6,12.3C21.6,12.3,21.6,12.3,21.6,12.3L21.6,12.3L21.6,12.3z"/>
		<path class="st0" d="M21.6,12.3L21.6,12.3L21.6,12.3C21.6,12.3,21.6,12.3,21.6,12.3z"/>
		<path class="st0" d="M21.6,1.9C21.6,1.9,21.6,1.9,21.6,1.9L21.6,1.9L21.6,1.9L21.6,1.9z"/>
		<path class="st0" d="M21.6,12.3C21.6,12.3,21.6,12.3,21.6,12.3L21.6,12.3L21.6,12.3z"/>
		<path class="st0" d="M21.6,1.9L21.6,1.9C21.6,1.9,21.6,1.9,21.6,1.9L21.6,1.9z"/>
		<path class="st0" d="M21.6,1.9L21.6,1.9C21.6,1.9,21.6,1.9,21.6,1.9L21.6,1.9z"/>
		<path class="st0" d="M21.6,12.3L21.6,12.3C21.6,12.3,21.6,12.3,21.6,12.3C21.6,12.3,21.6,12.3,21.6,12.3z"/>
		<path class="st0" d="M21.4,1.5C21.4,1.5,21.4,1.5,21.4,1.5C21.4,1.5,21.4,1.5,21.4,1.5L21.4,1.5z"/>
		<path class="st0" d="M21.3,1.5L21.3,1.5C21.3,1.5,21.3,1.5,21.3,1.5C21.3,1.5,21.3,1.4,21.3,1.5z"/>
		<path class="st0" d="M21.3,2.3C21.3,2.3,21.3,2.4,21.3,2.3C21.3,2.3,21.3,2.3,21.3,2.3z"/>
		<path class="st0" d="M21.3,11.7C21.3,11.7,21.3,11.7,21.3,11.7C21.3,11.7,21.3,11.8,21.3,11.7C21.3,11.8,21.3,11.8,21.3,11.7z"/>
		<path class="st0" d="M20.7,13.3C20.7,13.3,20.7,13.3,20.7,13.3L20.7,13.3C20.7,13.3,20.7,13.3,20.7,13.3z"/>
		<path class="st0" d="M20.7,0.9C20.7,0.9,20.7,0.9,20.7,0.9L20.7,0.9L20.7,0.9z"/>
		<path class="st0" d="M20.7,0.9L20.7,0.9L20.7,0.9C20.7,0.9,20.7,0.9,20.7,0.9z"/>
		<path class="st0" d="M20.7,13.3C20.7,13.3,20.7,13.3,20.7,13.3L20.7,13.3L20.7,13.3z"/>
		<path class="st0" d="M20.7,13.3L20.7,13.3L20.7,13.3C20.7,13.3,20.7,13.3,20.7,13.3z"/>
		<path class="st0" d="M20.7,0.9L20.7,0.9C20.7,0.9,20.7,0.9,20.7,0.9L20.7,0.9z"/>
		<path class="st0" d="M20.7,0.9L20.7,0.9L20.7,0.9C20.7,0.9,20.7,0.9,20.7,0.9z"/>
		<path class="st0" d="M20.7,13.3C20.7,13.3,20.7,13.3,20.7,13.3L20.7,13.3L20.7,13.3z"/>
		<path class="st0" d="M20.7,12.6L20.7,12.6L20.7,12.6C20.6,12.6,20.6,12.6,20.7,12.6z"/>
		<path class="st0" d="M20.1,1.2C20.1,1.2,20.1,1.2,20.1,1.2C20.2,1.2,20.1,1.2,20.1,1.2z"/>
		<path class="st0" d="M20.1,13C20.1,13,20,13,20.1,13L20.1,13C20,13,20.1,13,20.1,13z"/>
		<path class="st0" d="M2.4,1.2C2.5,1.2,2.5,1.2,2.4,1.2C2.5,1.2,2.4,1.2,2.4,1.2z"/>
		<path class="st0" d="M2.5,13L2.5,13C2.5,13,2.4,13,2.5,13C2.4,13,2.5,13,2.5,13z"/>
		<path class="st0" d="M2.1,12.8C2.1,12.8,2.1,12.8,2.1,12.8C2.1,12.8,2.1,12.8,2.1,12.8C2.1,12.8,2.1,12.8,2.1,12.8z"/>
		<path class="st0" d="M1.8,13.3C1.8,13.3,1.8,13.3,1.8,13.3L1.8,13.3L1.8,13.3z"/>
		<path class="st0" d="M19.9,13c-0.1,0-0.1,0-0.1,0c0,0,0,0-0.1,0c0,0-0.1,0-0.1,0H2.9c0,0-0.1,0-0.1,0c0,0,0,0-0.2,0
			c-0.1,0-0.1,0-0.1,0c0,0-0.1,0-0.2-0.1c-0.1,0-0.1-0.1-0.2-0.1c0,0,0,0,0,0c0,0,0,0,0,0c0,0,0-0.1-0.1-0.1
			c-0.1-0.1-0.1-0.1-0.1-0.1c0,0,0,0,0,0c0,0,0,0,0,0c0,0-0.1,0-0.1-0.1c0-0.1-0.1-0.1-0.1-0.1c0,0,0,0,0,0c0,0,0-0.1-0.1-0.1
			c0,0,0-0.1-0.1-0.1c0,0,0,0,0,0c0,0,0,0,0,0c0,0,0-0.1-0.1-0.2c0-0.1-0.1-0.2-0.1-0.2c0,0,0-0.1,0-0.1c0-0.1,0-0.1,0-0.2
			c0,0,0,0,0-0.2V2.9c0-0.2,0-0.2,0-0.2c0,0,0-0.1,0-0.2c0-0.1,0-0.1,0-0.1c0,0,0-0.1,0.1-0.2c0-0.1,0.1-0.1,0.1-0.1
			c0,0,0,0,0.1-0.2c0-0.1,0.1-0.1,0.1-0.1v0c0,0,0,0,0,0c0,0,0-0.1,0.1-0.1C2.1,1.3,1.6,1.8,2,1.5c0.1,0,0.1,0,0.1-0.1
			c0,0-0.1,0,0.2-0.1c0.1,0,0.2-0.1,0.2-0.1c0,0,0.1,0,0.1,0c0.1,0,0.1,0,0.1,0c0,0,0,0,0.2,0h16.7c0.1,0,0.2,0,0.2,0
			c0,0,0.1,0,0.2,0c0.1,0,0.1,0,0.1,0c0,0,0.1,0,0.2,0.1c0.1,0,0.1,0.1,0.1,0.1c0,0,0,0,0.2,0.1c0.1,0,0.1,0.1,0.1,0.1c0,0,0,0,0,0
			c0,0,0,0,0,0c0,0,0.1,0,0.1,0.1c0.1,0.2,0,0.1,0,0c0,0,0,0,0.1,0.1C21,2,21,2,21.1,2c0,0,0-0.1,0.1,0.2c0,0.1,0.1,0.2,0.1,0.2
			c0,0,0,0.1,0,0.1c0,0.1,0,0.1,0,0.2c0,0,0,0,0,0.2v8.3c0,0.1,0,0.1,0,0.1v0.1c0,0,0,0.1,0,0.2c0,0.1,0,0.1,0,0.1
			c0,0,0,0.1-0.1,0.2c0,0.1-0.1,0.1-0.1,0.1v0c0,0,0,0-0.1,0.2c0,0.1-0.1,0.1-0.1,0.1c0,0,0,0,0,0v0c0,0,0,0.1-0.1,0.1
			c-0.1,0-0.1,0.1-0.1,0.1c0,0,0,0,0,0c0,0,0,0,0,0s0,0,0,0c0,0-0.1,0-0.1,0.1c-0.1,0-0.1,0.1-0.1,0.1c0,0,0.1,0-0.2,0.1
			C20.1,12.9,20,13,20,13C20,13,20,13,19.9,13z"/>
		<path class="st0" d="M1.8,13.3L1.8,13.3L1.8,13.3C1.8,13.3,1.8,13.3,1.8,13.3z"/>
		<path class="st0" d="M1.8,13.3L1.8,13.3C1.8,13.3,1.8,13.3,1.8,13.3L1.8,13.3z"/>
		<path class="st0" d="M1.8,13.3L1.8,13.3L1.8,13.3C1.8,13.3,1.8,13.3,1.8,13.3z"/>
		<path class="st0" d="M1.4,12.1C1.4,12.1,1.4,12.1,1.4,12.1C1.4,12.1,1.4,12.1,1.4,12.1z"/>
		<path class="st0" d="M1.2,2.3C1.2,2.3,1.2,2.3,1.2,2.3C1.2,2.4,1.2,2.3,1.2,2.3z"/>
		<path class="st0" d="M1.2,11.7C1.2,11.8,1.2,11.8,1.2,11.7C1.2,11.8,1.2,11.7,1.2,11.7C1.2,11.7,1.2,11.7,1.2,11.7z"/>
		<path class="st0" d="M1.2,12.8C1.2,12.7,1.2,12.8,1.2,12.8C1.2,12.8,1.2,12.8,1.2,12.8z"/>
		<path class="st0" d="M1.1,12.7C1.1,12.7,1.1,12.7,1.1,12.7C1.1,12.7,1.1,12.7,1.1,12.7z"/>
		<path class="st0" d="M0.9,12.3C0.9,12.3,0.9,12.3,0.9,12.3L0.9,12.3L0.9,12.3z"/>
		<path class="st0" d="M0.9,1.8L0.9,1.8C0.9,1.8,0.9,1.8,0.9,1.8L0.9,1.8z"/>
		<path class="st0" d="M0.9,12.3C0.9,12.3,0.9,12.3,0.9,12.3C0.9,12.3,0.9,12.3,0.9,12.3L0.9,12.3z"/>
		<path class="st0" d="M0.9,1.8L0.9,1.8L0.9,1.8C0.9,1.8,0.9,1.8,0.9,1.8z"/>
		<path class="st0" d="M0.9,1.8C0.9,1.8,0.9,1.8,0.9,1.8L0.9,1.8L0.9,1.8z"/>
		<path class="st0" d="M0.9,12.3C0.9,12.3,0.9,12.3,0.9,12.3L0.9,12.3L0.9,12.3z"/>
		<path class="st0" d="M0.9,12.3C0.9,12.3,0.9,12.3,0.9,12.3L0.9,12.3C0.9,12.3,0.9,12.3,0.9,12.3L0.9,12.3z"/>
		<path class="st0" d="M0.9,1.8L0.9,1.8C0.9,1.8,0.9,1.8,0.9,1.8C0.9,1.8,0.9,1.8,0.9,1.8z"/>
		<path class="st0" d="M0.9,12.3L0.9,12.3C0.9,12.3,0.9,12.3,0.9,12.3L0.9,12.3z"/>
		<path class="st0" d="M0.8,11.9C0.8,11.9,0.8,11.9,0.8,11.9L0.8,11.9z"/>
		<path class="st0" d="M0.7,2.2C0.7,2.2,0.7,2.2,0.7,2.2C0.7,2.2,0.7,2.2,0.7,2.2z"/>
	</g>
	<g>
		<line class="st1" x1="0.6" y1="11.2" x2="0.6" y2="2.9"/>
		<line class="st1" x1="1.2" y1="11.2" x2="1.2" y2="2.9"/>
		<line class="st1" x1="21.3" y1="2.9" x2="21.3" y2="11.2"/>
		<polyline class="st1" points="21.9,2.9 21.9,3 21.9,11.2 		"/>
		<line class="st1" x1="19.6" y1="13.6" x2="2.9" y2="13.6"/>
		<line class="st1" x1="19.5" y1="13" x2="2.9" y2="13"/>
		<line class="st1" x1="2.9" y1="1.2" x2="19.6" y2="1.2"/>
		<line class="st1" x1="2.9" y1="0.6" x2="19.6" y2="0.6"/>
		<path class="st1" d="M1.8,0.9c0,0,0.1-0.1,0.2-0.2c0.7-0.2-0.2,0.1,0.4-0.1c0.7-0.1-0.2,0,0.5-0.1"/>
		<path class="st1" d="M1.8,0.8C1.8,0.8,1.8,0.9,1.8,0.8C1.8,0.9,1.8,0.9,1.8,0.8"/>
		<path class="st1" d="M1.4,1.1C1.4,1.1,1.4,1.1,1.4,1.1c0,0,0.1-0.1,0.2-0.1c0.1-0.1,0.2-0.1,0.2-0.2c0,0,0,0,0,0"/>
		<polyline class="st1" points="1.5,1.1 1.5,1.1 1.4,1.1 		"/>
		<path class="st1" d="M1.1,1.5c0,0,0.1-0.1,0.2-0.2c0.1-0.1,0.2-0.1,0.2-0.1"/>
		<path class="st1" d="M1.1,1.4C1.1,1.4,1.1,1.4,1.1,1.4C1.1,1.5,1.1,1.5,1.1,1.4"/>
		<path class="st1" d="M1.1,1.4C1.1,1.4,1.1,1.4,1.1,1.4C1.1,1.4,1.1,1.4,1.1,1.4"/>
		<path class="st1" d="M0.9,1.8C0.9,1.8,0.9,1.8,0.9,1.8C0.9,1.8,0.9,1.8,0.9,1.8C0.9,1.8,0.9,1.8,0.9,1.8"/>
		<polyline class="st1" points="0.9,1.8 0.9,1.8 0.9,1.8 0.9,1.8 		"/>
		<path class="st1" d="M0.9,1.8L0.9,1.8c0,0,0-0.1,0.1-0.2c0.1-0.1,0.1-0.1,0.1-0.2"/>
		<line class="st1" x1="0.9" y1="1.8" x2="0.9" y2="1.8"/>
		<path class="st1" d="M0.7,2.3C0.7,2.2,0.7,2.2,0.7,2.3C0.7,2.2,0.8,2.1,0.8,2c0-0.1,0.1-0.1,0.1-0.2c0,0,0,0,0,0c0,0,0,0,0,0"/>
		<path class="st1" d="M0.6,2.9c0.1-0.7,0,0.2,0.1-0.5c0-0.1,0-0.2,0-0.2c0,0,0,0,0,0.1v0c0,0,0,0,0,0"/>
		<path class="st1" d="M21.6,1.9C21.6,1.9,21.6,1.9,21.6,1.9C21.6,1.9,21.6,1.9,21.6,1.9c0,0.1,0.1,0.2,0.1,0.2
			c0.2,0.7-0.1-0.2,0.1,0.4c0.1,0.7,0-0.2,0.1,0.5"/>
		<polyline class="st1" points="21.6,1.9 21.6,1.9 21.6,1.9 		"/>
		<polyline class="st1" points="21.6,1.9 21.6,1.9 21.6,1.9 21.6,1.9 		"/>
		<path class="st1" d="M21.6,1.9C21.6,1.9,21.6,1.9,21.6,1.9"/>
		<line class="st1" x1="21.6" y1="1.9" x2="21.6" y2="1.9"/>
		<path class="st1" d="M21.6,1.9C21.6,1.9,21.6,1.9,21.6,1.9"/>
		<path class="st1" d="M21.3,1.5C21.3,1.5,21.3,1.4,21.3,1.5L21.3,1.5"/>
		<path class="st1" d="M21.3,1.5L21.3,1.5C21.4,1.5,21.4,1.5,21.3,1.5"/>
		<path class="st1" d="M21.6,1.9c0,0,0-0.1-0.1-0.2c-0.1-0.1-0.1-0.2-0.1-0.2c0,0,0,0,0,0"/>
		<path class="st1" d="M21,1.1c0,0,0,0,0.2,0.2c0.1,0.1,0.1,0.1,0.1,0.1v0c0,0,0,0,0,0c0,0,0,0,0,0"/>
		<path class="st1" d="M20.7,0.9C20.7,0.9,20.7,0.9,20.7,0.9C20.7,0.9,20.7,0.9,20.7,0.9C20.8,0.9,20.8,1,20.9,1C21,1,21,1.1,21,1.1
			c0,0,0.1,0,0.1,0"/>
		<polyline class="st1" points="20.7,0.9 20.7,0.9 20.7,0.9 20.7,0.9 20.7,0.9 20.7,0.9 		"/>
		<path class="st1" d="M20.4,0.8c0,0-0.3-0.1,0.1,0c0.1,0,0.1,0.1,0.2,0.1c0,0,0,0,0,0c0,0,0,0,0,0"/>
		<path class="st1" d="M19.6,0.6c0.7,0.1-0.2,0,0.5,0.1c0.2,0.1,0.2,0.1,0.3,0.1h0"/>
		<path class="st1" d="M20.7,13.3C20.7,13.3,20.7,13.3,20.7,13.3C20.7,13.3,20.7,13.3,20.7,13.3C20.7,13.3,20.7,13.3,20.7,13.3
			c-0.1,0.1-0.2,0.1-0.2,0.1c-0.7,0.2,0.2-0.1-0.4,0.1c-0.7,0.1,0.2,0-0.5,0.1"/>
		<polyline class="st1" points="20.7,13.3 20.7,13.3 20.7,13.3 20.7,13.3 20.7,13.3 		"/>
		<path class="st1" d="M21.1,13C21.1,13,21.1,13,21.1,13c0,0-0.1,0.1-0.2,0.2c-0.1,0-0.1,0.1-0.2,0.1c0,0,0,0,0,0c0,0,0,0,0,0"/>
		<path class="st1" d="M21,13.1C21,13.1,21,13.1,21,13.1C21,13.1,21.1,13,21,13.1"/>
		<path class="st1" d="M21.4,12.6C21.4,12.6,21.4,12.6,21.4,12.6c0,0-0.1,0.1-0.2,0.3C21.1,13,21,13,21,13.1"/>
		<path class="st1" d="M21.4,12.7C21.4,12.7,21.4,12.7,21.4,12.7"/>
		<path class="st1" d="M21.6,12.3C21.6,12.3,21.6,12.3,21.6,12.3C21.6,12.3,21.6,12.3,21.6,12.3c-0.1,0.1-0.1,0.2-0.1,0.2
			c-0.1,0.1-0.1,0.1-0.1,0.2c0,0,0,0,0,0"/>
		<polyline class="st1" points="21.6,12.3 21.6,12.3 21.6,12.3 21.6,12.3 21.6,12.3 		"/>
		<path class="st1" d="M21.9,11.2c-0.1,0.7,0-0.2-0.1,0.5c-0.2,0.7,0.1-0.2-0.1,0.4c0,0.1-0.1,0.1-0.1,0.2c0,0,0,0,0,0c0,0,0,0,0,0
			c0,0,0,0,0,0"/>
		<path class="st1" d="M0.8,11.9c0,0,0-0.1-0.1-0.2c-0.1-0.7,0,0.2-0.1-0.5"/>
		<path class="st1" d="M0.8,11.9C0.8,11.9,0.8,11.9,0.8,11.9L0.8,11.9z"/>
		<path class="st1" d="M0.9,12.3C0.9,12.3,0.9,12.3,0.9,12.3C0.9,12.3,0.9,12.3,0.9,12.3C0.9,12.3,0.9,12.3,0.9,12.3
			c-0.1-0.1-0.1-0.2-0.1-0.2c-0.1-0.4-0.1-0.2,0-0.2"/>
		<polyline class="st1" points="0.9,12.3 0.9,12.3 0.9,12.3 		"/>
		<polyline class="st1" points="0.9,12.3 0.9,12.3 0.9,12.3 0.9,12.3 		"/>
		<path class="st1" d="M1.1,12.7C1.1,12.7,1.1,12.7,1.1,12.7c0-0.1-0.1-0.1-0.1-0.2c0-0.1-0.1-0.1-0.1-0.2c0,0,0,0,0,0c0,0,0,0,0,0
			c0,0,0,0,0,0c0,0,0,0,0,0"/>
		<path class="st1" d="M1.2,12.8C1.2,12.8,1.2,12.8,1.2,12.8"/>
		<path class="st1" d="M1.1,12.7C1.1,12.7,1.1,12.7,1.1,12.7"/>
		<path class="st1" d="M1.1,12.7L1.1,12.7C1.2,12.7,1.2,12.8,1.1,12.7"/>
		<path class="st1" d="M1.4,13.1C1.4,13.1,1.4,13.1,1.4,13.1C1.5,13.1,1.5,13.1,1.4,13.1c0.1,0.1,0.1,0-0.1-0.2
			c-0.1-0.1-0.1-0.1-0.1-0.1c0,0,0,0,0,0"/>
		<path class="st1" d="M1.8,13.3C1.8,13.3,1.8,13.3,1.8,13.3C1.8,13.3,1.8,13.3,1.8,13.3c-0.1-0.1-0.2-0.1-0.2-0.1
			c-0.1,0-0.1-0.1-0.1-0.1"/>
		<polyline class="st1" points="1.8,13.3 1.8,13.3 1.8,13.3 1.8,13.3 1.8,13.3 1.8,13.3 		"/>
		<path class="st1" d="M2.1,13.4L2.1,13.4c0,0,0.3,0.1-0.1,0c-0.1,0-0.1-0.1-0.2-0.1c0,0,0,0,0,0c0,0,0,0,0,0"/>
		<path class="st1" d="M2.9,13.6c-0.7-0.1,0.2,0-0.5-0.1c-0.2-0.1-0.2-0.1-0.3-0.1"/>
		<path class="st1" d="M2.8,1.2C2.8,1.2,2.8,1.2,2.8,1.2C2.7,1.2,2.7,1.2,2.8,1.2c-0.1,0,0,0,0.1,0"/>
		<path class="st1" d="M2.4,1.2C2.4,1.2,2.4,1.2,2.4,1.2C2.4,1.2,2.5,1.2,2.4,1.2c0.1,0,0.1,0,0.2,0c0.1,0,0.1,0,0.1,0"/>
		<path class="st1" d="M2.1,1.4c0,0-0.1,0,0.2-0.1c0.1,0,0.2-0.1,0.2-0.1c0,0,0,0-0.1,0"/>
		<path class="st1" d="M1.6,1.7c0,0,0-0.1,0.1-0.1C2.1,1.3,1.6,1.8,2,1.5c0.1,0,0.1,0,0.1-0.1c0,0,0,0,0,0"/>
		<path class="st1" d="M1.6,1.8C1.6,1.8,1.6,1.8,1.6,1.8"/>
		<path class="st1" d="M1.6,1.7C1.6,1.7,1.6,1.7,1.6,1.7"/>
		<path class="st1" d="M1.4,2C1.4,2,1.4,2,1.4,2c0,0,0,0,0.1-0.1c0-0.1,0.1-0.1,0.1-0.1v0c0,0,0,0,0,0"/>
		<path class="st1" d="M1.2,2.3C1.2,2.3,1.2,2.3,1.2,2.3C1.2,2.3,1.2,2.4,1.2,2.3c0,0,0,0,0.1-0.1c0-0.1,0.1-0.1,0.1-0.1"/>
		<path class="st1" d="M1.2,2.9c0-0.2,0-0.2,0-0.2c0,0,0-0.1,0-0.2c0-0.1,0-0.1,0-0.1c0,0,0-0.1,0-0.1"/>
		<path class="st1" d="M21.3,2.7C21.3,2.7,21.3,2.7,21.3,2.7c0-0.1,0,0,0,0.2"/>
		<path class="st1" d="M21.3,2.3C21.3,2.3,21.3,2.3,21.3,2.3c0,0.1,0,0.1,0,0.2c0,0.1,0,0.1,0,0.2"/>
		<path class="st1" d="M21.1,2C21.1,2,21.1,2,21.1,2c0-0.1,0-0.1,0.1,0.2c0,0.1,0.1,0.2,0.1,0.2c0,0,0,0,0-0.1c0,0,0,0,0,0"/>
		<path class="st1" d="M20.9,1.8c0,0,0,0,0.1,0.1C21,2,21,2,21.1,2"/>
		<path class="st1" d="M20.8,1.6c0,0,0.1,0,0.1,0.1c0.1,0.2,0,0.1,0,0c0,0,0,0,0,0"/>
		<line class="st1" x1="20.7" y1="1.6" x2="20.7" y2="1.6"/>
		<path class="st1" d="M20.8,1.6C20.8,1.6,20.8,1.6,20.8,1.6"/>
		<path class="st1" d="M20.5,1.4C20.5,1.4,20.5,1.4,20.5,1.4c0,0,0,0,0.1,0.1c0.1,0,0.1,0.1,0.1,0.1c0,0,0,0,0,0c0,0,0,0,0,0"/>
		<path class="st1" d="M20.2,1.2C20.1,1.2,20.1,1.2,20.2,1.2c0,0,0,0,0.1,0.1c0.1,0,0.1,0.1,0.1,0.1"/>
		<path class="st1" d="M19.6,1.2c0.1,0,0.2,0,0.2,0c0,0,0.1,0,0.2,0c0.1,0,0.1,0,0.1,0c0,0,0,0,0.1,0s0,0,0,0"/>
		<path class="st1" d="M19.7,13C19.7,13,19.7,13,19.7,13c0.1,0,0.1,0-0.1,0c0,0-0.1,0-0.1,0"/>
		<path class="st1" d="M20.1,13C20.1,13,20,13,20.1,13c-0.1,0-0.1,0-0.2,0c-0.1,0-0.1,0-0.1,0"/>
		<path class="st1" d="M20,13C20,13,20,13,20,13C20,13,20.1,13,20,13C20.1,13,20.1,13,20,13"/>
		<path class="st1" d="M20.4,12.8C20.4,12.8,20.4,12.8,20.4,12.8c0.1,0,0.1,0-0.1,0.1C20.1,12.9,20,13,20,13v0"/>
		<path class="st1" d="M20.6,12.6c0,0-0.1,0-0.1,0.1c-0.1,0-0.1,0.1-0.1,0.1"/>
		<path class="st1" d="M20.7,12.6C20.6,12.6,20.6,12.6,20.7,12.6"/>
		<line class="st1" x1="20.7" y1="12.6" x2="20.7" y2="12.6"/>
		<path class="st1" d="M20.6,12.6C20.6,12.6,20.6,12.6,20.6,12.6"/>
		<path class="st1" d="M20.9,12.4c0,0,0,0.1-0.1,0.1c-0.1,0-0.1,0.1-0.1,0.1c0,0,0,0,0,0v0h0c0,0,0,0,0,0"/>
		<path class="st1" d="M20.9,12.3C20.9,12.3,20.9,12.3,20.9,12.3"/>
		<line class="st1" x1="20.9" y1="12.4" x2="20.9" y2="12.4"/>
		<path class="st1" d="M21.1,12c0,0,0,0-0.1,0.2c0,0.1-0.1,0.1-0.1,0.1c0,0,0,0,0,0v0"/>
		<line class="st1" x1="21.1" y1="12.1" x2="21.1" y2="12"/>
		<path class="st1" d="M21.1,12L21.1,12c0,0,0-0.1,0.1-0.1c0-0.1,0.1-0.2,0.1-0.2"/>
		<path class="st1" d="M21.3,11.7L21.3,11.7C21.3,11.7,21.3,11.7,21.3,11.7"/>
		<path class="st1" d="M21.3,11.8C21.3,11.8,21.3,11.8,21.3,11.8C21.3,11.8,21.3,11.7,21.3,11.8"/>
		<path class="st1" d="M21.3,11.2c0,0.1,0,0.1,0,0.1v0.1c0,0,0,0.1,0,0.2c0,0.1,0,0.1,0,0.1c0,0,0,0.1,0,0.1"/>
		<path class="st1" d="M1.2,11.4C1.1,11.4,1.2,11.4,1.2,11.4c0,0.1,0,0.1,0-0.2"/>
		<path class="st1" d="M1.2,11.8C1.2,11.8,1.2,11.8,1.2,11.8C1.2,11.8,1.2,11.8,1.2,11.8c0-0.1,0-0.1,0-0.2c0-0.1,0-0.1,0-0.2"/>
		<path class="st1" d="M1.2,11.7C1.2,11.7,1.2,11.8,1.2,11.7"/>
		<path class="st1" d="M1.2,11.7C1.2,11.7,1.2,11.7,1.2,11.7L1.2,11.7"/>
		<path class="st1" d="M1.4,12.1C1.4,12.1,1.4,12.1,1.4,12.1"/>
		<path class="st1" d="M1.6,12.3c0,0,0-0.1-0.1-0.1c0,0,0-0.1-0.1-0.1c0,0,0,0,0,0c0,0,0,0,0,0c0,0,0-0.1-0.1-0.2
			c0-0.1-0.1-0.2-0.1-0.2"/>
		<line class="st1" x1="1.6" y1="12.4" x2="1.6" y2="12.4"/>
		<path class="st1" d="M1.6,12.3C1.6,12.3,1.6,12.3,1.6,12.3"/>
		<path class="st1" d="M1.8,12.6c0,0-0.1,0-0.1-0.1c0-0.1-0.1-0.1-0.1-0.1c0,0,0,0,0,0"/>
		<path class="st1" d="M1.9,12.6C1.9,12.6,1.9,12.6,1.9,12.6"/>
		<line class="st1" x1="1.8" y1="12.6" x2="1.8" y2="12.6"/>
		<path class="st1" d="M1.8,12.6C1.8,12.6,1.8,12.6,1.8,12.6C1.9,12.6,1.9,12.6,1.8,12.6"/>
		<path class="st1" d="M2.1,12.8C2.1,12.8,2.1,12.8,2.1,12.8c0,0-0.1-0.1-0.1-0.1c-0.1-0.1-0.1-0.1-0.1-0.1"/>
		<path class="st1" d="M2.1,12.8C2.1,12.8,2.1,12.8,2.1,12.8C2.1,12.8,2.1,12.8,2.1,12.8"/>
		<path class="st1" d="M2.1,12.8C2.1,12.8,2.1,12.8,2.1,12.8c0.1,0,0.1,0.1,0.2,0.1c0.1,0,0.2,0.1,0.2,0.1"/>
		<line class="st1" x1="2.5" y1="13" x2="2.5" y2="13"/>
		<path class="st1" d="M2.4,13C2.4,13,2.4,13,2.4,13C2.4,13,2.5,13,2.4,13C2.5,13,2.5,13,2.4,13"/>
		<path class="st1" d="M2.9,13c0,0-0.1,0-0.1,0c0,0,0,0-0.2,0c-0.1,0-0.1,0-0.1,0c0,0,0,0-0.1,0"/>
	</g>
</g>
<g id="XMLID_00000061444906226273786810000006421167667356071567_">
	<g>
		<polygon class="st2" points="15.2,5.3 11.2,10.1 7.3,5.3 		"/>
	</g>
	<g>
		<line class="st1" x1="11.2" y1="10.1" x2="15.2" y2="5.3"/>
		<line class="st1" x1="7.3" y1="5.3" x2="11.2" y2="10.1"/>
		<line class="st1" x1="15.2" y1="5.3" x2="7.3" y2="5.3"/>
	</g>
</g>
<ellipse class="st3" cx="11.3" cy="7.1" rx="5.4" ry="5.4"/>
</svg>
