<?xml version="1.0" encoding="utf-8"?>
<!-- Generator: Adobe Illustrator 26.1.0, SVG Export Plug-In . SVG Version: 6.00 Build 0)  -->
<svg version="1.1" id="Layer_1" xmlns="http://www.w3.org/2000/svg" xmlns:xlink="http://www.w3.org/1999/xlink" x="0px" y="0px"
	 viewBox="0 0 22.4 14.3" style="enable-background:new 0 0 22.4 14.3;" xml:space="preserve">
<style type="text/css">
	.st0{fill:none;stroke:#000000;stroke-width:0.4659;stroke-linecap:round;stroke-linejoin:round;stroke-miterlimit:500;}
</style>
<line class="st0" x1="6.2" y1="7.1" x2="10.3" y2="4.8"/>
<line class="st0" x1="0.5" y1="11.3" x2="0.5" y2="3"/>
<line class="st0" x1="1.1" y1="11.3" x2="1.1" y2="3"/>
<line class="st0" x1="10.3" y1="4.8" x2="10.3" y2="6.8"/>
<line class="st0" x1="10.3" y1="7.5" x2="10.3" y2="9.5"/>
<line class="st0" x1="14.8" y1="6.8" x2="14.8" y2="5.1"/>
<line class="st0" x1="15.5" y1="5.1" x2="15.5" y2="7.1"/>
<line class="st0" x1="21.3" y1="3" x2="21.3" y2="11.3"/>
<line class="st0" x1="21.9" y1="3" x2="21.9" y2="11.3"/>
<line class="st0" x1="10.3" y1="9.5" x2="6.2" y2="7.1"/>
<line class="st0" x1="19.5" y1="13.7" x2="2.9" y2="13.7"/>
<line class="st0" x1="19.5" y1="13.1" x2="2.9" y2="13.1"/>
<line class="st0" x1="15.2" y1="7.5" x2="10.3" y2="7.5"/>
<line class="st0" x1="10.3" y1="6.8" x2="14.8" y2="6.8"/>
<line class="st0" x1="2.9" y1="1.2" x2="19.5" y2="1.2"/>
<line class="st0" x1="2.9" y1="0.6" x2="19.5" y2="0.6"/>
<path class="st0" d="M0.5,3c0.1-0.7,0,0.2,0.1-0.5c0.2-0.7-0.1,0.2,0.1-0.4C1,1.5,0.6,2.3,0.9,1.7c0.4-0.5-0.2,0.2,0.3-0.4
	C1.7,0.9,1,1.4,1.6,1C2.2,0.7,1.4,1.1,2,0.8c0.7-0.2-0.2,0.1,0.4-0.1c0.7-0.1-0.2,0,0.5-0.1"/>
<path class="st0" d="M19.5,0.6c0.7,0.1-0.2,0,0.5,0.1c0.7,0.2-0.2-0.1,0.4,0.1C21,1.1,20.2,0.7,20.8,1c0.5,0.4-0.2-0.2,0.3,0.3
	c0.4,0.5-0.1-0.2,0.3,0.4c0.3,0.6-0.1-0.2,0.2,0.4c0.2,0.7-0.1-0.2,0.1,0.4c0.1,0.7,0-0.2,0.1,0.5"/>
<path class="st0" d="M21.9,11.3c-0.1,0.7,0-0.2-0.1,0.5c-0.2,0.7,0.1-0.2-0.1,0.4c-0.3,0.6,0.1-0.2-0.2,0.4
	c-0.4,0.5,0.2-0.2-0.3,0.4c-0.5,0.4,0.2-0.1-0.3,0.3c-0.6,0.3,0.2-0.1-0.4,0.2c-0.7,0.2,0.2-0.1-0.4,0.1c-0.7,0.1,0.2,0-0.5,0.1"/>
<path class="st0" d="M2.9,13.7c-0.7-0.1,0.2,0-0.5-0.1c-0.7-0.2,0.2,0.1-0.4-0.1c-0.6-0.3,0.2,0.1-0.4-0.2C1,12.8,1.7,13.4,1.2,13
	c-0.4-0.5,0.1,0.2-0.3-0.4C0.6,12,1,12.8,0.7,12.2c-0.2-0.7,0.1,0.2-0.1-0.4c-0.1-0.7,0,0.2-0.1-0.5"/>
<path class="st0" d="M1.1,3c0-0.5,0,0.2,0-0.4c0.1-0.5-0.1,0.2,0.1-0.3C1.5,1.8,1.2,2.4,1.4,2c0.3-0.4-0.1,0.1,0.2-0.3
	C2,1.4,1.5,1.8,1.9,1.5c0.4-0.2-0.2,0.1,0.3-0.2c0.5-0.2-0.2,0,0.3-0.1c0.5-0.1-0.2,0,0.3,0"/>
<path class="st0" d="M19.5,1.2c0.5,0-0.2,0,0.4,0c0.5,0.1-0.2-0.1,0.3,0.1c0.4,0.2-0.1-0.1,0.3,0.2c0.4,0.3-0.1-0.1,0.3,0.2
	C21.1,2.1,20.7,1.6,21,2c0.2,0.4-0.1-0.2,0.2,0.3c0.2,0.5,0-0.2,0.1,0.3c0.1,0.5,0-0.2,0,0.4"/>
<path class="st0" d="M21.3,11.3c0,0.5,0-0.2,0,0.4c-0.1,0.5,0.1-0.2-0.1,0.3c-0.2,0.5,0.1-0.1-0.2,0.3c-0.3,0.4,0.1-0.1-0.2,0.3
	c-0.4,0.3,0.1-0.1-0.3,0.2c-0.4,0.2,0.2-0.1-0.3,0.2c-0.5,0.2,0.2,0-0.3,0.1c-0.5,0.1,0.2,0-0.4,0"/>
<path class="st0" d="M2.9,13.1c-0.5,0,0.2,0-0.3,0c-0.5-0.1,0.2,0.1-0.3-0.1c-0.4-0.2,0.1,0.1-0.3-0.2c-0.4-0.3,0.1,0.1-0.3-0.2
	c-0.3-0.4,0.1,0.1-0.2-0.3c-0.3-0.4,0.1,0.2-0.2-0.3c-0.2-0.5,0,0.2-0.1-0.3c-0.1-0.5,0,0.2,0-0.4"/>
<path class="st0" d="M14.8,5.1C14.8,5,14.8,5.2,14.8,5.1c0-0.2,0,0,0-0.1c0-0.1,0,0,0-0.1c0.1-0.1,0,0,0-0.1c0.1-0.1,0,0,0.1,0
	c0.1-0.1,0,0,0.1,0c0.1,0,0,0,0,0c0.1,0,0,0,0,0c0.1,0,0,0,0,0c0,0,0,0,0,0s0,0,0,0s0,0,0,0s0,0,0,0c0.1,0,0,0,0,0c0.1,0,0,0,0,0
	c0.1,0,0,0,0,0c0.1,0.1,0,0,0.1,0c0.1,0.1,0,0,0.1,0c0.1,0.1,0,0,0,0.1c0.1,0.1,0,0,0,0.1c0,0.1,0,0,0,0.1c0,0.1,0,0,0,0.1"/>
<path class="st0" d="M15.5,7.1C15.5,7.2,15.5,7.1,15.5,7.1c0,0.2,0,0,0,0.1c-0.1,0.2,0-0.1-0.1,0.1c-0.2,0.1,0.1,0-0.1,0.1
	c-0.1,0,0,0-0.1,0c-0.1,0,0,0-0.1,0"/>
<circle class="st0" cx="11.2" cy="7.1" r="5.4"/>
<path class="st0" d="M21.9,7"/>
</svg>
