<?xml version="1.0" encoding="utf-8"?>
<!-- Generator: Adobe Illustrator 26.1.0, SVG Export Plug-In . SVG Version: 6.00 Build 0)  -->
<svg version="1.1" id="Layer_1" xmlns="http://www.w3.org/2000/svg" xmlns:xlink="http://www.w3.org/1999/xlink" x="0px" y="0px"
	 viewBox="0 0 50.3 8.1" style="enable-background:new 0 0 50.3 8.1;" xml:space="preserve">
<style type="text/css">
	.st0{enable-background:new    ;}
	.st1{fill:#58595B;}
	.st2{fill:#D1D3D4;}
</style>
<g class="st0">
	<path d="M9.3,4.4l1.2-3.2H11l1.3,3.2h-0.5l-0.4-1h-1.3l-0.3,1H9.3z M10.3,3.1h1.1L11,2.3c-0.1-0.3-0.2-0.5-0.2-0.7
		c0,0.2-0.1,0.4-0.2,0.6L10.3,3.1z"/>
</g>
<g class="st0">
	<path d="M38.1,4.4l-1.2-3.2h0.5l0.8,2.3c0.1,0.2,0.1,0.4,0.2,0.5c0-0.2,0.1-0.3,0.2-0.5l0.9-2.3h0.4l-1.2,3.2H38.1z"/>
</g>
<g class="st0">
	<path d="M0.5,7.5v-2h0.8c0.1,0,0.2,0,0.3,0c0.1,0,0.2,0,0.2,0.1s0.1,0.1,0.2,0.2S2,6,2,6.1c0,0.2-0.1,0.3-0.2,0.4S1.5,6.7,1.2,6.7
		H0.7v0.8H0.5z M0.7,6.5h0.5c0.2,0,0.3,0,0.4-0.1c0.1-0.1,0.1-0.2,0.1-0.3c0-0.1,0-0.2-0.1-0.2c0-0.1-0.1-0.1-0.2-0.1
		c0,0-0.1,0-0.2,0H0.7V6.5z"/>
</g>
<g class="st0">
	<path d="M1.7,7.5l0.8-2h0.3l0.8,2H3.3L3.1,6.9H2.2L2,7.5H1.7z M2.3,6.7H3L2.8,6.1C2.7,6,2.7,5.8,2.6,5.7c0,0.1-0.1,0.3-0.1,0.4
		L2.3,6.7z"/>
</g>
<g class="st0">
	<path d="M5,6.8l0.3,0.1C5.2,7.1,5.1,7.2,5,7.4C4.8,7.5,4.6,7.5,4.4,7.5c-0.2,0-0.4,0-0.5-0.1C3.8,7.3,3.7,7.2,3.6,7
		C3.5,6.8,3.5,6.7,3.5,6.5c0-0.2,0-0.4,0.1-0.5s0.2-0.3,0.3-0.4c0.1-0.1,0.3-0.1,0.5-0.1c0.2,0,0.4,0.1,0.5,0.2
		C5.1,5.7,5.2,5.9,5.2,6L5,6.1c0-0.1-0.1-0.3-0.2-0.3S4.6,5.7,4.4,5.7c-0.2,0-0.3,0-0.4,0.1C3.9,5.9,3.9,6,3.8,6.1
		c0,0.1-0.1,0.3-0.1,0.4c0,0.2,0,0.3,0.1,0.4c0,0.1,0.1,0.2,0.2,0.3c0.1,0.1,0.2,0.1,0.3,0.1c0.1,0,0.3,0,0.4-0.1C4.9,7.1,5,7,5,6.8
		z"/>
	<path d="M5.6,7.5v-2H7v0.2H5.9v0.6H7v0.2H5.9v0.7h1.2v0.2H5.6z"/>
</g>
<g class="st0">
	<path d="M12.7,6.9l0.2,0c0,0.1,0,0.2,0.1,0.2c0,0.1,0.1,0.1,0.2,0.2c0.1,0,0.2,0.1,0.3,0.1c0.1,0,0.2,0,0.3,0
		c0.1,0,0.1-0.1,0.2-0.1C14,7.1,14,7.1,14,7c0-0.1,0-0.1-0.1-0.2s-0.1-0.1-0.2-0.1c-0.1,0-0.2-0.1-0.4-0.1c-0.2,0-0.3-0.1-0.4-0.1
		c-0.1-0.1-0.2-0.1-0.2-0.2s-0.1-0.2-0.1-0.2c0-0.1,0-0.2,0.1-0.3c0.1-0.1,0.1-0.2,0.3-0.2s0.2-0.1,0.4-0.1c0.1,0,0.3,0,0.4,0.1
		c0.1,0,0.2,0.1,0.3,0.2c0.1,0.1,0.1,0.2,0.1,0.3l-0.3,0c0-0.1-0.1-0.2-0.1-0.3c-0.1-0.1-0.2-0.1-0.3-0.1c-0.2,0-0.3,0-0.4,0.1
		S13,6,13,6c0,0.1,0,0.1,0.1,0.2c0.1,0,0.2,0.1,0.4,0.1c0.2,0,0.4,0.1,0.4,0.1c0.1,0.1,0.2,0.1,0.3,0.2s0.1,0.2,0.1,0.3
		c0,0.1,0,0.2-0.1,0.3c-0.1,0.1-0.1,0.2-0.3,0.2c-0.1,0.1-0.2,0.1-0.4,0.1c-0.2,0-0.3,0-0.5-0.1c-0.1-0.1-0.2-0.1-0.3-0.2
		S12.7,7,12.7,6.9z"/>
	<path d="M14.6,7.5v-2h1.4v0.2h-1.2v0.6H16v0.2h-1.1v0.7h1.2v0.2H14.6z"/>
	<path d="M16.5,7.5v-2h0.3l1.1,1.6V5.5h0.3v2h-0.3L16.7,6v1.6H16.5z"/>
	<path d="M18.4,6.9l0.2,0c0,0.1,0,0.2,0.1,0.2c0,0.1,0.1,0.1,0.2,0.2c0.1,0,0.2,0.1,0.3,0.1c0.1,0,0.2,0,0.3,0
		c0.1,0,0.1-0.1,0.2-0.1c0-0.1,0.1-0.1,0.1-0.2c0-0.1,0-0.1-0.1-0.2c0,0-0.1-0.1-0.2-0.1c-0.1,0-0.2-0.1-0.4-0.1
		c-0.2,0-0.3-0.1-0.4-0.1c-0.1-0.1-0.2-0.1-0.2-0.2s-0.1-0.2-0.1-0.2c0-0.1,0-0.2,0.1-0.3s0.1-0.2,0.3-0.2c0.1,0,0.2-0.1,0.4-0.1
		c0.1,0,0.3,0,0.4,0.1c0.1,0,0.2,0.1,0.3,0.2c0.1,0.1,0.1,0.2,0.1,0.3l-0.3,0c0-0.1-0.1-0.2-0.1-0.3c-0.1-0.1-0.2-0.1-0.3-0.1
		c-0.2,0-0.3,0-0.3,0.1S18.7,6,18.7,6c0,0.1,0,0.1,0.1,0.2c0.1,0,0.2,0.1,0.4,0.1c0.2,0,0.4,0.1,0.4,0.1c0.1,0.1,0.2,0.1,0.3,0.2
		C20,6.8,20,6.9,20,7c0,0.1,0,0.2-0.1,0.3c-0.1,0.1-0.1,0.2-0.3,0.2c-0.1,0.1-0.2,0.1-0.4,0.1c-0.2,0-0.3,0-0.5-0.1
		c-0.1-0.1-0.2-0.1-0.3-0.2C18.4,7.2,18.4,7,18.4,6.9z"/>
	<path d="M20.4,7.5v-2h1.4v0.2h-1.2v0.6h1.1v0.2h-1.1v0.7h1.2v0.2H20.4z"/>
</g>
<g class="st0">
	<path d="M28.1,7.5v-2h0.8c0.1,0,0.2,0,0.3,0c0.1,0,0.2,0,0.2,0.1s0.1,0.1,0.2,0.2c0,0.1,0.1,0.2,0.1,0.3c0,0.2-0.1,0.3-0.2,0.4
		s-0.3,0.2-0.6,0.2h-0.5v0.8H28.1z M28.3,6.5h0.5c0.2,0,0.3,0,0.4-0.1c0.1-0.1,0.1-0.2,0.1-0.3c0-0.1,0-0.2-0.1-0.2
		s-0.1-0.1-0.2-0.1c0,0-0.1,0-0.2,0h-0.5V6.5z"/>
</g>
<g class="st0">
	<path d="M29.3,7.5l0.8-2h0.3l0.8,2h-0.3l-0.2-0.6h-0.8l-0.2,0.6H29.3z M29.9,6.7h0.7l-0.2-0.6c-0.1-0.2-0.1-0.3-0.1-0.4
		c0,0.1-0.1,0.3-0.1,0.4L29.9,6.7z"/>
</g>
<g class="st0">
	<path d="M32.6,6.8l0.3,0.1c-0.1,0.2-0.2,0.4-0.3,0.5c-0.1,0.1-0.3,0.2-0.5,0.2c-0.2,0-0.4,0-0.5-0.1c-0.1-0.1-0.2-0.2-0.3-0.4
		c-0.1-0.2-0.1-0.3-0.1-0.5c0-0.2,0-0.4,0.1-0.5c0.1-0.2,0.2-0.3,0.3-0.4c0.1-0.1,0.3-0.1,0.5-0.1c0.2,0,0.4,0.1,0.5,0.2
		c0.1,0.1,0.2,0.2,0.3,0.4l-0.3,0.1c0-0.1-0.1-0.3-0.2-0.3c-0.1-0.1-0.2-0.1-0.3-0.1c-0.2,0-0.3,0-0.4,0.1c-0.1,0.1-0.2,0.2-0.2,0.3
		c0,0.1-0.1,0.3-0.1,0.4c0,0.2,0,0.3,0.1,0.4s0.1,0.2,0.2,0.3c0.1,0.1,0.2,0.1,0.3,0.1c0.1,0,0.3,0,0.4-0.1
		C32.5,7.1,32.6,7,32.6,6.8z"/>
	<path d="M33.2,7.5v-2h1.4v0.2h-1.2v0.6h1.1v0.2h-1.1v0.7h1.2v0.2H33.2z"/>
</g>
<g class="st0">
	<path d="M40.3,6.9l0.2,0c0,0.1,0,0.2,0.1,0.2c0,0.1,0.1,0.1,0.2,0.2c0.1,0,0.2,0.1,0.3,0.1c0.1,0,0.2,0,0.3,0
		c0.1,0,0.1-0.1,0.2-0.1c0-0.1,0.1-0.1,0.1-0.2c0-0.1,0-0.1-0.1-0.2c0,0-0.1-0.1-0.2-0.1c-0.1,0-0.2-0.1-0.4-0.1
		c-0.2,0-0.3-0.1-0.4-0.1c-0.1-0.1-0.2-0.1-0.2-0.2s-0.1-0.2-0.1-0.2c0-0.1,0-0.2,0.1-0.3s0.1-0.2,0.3-0.2c0.1,0,0.2-0.1,0.4-0.1
		c0.1,0,0.3,0,0.4,0.1c0.1,0,0.2,0.1,0.3,0.2c0.1,0.1,0.1,0.2,0.1,0.3l-0.3,0c0-0.1-0.1-0.2-0.1-0.3c-0.1-0.1-0.2-0.1-0.3-0.1
		c-0.2,0-0.3,0-0.3,0.1S40.6,6,40.6,6c0,0.1,0,0.1,0.1,0.2c0.1,0,0.2,0.1,0.4,0.1c0.2,0,0.4,0.1,0.4,0.1c0.1,0.1,0.2,0.1,0.3,0.2
		c0.1,0.1,0.1,0.2,0.1,0.3c0,0.1,0,0.2-0.1,0.3c-0.1,0.1-0.1,0.2-0.3,0.2c-0.1,0.1-0.2,0.1-0.4,0.1c-0.2,0-0.3,0-0.5-0.1
		c-0.1-0.1-0.2-0.1-0.3-0.2C40.3,7.2,40.3,7,40.3,6.9z"/>
	<path d="M42.2,7.5v-2h1.4v0.2h-1.2v0.6h1.1v0.2h-1.1v0.7h1.2v0.2H42.2z"/>
	<path d="M44.1,7.5v-2h0.3l1.1,1.6V5.5h0.3v2h-0.3L44.3,6v1.6H44.1z"/>
	<path d="M46,6.9l0.2,0c0,0.1,0,0.2,0.1,0.2c0,0.1,0.1,0.1,0.2,0.2c0.1,0,0.2,0.1,0.3,0.1c0.1,0,0.2,0,0.3,0c0.1,0,0.1-0.1,0.2-0.1
		c0-0.1,0.1-0.1,0.1-0.2c0-0.1,0-0.1-0.1-0.2s-0.1-0.1-0.2-0.1c-0.1,0-0.2-0.1-0.4-0.1c-0.2,0-0.3-0.1-0.4-0.1
		c-0.1-0.1-0.2-0.1-0.2-0.2s-0.1-0.2-0.1-0.2c0-0.1,0-0.2,0.1-0.3c0.1-0.1,0.1-0.2,0.3-0.2s0.2-0.1,0.4-0.1c0.1,0,0.3,0,0.4,0.1
		c0.1,0,0.2,0.1,0.3,0.2c0.1,0.1,0.1,0.2,0.1,0.3l-0.3,0c0-0.1-0.1-0.2-0.1-0.3c-0.1-0.1-0.2-0.1-0.3-0.1c-0.2,0-0.3,0-0.4,0.1
		S46.4,6,46.4,6c0,0.1,0,0.1,0.1,0.2c0.1,0,0.2,0.1,0.4,0.1c0.2,0,0.4,0.1,0.4,0.1c0.1,0.1,0.2,0.1,0.3,0.2s0.1,0.2,0.1,0.3
		c0,0.1,0,0.2-0.1,0.3c-0.1,0.1-0.1,0.2-0.3,0.2c-0.1,0.1-0.2,0.1-0.4,0.1c-0.2,0-0.3,0-0.5-0.1c-0.1-0.1-0.2-0.1-0.3-0.2
		S46,7,46,6.9z"/>
	<path d="M48,7.5v-2h1.4v0.2h-1.2v0.6h1.1v0.2h-1.1v0.7h1.2v0.2H48z"/>
</g>
<path class="st1" d="M5.5,2.4c0,0.9-0.8,1.7-1.7,1.7c-0.9,0-1.7-0.8-1.7-1.7c0-0.9,0.8-1.7,1.7-1.7C4.8,0.7,5.5,1.5,5.5,2.4"/>
<path class="st2" d="M18.8,2.4c0,0.9-0.8,1.7-1.7,1.7s-1.7-0.8-1.7-1.7c0-0.9,0.8-1.7,1.7-1.7S18.8,1.5,18.8,2.4"/>
<path class="st1" d="M32.9,2.4c0,0.9-0.8,1.7-1.7,1.7c-0.9,0-1.7-0.8-1.7-1.7c0-0.9,0.8-1.7,1.7-1.7C32.1,0.7,32.9,1.5,32.9,2.4"/>
<path class="st2" d="M46.2,2.4c0,0.9-0.8,1.7-1.7,1.7s-1.7-0.8-1.7-1.7c0-0.9,0.8-1.7,1.7-1.7S46.2,1.5,46.2,2.4"/>
</svg>
