<?xml version="1.0" encoding="utf-8"?>
<!-- Generator: Adobe Illustrator 26.1.0, SVG Export Plug-In . SVG Version: 6.00 Build 0)  -->
<svg version="1.1" id="Layer_1" xmlns="http://www.w3.org/2000/svg" xmlns:xlink="http://www.w3.org/1999/xlink" x="0px" y="0px"
	 viewBox="0 0 26.9 26.2" style="enable-background:new 0 0 26.9 26.2;" xml:space="preserve">
<style type="text/css">
	.st0{fill:none;stroke:#FFFFFF;stroke-width:0.4659;stroke-linecap:round;stroke-linejoin:round;stroke-miterlimit:500;}
</style>
<line class="st0" x1="9.1" y1="15.6" x2="8.5" y2="15.9"/>
<line class="st0" x1="18.5" y1="10.4" x2="19.1" y2="10.1"/>
<line class="st0" x1="19.6" y1="11.3" x2="19" y2="11.5"/>
<line class="st0" x1="8" y1="14.7" x2="8.6" y2="14.5"/>
<line class="st0" x1="16.7" y1="7.7" x2="16.4" y2="8.3"/>
<line class="st0" x1="10.9" y1="18.3" x2="11.2" y2="17.7"/>
<line class="st0" x1="12.3" y1="18.2" x2="12.1" y2="18.8"/>
<line class="st0" x1="15.3" y1="7.8" x2="15.5" y2="7.2"/>
<line class="st0" x1="12.1" y1="7.2" x2="12.3" y2="7.8"/>
<line class="st0" x1="15.5" y1="18.8" x2="15.3" y2="18.2"/>
<line class="st0" x1="16.4" y1="17.7" x2="16.7" y2="18.3"/>
<line class="st0" x1="11.2" y1="8.3" x2="10.9" y2="7.7"/>
<line class="st0" x1="19.1" y1="15.9" x2="18.5" y2="15.6"/>
<line class="st0" x1="8.5" y1="10.1" x2="9.1" y2="10.4"/>
<line class="st0" x1="8.6" y1="11.5" x2="8" y2="11.3"/>
<line class="st0" x1="19" y1="14.5" x2="19.6" y2="14.7"/>
<path class="st0" d="M25.6,13c0-6.5-5.3-11.8-11.8-11.8S2,6.5,2,13s5.3,11.8,11.8,11.8S25.6,19.5,25.6,13z"/>
<circle class="st0" cx="13.8" cy="13" r="11.7"/>
<path class="st0" d="M25.2,13c0-6.3-5.1-11.4-11.4-11.4S2.4,6.7,2.4,13s5.1,11.4,11.4,11.4S25.2,19.3,25.2,13z"/>
<circle class="st0" cx="13.8" cy="13" r="9.4"/>
<path class="st0" d="M8.6,7.3C8.5,7.5,8.3,7.7,8.1,7.8"/>
<path class="st0" d="M19.5,7.8c-0.2-0.2-0.3-0.3-0.5-0.5"/>
<path class="st0" d="M14.1,5.4c-0.2,0-0.5,0-0.7,0"/>
<path class="st0" d="M21.5,13.4c0-0.2,0-0.5,0-0.7"/>
<path class="st0" d="M6.1,12.7c0,0.2,0,0.5,0,0.7"/>
<path class="st0" d="M8.1,18.2c0.2,0.2,0.3,0.3,0.5,0.5"/>
<path class="st0" d="M13.5,20.7c0.2,0,0.5,0,0.7,0"/>
<path class="st0" d="M19,18.7c0.2-0.2,0.3-0.3,0.5-0.5"/>
<path class="st0" d="M8.6,14.5c0.1,0.4,0.3,0.7,0.4,1.1"/>
<path class="st0" d="M11.2,17.7c0.3,0.2,0.7,0.3,1.1,0.4"/>
<path class="st0" d="M15.3,18.2c0.4-0.1,0.7-0.3,1.1-0.4"/>
<path class="st0" d="M18.5,15.6c0.2-0.3,0.3-0.7,0.4-1.1"/>
<path class="st0" d="M19,11.5c-0.1-0.4-0.3-0.7-0.4-1.1"/>
<path class="st0" d="M16.4,8.3C16,8.1,15.7,8,15.3,7.8"/>
<path class="st0" d="M12.3,7.8c-0.4,0.1-0.7,0.3-1.1,0.4"/>
<path class="st0" d="M9.1,10.4c-0.2,0.3-0.3,0.7-0.4,1.1"/>
<path class="st0" d="M10.2,7.1L10.2,7.1L10.2,7.1L10.2,7.1C10.1,7.1,10.2,7.1,10.2,7.1C10,7,10.1,7.1,10.1,7c-0.1,0,0,0-0.1,0
	s0,0-0.1,0C9.8,7,10,7,9.8,7C9.7,7,9.9,7,9.7,7C9.6,7,9.8,7,9.6,7C9.4,7,9.7,7,9.5,7C9.1,7.1,9.6,7,9.2,7C9,7.1,9.3,7,9,7.1
	c-0.2,0.1,0.1,0-0.2,0.1C8.5,7.4,9,7.1,8.6,7.4"/>
<path class="st0" d="M8.1,7.8C7.8,8.2,8.2,7.7,8,8.1C7.8,8.3,8,8,7.9,8.3c-0.1,0.2,0-0.1-0.1,0.2c-0.1,0.4,0-0.1-0.1,0.3
	c0,0.2,0-0.1,0,0.1c0,0.2,0-0.1,0,0.1c0,0.2,0,0,0,0.1s0,0,0,0.1s0,0,0,0.1s0,0,0,0.1s0,0,0,0c0,0.1,0,0,0,0l0,0l0,0l0,0"/>
<path class="st0" d="M7.1,11.4L7.1,11.4L7.1,11.4L7.1,11.4C7,11.4,7.1,11.4,7.1,11.4C6.9,11.4,7,11.4,7.1,11.4c-0.2,0-0.1,0-0.2,0
	c-0.1,0.1,0,0-0.1,0c-0.1,0.1,0,0-0.1,0c-0.1,0.1,0,0-0.1,0.1s0,0-0.1,0.1s0,0-0.1,0.1c-0.3,0.3,0.1-0.1-0.2,0.2
	c-0.1,0.2,0-0.1-0.1,0.1c-0.1,0.2,0-0.1-0.1,0.2c-0.1,0.5,0-0.2-0.1,0.3"/>
<path class="st0" d="M21.5,12.7c-0.1-0.5,0.1,0.2-0.1-0.3c-0.1-0.2,0,0.1-0.1-0.2c-0.1-0.2,0,0.1-0.1-0.1c-0.2-0.4,0.1,0.1-0.2-0.2
	c-0.1-0.1,0.1,0-0.1-0.1c-0.1-0.1,0,0-0.1-0.1s0,0-0.1-0.1s0,0-0.1,0c-0.1-0.1,0,0-0.1,0s0,0-0.1,0s0,0-0.1,0s0,0,0,0
	c-0.1,0,0,0,0,0l0,0l0,0"/>
<path class="st0" d="M19.7,9.4L19.7,9.4L19.7,9.4L19.7,9.4C19.7,9.3,19.7,9.4,19.7,9.4c0.1-0.2,0-0.1,0.1-0.1c0-0.1,0,0,0-0.1
	s0,0,0-0.1s0,0,0-0.1c0-0.2,0,0,0-0.1c0-0.2,0,0.1,0-0.1c0-0.2,0,0.1,0-0.1c-0.1-0.4,0,0.1-0.1-0.3c-0.1-0.2,0,0.1-0.1-0.2
	c-0.1-0.2,0,0.1-0.1-0.2c-0.3-0.4,0.1,0.1-0.2-0.3"/>
<path class="st0" d="M19,7.3c-0.4-0.3,0.1,0.1-0.3-0.2c-0.2-0.1,0.1,0-0.2-0.1c-0.2-0.1,0.1,0-0.2,0c-0.4-0.1,0.1,0-0.3,0
	c-0.2,0,0.1,0-0.1,0s0.1,0-0.1,0s0.1,0-0.1,0c-0.1,0,0.1,0-0.1,0c-0.1,0,0,0-0.1,0s0,0-0.1,0s0,0-0.1,0s0,0-0.1,0l0,0l0,0l0,0"/>
<path class="st0" d="M15.4,6.3L15.4,6.3L15.4,6.3L15.4,6.3C15.4,6.2,15.4,6.3,15.4,6.3C15.3,6.1,15.4,6.2,15.4,6.3
	c-0.1-0.2,0-0.1,0-0.2c-0.1-0.1,0,0,0-0.1c-0.1-0.1,0,0-0.1-0.1s0,0-0.1-0.1s0,0-0.1-0.1s0.1,0-0.1-0.1c-0.3-0.3,0.1,0.1-0.2-0.2
	c-0.2-0.1,0.1,0-0.1-0.1c-0.2-0.1,0.1,0-0.2-0.1c-0.5-0.1,0.2,0-0.3-0.1"/>
<path class="st0" d="M13.5,5.4c-0.5,0.1,0.2,0-0.3,0.1c-0.2,0.1,0.1,0-0.2,0.1c-0.2,0.1,0.1,0-0.1,0.1c-0.4,0.2,0.1-0.1-0.2,0.2
	c-0.1,0.1,0.1,0-0.1,0.1c-0.1,0.1,0,0-0.1,0.1s0,0-0.1,0.1s0,0-0.1,0.1s0,0,0,0.1c-0.1,0.1,0,0,0,0.1s0,0,0,0l0,0l0,0l0,0l0,0"/>
<path class="st0" d="M20.5,14.6L20.5,14.6L20.5,14.6L20.5,14.6C20.6,14.6,20.5,14.6,20.5,14.6c0.2,0,0.1,0,0.1,0c0.1,0,0,0,0.1,0
	c0.1-0.1,0,0,0.1,0c0.1-0.1,0,0,0.1,0c0.1-0.1,0,0,0.1-0.1s0,0,0.1-0.1s0,0,0.1-0.1c0.3-0.3-0.1,0.1,0.2-0.2c0.1-0.2,0,0.1,0.1-0.1
	c0.1-0.2,0,0.1,0.1-0.2c0.1-0.5,0,0.2,0.1-0.3"/>
<path class="st0" d="M6.1,13.4c0.1,0.5,0-0.2,0.1,0.3c0.1,0.2,0-0.1,0.1,0.2c0.1,0.2,0-0.1,0.1,0.1c0.2,0.4-0.1-0.1,0.2,0.2
	c0.1,0.1-0.1,0,0.1,0.1c0.1,0.1-0.1,0,0.1,0.1c0.1,0.1,0,0,0.1,0.1s0,0,0.1,0c0.1,0.1,0,0,0.1,0s0,0,0.1,0s0,0,0.1,0s0,0,0,0
	c0.1,0,0,0,0,0l0,0l0,0"/>
<path class="st0" d="M7.9,16.6L7.9,16.6L7.9,16.6L7.9,16.6C7.9,16.7,7.9,16.6,7.9,16.6c-0.1,0.2,0,0.1-0.1,0.1c0,0.1,0,0,0,0.1
	s0,0,0,0.1s0-0.1,0,0.1s0-0.1,0,0.1s0-0.1,0,0.1s0-0.1,0,0.1c0.1,0.4,0-0.1,0.1,0.3c0.1,0.2,0-0.1,0.1,0.2c0,0.2-0.1-0.1,0,0.1
	c0.3,0.4-0.1-0.1,0.2,0.3"/>
<path class="st0" d="M8.6,18.7C9,19,8.5,18.6,8.9,18.9c0.2,0.1-0.1,0,0.2,0.1c0.2,0-0.1-0.1,0.1,0c0.4,0.1-0.1,0,0.3,0.1
	c0.2,0-0.1,0,0.1,0c0.2,0-0.1,0,0.1,0c0.2,0-0.1,0,0.1,0c0.1,0-0.1,0,0.1,0c0.1,0,0,0,0.1,0s0,0,0.1,0s0,0,0.1,0s0,0,0,0
	c0.1,0,0,0,0,0l0,0l0,0"/>
<path class="st0" d="M12.2,19.7L12.2,19.7L12.2,19.7C12.2,19.8,12.2,19.7,12.2,19.7C12.2,19.8,12.2,19.7,12.2,19.7
	c0.1,0.2,0,0.1,0.1,0.1c0.1,0.1,0,0,0,0.1c0.1,0.1,0,0,0,0.1c0.1,0.1,0,0,0.1,0.1s0,0,0.1,0.1s0,0,0.1,0.1s-0.1,0,0.1,0.1
	c0.3,0.3-0.1-0.1,0.2,0.2c0.2,0.1-0.1,0,0.1,0.1c0.2,0.1-0.1,0,0.2,0.1c0.5,0.1-0.2,0,0.3,0.1"/>
<path class="st0" d="M14.1,20.7c0.5-0.1-0.2,0,0.3-0.1c0.2-0.1-0.1,0,0.2-0.1c0.2-0.1-0.1,0,0.1-0.1c0.4-0.2-0.1,0.1,0.2-0.2
	c0.1-0.1-0.1,0.1,0.1-0.1c0.1-0.1,0,0.1,0.1-0.1c0.1-0.1,0,0,0.1-0.1s0,0,0.1-0.1s0,0,0-0.1c0.1-0.1,0,0,0-0.1s0,0,0-0.1s0,0,0,0
	c0-0.1,0,0,0,0l0,0l0,0"/>
<path class="st0" d="M17.4,18.9L17.4,18.9L17.4,18.9L17.4,18.9C17.5,18.9,17.4,18.9,17.4,18.9c0.2,0.1,0.1,0,0.2,0.1
	c0.1,0,0,0,0.1,0s0,0,0.1,0s-0.1,0,0.1,0s-0.1,0,0.1,0s-0.1,0,0.1,0s-0.1,0,0.1,0c0.4-0.1-0.1,0,0.3-0.1c0.2-0.1-0.1,0,0.2-0.1
	c0.2-0.1-0.1,0,0.2-0.1c0.4-0.3-0.1,0.1,0.3-0.2"/>
<path class="st0" d="M19.5,18.2c0.3-0.4-0.1,0.2,0.2-0.3c0.1-0.2,0,0.1,0.1-0.2c0.1-0.2,0,0.1,0.1-0.2c0.1-0.4,0,0.1,0.1-0.3
	c0-0.2,0,0.1,0-0.1s0,0.1,0-0.1s0,0.1,0-0.1c0-0.1,0,0.1,0-0.1c0-0.1,0,0,0-0.1s0,0,0-0.1s0,0,0-0.1s0,0,0,0c0-0.1,0,0,0,0l0,0l0,0"
	/>
<line class="st0" x1="8.5" y1="15.9" x2="7.9" y2="16.6"/>
<line class="st0" x1="7.1" y1="14.6" x2="8" y2="14.7"/>
<line class="st0" x1="12.1" y1="18.8" x2="12.2" y2="19.7"/>
<line class="st0" x1="10.2" y1="18.9" x2="10.9" y2="18.3"/>
<line class="st0" x1="16.7" y1="18.3" x2="17.4" y2="18.9"/>
<line class="st0" x1="15.4" y1="19.7" x2="15.5" y2="18.8"/>
<line class="st0" x1="19.6" y1="14.7" x2="20.5" y2="14.6"/>
<line class="st0" x1="19.7" y1="16.6" x2="19.1" y2="15.9"/>
<line class="st0" x1="19.1" y1="10.1" x2="19.7" y2="9.4"/>
<line class="st0" x1="20.5" y1="11.4" x2="19.6" y2="11.3"/>
<line class="st0" x1="15.5" y1="7.2" x2="15.4" y2="6.3"/>
<line class="st0" x1="17.4" y1="7.1" x2="16.7" y2="7.7"/>
<line class="st0" x1="10.9" y1="7.7" x2="10.2" y2="7.1"/>
<line class="st0" x1="12.2" y1="6.3" x2="12.1" y2="7.2"/>
<line class="st0" x1="7.9" y1="9.4" x2="8.5" y2="10.1"/>
<line class="st0" x1="8" y1="11.3" x2="7.1" y2="11.4"/>
</svg>
