<?xml version="1.0" encoding="utf-8"?>
<svg version="1.1" id="Layer_1" x="0px" y="0px" viewBox="0 0 26.9 26.2" style="enable-background:new 0 0 26.9 26.2;" xmlns="http://www.w3.org/2000/svg">
  <style type="text/css">
	.st0{fill:none;stroke:#000000;stroke-width:0.4659;stroke-linecap:round;stroke-linejoin:round;stroke-miterlimit:500;}
	.st1{fill:#464547;}
	.st2{fill:#464547;stroke:#FFFFFF;stroke-width:0.4659;stroke-linecap:round;stroke-linejoin:round;stroke-miterlimit:500;}
	.st3{fill:#616264;}
	.st4{fill:#433D3F;}
</style>
  <g>
    <g id="XMLID_00000079465397802049099050000001578660773396294308_">
      <g>
        <path class="st4" d="M21.5,12.5C21.5,12.6,21.5,12.6,21.5,12.5C21.5,12.6,21.5,12.5,21.5,12.5z"/>
        <path class="st4" d="M19.6,18.1C19.6,18.1,19.6,18.1,19.6,18.1C19.6,18.1,19.6,18.1,19.6,18.1z"/>
        <polygon class="st4" points="12.1,18.8 12.2,18.4 12.1,19 &#9;&#9;&#9;"/>
        <path class="st4" d="M8.1,18C8.1,18,8.1,18,8.1,18L8.1,18L8.1,18z"/>
        <path class="st4" d="M12.4,20.1c-0.1-0.1,0,0-0.1-0.1c0-0.1,0.1,0,0-0.1c0-0.1,0.1,0,0-0.1c-0.1,0,0,0.1-0.1-0.1L12.1,19v0 l0.1-0.6l0.1-0.2c-0.4-0.1-0.8-0.2-1.1-0.4l-0.3,0.6l-0.7,0.6l-1.2,0c0,0,0,0-0.1,0c-0.1,0-0.1-0.1-0.1-0.1c0,0,0,0,0,0 c0,0,0,0,0,0c0,0-0.1-0.1-0.1-0.1c-0.2-0.2-0.3-0.3-0.5-0.5l0.1,0c-0.1-0.1-0.1-0.1-0.1-0.1v0c0,0,0,0,0,0l0,0c0,0,0-0.1-0.1-0.1 c0,0,0,0,0,0c0,0,0,0,0-0.1c0-0.1,0-0.1-0.1-0.1c0,0,0,0,0-0.1c-0.1-0.4,0,0.1-0.1-0.3c0,0,0,0,0,0v0c0,0,0,0,0,0c0,0,0,0,0,0v0 c0,0,0,0,0,0s0,0,0,0v0c0,0,0,0,0,0c0,0,0-0.1,0-0.1v0v0c0-0.1,0,0,0-0.1c0-0.1,0,0,0-0.1c0.1,0,0,0.1,0.1-0.1l0.6-0.7L9,15.6 c-0.1-0.4-0.3-0.7-0.4-1.1L8,14.7l-0.9-0.1l0-0.1c0,0,0,0-0.1,0c-0.1,0,0,0.1-0.1,0s0,0-0.1-0.1c-0.2-0.1,0,0-0.1-0.1 c-0.2-0.1,0,0-0.1-0.1c-0.1-0.1-0.1-0.1-0.1-0.1c0,0,0-0.1-0.1-0.1c-0.1-0.2,0,0.1-0.1-0.1c0-0.1,0-0.1-0.1-0.1c0,0,0,0-0.1-0.1 c-0.1-0.5,0,0.2-0.1-0.3c0-0.2,0-0.5,0-0.7l-0.2-0.2C6,12,5.9,12.7,6,12.2c0-0.1,0-0.1,0.1-0.1c0,0,0,0,0-0.1 c0.1-0.2,0,0.1,0.1-0.1c0.1,0,0.1-0.1,0.1-0.1c0,0,0,0,0,0c0,0,0,0,0.1-0.1c0.1-0.1,0,0,0.1-0.1c0.1-0.1,0,0,0.1-0.1s0,0,0.1-0.1 c0.1,0,0,0.1,0.1,0c0.1,0,0,0.1,0.1,0c0.1,0,0,0,0.1,0c0,0,0.1,0,0.1,0L8,11.3l0.7,0.2c0.1-0.4,0.2-0.8,0.4-1.1l-0.6-0.3L7.9,9.4 H7.7c0-0.1,0,0,0-0.1c0-0.1,0,0,0-0.1c0-0.1,0,0,0-0.1v0v0c0,0,0,0,0-0.1c0,0,0,0,0,0v0c0,0,0,0,0,0c0,0,0,0,0,0v0c0,0,0,0,0,0 c0.1-0.4,0,0.1,0.1-0.3c0-0.1,0-0.1,0-0.1c0,0,0,0,0.1-0.1c0-0.1,0-0.1,0-0.1c0,0,0,0,0.1-0.1C8.1,7.8,8,8,8,8c0,0,0-0.1,0.1-0.2 c0.2-0.1,0.3-0.2,0.5-0.4l0,0c0.4-0.3-0.1,0,0.2-0.2c0.1,0,0.1,0,0.1,0c0,0,0,0,0.1-0.1c0.1,0,0.1,0,0.1,0c0,0,0,0,0.1-0.1 c0.2,0,0.2,0,0.2,0c0,0,0.1,0,0.1,0c0.1,0,0.1,0,0.1,0c0,0,0,0,0,0c0.1,0,0.1,0,0.1,0h0c0.1,0,0.1,0,0.1,0h0c0.1,0,0.1,0,0.1,0h0 c0.1,0,0,0,0.1,0s0,0,0.1,0c0,0.1-0.1,0,0.1,0.1l0.7,0.6l0.3,0.5c0.4-0.1,0.7-0.3,1.1-0.4l-0.2-0.6l0.1-0.9l0.1,0c0,0,0,0,0,0 c0.1-0.1,0,0,0.1-0.1c0.1-0.1,0,0,0.1-0.1s0,0,0.1-0.1c0.2-0.1,0,0,0.1-0.1c0.1-0.1,0.1-0.1,0.1-0.1c0,0,0.1,0,0.1-0.1 c0.2-0.1-0.1,0,0.1-0.1c0.1,0,0.1,0,0.1,0c0,0,0,0,0.1-0.1c0.5-0.1-0.2,0,0.3-0.1c0.2,0,0.4,0,0.6,0h0.7c0.1,0,0.1,0.1,0.1,0.1 c0,0,0,0,0,0c0,0,0,0,0.1,0.1c0.2,0.1,0,0,0.1,0.1c0.1,0.1,0,0,0.1,0.1c0.1,0.1,0,0,0.1,0.1c0.1,0.1,0,0,0.1,0.1 c0,0.1-0.1,0,0,0.1c0,0.1-0.1,0,0,0.1c0,0-0.1,0,0,0.1v0l0.1,0.9l-0.2,0.6C15.7,8,16,8.1,16.4,8.3l0.3-0.6l0.7-0.6V7 c0.1,0,0,0,0.1,0s0,0,0.1,0c0.1,0,0.1,0,0.1,0h0c0.1,0,0.1,0,0.1,0c0,0,0,0,0,0c0.1,0,0.1,0,0.1,0c0,0,0,0,0,0C18,7,18,7,18,7 c0,0,0,0,0,0c0.2,0,0.2,0,0.1,0c0,0,0.1,0,0.1,0c0.1,0,0.1,0,0.1,0c0,0,0,0,0.1,0c0.1,0,0.1,0,0.1,0.1c0,0,0,0,0.1,0 c0.1,0.1,0.1,0.1,0.1,0.1c0,0,0,0,0,0c0,0,0,0,0,0c0,0,0.1,0,0.1,0.1c0.1,0.1,0.2,0.2,0.4,0.3l-0.1,0c0.1,0.1,0.1,0.1,0.1,0.1 c0,0,0,0,0,0c0,0,0,0.1,0.1,0.1c0,0.1,0,0.1,0,0.1c0,0,0,0,0.1,0.1c0,0.1,0,0.1,0,0.1s0,0,0.1,0.1c0.1,0.4,0-0.1,0.1,0.3 c0,0,0,0,0,0c0,0,0,0,0,0.1c0,0,0,0,0,0c0,0,0,0,0,0.1v0c0,0,0,0,0,0.1c0,0.1,0,0,0,0.1c0,0.1,0,0,0,0.1c0,0.1,0,0,0,0.1 c-0.1,0,0-0.1-0.1,0.1l-0.6,0.7l-0.5,0.3c0.1,0.4,0.3,0.7,0.4,1.1l0.6-0.2l0.9,0.1l0,0.2c0,0,0,0,0,0c0.1,0,0-0.1,0.1,0 c0.1,0,0-0.1,0.1,0c0.1,0.1,0,0,0.1,0.1c0.1,0.1,0,0,0.1,0.1c0.2,0.1,0,0,0.1,0.1c0.1,0.1,0.1,0.1,0.1,0.1c0,0,0,0.1,0.1,0.1 c0.1,0.2,0-0.1,0.1,0.1c0,0.1,0,0.1,0.1,0.1s0,0,0,0.1c0,0.1,0.1,0.2,0.1,0.2c0,0,0,0.1,0,0.1c0,0.2,0,0.5,0,0.7l0.2,0.1 c-0.1,0.5,0-0.2-0.1,0.3c0,0.1,0,0.1-0.1,0.1c0,0,0,0,0,0.1c-0.1,0.2,0-0.1-0.1,0.1c0,0-0.1,0.1-0.1,0.1c0,0,0,0,0,0 c0,0,0,0-0.1,0.1c-0.1,0.1,0,0-0.1,0.1c-0.1,0.1,0,0-0.1,0.1s0,0-0.1,0.1c-0.1,0,0-0.1-0.1,0c-0.1,0,0-0.1-0.1,0 c-0.1,0,0,0-0.1,0c0,0,0,0-0.1,0l-0.9,0.1l-0.7-0.2c-0.1,0.4-0.2,0.8-0.4,1.1l0.6,0.3l0.6,0.7l0.3,0.1c0,0.1,0,0,0,0.1 c0,0,0,0.1,0,0.1c0,0,0,0,0,0c0,0,0,0,0,0c0,0,0,0,0,0.1c0,0,0,0,0,0c0,0,0,0,0,0.1c0,0,0,0,0,0c0,0,0,0,0,0.1 c-0.1,0.4,0-0.1-0.1,0.3c0,0.1,0,0.1,0,0.1c0,0,0,0-0.1,0.1c0,0.1,0,0.1,0,0.1c0,0,0,0,0,0.1C19.6,18,19.6,18,19.6,18 c0,0,0,0,0,0c0,0,0,0,0,0c0,0,0,0-0.1,0.1c-0.1,0.1-0.2,0.2-0.3,0.3c-0.1,0-0.1,0.1-0.1,0.1c0,0,0,0,0,0c0,0-0.1,0-0.1,0.1 c-0.1,0-0.1,0-0.1,0c0,0,0,0-0.1,0c-0.1,0-0.1,0-0.1,0.1c0,0,0,0-0.1,0c-0.4,0.1,0.1,0-0.3,0.1c0,0,0,0,0,0c0,0,0,0-0.1,0 c0,0,0,0,0,0c0,0,0,0-0.1,0c0,0,0,0,0,0c0,0,0,0-0.1,0c0,0-0.1,0-0.1,0c0,0,0,0,0,0c-0.1,0,0,0-0.1,0c-0.1,0,0,0-0.1,0 c-0.1-0.1,0,0-0.2-0.1l-0.7-0.6l-0.3-0.5c-0.4,0.1-0.7,0.3-1.1,0.4l0.2,0.6l-0.1,0.9l-0.1,0c0,0,0,0,0,0.1c0,0.1,0.1,0,0,0.1 c-0.1,0.1,0,0-0.1,0.1c-0.1,0.1,0,0-0.1,0.1c-0.1,0.2,0,0-0.1,0.1c0,0-0.1,0.1-0.1,0.1c0,0,0,0,0,0c-0.1,0.1-0.1,0.1-0.1,0.1 c0,0-0.1,0-0.1,0.1c-0.2,0.1,0.1,0-0.1,0.1c-0.1,0-0.1,0-0.1,0c0,0,0,0-0.1,0.1c-0.5,0.1,0.2,0-0.3,0.1c-0.2,0-0.4,0-0.6,0l0,0.2 c-0.4-0.1,0.2,0-0.3-0.1c-0.1,0-0.1,0-0.1,0c0,0,0,0-0.1,0c-0.2-0.1,0.1,0-0.1-0.1c0,0-0.1-0.1-0.1-0.1c0,0,0,0,0,0s0,0-0.1-0.1 c-0.2-0.1,0,0-0.1-0.1c-0.1-0.1,0,0-0.1-0.1C12.4,20.1,12.5,20.2,12.4,20.1z"/>
      </g>
      <g>
        <line class="st0" x1="9.1" y1="15.6" x2="8.5" y2="15.9"/>
        <line class="st0" x1="18.5" y1="10.4" x2="19.1" y2="10.1"/>
        <polyline class="st0" points="12.3,18.2 12.2,18.4 12.1,18.8 &#9;&#9;&#9;"/>
        <line class="st0" x1="16.4" y1="17.7" x2="16.7" y2="18.3"/>
        <line class="st0" x1="11.2" y1="8.3" x2="10.9" y2="7.7"/>
        <line class="st0" x1="19.1" y1="15.9" x2="18.5" y2="15.6"/>
        <line class="st0" x1="8.6" y1="11.5" x2="8" y2="11.3"/>
        <line class="st0" x1="19" y1="14.5" x2="19.6" y2="14.7"/>
        <path class="st0" d="M8.6,7.3C8.6,7.3,8.6,7.3,8.6,7.3C8.4,7.6,8.3,7.7,8.1,7.8"/>
        <path class="st0" d="M19.5,7.8c-0.1-0.1-0.1-0.1-0.1-0.2c-0.1-0.1-0.2-0.2-0.4-0.3"/>
        <path class="st0" d="M14.1,5.4c-0.2,0-0.4,0-0.6,0c0,0-0.1,0-0.1,0"/>
        <path class="st0" d="M6.1,12.7c0,0.2,0,0.5,0,0.7"/>
        <path class="st0" d="M8.1,18.2C8.1,18.2,8.1,18.2,8.1,18.2c0.2,0.2,0.3,0.3,0.5,0.5"/>
        <path class="st0" d="M13.5,20.7c0.2,0,0.4,0,0.6,0c0,0,0.1,0,0.1,0"/>
        <path class="st0" d="M19,18.7c0.1-0.1,0.1-0.1,0.2-0.2c0.1-0.1,0.2-0.2,0.3-0.3"/>
        <path class="st0" d="M8.9,7.2C8.9,7.2,8.9,7.2,8.9,7.2c0,0-0.1,0-0.1,0C8.5,7.4,9,7.1,8.6,7.4"/>
        <path class="st0" d="M9.1,7.1C9.1,7.1,9.1,7.1,9.1,7.1c0,0,0,0-0.1,0c-0.1,0-0.1,0-0.1,0.1"/>
        <path class="st0" d="M9.4,7c0,0,0,0-0.2,0C9.1,7,9.1,7,9.1,7.1"/>
        <path class="st0" d="M10.2,7.1L10.2,7.1C10,7,10.1,7.1,10.2,7.1C10,7,10.1,7,10,7s0,0-0.1,0h0c0,0,0,0-0.1,0h0c0,0,0,0-0.1,0h0 c0,0,0,0-0.1,0c0,0,0,0,0,0c0,0,0,0-0.1,0C9.4,7,9.4,7,9.4,7c0,0,0,0,0,0"/>
        <path class="st0" d="M7.8,8.4C7.8,8.4,7.8,8.4,7.8,8.4c0,0,0,0.1,0,0.1c-0.1,0.4,0-0.1-0.1,0.3c0,0,0,0,0,0v0c0,0,0,0,0,0 c0,0,0,0,0,0v0c0,0,0,0,0,0c0,0,0,0.1,0,0.1v0v0c0,0.1,0,0,0,0.1c0,0.1,0,0,0,0.1c0,0.1,0,0,0,0.1c0,0,0,0,0,0"/>
        <path class="st0" d="M7.9,8.2c0,0,0,0,0,0.1c0,0.1,0,0.1-0.1,0.1"/>
        <line class="st0" x1="7.9" y1="8.2" x2="7.9" y2="8.2"/>
        <path class="st0" d="M8,8C8,8,8,8,8,8c0,0,0.2-0.1,0,0.1c-0.1,0-0.1,0.1-0.1,0.1c0,0,0,0,0,0"/>
        <path class="st0" d="M8.1,7.8C8,7.9,8,7.9,8,8"/>
        <path class="st0" d="M6.1,12.1C6.1,12.1,6.1,12.1,6.1,12.1c0,0,0,0.1-0.1,0.1c-0.1,0.5,0-0.2-0.1,0.3"/>
        <path class="st0" d="M7.1,11.4C7.1,11.4,7,11.4,7.1,11.4c-0.2,0-0.1,0-0.2,0c-0.1,0.1,0,0-0.1,0c-0.1,0.1,0,0-0.1,0 c-0.1,0.1,0,0-0.1,0.1s0,0-0.1,0.1c-0.1,0.1,0,0-0.1,0.1c0,0-0.1,0.1-0.1,0.1c0,0,0,0,0,0c0,0,0,0-0.1,0.1 c-0.1,0.2,0-0.1-0.1,0.1c0,0.1,0,0.1,0,0.1"/>
        <line class="st0" x1="20.3" y1="11.6" x2="20.3" y2="11.6"/>
        <path class="st0" d="M21.1,11.9C21.1,11.9,21.1,11.9,21.1,11.9c0,0.1,0,0.1-0.1,0c-0.1-0.1,0.1,0-0.1-0.1c-0.1-0.1,0,0-0.1-0.1 c-0.1-0.1,0,0-0.1-0.1c-0.1-0.1,0,0-0.1,0c-0.1-0.1,0,0-0.1,0c0,0,0,0,0,0s0,0-0.1,0c-0.1,0,0,0-0.1,0"/>
        <path class="st0" d="M21.4,12.3c0,0,0,0-0.1-0.1c-0.1-0.2,0,0.1-0.1-0.1c0-0.1,0-0.1-0.1-0.1"/>
        <path class="st0" d="M21.5,12.5C21.5,12.5,21.5,12.5,21.5,12.5C21.5,12.6,21.5,12.6,21.5,12.5c0,0.1,0,0-0.1-0.1 c0-0.1,0-0.1,0-0.1c0,0,0,0,0,0"/>
        <path class="st0" d="M21.5,12.7c0-0.1,0-0.1,0-0.1c0,0,0-0.1,0-0.1"/>
        <path class="st0" d="M19.4,7.8c0,0,0-0.1-0.1-0.1"/>
        <line class="st0" x1="19.4" y1="7.9" x2="19.4" y2="7.9"/>
        <path class="st0" d="M19.4,7.8C19.4,7.8,19.4,7.8,19.4,7.8"/>
        <path class="st0" d="M19.5,8.1c0,0,0,0,0-0.1c0-0.1-0.1-0.1-0.1-0.1c0,0,0,0,0,0"/>
        <path class="st0" d="M19.6,8.3c0,0,0,0,0-0.1c0-0.1,0-0.1-0.1-0.1c0,0,0,0,0,0"/>
        <path class="st0" d="M19.7,9.4C19.8,9.2,19.7,9.3,19.7,9.4c0.1-0.2,0.1-0.1,0.1-0.2c0-0.1,0,0,0-0.1c0-0.1,0,0,0-0.1 c0-0.1,0-0.1,0-0.1v0c0-0.1,0-0.1,0-0.1c0,0,0,0,0,0c0-0.1,0-0.1,0-0.1c0,0,0,0,0,0c-0.1-0.4,0,0.1-0.1-0.3c0-0.1,0-0.1-0.1-0.1 c0,0,0,0,0,0"/>
        <path class="st0" d="M19.7,9.4C19.7,9.4,19.7,9.4,19.7,9.4"/>
        <path class="st0" d="M18.1,7c0,0,0.1,0-0.1,0c0,0,0,0,0,0c0,0,0,0-0.1,0c0,0,0,0,0,0c0,0,0,0-0.1,0c0,0,0,0,0,0c0,0,0,0-0.1,0h0 c0,0,0,0-0.1,0c-0.1,0,0,0-0.1,0s0,0-0.1,0s0,0-0.1,0c-0.1,0,0,0-0.1,0"/>
        <path class="st0" d="M18.4,7C18.4,7,18.4,7,18.4,7c0,0,0,0-0.1,0c-0.1,0-0.1,0-0.1,0c0,0,0,0,0,0"/>
        <path class="st0" d="M18.6,7.1c0,0,0,0-0.1-0.1c0,0,0,0-0.1,0"/>
        <path class="st0" d="M18.8,7.2c0,0-0.1,0-0.1-0.1c-0.1,0-0.1,0-0.1,0c0,0,0,0,0,0"/>
        <path class="st0" d="M18.9,7.2C18.9,7.2,18.9,7.2,18.9,7.2"/>
        <line class="st0" x1="18.8" y1="7.2" x2="18.8" y2="7.2"/>
        <path class="st0" d="M18.8,7.2C18.8,7.2,18.8,7.2,18.8,7.2C18.9,7.2,18.9,7.2,18.8,7.2"/>
        <path class="st0" d="M19,7.3c-0.1-0.1-0.1-0.1-0.1-0.1"/>
        <path class="st0" d="M14.6,5.2c0,0,0,0-0.1-0.1c-0.5-0.1,0.2,0-0.3-0.1"/>
        <path class="st0" d="M15.4,6.2L15.4,6.2C15.3,6.1,15.4,6.2,15.4,6.2c-0.1-0.2,0-0.1,0-0.2c-0.1-0.1,0,0-0.1-0.1 c-0.1-0.1,0,0-0.1-0.1c-0.1-0.1,0,0-0.1-0.1c-0.1-0.1,0.1,0-0.1-0.1c0,0-0.1-0.1-0.1-0.1c0,0,0,0,0,0c0,0,0,0-0.1-0.1 c-0.2-0.1,0.1,0-0.1-0.1c-0.1,0-0.1,0-0.1-0.1c0,0,0,0,0,0"/>
        <path class="st0" d="M15.4,6.3C15.3,6.2,15.4,6.2,15.4,6.3"/>
        <path class="st0" d="M15.4,6.3L15.4,6.3C15.4,6.3,15.4,6.3,15.4,6.3"/>
        <path class="st0" d="M12.8,5.8c0,0,0,0-0.1,0.1c-0.1,0.1,0.1,0-0.1,0.1c-0.1,0.1,0,0-0.1,0.1s0,0-0.1,0.1c-0.1,0.1,0,0-0.1,0.1 c0,0,0,0,0,0c0,0,0,0,0,0.1c-0.1,0.1,0,0,0,0.1c0,0,0,0,0,0"/>
        <path class="st0" d="M13.1,5.6C13.1,5.6,13.1,5.6,13.1,5.6c0,0-0.1,0-0.1,0c-0.2,0.1,0.1,0-0.1,0.1c0,0-0.1,0-0.1,0.1 c0,0-0.1,0-0.1,0"/>
        <path class="st0" d="M13.5,5.4c-0.5,0.1,0.2,0-0.3,0.1c-0.1,0-0.1,0-0.1,0.1"/>
        <path class="st0" d="M21.5,13.9C21.5,13.9,21.5,13.9,21.5,13.9c0,0,0-0.1,0.1-0.1c0.1-0.5,0,0.2,0.1-0.3l-0.2-0.1 c0-0.2,0-0.5,0-0.7"/>
        <path class="st0" d="M20.5,14.6c0.1,0,0.1,0,0.1,0c0.1,0,0,0,0.1,0c0.1-0.1,0,0,0.1,0c0.1-0.1,0,0,0.1,0c0.1-0.1,0,0,0.1-0.1 s0,0,0.1-0.1c0.1-0.1,0,0,0.1-0.1c0-0.1,0.1-0.1,0.1-0.1c0,0,0,0,0,0c0,0,0,0,0.1-0.1c0.1-0.2,0,0.1,0.1-0.1c0-0.1,0-0.1,0-0.1"/>
        <line class="st0" x1="7.3" y1="14.5" x2="7.3" y2="14.5"/>
        <path class="st0" d="M6.5,14.1c0,0,0,0,0.1,0.1c0.1,0.1-0.1,0,0.1,0.1c0.1,0.1-0.1,0,0.1,0.1c0.1,0.1,0,0,0.1,0.1s0,0,0.1,0 c0,0,0,0,0.1,0c0,0,0,0,0,0c0.1,0,0,0,0.1,0c0.1,0,0,0,0.1,0"/>
        <path class="st0" d="M6.2,13.8C6.2,13.8,6.2,13.8,6.2,13.8c0,0,0,0.1,0.1,0.1c0.1,0.2,0-0.1,0.1,0.1c0,0.1,0,0.1,0.1,0.1 c0,0,0,0.1,0,0.1"/>
        <path class="st0" d="M6.1,13.4c0.1,0.5,0-0.2,0.1,0.3c0,0.1,0,0.1,0.1,0.1"/>
        <path class="st0" d="M8.1,18.1c0,0,0,0.1,0.1,0.1"/>
        <path class="st0" d="M8.1,18C8.1,18,8.1,18,8.1,18"/>
        <polyline class="st0" points="8.1,18.1 8.1,18.1 8.1,18 &#9;&#9;&#9;"/>
        <line class="st0" x1="8.1" y1="18.1" x2="8.1" y2="18.1"/>
        <path class="st0" d="M8,17.9C8,17.9,8,17.9,8,17.9C8.1,18,8.1,18,8.1,18l0,0c0,0,0,0,0,0v0"/>
        <path class="st0" d="M7.9,17.7C7.9,17.7,7.9,17.7,7.9,17.7c0,0,0,0.1,0.1,0.1c0,0.1,0,0.1,0,0.1c0,0,0,0,0,0l0,0"/>
        <path class="st0" d="M7.9,16.6c-0.1,0.2,0,0.1-0.1,0.1c0,0.1,0,0,0,0.1c0,0.1,0,0,0,0.1v0v0c0,0,0,0,0,0.1c0,0,0,0,0,0v0 c0,0,0,0,0,0s0,0,0,0v0c0,0,0,0,0,0c0,0,0,0,0,0v0c0,0,0,0,0,0c0.1,0.4,0-0.1,0.1,0.3c0,0.1,0,0.1,0,0.1"/>
        <path class="st0" d="M7.9,16.6C7.9,16.6,7.9,16.6,7.9,16.6"/>
        <line class="st0" x1="10.2" y1="19.1" x2="10.2" y2="19.1"/>
        <path class="st0" d="M9.2,19C9.2,19,9.2,19,9.2,19c0.4,0.1-0.1,0,0.3,0.1c0.1,0,0.1,0,0.1,0c0,0,0,0,0,0c0.1,0,0.1,0,0.1,0 c0,0,0,0,0,0c0.1,0,0.1,0,0.1,0c0,0,0,0,0,0c0,0,0,0,0,0c0,0,0,0,0.1,0c0.1,0,0,0,0.1,0s0,0,0.1,0c0.1,0,0,0,0.1,0"/>
        <path class="st0" d="M9,19C9,19,9,19,9,19c0,0,0.1,0,0.1,0c0.1,0,0.1,0,0.1,0c0,0,0,0,0,0l0,0"/>
        <path class="st0" d="M8.8,18.8c0,0,0.1,0,0.1,0.1c0,0,0.1,0,0.1,0s0,0,0,0"/>
        <line class="st0" x1="8.7" y1="18.8" x2="8.7" y2="18.8"/>
        <path class="st0" d="M8.8,18.8C8.8,18.8,8.8,18.8,8.8,18.8"/>
        <path class="st0" d="M8.8,18.8C8.8,18.8,8.7,18.8,8.8,18.8C8.7,18.8,8.7,18.8,8.8,18.8"/>
        <path class="st0" d="M8.6,18.7c0.1,0,0.1,0.1,0.1,0.1"/>
        <path class="st0" d="M13.1,20.8C13.1,20.8,13.1,20.8,13.1,20.8c0,0,0.1,0,0.1,0c0.5,0.1-0.2,0,0.3,0.1c0,0,0,0,0,0"/>
        <path class="st0" d="M12.2,19.7c0.1,0.2,0,0.1,0.1,0.1c0.1,0.1,0,0,0,0.1c0.1,0.1,0,0,0,0.1c0.1,0.1,0,0,0.1,0.1 c0.1,0.1,0,0,0.1,0.1c0.1,0.1,0,0,0.1,0.1c0.1,0.1-0.1,0,0.1,0.1c0.1,0.1,0.1,0.1,0.1,0.1s0,0,0,0c0,0,0,0,0.1,0.1 c0.2,0.1-0.1,0,0.1,0.1c0.1,0,0.1,0,0.1,0"/>
        <path class="st0" d="M12.2,19.7C12.2,19.7,12.2,19.7,12.2,19.7"/>
        <path class="st0" d="M14.9,20.3C14.9,20.3,14.9,20.3,14.9,20.3c-0.1,0-0.1,0,0-0.1c0,0,0,0,0,0c0,0,0,0,0.1-0.1 c0.1-0.1,0,0.1,0.1-0.1c0.1-0.1,0,0,0.1-0.1c0.1-0.1,0,0,0.1-0.1c0.1-0.1,0,0,0-0.1c0,0,0,0,0-0.1c0,0,0,0,0,0c0-0.1,0,0,0-0.1 c0,0,0,0,0,0"/>
        <path class="st0" d="M14.5,20.5c0,0,0,0,0.1,0c0.2-0.1-0.1,0,0.1-0.1c0.1,0,0.1,0,0.1-0.1"/>
        <path class="st0" d="M14.1,20.7c0.5-0.1-0.2,0,0.3-0.1c0.1,0,0.1,0,0.1-0.1c0,0,0,0,0,0"/>
        <path class="st0" d="M19.1,18.6c0,0,0.1,0,0.1-0.1"/>
        <polyline class="st0" points="19,18.6 19,18.6 19,18.6 &#9;&#9;&#9;"/>
        <path class="st0" d="M18.8,18.8c0,0,0,0,0.1,0c0.1-0.1,0.1-0.1,0.1-0.1c0,0,0,0,0,0v0"/>
        <path class="st0" d="M18.6,18.9c0,0,0.1,0,0.1-0.1c0.1,0,0.1,0,0.1,0c0,0,0,0,0,0"/>
        <path class="st0" d="M17.4,18.9L17.4,18.9c0.2,0.1,0.1,0,0.2,0.1c0.1,0,0,0,0.1,0c0.1,0,0,0,0.1,0c0,0,0,0,0,0c0,0,0,0,0.1,0 c0.1,0,0.1,0,0.1,0c0,0,0,0,0,0c0.1,0,0.1,0,0.1,0c0,0,0,0,0,0c0.1,0,0.1,0,0.1,0c0,0,0,0,0,0c0.4-0.1-0.1,0,0.3-0.1 c0.1,0,0.1,0,0.1,0c0,0,0,0,0,0"/>
        <path class="st0" d="M19.9,17.6C19.9,17.6,19.9,17.6,19.9,17.6c0,0,0-0.1,0-0.1c0.1-0.4,0,0.1,0.1-0.3c0-0.1,0-0.1,0-0.1 c0,0,0,0,0,0c0-0.1,0-0.1,0-0.1c0,0,0,0,0,0c0-0.1,0-0.1,0-0.1c0,0,0,0,0,0c0,0,0,0,0,0c0,0,0,0,0-0.1c0-0.1,0,0,0-0.1 c0-0.1,0,0,0-0.1s0,0,0-0.1c0,0,0,0,0,0"/>
        <path class="st0" d="M19.8,17.8C19.8,17.8,19.8,17.8,19.8,17.8c0,0,0-0.1,0-0.1c0-0.1,0-0.1,0.1-0.1"/>
        <path class="st0" d="M19.8,17.8C19.7,17.8,19.7,17.8,19.8,17.8C19.6,18,19.6,18,19.6,18c0,0,0,0,0,0c0,0,0,0,0,0"/>
        <path class="st0" d="M19.5,18.2C19.5,18.2,19.5,18.1,19.5,18.2c0.1-0.1,0.1-0.1,0.1-0.1"/>
        <path class="st0" d="M7.1,14.6L8,14.7l0.6-0.2c0.1,0.4,0.3,0.7,0.4,1.1l-0.5,0.3l-0.6,0.7"/>
        <line class="st0" x1="12.1" y1="19" x2="12.2" y2="19.7"/>
        <line class="st0" x1="12.1" y1="18.8" x2="12.1" y2="19"/>
        <path class="st0" d="M10.2,18.9l0.7-0.6l0.3-0.6c0.3,0.2,0.7,0.3,1.1,0.4l-0.1,0.2L12.1,19v0"/>
        <path class="st0" d="M15.4,19.7L15.4,19.7l0.1-0.9l-0.2-0.6c0.4-0.1,0.7-0.3,1.1-0.4l0.3,0.5l0.7,0.6"/>
        <path class="st0" d="M20.5,11.4L20.5,11.4l-0.9-0.1L19,11.5c-0.1-0.4-0.3-0.7-0.4-1.1l0.5-0.3l0.6-0.7"/>
        <path class="st0" d="M17.4,7.1l-0.7,0.6l-0.3,0.6C16,8.1,15.7,8,15.3,7.8l0.2-0.6l-0.1-0.9"/>
        <path class="st0" d="M12.2,6.3L12.2,6.3l-0.1,0.9l0.2,0.6c-0.4,0.1-0.7,0.3-1.1,0.4l-0.3-0.5l-0.7-0.6"/>
        <path class="st0" d="M7.9,9.4l0.6,0.7l0.6,0.3c-0.2,0.3-0.3,0.7-0.4,1.1L8,11.3l-0.9,0.1"/>
        <polyline class="st0" points="20,16.7 19.7,16.6 19.1,15.9 &#9;&#9;&#9;"/>
        <path class="st0" d="M19.3,15.9l-0.8-0.3c0.2-0.3,0.3-0.7,0.4-1.1l0.7,0.2l0.9-0.1"/>
      </g>
    </g>
  </g>
</svg>