<?xml version="1.0" encoding="utf-8"?>
<!-- Generator: Adobe Illustrator 26.1.0, SVG Export Plug-In . SVG Version: 6.00 Build 0)  -->
<svg version="1.1" id="Layer_1" xmlns="http://www.w3.org/2000/svg" xmlns:xlink="http://www.w3.org/1999/xlink" x="0px" y="0px"
	 viewBox="0 0 23.1 15.2" style="enable-background:new 0 0 23.1 15.2;" xml:space="preserve">
<style type="text/css">
	.st0{fill:#231F20;}
	.st1{fill:none;stroke:#FFFFFF;stroke-width:0.4659;stroke-linecap:round;stroke-linejoin:round;stroke-miterlimit:500;}
	.st2{fill:none;stroke:#FFFFFF;stroke-width:0.4659;stroke-linecap:round;stroke-linejoin:round;stroke-miterlimit:499.9816;}
	.st3{fill:#FFFFFF;}
	.st4{fill:none;stroke:#231F20;stroke-width:0.25;stroke-miterlimit:10;}
</style>
<g id="XMLID_00000013169401990625611620000003852258828473452214_">
	<g>
		<path class="st0" d="M22.2,2.5C22.2,2.5,22.2,2.5,22.2,2.5L22.2,2.5L22.2,2.5z"/>
		<path class="st0" d="M22.2,13C22.2,13,22.2,13,22.2,13L22.2,13L22.2,13z"/>
		<path class="st0" d="M22.2,2.5L22.2,2.5C22.2,2.5,22.2,2.5,22.2,2.5L22.2,2.5z"/>
		<path class="st0" d="M22.2,13L22.2,13L22.2,13C22.2,13,22.2,13,22.2,13z"/>
		<path class="st0" d="M22.2,2.5C22.2,2.5,22.2,2.5,22.2,2.5L22.2,2.5L22.2,2.5z"/>
		<path class="st0" d="M22.2,13C22.2,13,22.2,13,22.2,13L22.2,13L22.2,13z"/>
		<path class="st0" d="M22.2,13L22.2,13C22.2,13,22.2,13,22.2,13C22.2,13,22.2,13,22.2,13z"/>
		<path class="st0" d="M22.2,2.5L22.2,2.5L22.2,2.5C22.2,2.5,22.2,2.5,22.2,2.5z"/>
		<path class="st0" d="M21.9,2.1L21.9,2.1C22,2.1,22,2.1,21.9,2.1C22,2.1,22,2.1,21.9,2.1z"/>
		<path class="st0" d="M21.9,2L21.9,2C21.9,2.1,21.9,2.1,21.9,2C21.9,2,21.9,2,21.9,2z"/>
		<path class="st0" d="M21.9,3.4C22,3.4,22,3.4,21.9,3.4L21.9,3.4z"/>
		<path class="st0" d="M21.9,3C21.9,3,21.9,3.1,21.9,3C21.9,3,21.9,3,21.9,3z"/>
		<path class="st0" d="M21.9,12.4C21.9,12.4,21.9,12.4,21.9,12.4C21.9,12.4,21.9,12.5,21.9,12.4C21.9,12.5,21.9,12.4,21.9,12.4z"/>
		<path class="st0" d="M21.6,1.8C21.6,1.8,21.6,1.8,21.6,1.8C21.6,1.8,21.6,1.8,21.6,1.8z"/>
		<path class="st0" d="M21.3,14C21.3,14,21.3,14,21.3,14L21.3,14C21.3,14,21.3,14,21.3,14z"/>
		<path class="st0" d="M21.3,14C21.3,14,21.3,14,21.3,14L21.3,14L21.3,14z"/>
		<path class="st0" d="M21.3,14L21.3,14L21.3,14C21.3,14,21.3,14,21.3,14z"/>
		<path class="st0" d="M21.3,14C21.3,14,21.3,14,21.3,14L21.3,14L21.3,14z"/>
		<path class="st0" d="M21.3,13.3L21.3,13.3L21.3,13.3C21.2,13.3,21.2,13.3,21.3,13.3z"/>
		<path class="st0" d="M21.2,1.5C21.2,1.5,21.2,1.5,21.2,1.5L21.2,1.5L21.2,1.5z"/>
		<path class="st0" d="M21.2,1.5L21.2,1.5L21.2,1.5C21.2,1.5,21.2,1.5,21.2,1.5z"/>
		<path class="st0" d="M21.2,1.5L21.2,1.5C21.2,1.5,21.2,1.5,21.2,1.5L21.2,1.5z"/>
		<path class="st0" d="M21.2,1.5L21.2,1.5L21.2,1.5C21.2,1.5,21.2,1.5,21.2,1.5z"/>
		<path class="st0" d="M21,13.5C21,13.5,21,13.5,21,13.5C21,13.5,21,13.5,21,13.5z"/>
		<path class="st0" d="M20.7,13.7C20.7,13.7,20.6,13.7,20.7,13.7L20.7,13.7C20.6,13.7,20.7,13.7,20.7,13.7z"/>
		<path class="st0" d="M3.3,14.3L3.3,14.3C3.3,14.3,3.2,14.3,3.3,14.3C3.2,14.3,3.2,14.3,3.3,14.3C3.2,14.3,3.3,14.3,3.3,14.3z"/>
		<path class="st0" d="M3.1,13.7L3.1,13.7C3.1,13.7,3,13.7,3.1,13.7C3,13.7,3,13.7,3.1,13.7z"/>
		<path class="st0" d="M2.9,1.9C3,1.9,3,1.9,2.9,1.9C3,1.9,2.9,1.9,2.9,1.9z"/>
		<path class="st0" d="M2.4,1.5C2.4,1.5,2.4,1.5,2.4,1.5L2.4,1.5C2.4,1.5,2.4,1.5,2.4,1.5z"/>
		<path class="st0" d="M2.4,14C2.4,14,2.4,14,2.4,14L2.4,14L2.4,14z"/>
		<path class="st0" d="M2.4,1.5C2.4,1.5,2.4,1.5,2.4,1.5L2.4,1.5L2.4,1.5z"/>
		<path class="st0" d="M2.4,14L2.4,14L2.4,14C2.4,14,2.4,14,2.4,14z"/>
		<path class="st0" d="M2.4,1.5L2.4,1.5L2.4,1.5C2.4,1.5,2.4,1.5,2.4,1.5z"/>
		<path class="st0" d="M2.4,14L2.4,14C2.4,14,2.4,14,2.4,14L2.4,14z"/>
		<path class="st0" d="M2.4,1.5C2.4,1.5,2.4,1.5,2.4,1.5L2.4,1.5L2.4,1.5z"/>
		<path class="st0" d="M2.4,14L2.4,14L2.4,14C2.4,14,2.4,14,2.4,14z"/>
		<path class="st0" d="M2,12.8C2,12.8,2,12.8,2,12.8C2,12.8,2,12.8,2,12.8z"/>
		<path class="st0" d="M1.8,12.4C1.8,12.4,1.8,12.4,1.8,12.4C1.8,12.4,1.8,12.5,1.8,12.4C1.8,12.5,1.8,12.4,1.8,12.4z"/>
		<path class="st0" d="M1.7,3C1.7,3,1.7,3,1.7,3C1.7,3.1,1.7,3,1.7,3z"/>
		<path class="st0" d="M1.7,2C1.6,2.1,1.7,2,1.7,2L1.7,2z"/>
		<path class="st0" d="M3.1,13.7C3,13.7,3,13.7,3.1,13.7C3,13.7,3.1,13.7,3.1,13.7L3.1,13.7z M3,1.9C3,1.9,3,1.9,3,1.9
			C2.9,1.9,3,1.9,3,1.9z M21.9,3.4C22,3.4,22,3.4,21.9,3.4L21.9,3.4z M20.7,13.7C20.7,13.7,20.6,13.7,20.7,13.7L20.7,13.7
			C20.6,13.7,20.7,13.7,20.7,13.7z M21,13.5C21,13.5,21,13.5,21,13.5C21,13.5,21,13.5,21,13.5z M21.3,13.3
			C21.2,13.3,21.2,13.3,21.3,13.3L21.3,13.3L21.3,13.3z M1.8,12.4C1.8,12.4,1.8,12.5,1.8,12.4C1.8,12.5,1.8,12.4,1.8,12.4
			C1.8,12.4,1.8,12.4,1.8,12.4z M1.7,3C1.7,3,1.7,3.1,1.7,3C1.7,3,1.7,3,1.7,3z M2,12.8C2,12.8,2,12.8,2,12.8C2,12.8,2,12.8,2,12.8z
			 M21.9,3.1C21.9,3.1,21.9,3,21.9,3.1C21.9,3,21.9,3,21.9,3.1z M21.9,12.4C21.9,12.4,21.9,12.4,21.9,12.4
			C21.9,12.4,21.9,12.5,21.9,12.4C21.9,12.5,21.9,12.4,21.9,12.4z M20.7,14.2c-0.7,0.1,0.2,0-0.5,0.1h-0.1H3.5c-0.1,0-0.2,0-0.2,0
			c0,0,0,0,0,0c0,0,0,0,0,0c0,0-0.1,0-0.2-0.1c-0.7-0.2,0.2,0.1-0.4-0.1c-0.1,0-0.1-0.1-0.2-0.1l0,0c0,0,0,0,0,0c0,0,0,0,0,0
			c0,0-0.1,0-0.2-0.1c0,0-0.1-0.1-0.1-0.1c0,0,0,0-0.2-0.2c-0.1-0.1-0.1-0.2-0.2-0.2c0,0-0.1,0-0.2-0.2c0-0.1-0.1-0.1-0.1-0.2
			c0,0,0,0,0,0c0,0,0,0,0,0c0,0,0,0,0,0c0,0,0,0,0,0l0,0c0,0,0-0.1-0.1-0.2c-0.1-0.4,0-0.2,0-0.2c0,0,0,0,0,0c0,0,0-0.1-0.1-0.2
			c-0.1-0.7,0,0.2-0.1-0.5h0.1V3.6c0-0.1,0-0.2,0-0.2v0c0,0,0,0,0,0c0,0,0,0,0,0c0,0,0-0.1,0.1-0.2c0.2-0.7-0.1,0.2,0.1-0.4
			c0-0.1,0.1-0.1,0.1-0.2c0,0,0,0,0,0c0,0,0,0,0,0c0,0,0,0,0,0v0c0,0,0-0.1,0.1-0.2C1.7,2.1,1.8,2.1,1.8,2c0,0,0.1-0.1,0.1-0.1
			C2,1.8,2.1,1.8,2.1,1.7c0,0,0,0-0.1,0c0,0,0.1-0.1,0.2-0.2c0.1,0,0.1-0.1,0.2-0.1c0,0,0,0,0,0c0,0,0,0,0,0c0,0,0,0,0,0
			c0,0,0.1,0,0.2-0.1C3.3,1.2,2.4,1.5,3,1.3c0.7-0.1-0.2,0,0.5-0.1h16.6c0.7,0.1-0.2,0,0.5,0.1c0.7,0.2-0.2-0.1,0.4,0.1
			c0.1,0,0.1,0.1,0.2,0.1l0,0c0,0,0,0,0,0c0,0,0,0,0,0c0,0,0.1,0,0.2,0.1c0.1,0.1,0.2,0.1,0.2,0.1c0,0,0,0,0,0c0,0,0,0,0,0
			c0,0,0.1,0.1,0.1,0.1C21.9,2,21.9,2,21.9,2v0c0,0,0,0,0,0c0,0,0,0,0,0c0,0,0,0,0,0c0,0,0.1,0.1,0.1,0.2c0,0.1,0.1,0.1,0.1,0.2v0
			c0,0,0,0,0,0c0,0,0,0,0,0l0,0c0,0,0,0.1,0.1,0.2c0.2,0.7-0.1-0.2,0.1,0.4c0.1,0.7,0-0.2,0.1,0.5v8.3c-0.1,0.7,0-0.2-0.1,0.5
			c-0.2,0.7,0.1-0.2-0.1,0.4c0,0.1-0.1,0.1-0.1,0.2l0,0c0,0,0,0,0,0c0,0,0,0,0,0c0,0,0,0.1-0.1,0.2C22,13.3,22,13.3,22,13.4
			c0,0,0,0,0,0c0,0-0.1,0.1-0.2,0.2c-0.1,0.1-0.2,0.1-0.2,0.2c0,0,0,0,0.1,0c0,0-0.1,0.1-0.2,0.2c-0.1,0-0.1,0.1-0.2,0.1
			c0,0,0,0,0,0c0,0,0,0,0,0l0,0c0,0-0.1,0-0.2,0.1C20.4,14.3,21.3,14,20.7,14.2z"/>
		<path class="st0" d="M1.5,2.5L1.5,2.5C1.5,2.5,1.5,2.5,1.5,2.5L1.5,2.5z"/>
		<path class="st0" d="M1.5,2.5L1.5,2.5L1.5,2.5C1.5,2.5,1.5,2.5,1.5,2.5z"/>
		<path class="st0" d="M1.5,2.5C1.5,2.5,1.5,2.5,1.5,2.5L1.5,2.5L1.5,2.5z"/>
		<path class="st0" d="M1.5,2.5L1.5,2.5C1.5,2.5,1.5,2.5,1.5,2.5C1.5,2.5,1.5,2.5,1.5,2.5z"/>
		<path class="st0" d="M1.4,13C1.4,13,1.4,13,1.4,13L1.4,13L1.4,13z"/>
		<path class="st0" d="M1.4,13C1.4,13,1.4,13,1.4,13C1.4,13,1.4,13,1.4,13L1.4,13z"/>
		<path class="st0" d="M1.4,13C1.4,13,1.4,13,1.4,13L1.4,13L1.4,13z"/>
		<path class="st0" d="M1.4,13C1.4,13,1.4,13,1.4,13L1.4,13C1.4,13,1.4,13,1.4,13L1.4,13z"/>
		<path class="st0" d="M1.4,13L1.4,13C1.4,13,1.4,13,1.4,13L1.4,13z"/>
		<path class="st0" d="M1.3,12.6C1.3,12.6,1.3,12.6,1.3,12.6L1.3,12.6z"/>
		<path class="st0" d="M1.2,3.4C1.2,3.4,1.2,3.3,1.2,3.4C1.2,3.3,1.2,3.3,1.2,3.4C1.2,3.4,1.2,3.4,1.2,3.4L1.2,3.4z"/>
	</g>
	<g>
		<line class="st1" x1="1.2" y1="11.9" x2="1.2" y2="3.6"/>
		<line class="st1" x1="1.7" y1="11.9" x2="1.7" y2="3.6"/>
		<line class="st1" x1="21.9" y1="3.6" x2="21.9" y2="11.9"/>
		<line class="st1" x1="22.5" y1="3.6" x2="22.5" y2="11.9"/>
		<line class="st1" x1="20.1" y1="14.3" x2="3.5" y2="14.3"/>
		<line class="st1" x1="20.1" y1="13.7" x2="3.5" y2="13.7"/>
		<line class="st1" x1="3.5" y1="1.8" x2="20.1" y2="1.8"/>
		<line class="st1" x1="3.5" y1="1.2" x2="20.1" y2="1.2"/>
		<path class="st1" d="M2.4,1.5C2.4,1.5,2.4,1.5,2.4,1.5C2.4,1.5,2.4,1.5,2.4,1.5c0.1,0,0.2-0.1,0.2-0.1C3.3,1.2,2.4,1.5,3,1.3
			c0.7-0.1-0.2,0,0.5-0.1"/>
		<polyline class="st1" points="2.4,1.5 2.4,1.5 2.4,1.5 2.4,1.5 2.4,1.5 		"/>
		<path class="st1" d="M2,1.8c0,0,0.1-0.1,0.2-0.2c0.1,0,0.1-0.1,0.2-0.1c0,0,0,0,0,0c0,0,0,0,0,0c0,0,0,0,0,0"/>
		<path class="st1" d="M2.1,1.7C2.1,1.7,2,1.8,2.1,1.7C2,1.8,2,1.8,2.1,1.7"/>
		<path class="st1" d="M1.8,2c0,0,0.1-0.1,0.1-0.1C2,1.8,2.1,1.8,2.1,1.7c0,0,0,0,0,0"/>
		<path class="st1" d="M1.7,2C1.7,2,1.6,2.1,1.7,2L1.7,2z"/>
		<line class="st1" x1="1.7" y1="2" x2="1.8" y2="2"/>
		<path class="st1" d="M1.5,2.5C1.5,2.5,1.5,2.5,1.5,2.5C1.5,2.5,1.5,2.5,1.5,2.5C1.5,2.5,1.5,2.5,1.5,2.5"/>
		<polyline class="st1" points="1.5,2.5 1.5,2.5 1.5,2.5 1.5,2.5 		"/>
		<path class="st1" d="M1.5,2.5L1.5,2.5c0,0,0-0.1,0.1-0.2C1.7,2.1,1.8,2.1,1.8,2"/>
		<line class="st1" x1="1.5" y1="2.5" x2="1.5" y2="2.5"/>
		<path class="st1" d="M1.2,3.3c0,0,0-0.1,0.1-0.2c0.2-0.7-0.1,0.2,0.1-0.4c0-0.1,0.1-0.1,0.1-0.2c0,0,0,0,0,0c0,0,0,0,0,0"/>
		<path class="st1" d="M1.2,3.6c0-0.1,0-0.2,0-0.2v0c0,0,0,0,0,0c0,0,0,0,0,0c0-0.1,0,0.1,0,0.1"/>
		<path class="st1" d="M22.2,2.5C22.2,2.5,22.2,2.5,22.2,2.5C22.2,2.5,22.2,2.5,22.2,2.5c0,0.1,0.1,0.2,0.1,0.2
			c0.2,0.7-0.1-0.2,0.1,0.4c0.1,0.7,0-0.2,0.1,0.5"/>
		<polyline class="st1" points="22.2,2.5 22.2,2.5 22.2,2.5 22.2,2.5 22.2,2.5 22.2,2.5 		"/>
		<path class="st1" d="M22.2,2.5C22.2,2.5,22.2,2.5,22.2,2.5C22.2,2.5,22.2,2.5,22.2,2.5"/>
		<path class="st1" d="M21.9,2C21.9,2,21.9,2,21.9,2L21.9,2"/>
		<path class="st1" d="M21.9,2.1L21.9,2.1C22,2.1,22,2.1,21.9,2.1"/>
		<path class="st1" d="M22.2,2.5L22.2,2.5c0,0,0-0.1-0.1-0.2C22,2.2,22,2.1,22,2.1c0,0,0,0,0,0"/>
		<path class="st1" d="M21.9,2C21.9,2.1,21.9,2.1,21.9,2C22,2.1,22,2.1,21.9,2"/>
		<path class="st1" d="M21.6,1.8C21.6,1.8,21.6,1.8,21.6,1.8"/>
		<path class="st1" d="M21.6,1.8c0,0,0.1,0.1,0.1,0.1C21.9,2,21.9,2,21.9,2v0"/>
		<path class="st1" d="M21.6,1.8C21.6,1.8,21.6,1.8,21.6,1.8"/>
		<path class="st1" d="M21.2,1.5C21.2,1.5,21.2,1.5,21.2,1.5C21.2,1.5,21.2,1.5,21.2,1.5c0.1,0,0.2,0.1,0.2,0.1
			c0.1,0.1,0.2,0.1,0.2,0.1c0,0,0,0,0,0"/>
		<polyline class="st1" points="21.2,1.5 21.2,1.5 21.2,1.5 21.2,1.5 21.2,1.5 21.2,1.5 		"/>
		<path class="st1" d="M20.1,1.2c0.7,0.1-0.2,0,0.5,0.1c0.7,0.2-0.2-0.1,0.4,0.1c0.1,0,0.1,0.1,0.2,0.1c0,0,0,0,0,0c0,0,0,0,0,0"/>
		<path class="st1" d="M21.3,14C21.3,14,21.3,14,21.3,14C21.3,14,21.3,14,21.3,14C21.3,14,21.3,14,21.3,14c-0.1,0.1-0.2,0.1-0.2,0.1
			c-0.7,0.2,0.2-0.1-0.4,0.1c-0.7,0.1,0.2,0-0.5,0.1"/>
		<polyline class="st1" points="21.3,14 21.3,14 21.3,14 21.3,14 21.3,14 		"/>
		<path class="st1" d="M21.7,13.7C21.7,13.7,21.7,13.7,21.7,13.7c0,0-0.1,0.1-0.2,0.2c-0.1,0-0.1,0.1-0.2,0.1c0,0,0,0,0,0
			c0,0,0,0,0,0"/>
		<path class="st1" d="M21.6,13.8C21.6,13.8,21.6,13.8,21.6,13.8C21.6,13.8,21.7,13.7,21.6,13.8"/>
		<path class="st1" d="M22,13.3C22,13.3,22,13.3,22,13.3c0,0-0.1,0.1-0.2,0.3c-0.1,0.1-0.2,0.1-0.2,0.2"/>
		<path class="st1" d="M22,13.4C22,13.4,22,13.4,22,13.4"/>
		<path class="st1" d="M22.2,13C22.2,13,22.2,13,22.2,13C22.2,13,22.2,13,22.2,13c0,0.1-0.1,0.2-0.1,0.2C22,13.3,22,13.3,22,13.4
			c0,0,0,0,0,0"/>
		<polyline class="st1" points="22.2,13 22.2,13 22.2,13 22.2,13 22.2,13 		"/>
		<path class="st1" d="M22.5,11.9c-0.1,0.7,0-0.2-0.1,0.5c-0.2,0.7,0.1-0.2-0.1,0.4c0,0.1-0.1,0.1-0.1,0.2c0,0,0,0,0,0c0,0,0,0,0,0
			c0,0,0,0,0,0"/>
		<path class="st1" d="M1.3,12.6c0,0,0-0.1-0.1-0.2c-0.1-0.7,0,0.2-0.1-0.5"/>
		<path class="st1" d="M1.3,12.6C1.3,12.6,1.3,12.6,1.3,12.6L1.3,12.6z"/>
		<path class="st1" d="M1.4,13C1.4,13,1.4,13,1.4,13C1.4,13,1.4,13,1.4,13C1.4,13,1.4,13,1.4,13c-0.1-0.1-0.1-0.2-0.1-0.2
			c-0.1-0.4,0-0.2,0-0.2"/>
		<polyline class="st1" points="1.4,13 1.4,13 1.4,13 		"/>
		<polyline class="st1" points="1.4,13 1.4,13 1.4,13 1.4,13 		"/>
		<path class="st1" d="M1.7,13.3C1.7,13.3,1.7,13.4,1.7,13.3C1.7,13.4,1.7,13.4,1.7,13.3c0,0.1,0,0-0.2-0.1c0-0.1-0.1-0.1-0.1-0.2
			c0,0,0,0,0,0c0,0,0,0,0,0c0,0,0,0,0,0c0,0,0,0,0,0"/>
		<path class="st1" d="M2,13.8C2,13.8,2,13.8,2,13.8C2.1,13.8,2.1,13.8,2,13.8c0.1,0.1,0.1,0-0.1-0.1c-0.1-0.1-0.1-0.2-0.2-0.2"/>
		<path class="st1" d="M2.4,14C2.4,14,2.4,14,2.4,14C2.4,14,2.4,14,2.4,14c-0.1-0.1-0.2-0.1-0.2-0.1c0,0-0.1-0.1-0.1-0.1"/>
		<polyline class="st1" points="2.4,14 2.4,14 2.4,14 2.4,14 2.4,14 2.4,14 		"/>
		<path class="st1" d="M3.2,14.3c0,0-0.1,0-0.2-0.1c-0.7-0.2,0.2,0.1-0.4-0.1c-0.1,0-0.1-0.1-0.2-0.1c0,0,0,0,0,0c0,0,0,0,0,0"/>
		<line class="st1" x1="3.3" y1="14.3" x2="3.3" y2="14.3"/>
		<path class="st1" d="M3.5,14.3c-0.1,0-0.2,0-0.2,0c0,0,0,0,0,0c0,0,0,0,0,0c0,0,0.1,0,0.1,0h0"/>
		<path class="st1" d="M3.3,1.9C3.3,1.9,3.3,1.9,3.3,1.9C3.2,1.9,3.2,1.9,3.3,1.9c-0.1,0,0,0,0.1,0"/>
		<path class="st1" d="M2.9,1.9C2.9,1.9,2.9,1.9,2.9,1.9C2.9,1.9,3,1.9,2.9,1.9c0.1,0,0.1,0,0.2,0c0.1,0,0.1,0,0.1,0"/>
		<path class="st1" d="M2.4,2.2c0,0,0.1,0,0.1-0.1C3,1.9,2.4,2.2,2.8,2C2.9,2,3,1.9,3,1.9c0,0,0,0-0.1,0"/>
		<path class="st1" d="M2.3,2.2C2.3,2.2,2.3,2.2,2.3,2.2"/>
		<path class="st1" d="M2.1,2.4c0,0,0-0.1,0.1-0.1c0.1,0,0.1-0.1,0.1-0.1c0,0,0,0,0,0v0"/>
		<path class="st1" d="M2.1,2.5C2.1,2.5,2.1,2.5,2.1,2.5"/>
		<path class="st1" d="M2.1,2.4C2.1,2.4,2.1,2.4,2.1,2.4"/>
		<path class="st1" d="M1.9,2.8C1.9,2.8,1.9,2.7,1.9,2.8c0,0,0-0.1,0.1-0.2c0-0.1,0.1-0.1,0.1-0.1v0c0,0,0,0,0,0"/>
		<path class="st1" d="M1.7,3C1.7,3,1.7,3,1.7,3C1.7,3,1.7,3.1,1.7,3c0,0,0,0,0.1-0.1C2,2.6,2,2.7,1.9,2.7"/>
		<path class="st1" d="M1.7,3.6c0-0.1,0-0.2,0-0.2c0,0,0-0.1,0-0.2c0-0.1,0-0.1,0-0.1c0,0,0,0,0-0.1"/>
		<path class="st1" d="M21.9,3.3c0,0,0,0,0,0.2"/>
		<path class="st1" d="M21.9,3.4C22,3.4,22,3.4,21.9,3.4L21.9,3.4z"/>
		<path class="st1" d="M21.9,3C21.9,3,21.9,3,21.9,3c0,0.1,0,0.1,0,0.2c0,0.1,0,0.1,0,0.1c0,0,0,0,0,0"/>
		<path class="st1" d="M21.7,2.8C21.7,2.7,21.7,2.7,21.7,2.8c0-0.1,0-0.1,0.1,0.2c0,0.1,0.1,0.2,0.1,0.2c0,0,0,0,0-0.1c0,0,0,0,0,0"
			/>
		<path class="st1" d="M21.5,2.5c0,0,0,0.1,0.1,0.1c0,0.1,0,0.1,0.1,0.1"/>
		<path class="st1" d="M21.5,2.4C21.5,2.4,21.5,2.4,21.5,2.4"/>
		<line class="st1" x1="21.5" y1="2.5" x2="21.5" y2="2.5"/>
		<path class="st1" d="M21.2,2.2L21.2,2.2c0,0,0.1,0,0.2,0.1c0.1,0.1,0.1,0.1,0.1,0.1c0,0,0,0,0,0"/>
		<path class="st1" d="M20.9,2.1c0,0,0,0,0.2,0.1c0.3,0.1,0.1,0,0.1,0"/>
		<path class="st1" d="M20.1,1.8c0.1,0,0.2,0,0.2,0c0,0,0.1,0,0.1,0C21,2,20.3,1.8,20.8,2c0.1,0,0.1,0,0.1,0.1c0,0,0,0,0,0"/>
		<path class="st1" d="M20.3,13.7C20.3,13.7,20.3,13.7,20.3,13.7c0.1,0,0.1,0-0.2,0"/>
		<path class="st1" d="M20.7,13.7C20.7,13.7,20.6,13.7,20.7,13.7c-0.1,0-0.1,0-0.2,0c-0.1,0-0.1,0-0.1,0"/>
		<path class="st1" d="M20.6,13.7C20.6,13.7,20.6,13.7,20.6,13.7C20.6,13.7,20.7,13.7,20.6,13.7C20.7,13.7,20.7,13.7,20.6,13.7"/>
		<line class="st1" x1="20.6" y1="13.7" x2="20.6" y2="13.7"/>
		<path class="st1" d="M21,13.5C21,13.5,21,13.5,21,13.5"/>
		<path class="st1" d="M21.2,13.3c0,0-0.1,0-0.1,0.1c0,0-0.1,0.1-0.1,0.1c0,0,0,0,0,0c0,0,0,0,0,0c0,0-0.1,0-0.2,0.1
			c-0.1,0-0.2,0.1-0.2,0.1"/>
		<path class="st1" d="M21.3,13.3C21.2,13.3,21.2,13.3,21.3,13.3"/>
		<line class="st1" x1="21.3" y1="13.3" x2="21.3" y2="13.3"/>
		<path class="st1" d="M21.2,13.3C21.2,13.3,21.2,13.3,21.2,13.3"/>
		<path class="st1" d="M21.5,13.1c0,0,0,0.1-0.1,0.1c-0.1,0-0.1,0.1-0.1,0.1c0,0,0,0,0,0v0h0c0,0,0,0,0,0"/>
		<path class="st1" d="M21.5,13C21.5,13,21.5,13,21.5,13"/>
		<line class="st1" x1="21.5" y1="13.1" x2="21.5" y2="13.1"/>
		<path class="st1" d="M21.7,12.8C21.7,12.8,21.7,12.8,21.7,12.8C21.7,12.8,21.7,12.8,21.7,12.8c0-0.1,0,0-0.1,0.1
			C21.5,13,21.5,13,21.5,13c0,0,0,0,0,0v0"/>
		<path class="st1" d="M21.9,12.4L21.9,12.4C21.9,12.4,21.9,12.4,21.9,12.4c0,0,0,0.1-0.1,0.2c0,0.1,0,0.1-0.1,0.1"/>
		<path class="st1" d="M21.9,12.5C21.9,12.5,21.9,12.5,21.9,12.5C21.9,12.5,21.9,12.4,21.9,12.5"/>
		<path class="st1" d="M21.9,11.9c0,0.1,0,0.1,0,0.1v0.1c0,0,0,0.1,0,0.2c0,0.1,0,0.1,0,0.1c0,0,0,0.1,0,0.1"/>
		<path class="st1" d="M1.8,12.1C1.8,12.1,1.8,12.1,1.8,12.1c0,0.1,0,0.1,0-0.2"/>
		<path class="st1" d="M1.8,12.5C1.8,12.5,1.8,12.5,1.8,12.5C1.8,12.5,1.8,12.4,1.8,12.5c0-0.1,0-0.1,0-0.2c0-0.1,0-0.1,0-0.2"/>
		<path class="st1" d="M1.8,12.4C1.8,12.4,1.8,12.5,1.8,12.4"/>
		<path class="st1" d="M1.8,12.4C1.8,12.4,1.8,12.4,1.8,12.4L1.8,12.4"/>
		<path class="st1" d="M2,12.8C2,12.8,2,12.8,2,12.8"/>
		<path class="st1" d="M2.2,13c0,0,0-0.1-0.1-0.1c0,0,0-0.1-0.1-0.1c0,0,0,0,0,0c0,0,0,0,0,0c0,0,0-0.1-0.1-0.2
			c0-0.1-0.1-0.2-0.1-0.2"/>
		<line class="st1" x1="2.2" y1="13.1" x2="2.2" y2="13.1"/>
		<path class="st1" d="M2.2,13C2.2,13,2.2,13,2.2,13"/>
		<path class="st1" d="M2.4,13.3c0,0-0.1,0-0.1-0.1c0-0.1-0.1-0.1-0.1-0.1c0,0,0,0,0,0"/>
		<path class="st1" d="M2.5,13.3C2.5,13.3,2.5,13.3,2.5,13.3"/>
		<path class="st1" d="M2.8,13.5c0,0-0.1-0.1-0.2-0.1c-0.1,0-0.1-0.1-0.1-0.1c0,0,0,0,0,0c0,0,0,0,0,0v0"/>
		<line class="st1" x1="2.7" y1="13.5" x2="2.8" y2="13.5"/>
		<path class="st1" d="M2.8,13.5C2.8,13.5,2.8,13.5,2.8,13.5c0,0,0.1,0,0.1,0.1c0.1,0,0.2,0.1,0.2,0.1"/>
		<line class="st1" x1="3.1" y1="13.7" x2="3.1" y2="13.7"/>
		<path class="st1" d="M3,13.7C3,13.7,3,13.7,3,13.7C3,13.7,3.1,13.7,3,13.7C3.1,13.7,3.1,13.7,3,13.7"/>
		<path class="st1" d="M3.5,13.7c0,0-0.1,0-0.1,0c0,0,0,0-0.2,0c-0.1,0-0.1,0-0.1,0c0,0,0,0-0.1,0"/>
	</g>
</g>
<ellipse class="st2" cx="11.8" cy="7.7" rx="5.3" ry="5.3"/>
<g id="XMLID_00000040570353087855654600000010397273919638167194_">
	<g>
		<path class="st3" d="M16.3,9C16.3,9,16.3,9,16.3,9C16.3,9,16.3,9,16.3,9L16.3,9z"/>
		<path class="st3" d="M15.3,9.6c-0.3,0.1,0.1,0-0.2,0.1c-0.3,0.1,0.1,0-0.2,0.1c-0.3,0.1,0.1,0-0.2,0.1c0,0,0,0,0,0c0,0,0,0-0.1,0
			c0,0,0,0,0,0c0,0,0,0-0.1,0c0,0,0,0,0,0c0,0,0,0-0.1,0c-0.1,0,0,0-0.1,0c-0.1,0,0,0-0.1,0c-0.1,0-0.1,0-0.1,0s0,0,0,0
			c-0.1,0,0,0-0.1,0s0,0-0.1,0c0,0,0,0-0.1,0c0,0,0,0-0.1,0c0,0-0.1,0-0.1,0c0,0,0,0-0.1,0c-0.2-0.1,0.1,0-0.1-0.1
			c-0.2-0.1,0.1,0-0.1-0.1c-0.2-0.1-0.2-0.1-0.1,0c0,0-0.1,0-0.2-0.1c-0.1,0-0.1,0-0.1-0.1c0,0,0,0-0.1-0.1c0,0-0.1-0.1-0.1-0.1
			c0,0,0,0,0,0c0,0,0,0-0.1-0.1c0,0-0.1-0.1-0.1-0.1c0,0,0,0,0,0s0,0-0.1-0.1c0-0.1,0-0.1-0.1-0.1c0,0,0,0-0.1-0.2v0.1h-0.7
			l-0.1-0.1L11,8.4l-0.4,0.3l-0.1,0.1l-0.2-0.1L10,8.4L9.6,8.8c0-0.1-0.1,0,0,0L9.5,8.9L9.3,8.8L8.9,8.4L8.6,8.7
			C8.4,8.8,8.5,8.8,8.5,8.8L8.4,8.9L8.3,8.8L7.2,8c0-0.1-0.1-0.1,0,0C7.1,7.9,7.1,7.9,7.1,7.9c0,0,0,0,0,0L7,7.8l0.2-0.2L8,6.8h0.1
			h4.3c0-0.1,0.1-0.1,0.1-0.1c0,0,0,0,0.1-0.2c0,0,0.1-0.1,0.1-0.1l0,0c0,0,0.1,0,0.1-0.1c0.1-0.2,0.1-0.1,0-0.1c0,0,0,0,0.1-0.1
			C12.9,6.1,13,6,13,6v0c0,0,0,0,0.1-0.1C13.6,5.7,13,6,13.4,5.8c0.2-0.1-0.1,0,0.1-0.1c0,0,0,0,0,0c0,0,0,0,0.1,0c0,0,0,0,0.1,0
			c0,0,0,0,0.1,0c0.1,0,0.1,0,0.1,0c0,0,0.1,0,0.1,0c0.1,0,0,0,0.1,0c0.1,0,0,0,0.1,0c0.1,0,0,0,0.1,0c0.1,0,0.1,0,0.1,0s0,0,0,0
			c0.1,0,0,0,0.1,0c0.1,0,0.1,0,0.1,0c0,0,0,0,0,0c0.1,0,0.1,0,0.1,0c0,0,0,0,0,0c0.1,0,0.1,0,0.1,0c0,0,0,0,0,0
			c0.3,0.1-0.1,0,0.2,0.1c0.3,0.1-0.1,0,0.2,0.1c0,0,0.1,0,0.1,0h0c0,0,0,0,0,0c0,0,0,0,0.1,0.1c0.1,0,0.1-0.1,0.1-0.1
			c0,0,0,0,0.1,0.1c0.3,0.2-0.1-0.1,0.2,0.1c0,0,0,0,0.1,0.1c0,0-0.2-0.1,0,0.1c0.2,0.2-0.1-0.1,0.1,0.2c0.2,0.2-0.1-0.1,0.1,0.2
			C16.3,7,16,6.6,16.2,6.9c0.1,0.3,0-0.1,0.1,0.2c0.1,0.3,0-0.1,0.1,0.2c0,0,0,0,0,0c0,0,0,0,0,0.1c0,0,0,0,0,0v0c0,0,0,0,0,0
			s0,0,0,0v0c0,0,0,0,0,0c0,0,0,0,0,0v0c0,0,0,0,0,0c0,0.1,0,0,0,0.1c0,0.1,0,0,0,0.1s0,0,0,0.1c0,0.1,0,0.1,0,0.1s0,0,0,0.1
			c0,0.1,0,0,0,0.1c0,0.1,0,0,0,0.1c0,0,0,0,0,0v0c0,0,0,0,0,0c0,0,0,0,0,0v0c0,0,0,0,0,0s0,0,0,0v0c0,0,0,0,0,0c0,0,0,0,0,0v0
			c0,0,0,0,0,0c-0.1,0.2,0,0.1,0,0.1c0,0,0,0-0.1,0.1c0,0.1,0,0.1,0,0.1c0,0,0,0,0,0h0c0,0,0,0,0,0c0,0,0,0-0.1,0.1V8.8
			c-0.1,0.2,0,0.1,0,0.1c0,0,0,0-0.1,0.1c-0.2,0.2,0.1-0.1-0.1,0.2c0,0,0,0,0,0l0,0c0,0,0,0-0.1,0.1c-0.2,0.2,0.1-0.1-0.2,0.1
			c-0.2,0.2,0.1-0.1-0.2,0.1S15.6,9.4,15.3,9.6z"/>
		<path class="st3" d="M8.6,8.7L8.6,8.7C8.5,8.8,8.5,8.8,8.6,8.7L8.6,8.7C8.5,8.8,8.4,8.8,8.6,8.7L8.6,8.7z"/>
		<path class="st3" d="M15.3,5.9C15.3,5.9,15.3,5.9,15.3,5.9C15.3,5.9,15.3,5.9,15.3,5.9C15.3,5.9,15.3,5.9,15.3,5.9z"/>
		<path class="st3" d="M15.3,5.9C15.3,5.9,15.3,5.9,15.3,5.9L15.3,5.9z"/>
		<path class="st3" d="M9.6,8.8C9.5,8.8,9.6,8.7,9.6,8.8L9.6,8.8z"/>
		<path class="st3" d="M8.6,8.7C8.6,8.7,8.6,8.7,8.6,8.7C8.6,8.8,8.5,8.8,8.6,8.7L8.6,8.7z"/>
		<path class="st3" d="M8.6,8.7L8.6,8.7C8.6,8.7,8.6,8.7,8.6,8.7L8.6,8.7z"/>
		<path class="st3" d="M7.2,8C7.2,8,7.2,8,7.2,8C7.1,7.9,7.2,7.9,7.2,8z"/>
	</g>
	<g>
		<line class="st1" x1="8.9" y1="8.4" x2="8.6" y2="8.7"/>
		<line class="st1" x1="10" y1="8.4" x2="9.6" y2="8.8"/>
		<polyline class="st1" points="11,8.4 10.6,8.7 10.5,8.8 10.3,8.7 10,8.4 		"/>
		<line class="st1" x1="9.5" y1="8.8" x2="9.5" y2="8.8"/>
		<path class="st1" d="M9.6,8.8c-0.1,0-0.1,0-0.1,0"/>
		<path class="st1" d="M9.6,8.8C9.5,8.8,9.6,8.7,9.6,8.8L9.6,8.8z"/>
		<polyline class="st1" points="8.9,8.4 9.3,8.8 9.5,8.9 9.6,8.8 		"/>
		<line class="st1" x1="8.5" y1="8.8" x2="8.5" y2="8.8"/>
		<path class="st1" d="M8.6,8.7C8.4,8.8,8.5,8.8,8.5,8.8h0"/>
		<path class="st1" d="M8.6,8.7C8.5,8.8,8.6,8.8,8.6,8.7"/>
		<path class="st1" d="M8.6,8.7C8.6,8.7,8.6,8.7,8.6,8.7"/>
		<line class="st1" x1="8.6" y1="8.7" x2="8.6" y2="8.7"/>
		<path class="st1" d="M8.6,8.7C8.6,8.7,8.6,8.7,8.6,8.7"/>
		<path class="st1" d="M7.2,8l1.1,0.8l0.1,0.1l0.1-0.1l0,0c0,0,0,0,0,0l0,0l0,0"/>
		<path class="st1" d="M7.1,7.9C7.1,7.9,7.1,7.9,7.1,7.9"/>
		<path class="st1" d="M7.2,8C7.1,7.9,7.2,7.9,7.2,8"/>
		<path class="st1" d="M7.2,8C7.2,8,7.2,8,7.2,8C7.1,7.9,7.1,7.9,7.2,8"/>
		<path class="st1" d="M12.3,8.8C12.3,8.8,12.4,8.9,12.3,8.8c0,0,0,0-0.1-0.1v0.1h-0.7l-0.1-0.1L11,8.4"/>
		<path class="st1" d="M12.8,9.5C12.8,9.5,12.9,9.5,12.8,9.5c0.1,0,0.1,0,0-0.1c0,0-0.1-0.1-0.1-0.1c0,0,0,0,0,0c0,0,0,0-0.1-0.1
			c0,0-0.1-0.1-0.1-0.1c0,0,0,0,0,0s0,0-0.1-0.1c0-0.1,0-0.1-0.1-0.1"/>
		<path class="st1" d="M13.2,9.7C13.2,9.7,13.2,9.7,13.2,9.7c0,0-0.1,0-0.2-0.1c-0.1,0-0.1,0-0.1-0.1"/>
		<path class="st1" d="M16.2,8.9c0,0,0,0-0.1,0.1c-0.2,0.2,0.1-0.1-0.1,0.2c0,0,0,0,0,0l0,0c0,0,0,0-0.1,0.1
			c-0.2,0.2,0.1-0.1-0.2,0.1c-0.2,0.2,0.1-0.1-0.2,0.1s0.1-0.1-0.2,0.1c-0.3,0.1,0.1,0-0.2,0.1c-0.3,0.1,0.1,0-0.2,0.1
			c-0.3,0.1,0.1,0-0.2,0.1c0,0,0,0,0,0c0,0,0,0-0.1,0c0,0,0,0,0,0c0,0,0,0-0.1,0c0,0,0,0,0,0c0,0,0,0-0.1,0c-0.1,0,0,0-0.1,0
			c-0.1,0,0,0-0.1,0c-0.1,0-0.1,0-0.1,0s0,0,0,0c-0.1,0,0,0-0.1,0s0,0-0.1,0c0,0,0,0-0.1,0c0,0,0,0-0.1,0c0,0-0.1,0-0.1,0
			c0,0,0,0-0.1,0c-0.2-0.1,0.1,0-0.1-0.1c-0.2-0.1,0.1,0-0.1-0.1c-0.2-0.1-0.2-0.1-0.1,0"/>
		<line class="st1" x1="16.2" y1="8.9" x2="16.2" y2="8.9"/>
		<line class="st1" x1="16.3" y1="9" x2="16.3" y2="9"/>
		<path class="st1" d="M16.3,9C16.3,9,16.3,9,16.3,9"/>
		<path class="st1" d="M16.4,8.8L16.4,8.8c0,0,0,0-0.1,0.1c0,0.1,0,0.1,0,0.1c0,0,0,0,0,0h0c0,0,0,0,0,0c0,0,0,0-0.1,0.1V8.8
			c-0.1,0.2,0,0.1,0,0.1"/>
		<path class="st1" d="M16.4,7.3C16.4,7.3,16.4,7.3,16.4,7.3C16.4,7.4,16.4,7.4,16.4,7.3l0,0.1c0,0,0,0,0,0s0,0,0,0v0c0,0,0,0,0,0
			c0,0,0,0,0,0v0c0,0,0,0,0,0c0,0.1,0,0,0,0.1c0,0.1,0,0,0,0.1s0,0,0,0.1c0,0.1,0,0.1,0,0.1s0,0,0,0.1c0,0.1,0,0,0,0.1
			c0,0.1,0,0,0,0.1c0,0,0,0,0,0v0c0,0,0,0,0,0c0,0,0,0,0,0v0c0,0,0,0,0,0s0,0,0,0v0c0,0,0,0,0,0c0,0,0,0,0,0v0c0,0,0,0,0,0
			c-0.1,0.2,0,0.1,0,0.1"/>
		<path class="st1" d="M15.9,6.2C15.9,6.2,15.9,6.2,15.9,6.2c0,0-0.2-0.1,0,0.1c0.2,0.2-0.1-0.1,0.1,0.2c0.2,0.2-0.1-0.1,0.1,0.2
			C16.3,7,16,6.6,16.2,6.9c0.1,0.3,0-0.1,0.1,0.2c0.1,0.3,0-0.1,0.1,0.2c0,0,0,0,0,0c0,0,0,0,0,0"/>
		<path class="st1" d="M15.5,5.9L15.5,5.9c0,0,0,0,0.1,0.1c0.3,0.2-0.1-0.1,0.2,0.1c0,0,0,0,0.1,0.1"/>
		<path class="st1" d="M15.3,5.9C15.3,5.9,15.3,6,15.3,5.9c0.2,0.1,0.2,0,0.1,0"/>
		<path class="st1" d="M15.3,5.9C15.3,5.9,15.3,5.9,15.3,5.9"/>
		<path class="st1" d="M15.3,5.9C15.3,5.9,15.3,5.9,15.3,5.9C15.3,5.9,15.3,5.9,15.3,5.9"/>
		<path class="st1" d="M13.7,5.7c0,0,0,0,0.1,0c0.1,0,0.1,0,0.1,0c0,0,0.1,0,0.1,0c0.1,0,0,0,0.1,0c0.1,0,0,0,0.1,0c0.1,0,0,0,0.1,0
			c0.1,0,0.1,0,0.1,0s0,0,0,0c0.1,0,0,0,0.1,0c0.1,0,0.1,0,0.1,0c0,0,0,0,0,0c0.1,0,0.1,0,0.1,0c0,0,0,0,0,0c0.1,0,0.1,0,0.1,0
			c0,0,0,0,0,0c0.3,0.1-0.1,0,0.2,0.1c0.3,0.1-0.1,0,0.2,0.1c0,0,0.1,0,0.1,0h0c0,0,0,0,0,0c0,0,0,0,0,0"/>
		<path class="st1" d="M13.5,5.7C13.5,5.7,13.5,5.7,13.5,5.7c0.1,0,0.1,0,0.1,0c0,0,0,0,0,0"/>
		<path class="st1" d="M13,6c0,0,0,0,0.1-0.1C13.6,5.7,13,6,13.4,5.8c0.2-0.1-0.1,0,0.1-0.1c0,0,0,0,0,0c0,0,0,0,0,0"/>
		<path class="st1" d="M12.8,6.2C12.8,6.2,12.8,6.2,12.8,6.2c0,0,0.1-0.1,0.1-0.1C12.9,6.1,13,6,13,6v0c0,0,0.1,0,0.1,0"/>
		<path class="st1" d="M12.7,6.4c0,0,0.1,0,0.1-0.1c0.1-0.2,0.1-0.1,0-0.1"/>
		<path class="st1" d="M12.5,6.6C12.5,6.6,12.5,6.7,12.5,6.6c0,0,0,0,0.1-0.1c0,0,0.1-0.1,0.1-0.1l0,0c0,0,0,0,0,0c0,0,0,0,0,0"/>
		<path class="st1" d="M12.4,6.8c0-0.1,0.1-0.1,0.1-0.1"/>
		<polyline class="st1" points="7,7.8 7,7.8 7.2,7.6 8,6.8 8.1,6.8 12.4,6.8 		"/>
	</g>
</g>
<circle class="st4" cx="15.1" cy="7.7" r="0.5"/>
</svg>
