<?xml version="1.0" encoding="utf-8"?>
<!-- Generator: Adobe Illustrator 26.1.0, SVG Export Plug-In . SVG Version: 6.00 Build 0)  -->
<svg version="1.1" id="Layer_1" xmlns="http://www.w3.org/2000/svg" xmlns:xlink="http://www.w3.org/1999/xlink" x="0px" y="0px"
	 viewBox="0 0 16 8.6" style="enable-background:new 0 0 16 8.6;" xml:space="preserve">
<style type="text/css">
	.st0{fill:none;stroke:#000000;stroke-width:0.5963;stroke-linejoin:round;stroke-miterlimit:500;}
	.st1{fill:none;stroke:#000000;stroke-width:0.7246;}
	.st2{fill:none;stroke:#000000;stroke-width:0.4659;}
	.st3{fill:none;stroke:#040404;stroke-width:0.4659;stroke-linecap:round;stroke-linejoin:round;stroke-miterlimit:500;}
</style>
<polyline points="12,2.6 12,5.6 13.6,4 12,2.6 "/>
<line class="st0" x1="12.3" y1="4.1" x2="8.1" y2="4.1"/>
<path class="st1" d="M2.4,4.3c0,0,0-0.8,0-1.4c0-0.7,0.7-1.3,1.4-1.3c0.8,0,1.4,0.6,1.4,1.3s0,1.4,0,1.4"/>
<path d="M2,3.4V7h3.7V3.4H2z M4,5.3H3.6V4.2H4V5.3z"/>
<path class="st2" d="M15.5,6.3c0,1-0.9,1.9-2,1.9H2.4c-1.1,0-2-0.8-2-1.9v-4c0-1,0.9-1.9,2-1.9h11.1c1.1,0,2,0.8,2,1.9V6.3L15.5,6.3
	z"/>
<path class="st3" d="M8.3,8.9"/>
</svg>
