<?xml version="1.0" encoding="utf-8"?>
<!-- Generator: Adobe Illustrator 26.1.0, SVG Export Plug-In . SVG Version: 6.00 Build 0)  -->
<svg version="1.1" id="Layer_1" xmlns="http://www.w3.org/2000/svg" xmlns:xlink="http://www.w3.org/1999/xlink" x="0px" y="0px"
	 viewBox="0 0 23.1 15.2" style="enable-background:new 0 0 23.1 15.2;" xml:space="preserve">
<style type="text/css">
	.st0{fill:none;stroke:#FFFFFF;stroke-width:0.4659;stroke-linecap:round;stroke-linejoin:round;stroke-miterlimit:500;}
	.st1{fill:none;stroke:#FFFFFF;stroke-width:0.4659;stroke-linecap:round;stroke-linejoin:round;stroke-miterlimit:499.9816;}
</style>
<line class="st0" x1="8.9" y1="8.4" x2="8.6" y2="8.7"/>
<line class="st0" x1="10" y1="8.4" x2="9.6" y2="8.8"/>
<line class="st0" x1="11" y1="8.4" x2="10.6" y2="8.7"/>
<line class="st0" x1="7.2" y1="7.6" x2="8" y2="6.8"/>
<line class="st0" x1="1.2" y1="11.9" x2="1.2" y2="3.6"/>
<line class="st0" x1="1.7" y1="11.9" x2="1.7" y2="3.6"/>
<line class="st0" x1="21.9" y1="3.6" x2="21.9" y2="11.9"/>
<line class="st0" x1="22.5" y1="3.6" x2="22.5" y2="11.9"/>
<line class="st0" x1="10.3" y1="8.7" x2="10" y2="8.4"/>
<line class="st0" x1="9.3" y1="8.8" x2="8.9" y2="8.4"/>
<line class="st0" x1="11.4" y1="8.7" x2="11" y2="8.4"/>
<line class="st0" x1="8.3" y1="8.8" x2="7.2" y2="8"/>
<line class="st0" x1="20.1" y1="14.3" x2="3.5" y2="14.3"/>
<line class="st0" x1="20.1" y1="13.7" x2="3.5" y2="13.7"/>
<line class="st0" x1="8.1" y1="6.8" x2="12.4" y2="6.8"/>
<line class="st0" x1="3.5" y1="1.8" x2="20.1" y2="1.8"/>
<line class="st0" x1="3.5" y1="1.2" x2="20.1" y2="1.2"/>
<line class="st0" x1="12.4" y1="8.8" x2="11.5" y2="8.8"/>
<path class="st0" d="M1.2,3.6c0.1-0.7-0.1,0.2,0.1-0.5S1.2,3.3,1.4,2.7c0.3-0.6-0.1,0.2,0.2-0.4C2,1.7,1.4,2.4,1.9,1.9
	C2.4,1.5,1.7,2,2.2,1.6C2.8,1.3,2,1.7,2.6,1.4C3.3,1.2,2.4,1.5,3,1.3c0.7-0.1-0.2,0,0.5-0.1"/>
<path class="st0" d="M20.1,1.2c0.7,0.1-0.2,0,0.5,0.1c0.7,0.2-0.2-0.1,0.4,0.1c0.6,0.3-0.2-0.1,0.4,0.2C22,2,21.3,1.5,21.8,1.9
	c0.4,0.5-0.1-0.2,0.3,0.4c0.3,0.6-0.1-0.2,0.2,0.4c0.2,0.7-0.1-0.2,0.1,0.4c0.1,0.7,0-0.2,0.1,0.5"/>
<path class="st0" d="M22.5,11.9c-0.1,0.7,0-0.2-0.1,0.5c-0.2,0.7,0.1-0.2-0.1,0.4c-0.3,0.6,0.1-0.2-0.2,0.4
	c-0.4,0.5,0.2-0.2-0.3,0.4c-0.5,0.4,0.2-0.1-0.3,0.3c-0.6,0.3,0.2-0.1-0.4,0.2c-0.7,0.2,0.2-0.1-0.4,0.1c-0.7,0.1,0.2,0-0.5,0.1"/>
<path class="st0" d="M3.5,14.3c-0.7-0.1,0.2,0.1-0.5-0.1c-0.7-0.2,0.2,0.1-0.4-0.1c-0.6-0.3,0.2,0.1-0.4-0.2
	c-0.5-0.4,0.2,0.2-0.3-0.3C1.4,13,2,13.7,1.5,13.2c-0.3-0.6,0.1,0.2-0.2-0.4c-0.2-0.7,0.1,0.2-0.1-0.4c-0.1-0.7,0,0.2-0.1-0.5"/>
<path class="st0" d="M1.7,3.6c0-0.5,0,0.2,0-0.4c0.1-0.5-0.1,0.2,0.1-0.3C2.1,2.4,1.8,3,2,2.6c0.3-0.4-0.1,0.1,0.2-0.3
	C2.6,2,2.1,2.4,2.5,2.1C3,1.9,2.4,2.2,2.8,2c0.5-0.2-0.2,0,0.3-0.1s-0.2,0,0.3,0"/>
<path class="st0" d="M20.1,1.8c0.5,0-0.2,0,0.3,0C21,2,20.3,1.8,20.8,2c0.4,0.2-0.1-0.1,0.3,0.2C21.5,2.4,21,2,21.4,2.3
	c0.3,0.4-0.1-0.1,0.2,0.3c0.2,0.4-0.1-0.2,0.2,0.3c0.2,0.5,0-0.2,0.1,0.3s0-0.2,0,0.4"/>
<path class="st0" d="M21.9,11.9c0,0.5,0-0.2,0,0.4c-0.1,0.5,0.1-0.2-0.1,0.3s0.1-0.1-0.2,0.3c-0.3,0.4,0.1-0.1-0.2,0.3
	c-0.4,0.3,0.1-0.1-0.3,0.2s0.2-0.1-0.3,0.2c-0.5,0.2,0.2,0-0.3,0.1s0.2,0-0.4,0"/>
<path class="st0" d="M3.5,13.7c-0.5,0,0.2,0-0.3,0c-0.5-0.1,0.2,0.1-0.3-0.1c-0.4-0.2,0.1,0.1-0.3-0.2s0.1,0.1-0.3-0.2
	c-0.3-0.4,0.1,0.1-0.2-0.3c-0.3-0.4,0.1,0.2-0.2-0.3c-0.2-0.5,0,0.2-0.1-0.3s0,0.2,0-0.4"/>
<path class="st0" d="M10.6,8.7C10.6,8.8,10.6,8.7,10.6,8.7C10.5,8.8,10.6,8.8,10.6,8.7c-0.1,0.1-0.1,0-0.1,0.1l0,0l0,0l0,0l0,0
	c-0.1,0,0,0,0,0c-0.1,0,0,0,0,0c-0.1,0,0,0,0,0"/>
<path class="st0" d="M9.6,8.8C9.5,8.8,9.6,8.7,9.6,8.8C9.5,8.8,9.6,8.8,9.6,8.8C9.5,8.8,9.5,8.8,9.6,8.8c-0.1,0-0.1,0-0.1,0l0,0l0,0
	l0,0c-0.1,0,0,0,0,0c-0.1,0,0,0,0,0c-0.1,0,0,0,0,0"/>
<path class="st0" d="M8.6,8.7C8.5,8.8,8.6,8.7,8.6,8.7C8.5,8.8,8.6,8.8,8.6,8.7C8.5,8.8,8.5,8.8,8.6,8.7C8.4,8.8,8.5,8.8,8.5,8.8
	l0,0l0,0l0,0c-0.1,0,0,0,0,0l0,0l0,0"/>
<path class="st0" d="M7.2,8C7.1,7.9,7.2,8,7.2,8C7.1,7.9,7.2,7.9,7.2,8C7.1,7.9,7.2,8,7.2,8L7.2,8L7.2,8L7.2,8L7.2,8
	C7.1,7.8,7.1,7.9,7.2,8C7.1,7.8,7.1,7.9,7.2,8L7.2,8"/>
<path class="st0" d="M12.4,6.8c0.2-0.4-0.1,0.1,0.2-0.3s-0.1,0.1,0.2-0.2C13,6,12.6,6.4,12.9,6.1c0.4-0.3-0.1,0.1,0.2-0.2
	C13.6,5.7,13,6,13.4,5.8c0.2-0.1-0.1,0,0.1-0.1c0.2-0.1-0.1,0,0.1,0c0.2-0.1-0.1,0,0.2,0c0.2,0-0.1,0,0.2,0c0.1,0,0,0,0.1,0
	s0,0,0.1,0s0,0,0.1,0s0,0,0,0l0,0c0.1,0,0,0,0.1,0s0,0,0.1,0c0.2,0-0.1,0,0.1,0c0.2,0-0.1,0,0.1,0s-0.1,0,0.1,0
	c0.3,0.1-0.1,0,0.2,0.1s-0.1,0,0.2,0.1S15.1,5.8,15.4,6c0.2,0-0.1-0.2,0.2,0s-0.1-0.1,0.2,0.1C16,6.3,15.6,6,15.9,6.3
	c0.2,0.2-0.1-0.1,0.1,0.2c0.2,0.2-0.1-0.1,0.1,0.2C16.3,7,16,6.6,16.2,6.9c0.1,0.3,0-0.1,0.1,0.2c0.1,0.3,0-0.1,0.1,0.2
	c0.1,0.2,0-0.1,0,0.1s0-0.1,0,0.1s0-0.1,0,0.1s0-0.1,0,0.1c0,0.1,0,0,0,0.1s0,0,0,0.1s0,0,0,0.1l0,0l0,0l0,0l0,0c0,0.1,0,0,0,0.1
	c0,0.1,0,0,0,0.1s0,0,0,0.1c0,0.2,0-0.1,0,0.1c0,0.2,0-0.1,0,0.1s0-0.1,0,0.1c0,0.2,0-0.1,0,0.1c-0.1,0.3,0-0.1-0.1,0.2
	s0.1-0.1-0.1,0.2"/>
<path class="st0" d="M15.4,7.8L15.4,7.8L15.4,7.8C15.4,7.7,15.4,7.8,15.4,7.8C15.4,7.7,15.4,7.8,15.4,7.8
	C15.4,7.7,15.4,7.7,15.4,7.8C15.4,7.6,15.4,7.7,15.4,7.8c0-0.2,0-0.1,0-0.2s0,0,0,0c0-0.1,0,0,0,0c0-0.1,0,0,0,0c0-0.1,0,0,0,0
	c-0.1-0.1,0,0-0.1-0.1c-0.1,0,0,0,0,0c-0.1,0,0,0,0,0c-0.1,0,0,0-0.1,0s0,0,0,0l0,0l0,0l0,0l0,0l0,0l0,0l0,0l0,0l0,0l0,0
	c-0.1,0,0,0-0.1,0s0,0,0,0l0,0c-0.1,0,0,0,0,0c-0.1,0.1,0,0-0.1,0.1s0,0-0.1,0.1c0,0.1,0,0,0,0c0,0.1,0,0,0,0c0,0.1,0,0,0,0.1
	s0,0,0,0l0,0l0,0l0,0l0,0l0,0l0,0"/>
<path class="st0" d="M16.2,8.8C16,9.1,16.3,8.7,16.1,9c-0.2,0.2,0.1-0.1-0.1,0.2c-0.2,0.2,0.1-0.1-0.1,0.1c-0.2,0.2,0.1-0.1-0.2,0.1
	c-0.2,0.2,0.1-0.1-0.2,0.1c-0.3,0.2,0.1-0.1-0.2,0.1c-0.3,0.1,0.1,0-0.2,0.1s0.1,0-0.2,0.1s0.1,0-0.2,0.1c-0.2,0,0.1,0-0.1,0
	c-0.2,0,0.1,0-0.1,0c-0.2,0,0.1,0-0.1,0c-0.1,0,0,0-0.1,0s0,0-0.1,0s0,0,0,0l0,0c-0.1,0,0,0-0.1,0s0,0-0.1,0s0,0-0.1,0
	c-0.2,0,0.1,0-0.2,0s0.1,0-0.2,0c-0.2-0.1,0.1,0-0.1-0.1c-0.2-0.1,0.1,0-0.1-0.1c-0.4-0.2,0.1,0.1-0.3-0.1c-0.4-0.2,0.1,0.1-0.2-0.2
	s0.1,0.1-0.2-0.2s0.1,0.1-0.2-0.2c-0.2-0.4,0.1,0.1-0.2-0.3"/>
<path class="st0" d="M14.4,7.8L14.4,7.8L14.4,7.8C14.4,7.9,14.4,7.8,14.4,7.8C14.4,7.9,14.4,7.8,14.4,7.8
	C14.4,7.9,14.4,7.9,14.4,7.8C14.4,8,14.4,7.9,14.4,7.8C14.4,8,14.4,7.9,14.4,7.8C14.4,8,14.4,7.9,14.4,7.8c0.1,0.2,0,0.1,0.1,0.2
	c0.1,0.1,0,0,0.1,0.1c0.1,0,0,0,0,0l0,0c0.1,0,0,0,0,0c0.1,0,0,0,0.1,0l0,0l0,0l0,0l0,0l0,0l0,0l0,0l0,0l0,0l0,0c0.1,0,0,0,0,0
	c0.1,0,0,0,0.1,0s0,0,0,0l0,0c0.1-0.1,0,0,0.1-0.1c0.1-0.1,0,0,0,0c0-0.1,0,0,0,0l0,0l0,0c0-0.1,0,0,0,0c0-0.1,0,0,0-0.1l0,0l0,0
	l0,0l0,0l0,0"/>
<ellipse class="st1" cx="11.8" cy="7.7" rx="5.3" ry="5.3"/>
</svg>
