<?xml version="1.0" encoding="utf-8"?>
<!-- Generator: Adobe Illustrator 26.1.0, SVG Export Plug-In . SVG Version: 6.00 Build 0)  -->
<svg version="1.1" id="Layer_1" xmlns="http://www.w3.org/2000/svg" xmlns:xlink="http://www.w3.org/1999/xlink" x="0px" y="0px"
	 viewBox="0 0 6.6 6.8" style="enable-background:new 0 0 6.6 6.8;" xml:space="preserve">
<style type="text/css">
	.st0{enable-background:new    ;}
	.st1{fill:#58595B;}
</style>
<g class="st0">
	<path d="M0,6.8v-2h0.8c0.1,0,0.2,0,0.3,0s0.2,0,0.2,0.1S1.4,5,1.5,5.1s0,0.2,0,0.3c0,0.2-0.1,0.3-0.2,0.4S1.1,6,0.8,6H0.3v0.8H0z
		 M0.3,5.8h0.5c0.2,0,0.3,0,0.4-0.1s0.1-0.2,0.1-0.3c0-0.1,0-0.2-0.1-0.2c0-0.1-0.1-0.1-0.2-0.1c0,0-0.1,0-0.2,0H0.3V5.8z"/>
</g>
<g class="st0">
	<path d="M1.3,6.8l0.8-2h0.3l0.8,2H2.8L2.6,6.2H1.8L1.5,6.8H1.3z M1.8,6h0.7L2.3,5.4C2.2,5.3,2.2,5.1,2.2,5c0,0.1-0.1,0.3-0.1,0.4
		L1.8,6z"/>
</g>
<g class="st0">
	<path d="M4.5,6.1l0.3,0.1C4.7,6.4,4.6,6.5,4.5,6.7C4.3,6.8,4.2,6.8,4,6.8c-0.2,0-0.4,0-0.5-0.1C3.3,6.6,3.2,6.5,3.1,6.3
		C3.1,6.1,3,6,3,5.8s0-0.4,0.1-0.5S3.3,5,3.4,4.9C3.6,4.8,3.8,4.8,4,4.8c0.2,0,0.4,0.1,0.5,0.2c0.1,0,0.2,0.2,0.3,0.3L4.5,5.4
		c0-0.1-0.1-0.3-0.2-0.3S4.1,5,4,5C3.8,5,3.7,5,3.6,5.1C3.5,5.2,3.4,5.3,3.4,5.4S3.3,5.7,3.3,5.8c0,0.2,0,0.3,0.1,0.4
		c0,0.1,0.1,0.2,0.2,0.3c0.1,0.1,0.2,0.1,0.3,0.1s0.3,0,0.4-0.1C4.4,6.4,4.5,6.3,4.5,6.1z"/>
	<path d="M5.1,6.8v-2h1.4V5H5.4v0.6h1.1v0.2H5.4v0.7h1.2v0.2H5.1V6.8z"/>
</g>
<path class="st1" d="M5.1,1.7c0,0.9-0.8,1.7-1.7,1.7S1.7,2.6,1.7,1.7S2.5,0,3.4,0C4.3,0,5.1,0.8,5.1,1.7"/>
</svg>
