<?xml version="1.0" encoding="utf-8"?>
<!-- Generator: Adobe Illustrator 26.1.0, SVG Export Plug-In . SVG Version: 6.00 Build 0)  -->
<svg version="1.1" id="Layer_1" xmlns="http://www.w3.org/2000/svg" xmlns:xlink="http://www.w3.org/1999/xlink" x="0px" y="0px"
	 viewBox="0 0 112.6 271.8" style="enable-background:new 0 0 112.6 271.8;" xml:space="preserve">
<style type="text/css">
	.st0{fill:none;stroke:#000000;stroke-width:0.4659;stroke-linecap:round;stroke-miterlimit:10;}
	.st1{fill:none;stroke:#000000;stroke-width:0.4659;stroke-linecap:round;stroke-linejoin:round;stroke-miterlimit:500;}
	.st2{fill:none;stroke:#000000;stroke-width:0.6988;stroke-linecap:round;stroke-linejoin:round;stroke-miterlimit:500;}
	.st3{fill:none;stroke:#000000;stroke-width:0.6989;stroke-linecap:round;stroke-linejoin:round;stroke-miterlimit:500;}
</style>
<line class="st0" x1="1" y1="153.7" x2="1" y2="21"/>
<line class="st0" x1="111.4" y1="21" x2="111.4" y2="153.8"/>
<line class="st0" x1="14.1" y1="7.6" x2="98.4" y2="7.6"/>
<path class="st1" d="M1.1,20c0,0.4,0,0.7,0,1.1"/>
<path class="st1" d="M111.4,21c0-0.4,0-0.7,0-1.1"/>
<path class="st1" d="M98.4,7.6c1.9,0.1-0.6-0.1,1.3,0.1c1.8,0.3-0.6-0.1,1.2,0.2c3.5,1-1.1-0.4,2.3,0.7c3.2,1.6-1-0.6,2.1,1.1
	c2.9,2.2-0.9-0.8,1.9,1.5c2.5,2.7-0.7-1,1.6,1.8c2,3.1-0.6-1.1,1.3,2.1c1.4,3.5-0.3-1.2,0.9,2.3c0.8,3.7-0.1-1.3,0.4,2.5"/>
<path class="st1" d="M1.1,20c0.6-3.7-0.3,1.2,0.4-2.5c1.2-3.6-0.5,1.1,0.9-2.4c1.8-3.2-0.7,1,1.3-2.1c2.3-2.8-0.9,0.9,1.6-1.8
	c2.8-2.3-1,0.7,1.9-1.5c3.1-1.8-1.1,0.5,2.1-1.1c3.4-1.2-1.2,0.3,2.3-0.7c1.8-0.3-0.6,0.1,1.2-0.2c1.9-0.1-0.6,0,1.3-0.1"/>
<line class="st1" x1="5.4" y1="153.7" x2="5.4" y2="23.7"/>
<line class="st1" x1="8.3" y1="20.8" x2="104.1" y2="20.8"/>
<path class="st1" d="M5.4,23.7c0.1-0.9-0.1,0.3,0.1-0.6c0.2-0.8-0.1,0.3,0.2-0.5C6,21.8,5.5,22.8,5.9,22c0.5-0.7-0.2,0.2,0.4-0.4
	C6.9,21,6,21.8,6.7,21.2c0.7-0.4-0.3,0.1,0.5-0.3C8,20.7,6.9,21,7.7,20.8c0.9-0.1-0.3,0,0.6-0.1"/>
<path class="st1" d="M104.1,20.8c0.9,0.1-0.3,0,0.6,0.1c0.8,0.2-0.3-0.1,0.6,0.2c0.8,0.4-0.2-0.2,0.5,0.3c0.7,0.5-0.2-0.2,0.4,0.4
	c0.6,0.6-0.2-0.2,0.4,0.4c0.4,0.7-0.1-0.3,0.3,0.5c0.3,0.8-0.1-0.3,0.2,0.5c0.1,0.9,0-0.3,0.1,0.6"/>
<line class="st1" x1="16.4" y1="1.6" x2="16.6" y2="1.4"/>
<line class="st1" x1="76.1" y1="1.6" x2="76.3" y2="1.4"/>
<line class="st1" x1="15.3" y1="7" x2="15.3" y2="3.7"/>
<line class="st1" x1="25" y1="7" x2="25" y2="1.8"/>
<line class="st1" x1="27.7" y1="7" x2="27.7" y2="1.8"/>
<line class="st1" x1="37.4" y1="7" x2="37.4" y2="3.7"/>
<line class="st1" x1="75.1" y1="7" x2="75.1" y2="3.7"/>
<line class="st1" x1="84.8" y1="7" x2="84.8" y2="1.8"/>
<line class="st1" x1="87.4" y1="7" x2="87.4" y2="1.8"/>
<line class="st1" x1="97.1" y1="7" x2="97.1" y2="3.7"/>
<line class="st1" x1="36.3" y1="1.6" x2="36.2" y2="1.4"/>
<line class="st1" x1="96" y1="1.6" x2="95.9" y2="1.4"/>
<line class="st1" x1="97.1" y1="3.7" x2="87.4" y2="3.7"/>
<line class="st1" x1="84.8" y1="3.7" x2="75.1" y2="3.7"/>
<line class="st1" x1="37.4" y1="3.7" x2="27.7" y2="3.7"/>
<line class="st1" x1="25" y1="3.7" x2="15.3" y2="3.7"/>
<line class="st1" x1="16.4" y1="1.8" x2="16.1" y2="2.4"/>
<line class="st1" x1="16.1" y1="2.4" x2="15.9" y2="2.7"/>
<line class="st1" x1="15.9" y1="2.7" x2="15.3" y2="3.7"/>
<line class="st1" x1="37.4" y1="3.7" x2="36.9" y2="2.7"/>
<line class="st1" x1="36.9" y1="2.7" x2="36.7" y2="2.4"/>
<line class="st1" x1="36.7" y1="2.4" x2="36.3" y2="1.8"/>
<path class="st1" d="M27.7,1.8c-1-0.2,0.3,0-0.7-0.1c-1-0.1,0.3,0-0.7,0c-1,0,0.3,0-0.7,0c-1,0.2,0.3-0.1-0.7,0.1"/>
<line class="st1" x1="76.1" y1="1.8" x2="75.8" y2="2.4"/>
<line class="st1" x1="75.8" y1="2.4" x2="75.6" y2="2.7"/>
<line class="st1" x1="75.6" y1="2.7" x2="75.1" y2="3.7"/>
<line class="st1" x1="97.1" y1="3.7" x2="96.6" y2="2.7"/>
<line class="st1" x1="96.6" y1="2.7" x2="96.4" y2="2.4"/>
<line class="st1" x1="96.4" y1="2.4" x2="96" y2="1.8"/>
<path class="st1" d="M87.4,1.8c-1-0.2,0.3,0-0.7-0.1c-1-0.1,0.3,0-0.7,0c-1,0,0.3,0-0.7,0c-1,0.2,0.3-0.1-0.7,0.1"/>
<line class="st1" x1="18.4" y1="0.2" x2="18" y2="0.6"/>
<line class="st1" x1="18.2" y1="0.9" x2="17.5" y2="1.4"/>
<line class="st1" x1="35.1" y1="1.4" x2="35.3" y2="1.2"/>
<line class="st1" x1="16.6" y1="1.4" x2="16.4" y2="1.6"/>
<line class="st1" x1="78.1" y1="0.2" x2="77.7" y2="0.6"/>
<line class="st1" x1="77.9" y1="0.9" x2="77.2" y2="1.4"/>
<line class="st1" x1="94.8" y1="1.4" x2="95.1" y2="1.2"/>
<line class="st1" x1="76.3" y1="1.4" x2="76.1" y2="1.6"/>
<line class="st2" x1="0.4" y1="20.4" x2="0.4" y2="153.6"/>
<line class="st1" x1="4.7" y1="23.1" x2="4.7" y2="153.8"/>
<line class="st1" x1="5.1" y1="23.1" x2="5.1" y2="153.8"/>
<line class="st1" x1="5.2" y1="23.1" x2="5.2" y2="153.8"/>
<line class="st1" x1="5.4" y1="23.7" x2="5.4" y2="153.8"/>
<line class="st1" x1="18.2" y1="0.7" x2="18.2" y2="0.9"/>
<line class="st1" x1="77.9" y1="0.7" x2="77.9" y2="0.9"/>
<line class="st1" x1="107" y1="153.8" x2="107" y2="126.1"/>
<line class="st1" x1="107" y1="127.9" x2="107" y2="95"/>
<line class="st1" x1="107" y1="96.5" x2="107" y2="64"/>
<line class="st1" x1="107" y1="64.9" x2="107" y2="23.7"/>
<line class="st1" x1="107.3" y1="153.8" x2="107.3" y2="124.7"/>
<line class="st1" x1="107.3" y1="121.5" x2="107.3" y2="93.6"/>
<line class="st1" x1="107.3" y1="90.4" x2="107.3" y2="62.5"/>
<line class="st1" x1="107.3" y1="59.3" x2="107.3" y2="23.1"/>
<line class="st1" x1="107.4" y1="153.8" x2="107.4" y2="123.8"/>
<line class="st1" x1="107.4" y1="127" x2="107.4" y2="92.7"/>
<line class="st1" x1="107.4" y1="98.6" x2="107.4" y2="61.6"/>
<line class="st1" x1="107.4" y1="65.7" x2="107.4" y2="23.1"/>
<line class="st1" x1="107.7" y1="153.8" x2="107.7" y2="23.1"/>
<line class="st1" x1="112.1" y1="153.8" x2="112.1" y2="20.4"/>
<line class="st2" x1="112.2" y1="153.7" x2="112.2" y2="20.3"/>
<line class="st1" x1="36.2" y1="1.4" x2="36.3" y2="1.6"/>
<line class="st1" x1="34.4" y1="0.2" x2="35.3" y2="1.2"/>
<line class="st1" x1="95.9" y1="1.4" x2="96" y2="1.6"/>
<line class="st1" x1="18" y1="0.6" x2="18.2" y2="0.7"/>
<line class="st1" x1="94.1" y1="0.2" x2="95.1" y2="1.2"/>
<line class="st1" x1="77.7" y1="0.6" x2="77.9" y2="0.7"/>
<line class="st1" x1="104.1" y1="20.7" x2="8.3" y2="20.7"/>
<line class="st1" x1="104.6" y1="20.5" x2="7.8" y2="20.5"/>
<line class="st1" x1="104.7" y1="20.4" x2="74" y2="20.4"/>
<line class="st1" x1="29.4" y1="20.4" x2="7.8" y2="20.4"/>
<line class="st1" x1="69.9" y1="20.1" x2="33.4" y2="20.1"/>
<line class="st1" x1="104.6" y1="20" x2="74" y2="20"/>
<line class="st1" x1="29.4" y1="20" x2="7.8" y2="20"/>
<line class="st1" x1="69.9" y1="19.8" x2="33.4" y2="19.8"/>
<line class="st2" x1="79.8" y1="7.6" x2="23.5" y2="7.6"/>
<line class="st1" x1="98.8" y1="7.1" x2="13.6" y2="7.1"/>
<line class="st1" x1="72.8" y1="7" x2="39.7" y2="7"/>
<line class="st2" x1="39.7" y1="7" x2="13.1" y2="7"/>
<line class="st1" x1="95.9" y1="1.4" x2="76.3" y2="1.4"/>
<line class="st1" x1="36.2" y1="1.4" x2="16.6" y2="1.4"/>
<line class="st1" x1="22.1" y1="0.4" x2="28.4" y2="0.4"/>
<line class="st1" x1="81.8" y1="0.4" x2="88.1" y2="0.4"/>
<line class="st1" x1="18.4" y1="0.2" x2="34.4" y2="0.2"/>
<line class="st1" x1="78.1" y1="0.2" x2="94.1" y2="0.2"/>
<line class="st2" x1="72.8" y1="7" x2="99.4" y2="7"/>
<path class="st1" d="M33.4,19.8c-0.2-0.4-0.3-0.8-0.4-1.1"/>
<path class="st1" d="M6.6,20.3c-0.7,0.3-1.3,0.9-1.6,1.6"/>
<path class="st1" d="M7.8,20c-0.4,0-0.8,0.1-1.2,0.3"/>
<path class="st1" d="M8.3,20.7c-1.6,0-2.9,1.3-2.9,2.9"/>
<path class="st1" d="M5,21.9c-0.2,0.4-0.3,0.8-0.3,1.2"/>
<path class="st1" d="M5.3,22c-0.2,0.3-0.2,0.7-0.2,1.1"/>
<path class="st1" d="M7.8,20.4c-0.4,0-0.8,0.1-1.1,0.2"/>
<path class="st1" d="M6.7,20.6c-0.6,0.3-1.2,0.8-1.4,1.4"/>
<path class="st1" d="M7.8,20.5c-1.5,0-2.7,1.2-2.7,2.6"/>
<path class="st1" d="M70.4,18.6c0.1-0.2,0.2-0.5,0.3-0.8"/>
<path class="st1" d="M29.4,20.4c0.2,0,0.5,0,0.7,0"/>
<path class="st1" d="M29.4,20c0.2,0,0.4,0,0.6,0"/>
<path class="st1" d="M73.2,20.4c0.2,0,0.5,0,0.7,0"/>
<path class="st1" d="M107.5,21.9c-0.3-0.7-0.9-1.3-1.6-1.6"/>
<path class="st1" d="M105.9,20.3c-0.4-0.2-0.8-0.3-1.2-0.3"/>
<path class="st1" d="M107,23.7c0-1.6-1.3-2.9-2.9-2.9"/>
<path class="st1" d="M107.7,23.1c0-0.4-0.1-0.8-0.3-1.2"/>
<path class="st1" d="M107.4,23.1c0-0.4-0.1-0.8-0.2-1.1"/>
<path class="st1" d="M105.7,20.6c-0.3-0.1-0.7-0.2-1.1-0.2"/>
<path class="st1" d="M107.2,22c-0.3-0.6-0.8-1.1-1.4-1.4"/>
<path class="st1" d="M107.3,23.1c0-1.5-1.2-2.6-2.7-2.6"/>
<path class="st1" d="M70.4,18.6c-0.2,0.4-0.3,0.8-0.4,1.1"/>
<path class="st1" d="M18,0.6C18,0.6,18,0.6,18,0.6C18,0.6,18,0.6,18,0.6C18,0.6,18,0.6,18,0.6C18,0.6,18,0.6,18,0.6
	C18.1,0.6,18,0.6,18,0.6c0.1,0,0,0,0.1,0c0.1,0,0,0,0,0c0.1,0,0,0,0,0c0.1,0,0,0,0.1,0c0.1,0,0,0,0.1,0c0.1,0,0,0,0.1,0
	c0.1,0,0,0,0.1,0c0.3,0-0.1,0,0.2,0c0.3,0-0.1,0,0.2,0c0.4,0-0.1,0,0.2,0c0.4,0-0.1,0,0.3,0c0.5,0-0.2,0,0.3,0c0.5,0-0.2,0,0.3,0
	c0.5,0-0.2,0,0.4,0c0.6,0-0.2,0,0.4,0c0.6,0-0.2,0,0.4,0c1.3,0-0.4,0,0.9,0"/>
<path class="st1" d="M35.3,1.2C35.3,1.2,35.3,1.2,35.3,1.2C35.3,1.2,35.3,1.2,35.3,1.2C35.3,1.2,35.3,1.2,35.3,1.2
	C35.2,1.2,35.3,1.2,35.3,1.2c-0.1,0-0.1,0-0.1,0c-0.1,0,0,0,0,0c-0.1,0,0,0-0.1,0c-0.2,0,0,0-0.1,0c-0.2,0,0.1,0-0.1,0
	c-0.2,0,0.1,0-0.2,0c-0.2,0,0.1,0-0.2,0c-0.3,0,0.1,0-0.2,0c-0.3,0,0.1,0-0.2,0c-0.3,0,0.1,0-0.2,0c-0.4,0,0.1,0-0.2,0
	c-0.8,0,0.3,0-0.5,0c-0.9,0,0.3,0-0.6,0"/>
<path class="st1" d="M18.3,1.4c0.6-0.1-0.2,0,0.4,0c0.7-0.1-0.2,0,0.5-0.1c0.8-0.1-0.2,0,0.5-0.1c0.8-0.1-0.3,0,0.5-0.1
	c0.9-0.1-0.3,0,0.6-0.1c0.9-0.1-0.3,0,0.6-0.1c2-0.2-0.7,0.1,1.3-0.1C24.8,0.7,22,1,24.1,0.8c2.2-0.2-0.7,0.1,1.4-0.1
	c2.2-0.2-0.7,0.1,1.5-0.1c2.1-0.2-0.7,0.1,1.4-0.1"/>
<path class="st1" d="M22.1,0.4c-1.3,0.1,0.4,0-0.9,0c-1.2,0.1,0.4,0-0.8,0c-0.5,0,0.2,0-0.4,0c-0.5,0,0.2,0-0.3,0
	c-0.5,0,0.1,0-0.3,0c-0.4,0,0.1,0-0.3,0c-0.4,0,0.1,0-0.2,0c-0.3,0,0.1,0-0.2,0c-0.1,0,0,0-0.1,0c-0.1,0,0,0-0.1,0c-0.1,0,0,0-0.1,0
	c-0.1,0,0,0-0.1,0c-0.1,0,0,0-0.1,0c-0.1,0,0,0,0,0c-0.1,0,0,0,0,0c-0.1,0,0,0,0,0c0,0,0,0,0,0c0,0,0,0,0,0s0,0,0,0c0,0,0,0,0,0
	c0,0,0,0,0,0c0,0,0,0,0,0c0,0,0,0,0,0c0,0,0,0,0,0"/>
<path class="st1" d="M28.4,0.4c-2.7,0.1,0.9,0-1.8,0.1c-1.4,0.1,0.5,0-0.9,0c-1.3,0.1,0.4,0-0.9,0c-1.3,0.1,0.4,0-0.9,0
	c-1.3,0.1,0.4,0-0.8,0c-1.2,0.1,0.4,0-0.8,0c-1.1,0.1,0.4,0-0.8,0c-1,0.1,0.4,0-0.7,0c-0.9,0.1,0.3,0-0.6,0c-0.8,0.1,0.3,0-0.5,0
	c-0.4,0,0.1,0-0.2,0c-0.3,0,0.1,0-0.2,0c-0.3,0,0.1,0-0.2,0c-0.3,0,0.1,0-0.2,0c-0.2,0,0.1,0-0.2,0c-0.2,0,0.1,0-0.1,0
	c-0.2,0,0.1,0-0.1,0c-0.1,0,0,0,0,0c-0.1,0,0,0,0,0c0,0,0,0,0,0c0,0,0,0,0,0c0,0,0,0,0,0s0,0,0,0"/>
<path class="st1" d="M77.7,0.6C77.7,0.6,77.7,0.6,77.7,0.6C77.7,0.6,77.7,0.6,77.7,0.6C77.7,0.6,77.7,0.6,77.7,0.6
	C77.7,0.6,77.7,0.6,77.7,0.6C77.8,0.6,77.7,0.6,77.7,0.6C77.8,0.6,77.7,0.6,77.7,0.6c0.2,0,0.1,0,0.1,0c0.1,0,0,0,0.1,0
	c0.1,0,0,0,0.1,0c0.1,0,0,0,0.1,0c0.1,0,0,0,0.1,0c0.1,0,0,0,0.1,0c0.3,0-0.1,0,0.2,0c0.3,0-0.1,0,0.2,0c0.4,0-0.1,0,0.2,0
	c0.4,0-0.1,0,0.3,0c0.5,0-0.2,0,0.3,0c0.5,0-0.2,0,0.3,0c0.5,0-0.2,0,0.4,0c0.6,0-0.2,0,0.4,0c0.6,0-0.2,0,0.4,0c1.3,0-0.4,0,0.9,0"
	/>
<path class="st1" d="M95.1,1.2C95,1.2,95.1,1.2,95.1,1.2C95,1.2,95.1,1.2,95.1,1.2C95,1.2,95,1.2,95.1,1.2C95,1.2,95,1.2,95.1,1.2
	c-0.1,0-0.1,0-0.1,0c-0.1,0,0,0,0,0c-0.1,0,0,0-0.1,0c-0.2,0,0.1,0-0.1,0c-0.2,0,0.1,0-0.1,0c-0.2,0,0.1,0-0.2,0c-0.2,0,0.1,0-0.2,0
	c-0.3,0,0.1,0-0.2,0c-0.3,0,0.1,0-0.2,0c-0.3,0,0.1,0-0.2,0c-0.4,0,0.1,0-0.2,0c-0.8,0,0.3,0-0.5,0c-0.9,0,0.3,0-0.6,0"/>
<path class="st1" d="M78,1.4c0.6-0.1-0.2,0,0.4,0c0.7-0.1-0.2,0,0.4-0.1c0.8-0.1-0.2,0,0.5-0.1c0.8-0.1-0.3,0,0.5-0.1
	c0.9-0.1-0.3,0,0.6-0.1c0.9-0.1-0.3,0,0.6-0.1c2-0.2-0.7,0.1,1.3-0.1c2.1-0.2-0.7,0.1,1.4-0.1c2.2-0.2-0.7,0.1,1.4-0.1
	s-0.7,0.1,1.4-0.1c2.1-0.2-0.7,0.1,1.4-0.1"/>
<path class="st1" d="M81.8,0.4c-1.3,0.1,0.4,0-0.9,0c-1.2,0.1,0.4,0-0.8,0c-0.5,0,0.2,0-0.3,0c-0.5,0,0.2,0-0.3,0
	c-0.4,0,0.2,0-0.3,0c-0.4,0,0.1,0-0.3,0c-0.4,0,0.1,0-0.2,0c-0.3,0,0.1,0-0.2,0c-0.1,0,0.1,0-0.1,0c-0.1,0,0,0-0.1,0
	c-0.1,0,0,0-0.1,0c-0.1,0,0,0-0.1,0c-0.1,0,0,0-0.1,0c-0.1,0,0,0-0.1,0c-0.1,0,0,0-0.1,0c-0.1,0,0,0,0,0c0,0,0,0,0,0c0,0,0,0,0,0
	c0,0,0,0,0,0c0,0,0,0,0,0c0,0,0,0,0,0c0,0,0,0,0,0c0,0,0,0,0,0c0,0,0,0,0,0"/>
<path class="st1" d="M88.1,0.4c-2.7,0.1,0.9,0-1.8,0.1c-1.3,0.1,0.4,0-0.9,0c-1.3,0.1,0.4,0-0.9,0c-1.3,0.1,0.4,0-0.9,0
	c-1.3,0.1,0.4,0-0.8,0c-1.2,0.1,0.4,0-0.8,0c-1.1,0.1,0.4,0-0.8,0c-1,0.1,0.3,0-0.7,0c-0.9,0.1,0.3,0-0.6,0c-0.8,0.1,0.3,0-0.6,0
	c-0.4,0,0.1,0-0.2,0c-0.3,0,0.1,0-0.2,0c-0.3,0,0.1,0-0.2,0c-0.3,0,0.1,0-0.2,0c-0.2,0,0.1,0-0.2,0c-0.2,0,0.1,0-0.1,0
	c-0.2,0,0.1,0-0.1,0c-0.1,0,0,0-0.1,0c-0.1,0,0,0,0,0c-0.1,0,0,0,0,0c0,0,0,0,0,0c0,0,0,0,0,0s0,0,0,0"/>
<path class="st1" d="M99.4,7c3.8,0.4-1.2-0.3,2.5,0.3c3.7,1.1-1.2-0.5,2.4,0.8c1.7,0.8-0.6-0.3,1.1,0.6c1.6,1-0.5-0.4,1.1,0.7
	c1.5,1.1-0.5-0.4,1,0.8c1.4,1.3-0.4-0.5,0.9,0.9c1.3,1.4-0.4-0.5,0.8,1c1.1,1.5-0.3-0.5,0.8,1c1,1.6-0.3-0.6,0.6,1.1
	c0.8,1.7-0.2-0.6,0.5,1.2c1.2,3.6-0.3-1.2,0.7,2.4c0.5,3.8,0-1.3,0.2,2.5"/>
<path class="st1" d="M0.2,20.3c0.3-3.8-0.2,1.3,0.2-2.5c1-3.7-0.5,1.2,0.7-2.4c0.8-1.8-0.3,0.6,0.5-1.2c0.9-1.7-0.3,0.5,0.6-1.1
	c1.1-1.6-0.4,0.5,0.8-1c1.2-1.4-0.4,0.5,0.8-1c1.4-1.3-0.5,0.4,0.9-0.9c1.5-1.2-0.5,0.4,1-0.8c1.6-1-0.6,0.3,1.1-0.7
	C8.7,7.9,6.4,9,8.1,8.2c3.6-1.3-1.2,0.3,2.4-0.8c3.8-0.6-1.3,0.1,2.5-0.3"/>
<path class="st1" d="M72.2,20C72.1,20,72.2,20,72.2,20C72.1,20,72.2,20,72.2,20C72,20,72.2,20,72,20c-0.1,0,0,0-0.1,0
	c-0.2,0,0.1,0-0.1,0c-0.2,0,0.1,0-0.1,0c-0.4-0.1,0.1,0-0.3,0c-0.5-0.1,0.2,0-0.3,0c-0.6,0,0.2,0-0.4,0c-0.6,0,0.2,0-0.4,0
	c-0.6,0,0.2,0-0.4,0"/>
<path class="st1" d="M32.9,18.6c-1.3-3.2,0.4,1.1-0.8-2.2c-0.6-1.6,0.2,0.5-0.4-1.1c-0.6-1.6,0.2,0.5-0.4-1c-0.6-1.5,0.2,0.5-0.4-1
	c-0.6-1.4,0.2,0.5-0.4-1c-0.6-1.4,0.2,0.4-0.4-0.9c-0.6-1.2,0.2,0.4-0.4-0.8C29,9.6,29.9,11,29.2,10c-0.7-0.9,0.2,0.3-0.5-0.6
	C28,8.6,29,9.6,28.2,8.8c-0.9-0.6,0.3,0.2-0.6-0.4C26.7,8,28,8.6,27,8.1c-1.1-0.3,0.4,0.1-0.7-0.2C25,7.7,26.7,8,25.5,7.8
	c-1.4-0.2,0.5,0-0.9-0.1"/>
<line class="st1" x1="79.8" y1="7.6" x2="78.8" y2="7.7"/>
<path class="st1" d="M78.8,7.7c-1.3,0.1,0.4-0.1-0.9,0.1c-1.1,0.2,0.4-0.1-0.8,0.1c-1,0.3,0.3-0.1-0.7,0.2c-0.9,0.4,0.3-0.1-0.6,0.2
	c-0.8,0.5,0.3-0.2-0.6,0.3c-0.8,0.6,0.2-0.2-0.5,0.4c-0.7,0.7,0.2-0.3-0.4,0.5c-0.6,0.9,0.2-0.3-0.4,0.6c-0.6,1,0.2-0.4-0.4,0.7
	c-0.6,1.1,0.2-0.4-0.4,0.8c-0.6,1.2,0.2-0.4-0.4,0.8c-0.6,1.3,0.2-0.4-0.4,0.9c-0.6,1.4,0.2-0.5-0.4,0.9c-0.6,1.4,0.2-0.5-0.4,0.9
	c-1.1,2.9,0.4-1-0.8,2"/>
<line class="st1" x1="71" y1="17.1" x2="70.8" y2="17.6"/>
<line class="st1" x1="70.8" y1="17.6" x2="70.7" y2="17.9"/>
<path class="st1" d="M33.4,19.8c-0.6,0,0.2,0-0.4,0c-0.6,0,0.2,0-0.4,0c-0.5,0,0.2,0-0.4,0c-0.5,0,0.2,0-0.3,0c-0.4,0.1,0.1,0-0.3,0
	c-0.2,0,0.1,0-0.1,0c-0.2,0,0,0-0.1,0c-0.1,0,0,0-0.1,0c-0.1,0,0,0-0.1,0c-0.1,0,0,0,0,0c0,0,0,0,0,0"/>
<path class="st1" d="M79.9,7.6C79.9,7.6,80,7.6,79.9,7.6C79.9,7.6,79.9,7.6,79.9,7.6C79.9,7.6,79.9,7.6,79.9,7.6
	C79.8,7.6,79.9,7.6,79.9,7.6c-0.1,0.1-0.1,0-0.1,0.1c-0.1,0,0,0,0,0c-0.1,0,0,0,0,0s0,0,0,0c-0.1,0.1,0,0-0.1,0.1
	c-0.1,0.1,0,0-0.1,0.1c-0.1,0.1,0,0-0.1,0.1c-0.1,0.1,0,0-0.1,0.1c-0.1,0.1,0.1,0-0.1,0.1"/>
<path class="st1" d="M79.3,8c-0.4,0.2,0.1-0.1-0.3,0.2c-0.4,0.3,0.1-0.1-0.2,0.2c-0.4,0.3,0.1-0.1-0.2,0.2c-0.4,0.3,0.1-0.1-0.2,0.2
	c-0.7,0.7,0.2-0.2-0.5,0.5C77.1,10.1,78,9,77.4,9.8c-1.3,1.8,0.4-0.6-0.9,1.2c-1.3,2.1,0.4-0.7-0.8,1.4c-0.6,1.2,0.2-0.4-0.4,0.8
	c-0.6,1.2,0.2-0.4-0.4,0.8c-0.6,1.3,0.2-0.4-0.4,0.8c-0.6,1.3,0.2-0.4-0.4,0.9c-1.2,2.7,0.4-0.9-0.8,1.8c-1.2,2.7,0.4-0.9-0.8,1.8"
	/>
<line class="st1" x1="72.5" y1="19.3" x2="72.3" y2="19.7"/>
<line class="st1" x1="74" y1="20" x2="73.3" y2="20.1"/>
<line class="st1" x1="72.3" y1="19.7" x2="72.2" y2="20"/>
<path class="st1" d="M73.3,20.1c-0.3,0,0.1,0-0.2,0c-0.3,0,0.1,0-0.2,0c-0.3,0,0.1,0-0.2,0c-0.2,0,0.1,0-0.2,0c-0.2,0,0.1,0-0.1,0
	c-0.2,0,0.1,0-0.1,0c-0.1,0,0,0-0.1,0c0,0,0,0,0,0c0,0,0,0,0,0"/>
<path class="st1" d="M24,8c-0.3-0.2,0.1,0.1-0.2-0.2c-0.1-0.1,0,0-0.1-0.1c-0.1-0.1,0,0-0.1-0.1c-0.1-0.1,0,0-0.1-0.1
	c-0.1-0.1,0,0-0.1,0c-0.1-0.1,0,0-0.1,0c-0.1,0,0,0-0.1,0"/>
<path class="st1" d="M31,19.7c-1.2-2.8,0.4,0.9-0.8-1.9c-1.2-2.7,0.4,0.9-0.8-1.8c-0.6-1.3,0.2,0.5-0.4-0.9
	c-0.6-1.3,0.2,0.4-0.4-0.9c-0.6-1.3,0.2,0.4-0.4-0.8c-0.6-1.2,0.2,0.4-0.4-0.8c-1.2-2.2,0.5,0.7-0.8-1.5c-0.7-1,0.2,0.3-0.4-0.6
	c-0.7-0.9,0.2,0.3-0.5-0.6c-0.7-0.8,0.2,0.3-0.5-0.5c-0.7-0.7,0.2,0.2-0.5-0.5c-0.4-0.3,0.1,0.1-0.2-0.2c-0.4-0.3,0.1,0.1-0.2-0.2
	c-0.4-0.3,0.1,0.1-0.3-0.2C23.9,7.9,24.5,8.3,24,8"/>
<line class="st1" x1="31.1" y1="20" x2="31" y2="19.7"/>
<path class="st1" d="M31.1,20C31.1,20.1,31.1,20,31.1,20C31.1,20.1,31.1,20,31.1,20c-0.2,0.1,0,0-0.1,0c-0.2,0,0.1,0-0.1,0
	c-0.2,0,0.1,0-0.1,0c-0.2,0,0.1,0-0.2,0c-0.3,0,0.1,0-0.2,0c-0.3,0,0.1,0-0.2,0c-0.3,0,0.1,0-0.2,0"/>
<path class="st1" d="M31.4,20.2C31.4,20.2,31.5,20.2,31.4,20.2C31.4,20.3,31.4,20.2,31.4,20.2c-0.2,0.1,0,0-0.1,0
	c-0.2,0,0.1,0-0.1,0c-0.2,0,0.1,0-0.2,0c-0.3,0,0.1,0-0.2,0c-0.3,0,0.1,0-0.2,0c-0.4,0,0.1,0-0.2,0c-0.4,0,0.1,0-0.2,0"/>
<path class="st1" d="M73.2,20.4c-0.4,0,0.1,0-0.2,0c-0.4,0,0.1,0-0.2,0c-0.3,0,0.1,0-0.2,0c-0.3,0,0.1,0-0.2,0c-0.2,0,0.1,0-0.2,0
	c-0.2,0,0.1,0-0.1,0c-0.1,0,0,0-0.1,0c-0.1,0,0,0,0,0c0,0,0,0,0,0"/>
<path class="st1" d="M71.9,20.2C71.8,20.2,71.9,20.2,71.9,20.2C71.8,20.2,71.9,20.2,71.9,20.2c-0.2,0-0.1,0-0.2,0c-0.1,0,0,0-0.1,0
	c-0.1,0,0.1,0-0.1,0c-0.2,0,0.1,0-0.1,0c-0.4,0,0.1,0-0.2,0c-0.4,0,0.1,0-0.3,0c-0.5,0,0.2,0-0.3,0c-0.5,0,0.2,0-0.3,0
	c-0.5,0,0.2,0-0.3,0"/>
<path class="st1" d="M33.4,20.1c-0.5,0,0.2,0-0.3,0c-0.5,0,0.2,0-0.3,0c-0.5,0,0.2,0-0.3,0c-0.4,0,0.1,0-0.3,0c-0.4,0,0.1,0-0.2,0
	c-0.2,0,0,0-0.1,0c-0.1,0,0,0-0.1,0c-0.1,0,0,0-0.1,0c-0.1,0,0,0-0.1,0c-0.1,0,0,0,0,0c0,0,0,0,0,0"/>
<path class="st2" d="M112.1,20.4c0-7.3-5.9-13.2-13.2-13.2"/>
<path class="st2" d="M13.6,7.1c-7.3,0-13.2,5.9-13.2,13.2"/>
<line class="st0" x1="1" y1="257.5" x2="1" y2="153.5"/>
<line class="st0" x1="98.4" y1="271" x2="14.1" y2="271"/>
<line class="st0" x1="111.4" y1="153.5" x2="111.4" y2="257.5"/>
<path class="st1" d="M1,257.5c0,0.4,0,0.7,0,1.1"/>
<path class="st1" d="M111.4,258.6c0-0.4,0-0.7,0-1.1"/>
<path class="st1" d="M111.4,258.6c-0.6,3.8,0.3-1.2-0.4,2.5c-1.2,3.6,0.5-1.1-0.9,2.4c-1.8,3.2,0.7-1-1.3,2.1
	c-2.3,2.8,0.9-0.9-1.6,1.8c-2.8,2.3,1-0.7-1.9,1.5c-3.1,1.8,1.1-0.5-2.1,1.1c-3.4,1.2,1.2-0.3-2.3,0.7c-1.8,0.3,0.6-0.1-1.2,0.2
	c-1.9,0.1,0.6,0-1.3,0.1"/>
<path class="st1" d="M14.1,271c-1.9-0.1,0.6,0.1-1.3-0.1c-1.8-0.3,0.6,0.1-1.2-0.2c-3.5-1,1.1,0.5-2.3-0.7c-3.2-1.6,1,0.6-2.1-1.1
	c-2.9-2.2,0.9,0.8-1.9-1.5c-2.5-2.7,0.7,1-1.6-1.8c-2-3.1,0.6,1.1-1.3-2.1c-1.4-3.5,0.3,1.2-0.9-2.4c-0.8-3.7,0.1,1.3-0.4-2.5"/>
<line class="st1" x1="5.4" y1="254.9" x2="5.4" y2="153.5"/>
<line class="st1" x1="104.1" y1="257.9" x2="8.3" y2="257.9"/>
<path class="st1" d="M107,254.9c-0.1,0.9,0.1-0.3-0.1,0.6c-0.2,0.8,0.1-0.3-0.2,0.6c-0.4,0.8,0.2-0.2-0.3,0.5
	c-0.5,0.7,0.2-0.2-0.4,0.4c-0.6,0.5,0.2-0.2-0.4,0.4c-0.7,0.4,0.3-0.1-0.5,0.3c-0.8,0.3,0.3-0.1-0.6,0.2c-0.9,0.1,0.3,0-0.6,0.1"/>
<path class="st1" d="M8.3,257.9c-0.9-0.1,0.3,0-0.6-0.1c-0.8-0.2,0.3,0.1-0.6-0.2c-0.8-0.4,0.2,0.2-0.5-0.3
	c-0.7-0.5,0.2,0.2-0.4-0.4c-0.6-0.6,0.2,0.2-0.4-0.4c-0.4-0.7,0.1,0.3-0.3-0.5c-0.3-0.8,0.1,0.3-0.2-0.6c-0.1-0.9,0,0.3-0.1-0.6"/>
<line class="st1" x1="0.2" y1="153.4" x2="0.2" y2="258.3"/>
<line class="st3" x1="0.3" y1="153.5" x2="0.3" y2="258.2"/>
<line class="st1" x1="4.7" y1="153.5" x2="4.7" y2="255.4"/>
<line class="st1" x1="5.1" y1="153.5" x2="5.1" y2="255.4"/>
<line class="st1" x1="5.2" y1="156" x2="5.2" y2="255.4"/>
<line class="st1" x1="5.2" y1="155.7" x2="5.2" y2="156"/>
<line class="st1" x1="5.4" y1="153.5" x2="5.4" y2="254.9"/>
<line class="st1" x1="13.5" y1="271.5" x2="99" y2="271.5"/>
<line class="st3" x1="13.6" y1="271.4" x2="98.8" y2="271.4"/>
<line class="st1" x1="107" y1="254.9" x2="107" y2="219.1"/>
<line class="st1" x1="107" y1="221.6" x2="107" y2="153.5"/>
<line class="st1" x1="107.3" y1="255.4" x2="107.3" y2="217.7"/>
<line class="st1" x1="107.3" y1="214.5" x2="107.3" y2="153.5"/>
<line class="st1" x1="107.4" y1="255.4" x2="107.4" y2="216.8"/>
<line class="st1" x1="107.4" y1="222.7" x2="107.4" y2="153.5"/>
<line class="st1" x1="107.8" y1="255.4" x2="107.8" y2="153.5"/>
<line class="st1" x1="112.1" y1="258.2" x2="112.1" y2="153.5"/>
<line class="st3" x1="112.2" y1="258.3" x2="112.2" y2="153.5"/>
<line class="st1" x1="7.8" y1="258.5" x2="104.7" y2="258.5"/>
<line class="st1" x1="7.8" y1="258.2" x2="104.7" y2="258.2"/>
<line class="st1" x1="7.8" y1="258.1" x2="104.7" y2="258.1"/>
<line class="st1" x1="8.3" y1="257.9" x2="104.1" y2="257.9"/>
<path class="st1" d="M5,256.6c0.3,0.7,0.9,1.3,1.6,1.6"/>
<path class="st1" d="M6.6,258.2c0.4,0.2,0.8,0.3,1.2,0.3"/>
<path class="st1" d="M5.4,254.9c0,1.6,1.3,2.9,2.9,2.9"/>
<path class="st1" d="M4.7,255.4c0,0.4,0.1,0.8,0.3,1.2"/>
<path class="st1" d="M5.1,255.4c0,0.4,0.1,0.7,0.2,1.1"/>
<path class="st1" d="M6.7,257.9c0.3,0.1,0.7,0.2,1.1,0.2"/>
<path class="st1" d="M5.3,256.5c0.3,0.6,0.8,1.1,1.4,1.4"/>
<path class="st1" d="M5.2,255.4c0,1.5,1.2,2.7,2.7,2.7"/>
<path class="st1" d="M105.9,258.2c0.7-0.3,1.3-0.9,1.6-1.6"/>
<path class="st1" d="M104.7,258.5c0.4,0,0.8-0.1,1.2-0.3"/>
<path class="st1" d="M104.1,257.9c1.6,0,2.9-1.3,2.9-2.9"/>
<path class="st1" d="M107.5,256.6c0.2-0.4,0.3-0.8,0.3-1.2"/>
<path class="st1" d="M107.2,256.5c0.2-0.4,0.2-0.7,0.2-1.1"/>
<path class="st1" d="M104.7,258.2c0.4,0,0.8-0.1,1.1-0.2"/>
<path class="st1" d="M105.7,257.9c0.6-0.3,1.2-0.8,1.4-1.4"/>
<path class="st1" d="M104.7,258.1c1.5,0,2.7-1.2,2.7-2.6"/>
<path class="st1" d="M99,271.5c7.3,0,13.2-5.9,13.2-13.2"/>
<path class="st1" d="M0.2,258.3c0,7.3,5.9,13.2,13.2,13.2"/>
<path class="st3" d="M98.8,271.4c7.3,0,13.2-5.9,13.2-13.2"/>
<path class="st3" d="M0.3,258.2c0,7.3,5.9,13.2,13.2,13.2"/>
</svg>
