<?xml version="1.0" encoding="utf-8"?>
<!-- Generator: Adobe Illustrator 26.1.0, SVG Export Plug-In . SVG Version: 6.00 Build 0)  -->
<svg version="1.1" id="Layer_1" xmlns="http://www.w3.org/2000/svg" xmlns:xlink="http://www.w3.org/1999/xlink" x="0px" y="0px"
	 viewBox="0 0 22.6 14.9" style="enable-background:new 0 0 22.6 14.9;" xml:space="preserve">
<style type="text/css">
	.st0{fill:#231F20;}
	.st1{fill:none;stroke:#FFFFFF;stroke-width:0.4659;stroke-linecap:round;stroke-linejoin:round;stroke-miterlimit:500;}
	.st2{fill:none;stroke:#FFFFFF;stroke-linecap:round;stroke-linejoin:round;stroke-miterlimit:500;}
	.st3{fill:none;stroke:#FFFFFF;stroke-width:0.75;stroke-linecap:round;stroke-linejoin:round;stroke-miterlimit:500;}
</style>
<g id="XMLID_00000146496776197068654950000007738687725179936150_">
	<g>
		<path class="st0" d="M21.7,12.4C21.7,12.4,21.7,12.4,21.7,12.4L21.7,12.4z"/>
		<path class="st0" d="M21.7,2.3C21.7,2.3,21.7,2.3,21.7,2.3L21.7,2.3L21.7,2.3z"/>
		<path class="st0" d="M21.7,2.3C21.7,2.3,21.7,2.3,21.7,2.3L21.7,2.3L21.7,2.3L21.7,2.3z"/>
		<path class="st0" d="M21.7,2.3L21.7,2.3C21.7,2.3,21.7,2.3,21.7,2.3L21.7,2.3z"/>
		<path class="st0" d="M21.7,2.3L21.7,2.3C21.7,2.3,21.7,2.3,21.7,2.3L21.7,2.3z"/>
		<path class="st0" d="M21.6,12.8C21.6,12.8,21.6,12.8,21.6,12.8L21.6,12.8L21.6,12.8z"/>
		<path class="st0" d="M21.6,12.8L21.6,12.8L21.6,12.8C21.6,12.8,21.6,12.8,21.6,12.8z"/>
		<path class="st0" d="M21.6,12.8C21.6,12.8,21.6,12.8,21.6,12.8L21.6,12.8L21.6,12.8z"/>
		<path class="st0" d="M21.6,12.8L21.6,12.8C21.6,12.8,21.6,12.8,21.6,12.8C21.6,12.8,21.6,12.8,21.6,12.8z"/>
		<path class="st0" d="M21.4,2.9C21.4,3,21.4,3,21.4,2.9C21.4,3,21.4,2.9,21.4,2.9z"/>
		<path class="st0" d="M21.4,12.3C21.4,12.3,21.4,12.3,21.4,12.3C21.4,12.3,21.4,12.3,21.4,12.3C21.4,12.3,21.4,12.3,21.4,12.3z"/>
		<path class="st0" d="M21.4,12.4C21.4,12.4,21.4,12.4,21.4,12.4C21.4,12.4,21.4,12.4,21.4,12.4z"/>
		<path class="st0" d="M21.4,13.2C21.4,13.2,21.4,13.2,21.4,13.2C21.4,13.2,21.4,13.2,21.4,13.2z"/>
		<polygon class="st0" points="21.3,13.2 21.4,13.2 21.3,13.2 		"/>
		<path class="st0" d="M21.3,13.2C21.3,13.3,21.3,13.3,21.3,13.2C21.3,13.2,21.3,13.2,21.3,13.2z"/>
		<path class="st0" d="M21.2,2.6C21.2,2.7,21.2,2.7,21.2,2.6L21.2,2.6z"/>
		<path class="st0" d="M21,13.6C21,13.6,21,13.6,21,13.6C21,13.6,21,13.6,21,13.6z"/>
		<path class="st0" d="M21,2.3L21,2.3C21,2.3,21,2.3,21,2.3z"/>
		<path class="st0" d="M20.8,1.3C20.8,1.3,20.8,1.3,20.8,1.3L20.8,1.3L20.8,1.3z"/>
		<path class="st0" d="M20.8,1.3L20.8,1.3L20.8,1.3C20.8,1.3,20.8,1.3,20.8,1.3z"/>
		<path class="st0" d="M20.8,1.3L20.8,1.3C20.8,1.3,20.8,1.3,20.8,1.3L20.8,1.3z"/>
		<path class="st0" d="M20.8,1.3L20.8,1.3L20.8,1.3C20.8,1.3,20.8,1.3,20.8,1.3z"/>
		<path class="st0" d="M20.8,13.2L20.8,13.2L20.8,13.2C20.8,13.2,20.8,13.2,20.8,13.2z"/>
		<path class="st0" d="M20.8,2.1C20.8,2.1,20.8,2.1,20.8,2.1S20.8,2.1,20.8,2.1z"/>
		<path class="st0" d="M20.7,13.8C20.7,13.8,20.7,13.8,20.7,13.8L20.7,13.8C20.7,13.8,20.7,13.8,20.7,13.8z"/>
		<path class="st0" d="M20.7,13.8C20.7,13.8,20.7,13.8,20.7,13.8L20.7,13.8L20.7,13.8z"/>
		<path class="st0" d="M20.7,13.8L20.7,13.8L20.7,13.8C20.7,13.8,20.7,13.8,20.7,13.8z"/>
		<path class="st0" d="M20.7,13.8C20.7,13.8,20.7,13.8,20.7,13.8L20.7,13.8L20.7,13.8z"/>
		<path class="st0" d="M20.2,13.6C20.2,13.6,20.1,13.6,20.2,13.6L20.2,13.6C20.1,13.6,20.2,13.6,20.2,13.6z"/>
		<path class="st0" d="M20.1,1.7C20.1,1.7,20.1,1.7,20.1,1.7C20.2,1.7,20.1,1.7,20.1,1.7z"/>
		<path class="st0" d="M2.6,13.5L2.6,13.5C2.6,13.5,2.5,13.5,2.6,13.5C2.5,13.5,2.5,13.5,2.6,13.5z"/>
		<path class="st0" d="M2.4,1.7C2.5,1.7,2.5,1.7,2.4,1.7C2.5,1.7,2.4,1.7,2.4,1.7z"/>
		<path class="st0" d="M1.9,1.4C1.9,1.4,1.9,1.4,1.9,1.4L1.9,1.4C1.9,1.4,1.9,1.4,1.9,1.4z"/>
		<path class="st0" d="M1.9,1.4C1.9,1.4,1.9,1.4,1.9,1.4L1.9,1.4L1.9,1.4z"/>
		<path class="st0" d="M1.9,1.4L1.9,1.4L1.9,1.4C1.9,1.4,1.9,1.4,1.9,1.4z"/>
		<path class="st0" d="M1.9,1.4C1.9,1.4,1.9,1.4,1.9,1.4L1.9,1.4L1.9,1.4z"/>
		<path class="st0" d="M19.9,13.6c0,0,0,0-0.2,0v-0.1H3c0,0-0.1,0-0.1,0c0,0,0,0-0.2,0c-0.1,0-0.1,0-0.1,0c0,0-0.1,0-0.2-0.1
			c-0.1,0-0.1,0-0.1-0.1c0,0,0,0,0,0c0,0-0.1-0.1-0.2-0.1C2,13.1,2,13.1,2,13.1c0,0,0,0,0,0c0,0,0,0,0,0c0,0-0.1,0-0.1-0.1
			c0-0.1-0.1-0.1-0.1-0.1v0c0,0,0,0,0,0l0,0c0,0,0-0.1-0.1-0.1c0,0-0.1-0.1-0.1-0.1c0,0,0,0,0,0c0,0,0,0,0,0c0,0,0-0.1-0.1-0.2
			c0-0.1-0.1-0.2-0.1-0.2c0,0,0-0.1,0-0.1c0-0.1,0-0.1,0-0.2c0,0,0,0,0-0.2H1.2V3.4c0-0.2,0-0.2,0-0.2c0,0,0-0.1,0-0.2
			c0-0.1,0-0.1,0-0.1c0,0,0-0.1,0.1-0.2c0-0.1,0.1-0.1,0.1-0.1c0,0,0,0,0.1-0.2c0-0.1,0.1-0.1,0.1-0.1v0c0,0,0,0,0,0
			c0,0,0-0.1,0.1-0.1c0.2-0.1,0.2,0,0.1,0c0,0,0,0,0,0c0,0,0.1,0,0.2-0.1c0.3-0.2,0.2-0.1,0.2-0.1c0,0,0.1,0,0.1-0.1
			c0.1,0,0.2-0.1,0.2-0.1c0,0,0.1,0,0.1,0c0.1,0,0.1,0,0.1,0c0,0,0,0,0.2,0H3h16.6c0.1,0,0.2,0,0.2,0c0,0,0.1,0,0.2,0
			c0.1,0,0.1,0,0.1,0c0,0,0.1,0,0.2,0.1c0.1,0,0.1,0.1,0.1,0.1c0,0,0,0,0.2,0.1c0.1,0,0.1,0.1,0.1,0.1c0,0,0,0,0,0c0,0,0,0,0,0
			s0,0,0,0c0,0,0.1,0,0.1,0.1C21,2.3,21,2.3,21,2.3c0,0,0,0,0,0s0,0,0,0c0,0,0,0.1,0.1,0.1c0,0.1,0,0.1,0.1,0.1c0,0,0,0,0,0
			c0,0,0-0.1,0.1,0.2c0,0.1,0.1,0.2,0.1,0.2c0,0,0,0.1,0,0.1c0,0.1,0,0.1,0,0.2c0,0,0,0,0,0.2c0,0,0,0.1,0,0.1v8.3
			c0,0.1,0,0.1,0,0.1V12c0,0,0,0.1,0,0.2c0,0.1,0,0.1,0,0.1c0,0,0,0.1-0.1,0.2c0,0.1,0,0.1-0.1,0.1v0c0,0,0,0-0.1,0.2
			C21,12.9,21,12.9,21,12.9c0,0,0,0,0,0v0c0,0,0,0.1-0.1,0.1c-0.1,0-0.1,0.1-0.1,0.1c0,0,0,0,0,0c0,0,0,0,0,0s0,0,0,0
			c0,0-0.1,0-0.1,0.1c-0.1,0-0.1,0.1-0.1,0.1c0,0,0.1,0-0.2,0.1c-0.1,0-0.2,0.1-0.2,0.1c0,0-0.1,0-0.1,0
			C19.9,13.6,19.9,13.6,19.9,13.6z"/>
		<path class="st0" d="M1.8,2.1C1.8,2.1,1.8,2.1,1.8,2.1L1.8,2.1z"/>
		<path class="st0" d="M1.8,13.9C1.8,13.9,1.8,13.9,1.8,13.9L1.8,13.9L1.8,13.9z"/>
		<path class="st0" d="M1.8,13.9L1.8,13.9L1.8,13.9C1.8,13.9,1.8,13.9,1.8,13.9z"/>
		<path class="st0" d="M1.8,13.9L1.8,13.9C1.8,13.9,1.8,13.9,1.8,13.9L1.8,13.9z"/>
		<path class="st0" d="M1.8,13.9L1.8,13.9L1.8,13.9C1.8,13.9,1.8,13.9,1.8,13.9z"/>
		<path class="st0" d="M1.7,12.9C1.7,12.9,1.7,12.9,1.7,12.9L1.7,12.9L1.7,12.9z"/>
		<path class="st0" d="M1.5,12.6C1.5,12.6,1.5,12.6,1.5,12.6C1.5,12.6,1.5,12.6,1.5,12.6z"/>
		<path class="st0" d="M1.5,1.6C1.4,1.6,1.6,1.5,1.5,1.6L1.5,1.6z"/>
		<path class="st0" d="M1.3,12.2C1.3,12.2,1.3,12.3,1.3,12.2C1.3,12.3,1.3,12.2,1.3,12.2C1.3,12.2,1.3,12.2,1.3,12.2z"/>
		<path class="st0" d="M1.2,2.8C1.2,2.8,1.2,2.8,1.2,2.8C1.2,2.9,1.2,2.8,1.2,2.8z"/>
		<path class="st0" d="M1.1,13.3C1.1,13.3,1.1,13.3,1.1,13.3C1.1,13.3,1.1,13.3,1.1,13.3z"/>
		<path class="st0" d="M0.9,12.9C0.9,12.9,0.9,12.9,0.9,12.9L0.9,12.9L0.9,12.9z"/>
		<path class="st0" d="M0.9,2.3L0.9,2.3C0.9,2.3,0.9,2.3,0.9,2.3L0.9,2.3z"/>
		<path class="st0" d="M0.9,2.3L0.9,2.3L0.9,2.3C0.9,2.3,0.9,2.3,0.9,2.3z"/>
		<path class="st0" d="M0.9,12.9L0.9,12.9C0.9,12.9,0.9,12.9,0.9,12.9L0.9,12.9z"/>
		<path class="st0" d="M0.9,2.3C0.9,2.3,0.9,2.3,0.9,2.3L0.9,2.3L0.9,2.3z"/>
		<path class="st0" d="M0.9,12.9C0.9,12.9,0.9,12.9,0.9,12.9L0.9,12.9L0.9,12.9z"/>
		<path class="st0" d="M0.9,2.3L0.9,2.3C0.9,2.3,0.9,2.3,0.9,2.3C0.9,2.3,0.9,2.3,0.9,2.3z"/>
		<path class="st0" d="M0.9,12.9L0.9,12.9C0.9,12.9,0.9,12.9,0.9,12.9L0.9,12.9z"/>
	</g>
	<g>
		<polyline class="st1" points="0.6,3.4 0.6,3.5 0.6,11.8 		"/>
		<polyline class="st1" points="1.2,11.8 1.2,11.7 1.2,3.4 		"/>
		<line class="st1" x1="21.4" y1="3.5" x2="21.4" y2="11.8"/>
		<line class="st1" x1="22" y1="11.8" x2="22" y2="3.4"/>
		<line class="st1" x1="3" y1="14.1" x2="19.6" y2="14.1"/>
		<line class="st1" x1="19.6" y1="13.5" x2="3" y2="13.5"/>
		<line class="st1" x1="3" y1="1.7" x2="19.6" y2="1.7"/>
		<line class="st1" x1="19.6" y1="1.1" x2="3" y2="1.1"/>
		<path class="st1" d="M1.8,13.9C1.8,13.9,1.8,13.9,1.8,13.9C1.8,13.9,1.8,13.9,1.8,13.9C1.9,13.9,1.9,14,2,14
			c0.7,0.2-0.2-0.1,0.4,0.1c0.7,0.1-0.2,0,0.5,0.1"/>
		<polyline class="st1" points="1.8,13.9 1.8,13.9 1.8,13.9 1.8,13.9 1.8,13.9 1.8,13.9 		"/>
		<path class="st1" d="M1.4,13.6c0,0,0.1,0.1,0.2,0.2c0.1,0,0.1,0.1,0.2,0.1c0,0,0,0,0,0c0,0,0,0,0,0"/>
		<path class="st1" d="M1.5,13.7C1.5,13.7,1.5,13.7,1.5,13.7C1.5,13.7,1.4,13.6,1.5,13.7C1.4,13.6,1.4,13.6,1.5,13.7"/>
		<path class="st1" d="M1.1,13.2c0,0,0.1,0.1,0.2,0.2c0.1,0.1,0.2,0.1,0.2,0.2"/>
		<path class="st1" d="M1.1,13.3C1.1,13.3,1.1,13.3,1.1,13.3C1.1,13.3,1.1,13.3,1.1,13.3C1.1,13.3,1.1,13.3,1.1,13.3
			C1.1,13.2,1.1,13.2,1.1,13.3"/>
		<path class="st1" d="M0.9,12.9C0.9,12.9,0.9,12.9,0.9,12.9C0.9,12.9,0.9,12.9,0.9,12.9C0.9,13,1,13,1,13.1
			c0.1,0.1,0.1,0.1,0.1,0.2c0,0,0,0,0,0"/>
		<polyline class="st1" points="0.9,12.9 0.9,12.9 0.9,12.9 0.9,12.9 0.9,12.9 0.9,12.9 		"/>
		<path class="st1" d="M0.6,12L0.6,12c0,0,0,0.1,0.1,0.3c0.2,0.7-0.1-0.2,0.1,0.4c0,0.1,0.1,0.1,0.1,0.2c0,0,0,0,0,0c0,0,0,0,0,0"/>
		<path class="st1" d="M0.6,11.8c0.1,0.4,0,0.3,0,0.2"/>
		<path class="st1" d="M21.7,12.4c0,0,0-0.1,0.1-0.2c0.1-0.7,0,0.2,0.1-0.5"/>
		<path class="st1" d="M21.7,12.4C21.7,12.4,21.7,12.4,21.7,12.4L21.7,12.4z"/>
		<path class="st1" d="M21.6,12.8C21.6,12.8,21.6,12.8,21.6,12.8C21.6,12.8,21.6,12.8,21.6,12.8C21.6,12.8,21.6,12.8,21.6,12.8
			c0.1-0.1,0.1-0.2,0.1-0.2c0.1-0.4,0-0.2,0-0.2"/>
		<polyline class="st1" points="21.6,12.8 21.6,12.8 21.6,12.8 21.6,12.8 21.6,12.8 		"/>
		<path class="st1" d="M21.4,13.2C21.4,13.2,21.4,13.2,21.4,13.2c0-0.1,0.1-0.1,0.1-0.2c0-0.1,0.1-0.1,0.1-0.2c0,0,0,0,0,0
			c0,0,0,0,0,0"/>
		<path class="st1" d="M21.3,13.3C21.3,13.3,21.3,13.3,21.3,13.3"/>
		<line class="st1" x1="21.4" y1="13.2" x2="21.3" y2="13.2"/>
		<path class="st1" d="M21.4,13.2C21.4,13.2,21.4,13.2,21.4,13.2"/>
		<path class="st1" d="M21,13.6C21,13.6,21,13.6,21,13.6c0,0,0-0.1,0.2-0.2c0.1-0.1,0.1-0.1,0.1-0.1c0,0,0,0,0,0v0h0c0,0,0,0,0,0
			s0,0,0,0"/>
		<path class="st1" d="M21.1,13.6C21.1,13.6,21.1,13.6,21.1,13.6C21,13.6,21,13.6,21.1,13.6"/>
		<path class="st1" d="M20.7,13.8C20.7,13.8,20.7,13.8,20.7,13.8C20.7,13.8,20.7,13.8,20.7,13.8c0.1-0.1,0.2-0.1,0.2-0.1
			c0.1,0,0.1-0.1,0.1-0.1c0,0,0,0,0,0"/>
		<polyline class="st1" points="20.7,13.8 20.7,13.8 20.7,13.8 20.7,13.8 20.7,13.8 		"/>
		<path class="st1" d="M19.6,14.1c0.7-0.1-0.2,0,0.5-0.1c0.7-0.2-0.2,0.1,0.4-0.1c0.1,0,0.1-0.1,0.2-0.1c0,0,0,0,0,0c0,0,0,0,0,0
			c0,0,0,0,0,0"/>
		<path class="st1" d="M20.8,1.3C20.8,1.3,20.8,1.3,20.8,1.3C20.8,1.3,20.8,1.3,20.8,1.3c-0.1,0-0.2-0.1-0.2-0.1
			c-0.7-0.2,0.2,0.1-0.4-0.1c-0.7-0.1,0.2,0-0.5-0.1"/>
		<polyline class="st1" points="20.8,1.3 20.8,1.3 20.8,1.3 20.8,1.3 20.8,1.3 20.8,1.3 		"/>
		<path class="st1" d="M21.2,1.6c0,0-0.1-0.1-0.2-0.2c-0.1,0-0.1-0.1-0.2-0.1c0,0,0,0,0,0c0,0,0,0,0,0"/>
		<path class="st1" d="M21.1,1.5C21.1,1.5,21.1,1.5,21.1,1.5C21.1,1.5,21.2,1.6,21.1,1.5C21.2,1.6,21.2,1.6,21.1,1.5"/>
		<path class="st1" d="M21.5,2c0,0-0.1-0.1-0.2-0.2c-0.1-0.1-0.2-0.1-0.2-0.2"/>
		<path class="st1" d="M21.5,1.9C21.5,1.9,21.5,1.9,21.5,1.9L21.5,1.9C21.5,1.9,21.5,1.9,21.5,1.9C21.5,2,21.5,2,21.5,1.9"/>
		<path class="st1" d="M21.7,2.3C21.7,2.3,21.7,2.3,21.7,2.3c0-0.1-0.1-0.1-0.1-0.2C21.5,2,21.5,2,21.5,1.9"/>
		<path class="st1" d="M21.7,2.3C21.7,2.3,21.7,2.3,21.7,2.3"/>
		<polyline class="st1" points="21.7,2.3 21.7,2.3 21.7,2.3 21.7,2.3 21.7,2.3 21.7,2.3 21.7,2.3 		"/>
		<path class="st1" d="M21.8,2.6L21.8,2.6c0,0,0.1,0.3,0-0.1c0-0.1-0.1-0.1-0.1-0.2c0,0,0,0,0,0c0,0,0,0,0,0"/>
		<path class="st1" d="M22,3.4c-0.1-0.7,0,0.2-0.1-0.5c0-0.2-0.1-0.2-0.1-0.3"/>
		<path class="st1" d="M0.8,2.7c0,0,0,0.1-0.1,0.3c-0.1,0.7,0-0.2-0.1,0.5"/>
		<path class="st1" d="M0.9,2.3C0.9,2.3,0.9,2.3,0.9,2.3C0.9,2.3,0.9,2.3,0.9,2.3C0.9,2.4,0.8,2.4,0.8,2.5c-0.1,0.5,0,0.2,0,0.2v0"
			/>
		<polyline class="st1" points="0.9,2.3 0.9,2.3 0.9,2.3 0.9,2.3 0.9,2.3 		"/>
		<path class="st1" d="M1.1,2C1.1,2,1.2,1.9,1.1,2c0.1-0.1,0-0.1-0.1,0.1c0,0.1-0.1,0.1-0.1,0.2v0c0,0,0,0,0,0c0,0,0,0,0,0
			c0,0,0,0,0,0"/>
		<path class="st1" d="M1.5,1.6c0,0-0.1,0.1-0.2,0.1c0,0.1-0.1,0.1-0.1,0.1"/>
		<path class="st1" d="M1.5,1.6C1.4,1.6,1.6,1.5,1.5,1.6L1.5,1.6z"/>
		<path class="st1" d="M1.9,1.4C1.9,1.4,1.9,1.4,1.9,1.4C1.9,1.4,1.9,1.4,1.9,1.4C1.9,1.4,1.9,1.4,1.9,1.4C1.8,1.4,1.8,1.5,1.7,1.5
			C1.5,1.6,1.5,1.6,1.5,1.6"/>
		<polyline class="st1" points="1.9,1.4 1.9,1.4 1.9,1.4 1.9,1.4 1.9,1.4 		"/>
		<path class="st1" d="M2.3,1.2c0,0,0,0-0.2,0.1C2,1.3,2,1.4,1.9,1.4c0,0,0,0,0,0c0,0,0,0,0,0"/>
		<path class="st1" d="M2.8,1.1C2.8,1.1,2.8,1.1,2.8,1.1c-0.1,0-0.2,0-0.3,0c-0.1,0-0.2,0-0.2,0.1c0,0-0.1,0-0.1,0"/>
		<path class="st1" d="M3,1.1c-0.3,0-0.3,0-0.3,0"/>
		<path class="st1" d="M2.8,1.7C2.8,1.7,2.8,1.7,2.8,1.7C2.7,1.7,2.7,1.7,2.8,1.7c-0.1,0,0,0,0.1,0"/>
		<path class="st1" d="M2.4,1.7C2.4,1.7,2.4,1.7,2.4,1.7C2.4,1.7,2.5,1.7,2.4,1.7c0.1,0,0.1,0,0.2,0c0.1,0,0.1,0,0.1,0"/>
		<path class="st1" d="M2.2,1.9c0,0,0.1,0,0.1-0.1c0.1,0,0.2-0.1,0.2-0.1c0,0,0,0-0.1,0"/>
		<path class="st1" d="M1.8,2.1c0,0,0.1,0,0.2-0.1c0.3-0.2,0.2-0.1,0.2-0.1c0,0,0,0,0,0"/>
		<path class="st1" d="M1.8,2.1C1.8,2.1,1.8,2.1,1.8,2.1L1.8,2.1z"/>
		<path class="st1" d="M1.6,2.2c0,0,0-0.1,0.1-0.1c0.2-0.1,0.2,0,0.1,0"/>
		<path class="st1" d="M1.6,2.3C1.6,2.3,1.6,2.3,1.6,2.3"/>
		<path class="st1" d="M1.6,2.2C1.6,2.2,1.6,2.2,1.6,2.2"/>
		<path class="st1" d="M1.4,2.5C1.4,2.5,1.4,2.5,1.4,2.5c0,0,0,0,0.1-0.1c0-0.1,0.1-0.1,0.1-0.1v0c0,0,0,0,0,0"/>
		<path class="st1" d="M1.2,2.8C1.2,2.8,1.2,2.8,1.2,2.8C1.2,2.8,1.2,2.9,1.2,2.8c0,0,0,0,0.1-0.1c0-0.1,0.1-0.1,0.1-0.1"/>
		<path class="st1" d="M1.2,3.4c0-0.2,0-0.2,0-0.2c0,0,0-0.1,0-0.2c0-0.1,0-0.1,0-0.1c0,0,0-0.1,0-0.1"/>
		<path class="st1" d="M21.4,3.2c0,0,0,0,0,0.2c0,0,0,0.1,0,0.1"/>
		<path class="st1" d="M21.4,2.9C21.4,2.9,21.4,3,21.4,2.9c0,0.1,0,0.1,0,0.2c0,0.1,0,0.1,0,0.2c0,0,0,0,0,0"/>
		<path class="st1" d="M21.2,2.6c0,0,0-0.1,0.1,0.2c0,0.1,0.1,0.2,0.1,0.2c0,0,0,0,0-0.1c0,0,0,0,0,0"/>
		<path class="st1" d="M21.2,2.6C21.2,2.7,21.2,2.7,21.2,2.6L21.2,2.6z"/>
		<path class="st1" d="M21,2.4c0,0,0,0.1,0.1,0.1c0,0.1,0,0.1,0.1,0.1"/>
		<path class="st1" d="M21,2.3C21,2.3,21,2.3,21,2.3"/>
		<path class="st1" d="M21,2.3C21,2.3,21,2.3,21,2.3"/>
		<line class="st1" x1="21" y1="2.4" x2="21" y2="2.4"/>
		<path class="st1" d="M20.8,2.1C20.8,2.1,20.8,2.1,20.8,2.1c0,0,0.1,0,0.1,0.1C21,2.3,21,2.3,21,2.3l0,0c0,0,0,0,0,0"/>
		<line class="st1" x1="20.7" y1="2.1" x2="20.7" y2="2.1"/>
		<path class="st1" d="M20.8,2.1C20.8,2.1,20.8,2.1,20.8,2.1"/>
		<path class="st1" d="M20.8,2.1C20.8,2.1,20.8,2.1,20.8,2.1"/>
		<path class="st1" d="M20.8,2.1C20.8,2.1,20.8,2.1,20.8,2.1C20.7,2.1,20.7,2.1,20.8,2.1"/>
		<path class="st1" d="M20.5,1.9C20.5,1.9,20.5,1.9,20.5,1.9c0,0,0,0,0.1,0.1c0.1,0,0.1,0.1,0.1,0.1"/>
		<path class="st1" d="M20.2,1.7C20.1,1.7,20.1,1.7,20.2,1.7c0,0,0,0,0.1,0.1c0.1,0,0.1,0.1,0.1,0.1"/>
		<path class="st1" d="M19.6,1.7c0.1,0,0.2,0,0.2,0c0,0,0.1,0,0.2,0c0.1,0,0.1,0,0.1,0c0,0,0,0,0.1,0s0,0,0,0"/>
		<path class="st1" d="M19.8,13.6C19.8,13.6,19.8,13.6,19.8,13.6c0.1,0,0.1,0-0.2,0"/>
		<path class="st1" d="M20.2,13.6C20.2,13.6,20.1,13.6,20.2,13.6c-0.1,0-0.1,0-0.2,0c-0.1,0-0.1,0-0.1,0"/>
		<path class="st1" d="M20.1,13.6C20.1,13.6,20.1,13.6,20.1,13.6C20.1,13.6,20.2,13.6,20.1,13.6C20.2,13.6,20.2,13.6,20.1,13.6"/>
		<path class="st1" d="M20.5,13.4C20.5,13.4,20.5,13.4,20.5,13.4c0.1,0,0.1,0-0.2,0.1c-0.1,0-0.2,0.1-0.2,0.1v0"/>
		<path class="st1" d="M20.7,13.2c0,0-0.1,0-0.1,0.1c-0.1,0-0.1,0.1-0.1,0.1"/>
		<path class="st1" d="M20.8,13.2C20.8,13.2,20.8,13.2,20.8,13.2"/>
		<line class="st1" x1="20.8" y1="13.2" x2="20.8" y2="13.2"/>
		<path class="st1" d="M20.7,13.2C20.7,13.2,20.7,13.2,20.7,13.2"/>
		<path class="st1" d="M21,13c0,0,0,0.1-0.1,0.1c-0.1,0-0.1,0.1-0.1,0.1c0,0,0,0,0,0v0h0c0,0,0,0,0,0"/>
		<path class="st1" d="M21,12.9C21,12.9,21,12.9,21,12.9"/>
		<line class="st1" x1="21" y1="13" x2="21" y2="13"/>
		<path class="st1" d="M21.2,12.6c0,0,0,0-0.1,0.2C21,12.9,21,12.9,21,12.9c0,0,0,0,0,0v0"/>
		<line class="st1" x1="21.2" y1="12.7" x2="21.2" y2="12.6"/>
		<path class="st1" d="M21.2,12.6L21.2,12.6c0,0,0-0.1,0.1-0.1c0-0.1,0.1-0.2,0.1-0.2"/>
		<path class="st1" d="M21.4,12.3L21.4,12.3C21.4,12.3,21.4,12.3,21.4,12.3"/>
		<path class="st1" d="M21.4,12.4C21.4,12.4,21.4,12.4,21.4,12.4C21.4,12.4,21.4,12.4,21.4,12.4C21.4,12.3,21.4,12.3,21.4,12.4"/>
		<path class="st1" d="M21.4,11.8c0,0.1,0,0.1,0,0.1V12c0,0,0,0.1,0,0.2c0,0.1,0,0.1,0,0.1c0,0,0,0,0,0c0,0,0,0,0,0"/>
		<path class="st1" d="M1.3,11.9C1.2,11.9,1.3,11.9,1.3,11.9c0,0.1,0,0.1,0-0.2"/>
		<path class="st1" d="M1.3,12.3C1.3,12.3,1.3,12.3,1.3,12.3C1.3,12.3,1.3,12.2,1.3,12.3c0-0.1,0-0.1,0-0.2c0-0.1,0-0.1,0-0.2"/>
		<path class="st1" d="M1.3,12.2C1.3,12.2,1.3,12.3,1.3,12.2"/>
		<path class="st1" d="M1.3,12.2C1.3,12.2,1.3,12.2,1.3,12.2L1.3,12.2"/>
		<path class="st1" d="M1.5,12.6C1.5,12.6,1.5,12.6,1.5,12.6"/>
		<path class="st1" d="M1.7,12.8c0,0,0-0.1-0.1-0.1c0,0-0.1-0.1-0.1-0.1c0,0,0,0,0,0c0,0,0,0,0,0c0,0,0-0.1-0.1-0.2
			c0-0.1-0.1-0.2-0.1-0.2"/>
		<path class="st1" d="M1.7,12.9C1.7,12.9,1.7,12.9,1.7,12.9"/>
		<line class="st1" x1="1.7" y1="12.9" x2="1.7" y2="12.9"/>
		<path class="st1" d="M1.7,12.8C1.7,12.8,1.7,12.8,1.7,12.8"/>
		<line class="st1" x1="1.7" y1="12.9" x2="1.7" y2="12.8"/>
		<polyline class="st1" points="1.7,12.9 1.7,12.9 1.7,12.9 		"/>
		<path class="st1" d="M1.9,13.1c0,0-0.1,0-0.1-0.1c0-0.1-0.1-0.1-0.1-0.1v0"/>
		<path class="st1" d="M2,13.1C2,13.1,2,13.1,2,13.1"/>
		<path class="st1" d="M2.3,13.3c0,0-0.1-0.1-0.2-0.1C2,13.1,2,13.1,2,13.1c0,0,0,0,0,0c0,0,0,0,0,0v0"/>
		<line class="st1" x1="2.2" y1="13.3" x2="2.3" y2="13.3"/>
		<path class="st1" d="M2.3,13.3C2.3,13.3,2.3,13.3,2.3,13.3c0,0,0.1,0,0.1,0.1c0.1,0,0.2,0.1,0.2,0.1"/>
		<line class="st1" x1="2.6" y1="13.5" x2="2.6" y2="13.5"/>
		<path class="st1" d="M2.5,13.5C2.5,13.5,2.5,13.5,2.5,13.5C2.5,13.5,2.6,13.5,2.5,13.5C2.6,13.5,2.6,13.5,2.5,13.5"/>
		<path class="st1" d="M3,13.5c0,0-0.1,0-0.1,0c0,0,0,0-0.2,0c-0.1,0-0.1,0-0.1,0c0,0,0,0-0.1,0"/>
	</g>
</g>
<line class="st2" x1="9.6" y1="4.8" x2="9.6" y2="10.5"/>
<line class="st2" x1="10.3" y1="10.5" x2="10.3" y2="4.8"/>
<line class="st3" x1="12.3" y1="10.5" x2="12.3" y2="4.8"/>
<line class="st3" x1="13" y1="4.8" x2="13" y2="10.5"/>
<path class="st1" d="M10.3,4.8C10.3,4.7,10.3,4.8,10.3,4.8C10.3,4.6,10.3,4.8,10.3,4.8c0-0.2,0-0.1,0-0.2c-0.1-0.1,0,0,0-0.1
	c-0.1-0.1,0,0-0.1,0c-0.1-0.1,0,0-0.1,0s0,0,0,0c-0.1,0,0,0,0,0c-0.1,0,0,0,0,0l0,0l0,0l0,0l0,0c-0.1,0,0,0,0,0c-0.1,0,0,0,0,0
	c-0.1,0,0,0,0,0c-0.1,0,0,0-0.1,0c-0.1,0.1,0,0-0.1,0c-0.1,0.1,0,0,0,0.1c-0.1,0.1,0,0,0,0.1s0,0,0,0.1s0,0,0,0.1"/>
<path class="st1" d="M9.6,10.5C9.6,10.6,9.6,10.4,9.6,10.5c0,0.2,0,0,0,0.1c0.1,0.1,0,0,0,0.1c0.1,0.1,0,0,0,0.1c0.1,0.1,0,0,0.1,0
	c0.1,0.1,0,0,0.1,0s0,0,0,0c0.1,0,0,0,0,0c0.1,0,0,0,0,0l0,0l0,0l0,0l0,0c0.1,0,0,0,0,0c0.1,0,0,0,0,0c0.1,0,0,0,0,0
	c0.1,0,0,0,0.1,0c0.1-0.1,0,0,0.1,0c0.1-0.1,0,0,0-0.1c0.1-0.1,0,0,0-0.1s0,0,0-0.1s0,0,0-0.1"/>
<path class="st1" d="M12.3,4.8C12.4,4.7,12.3,4.8,12.3,4.8C12.3,4.6,12.3,4.8,12.3,4.8c0.1-0.2,0-0.1,0-0.2c0.1-0.1,0,0,0-0.1
	c0.1-0.1,0,0,0.1,0c0.1-0.1,0,0,0.1,0s0,0,0,0c0.1,0,0,0,0,0c0.1,0,0,0,0,0l0,0l0,0l0,0l0,0c0.1,0,0,0,0,0c0.1,0,0,0,0,0l0,0
	c0.1,0,0,0,0.1,0c0.1,0.1,0,0,0.1,0c0.1,0.1,0,0,0,0.1c0.1,0.1,0,0,0,0.1s0,0,0,0.1s0,0,0,0.1"/>
<path class="st1" d="M13,10.5C13,10.6,13,10.4,13,10.5c0,0.2,0,0,0,0.1s0,0,0,0.1c-0.1,0.1,0,0,0,0.1c-0.1,0.1,0,0-0.1,0
	c-0.1,0.1,0,0-0.1,0s0,0,0,0c-0.1,0,0,0,0,0c-0.1,0,0,0,0,0l0,0l0,0l0,0l0,0c-0.1,0,0,0,0,0c-0.1,0,0,0,0,0c-0.1,0,0,0,0,0
	c-0.1,0,0,0-0.1,0c-0.1-0.1,0,0-0.1,0c-0.1-0.1,0,0,0-0.1c-0.1-0.1,0,0,0-0.1s0,0,0-0.1s0,0,0-0.1"/>
<circle class="st1" cx="11.3" cy="7.6" r="5.4"/>
</svg>
