<?xml version="1.0" encoding="utf-8"?>
<!-- Generator: Adobe Illustrator 26.1.0, SVG Export Plug-In . SVG Version: 6.00 Build 0)  -->
<svg version="1.1" id="Layer_1" xmlns="http://www.w3.org/2000/svg" xmlns:xlink="http://www.w3.org/1999/xlink" x="0px" y="0px"
	 viewBox="0 0 22.6 14.9" style="enable-background:new 0 0 22.6 14.9;" xml:space="preserve">
<style type="text/css">
	.st0{fill:none;stroke:#000000;stroke-width:0.4659;stroke-linecap:round;stroke-linejoin:round;stroke-miterlimit:500;}
</style>
<line class="st0" x1="0.6" y1="3.4" x2="0.6" y2="11.8"/>
<line class="st0" x1="1.2" y1="11.8" x2="1.2" y2="3.4"/>
<line class="st0" x1="9.6" y1="4.8" x2="9.6" y2="10.5"/>
<line class="st0" x1="10.3" y1="10.5" x2="10.3" y2="4.8"/>
<line class="st0" x1="12.3" y1="10.5" x2="12.3" y2="4.8"/>
<line class="st0" x1="13" y1="4.8" x2="13" y2="10.5"/>
<line class="st0" x1="21.4" y1="3.4" x2="21.4" y2="11.8"/>
<line class="st0" x1="22" y1="11.8" x2="22" y2="3.4"/>
<line class="st0" x1="3" y1="14.1" x2="19.6" y2="14.1"/>
<line class="st0" x1="19.6" y1="13.5" x2="3" y2="13.5"/>
<line class="st0" x1="3" y1="1.7" x2="19.6" y2="1.7"/>
<line class="st0" x1="19.6" y1="1.1" x2="3" y2="1.1"/>
<path class="st0" d="M10.3,4.8C10.3,4.7,10.3,4.8,10.3,4.8c0-0.2,0,0,0-0.1c0-0.1,0,0,0-0.1c-0.1-0.1,0,0,0-0.1c-0.1-0.1,0,0-0.1,0
	c-0.1-0.1,0,0-0.1,0c-0.1,0,0,0,0,0c-0.1,0,0,0,0,0c-0.1,0,0,0,0,0c0,0,0,0,0,0c0,0,0,0,0,0s0,0,0,0s0,0,0,0c-0.1,0,0,0,0,0
	c-0.1,0,0,0,0,0c-0.1,0,0,0,0,0c-0.1,0,0,0-0.1,0c-0.1,0.1,0,0-0.1,0c-0.1,0.1,0,0,0,0.1c-0.1,0.1,0,0,0,0.1c0,0.1,0,0,0,0.1
	c0,0.1,0,0,0,0.1"/>
<path class="st0" d="M9.6,10.5C9.6,10.6,9.6,10.4,9.6,10.5c0,0.2,0,0,0,0.1c0.1,0.1,0,0,0,0.1c0.1,0.1,0,0,0,0.1c0.1,0.1,0,0,0.1,0
	c0.1,0.1,0,0,0.1,0c0.1,0,0,0,0,0c0.1,0,0,0,0,0c0.1,0,0,0,0,0c0,0,0,0,0,0c0,0,0,0,0,0s0,0,0,0s0,0,0,0c0.1,0,0,0,0,0
	c0.1,0,0,0,0,0c0.1,0,0,0,0,0c0.1,0,0,0,0.1,0c0.1-0.1,0,0,0.1,0c0.1-0.1,0,0,0-0.1c0.1-0.1,0,0,0-0.1c0-0.1,0,0,0-0.1
	c0-0.1,0,0,0-0.1"/>
<path class="st0" d="M12.3,4.8C12.4,4.7,12.3,4.8,12.3,4.8c0-0.2,0,0,0-0.1c0.1-0.1,0,0,0-0.1c0.1-0.1,0,0,0-0.1c0.1-0.1,0,0,0.1,0
	c0.1-0.1,0,0,0.1,0c0.1,0,0,0,0,0c0.1,0,0,0,0,0c0.1,0,0,0,0,0c0,0,0,0,0,0c0,0,0,0,0,0s0,0,0,0s0,0,0,0c0.1,0,0,0,0,0
	c0.1,0,0,0,0,0c0,0,0,0,0,0c0.1,0,0,0,0.1,0c0.1,0.1,0,0,0.1,0c0.1,0.1,0,0,0,0.1c0.1,0.1,0,0,0,0.1c0,0.1,0,0,0,0.1
	c0,0.1,0,0,0,0.1"/>
<path class="st0" d="M13,10.5C13,10.6,13,10.4,13,10.5c0,0.2,0,0,0,0.1c0,0.1,0,0,0,0.1c-0.1,0.1,0,0,0,0.1c-0.1,0.1,0,0-0.1,0
	c-0.1,0.1,0,0-0.1,0c-0.1,0,0,0,0,0c-0.1,0,0,0,0,0c-0.1,0,0,0,0,0c0,0,0,0,0,0s0,0,0,0s0,0,0,0c0,0,0,0,0,0c-0.1,0,0,0,0,0
	c-0.1,0,0,0,0,0c-0.1,0,0,0,0,0c-0.1,0,0,0-0.1,0c-0.1-0.1,0,0-0.1,0c-0.1-0.1,0,0,0-0.1c-0.1-0.1,0,0,0-0.1c0-0.1,0,0,0-0.1
	c0-0.1,0,0,0-0.1"/>
<path class="st0" d="M0.6,11.8c0.1,0.7,0-0.2,0.1,0.5c0.2,0.7-0.1-0.2,0.1,0.4c0.3,0.6-0.1-0.2,0.2,0.4c0.4,0.5-0.2-0.2,0.3,0.4
	c0.5,0.4-0.2-0.1,0.3,0.3c0.6,0.3-0.2-0.1,0.4,0.2c0.7,0.2-0.2-0.1,0.4,0.1c0.7,0.1-0.2,0,0.5,0.1"/>
<path class="st0" d="M19.6,14.1c0.7-0.1-0.2,0,0.5-0.1c0.7-0.2-0.2,0.1,0.4-0.1c0.6-0.3-0.2,0.1,0.4-0.2c0.5-0.4-0.2,0.2,0.3-0.3
	c0.4-0.5-0.1,0.2,0.3-0.4c0.3-0.6-0.1,0.2,0.2-0.4c0.2-0.7-0.1,0.2,0.1-0.4c0.1-0.7,0,0.2,0.1-0.5"/>
<path class="st0" d="M22,3.4c-0.1-0.7,0,0.2-0.1-0.5c-0.2-0.7,0.1,0.2-0.1-0.4c-0.3-0.6,0.1,0.2-0.2-0.4c-0.4-0.5,0.2,0.2-0.3-0.4
	c-0.5-0.4,0.2,0.1-0.3-0.3c-0.6-0.3,0.2,0.1-0.4-0.2c-0.7-0.2,0.2,0.1-0.4-0.1c-0.7-0.1,0.2,0-0.5-0.1"/>
<path class="st0" d="M3,1.1C2.3,1.1,3.2,1,2.5,1.1C1.8,1.3,2.7,1,2.1,1.3C1.5,1.6,2.3,1.2,1.7,1.5C1.1,1.9,1.8,1.3,1.3,1.8
	C0.9,2.3,1.5,1.6,1,2.1C0.7,2.7,1.1,1.9,0.8,2.5C0.6,3.2,0.9,2.3,0.7,3c-0.1,0.7,0-0.2-0.1,0.5"/>
<path class="st0" d="M1.2,3.4c0-0.5,0,0.2,0-0.4c0.1-0.5-0.1,0.2,0.1-0.3c0.2-0.4-0.1,0.1,0.2-0.3c0.3-0.4-0.1,0.1,0.2-0.3
	C2.1,1.9,1.6,2.3,2,2C2.5,1.7,1.9,2,2.3,1.8c0.5-0.2-0.2,0,0.3-0.1c0.5-0.1-0.2,0,0.3,0"/>
<path class="st0" d="M19.6,1.7c0.5,0-0.2,0,0.4,0c0.5,0.1-0.2-0.1,0.3,0.1c0.4,0.2-0.1-0.1,0.3,0.2c0.4,0.3-0.1-0.1,0.3,0.2
	c0.3,0.4-0.1-0.1,0.2,0.3c0.2,0.4-0.1-0.2,0.2,0.3c0.2,0.5,0-0.2,0.1,0.3c0.1,0.5,0-0.2,0,0.4"/>
<path class="st0" d="M21.4,11.8c0,0.5,0-0.2,0,0.4c-0.1,0.5,0.1-0.2-0.1,0.3c-0.2,0.4,0.1-0.1-0.2,0.3c-0.3,0.4,0.1-0.1-0.2,0.3
	c-0.4,0.3,0.1-0.1-0.3,0.2c-0.4,0.2,0.2-0.1-0.3,0.2c-0.5,0.2,0.2,0-0.3,0.1c-0.5,0.1,0.2,0-0.4,0"/>
<path class="st0" d="M3,13.5c-0.5,0,0.2,0-0.3,0c-0.5-0.1,0.2,0.1-0.3-0.1c-0.4-0.2,0.1,0.1-0.3-0.2c-0.4-0.3,0.1,0.1-0.3-0.2
	c-0.3-0.4,0.1,0.1-0.2-0.3c-0.3-0.4,0.1,0.2-0.2-0.3c-0.2-0.5,0,0.2-0.1-0.3c-0.1-0.5,0,0.2,0-0.4"/>
<circle class="st0" cx="11.3" cy="7.6" r="5.4"/>
<path class="st0" d="M20.2,8"/>
</svg>
