<?xml version="1.0" encoding="utf-8"?>
<!-- Generator: Adobe Illustrator 26.1.0, SVG Export Plug-In . SVG Version: 6.00 Build 0)  -->
<svg version="1.1" id="Layer_1" xmlns="http://www.w3.org/2000/svg" xmlns:xlink="http://www.w3.org/1999/xlink" x="0px" y="0px"
	 viewBox="0 0 23 15.3" style="enable-background:new 0 0 23 15.3;" xml:space="preserve">
<style type="text/css">
	.st0{fill:none;stroke:#000000;stroke-width:0.4659;stroke-linecap:round;stroke-linejoin:round;stroke-miterlimit:500;}
</style>
<line class="st0" x1="0.9" y1="12" x2="0.9" y2="3.6"/>
<line class="st0" x1="1.5" y1="12" x2="1.5" y2="3.6"/>
<line class="st0" x1="11.3" y1="8" x2="11.3" y2="4.6"/>
<line class="st0" x1="11.8" y1="4.6" x2="11.8" y2="8"/>
<line class="st0" x1="21.6" y1="3.6" x2="21.6" y2="12"/>
<line class="st0" x1="22.2" y1="3.6" x2="22.2" y2="12"/>
<line class="st0" x1="19.9" y1="14.3" x2="3.2" y2="14.3"/>
<line class="st0" x1="19.9" y1="13.7" x2="3.2" y2="13.7"/>
<line class="st0" x1="3.2" y1="1.9" x2="19.9" y2="1.9"/>
<line class="st0" x1="3.2" y1="1.3" x2="19.9" y2="1.3"/>
<path class="st0" d="M0.9,3.6c0.1-0.7,0,0.2,0.1-0.5c0.2-0.7-0.1,0.2,0.1-0.4C1.4,2.1,1,2.9,1.3,2.3C1.7,1.8,1.1,2.5,1.6,2
	c0.5-0.5-0.2,0.1,0.3-0.3c0.6-0.3-0.2,0.1,0.4-0.2c0.7-0.2-0.2,0,0.4-0.1c0.7-0.1-0.2,0,0.5,0"/>
<path class="st0" d="M19.9,1.3c0.7,0-0.2,0,0.5,0c0.7,0.2-0.2-0.1,0.4,0.1c0.6,0.3-0.2-0.1,0.4,0.2C21.7,2.1,21,1.5,21.5,2
	c0.4,0.5-0.1-0.2,0.3,0.4c0.3,0.6-0.1-0.2,0.2,0.4c0.2,0.7-0.1-0.2,0.1,0.4c0.1,0.7,0-0.2,0.1,0.5"/>
<path class="st0" d="M22.2,12c-0.1,0.7,0-0.2-0.1,0.5c-0.2,0.7,0.1-0.2-0.1,0.4c-0.3,0.6,0.1-0.2-0.2,0.4c-0.4,0.5,0.2-0.2-0.3,0.3
	c-0.5,0.5,0.2-0.1-0.3,0.3c-0.6,0.3,0.2-0.1-0.4,0.2c-0.7,0.2,0.2,0-0.4,0.1c-0.7,0.1,0.2,0-0.5,0"/>
<path class="st0" d="M3.2,14.3c-0.7,0,0.2,0-0.5,0c-0.7-0.2,0.2,0.1-0.4-0.1c-0.6-0.3,0.2,0.1-0.4-0.2c-0.5-0.4,0.2,0.2-0.3-0.3
	c-0.4-0.5,0.1,0.2-0.3-0.3c-0.3-0.6,0.1,0.2-0.2-0.4c-0.2-0.7,0.1,0.2-0.1-0.4c-0.1-0.7,0,0.2-0.1-0.5"/>
<path class="st0" d="M1.5,3.6c0-0.5,0,0.2,0-0.4c0.1-0.5-0.1,0.2,0.1-0.3c0.2-0.5-0.1,0.1,0.2-0.3C2.1,2.2,1.7,2.8,2,2.4
	c0.4-0.3-0.1,0.1,0.3-0.2C2.7,1.9,2.1,2.2,2.6,2C3,1.8,2.4,2,2.9,1.9c0.5-0.1-0.2,0,0.3,0"/>
<path class="st0" d="M19.9,1.9c0.5,0-0.2,0,0.4,0C20.7,2,20.1,1.8,20.6,2c0.4,0.2-0.1-0.1,0.3,0.2c0.4,0.3-0.1-0.1,0.3,0.2
	c0.3,0.4-0.1-0.1,0.2,0.3c0.2,0.4-0.1-0.2,0.2,0.3c0.2,0.5,0-0.2,0.1,0.3c0.1,0.5,0-0.2,0,0.4"/>
<path class="st0" d="M21.6,12c0,0.5,0-0.2,0,0.3c-0.1,0.5,0.1-0.2-0.1,0.3c-0.2,0.5,0.1-0.1-0.2,0.3c-0.3,0.4,0.1-0.1-0.2,0.3
	c-0.4,0.3,0.1-0.1-0.3,0.2c-0.4,0.3,0.2-0.1-0.3,0.2c-0.5,0.2,0.2,0-0.3,0.1c-0.5,0.1,0.2,0-0.4,0"/>
<path class="st0" d="M3.2,13.7c-0.5,0,0.2,0-0.3,0c-0.5-0.1,0.2,0.1-0.3-0.1c-0.4-0.2,0.1,0.1-0.3-0.2c-0.4-0.3,0.1,0.1-0.3-0.2
	c-0.3-0.4,0.1,0.1-0.2-0.3c-0.3-0.4,0.1,0.2-0.2-0.3c-0.2-0.5,0,0.2-0.1-0.3c-0.1-0.5,0,0.2,0-0.3"/>
<path class="st0" d="M11.3,4.6C11.3,4.5,11.3,4.7,11.3,4.6c0-0.1,0,0,0-0.1c0-0.1,0,0,0,0c0.1-0.1,0,0,0,0c0.1-0.1,0,0,0,0
	c0.1,0,0,0,0.1,0c0,0,0,0,0,0c0.1,0,0,0,0,0s0,0,0,0c0,0,0,0,0,0c0,0,0,0,0,0c0,0,0,0,0,0c0,0,0,0,0,0c0,0,0,0,0,0c0,0,0,0,0,0
	s0,0,0,0c0.1,0,0,0,0.1,0c0.1,0,0,0,0,0c0.1,0.1,0,0,0,0c0,0.1,0,0,0,0c0,0.1,0,0,0,0c0,0.1,0,0,0,0.1"/>
<path class="st0" d="M11.8,8C11.8,8.1,11.9,8,11.8,8c0,0.1,0,0,0,0.1c0,0.1,0,0,0,0c-0.1,0.1,0,0,0,0c-0.1,0,0,0,0,0
	c-0.1,0,0,0-0.1,0c0,0,0,0,0,0c0,0,0,0,0,0s0,0,0,0c0,0,0,0,0,0c0,0,0,0,0,0s0,0,0,0c0,0,0,0,0,0c0,0,0,0,0,0s0,0,0,0c0,0,0,0,0,0
	c-0.1,0,0,0-0.1,0c-0.1,0,0,0,0,0c-0.1-0.1,0,0,0,0c0-0.1,0,0,0,0c0-0.1,0,0,0,0c0-0.1,0,0,0-0.1"/>
<path class="st0" d="M10.4,5.5C9.9,5.7,10.5,5.4,10,5.7C9.6,6,10.2,5.5,9.8,5.9C9.4,6.3,9.9,5.7,9.5,6.1C9.2,6.6,9.6,6,9.3,6.4
	C9.1,6.9,9.4,6.3,9.2,6.7C9.1,7,9.2,6.7,9.1,6.9C9,7.2,9.1,6.8,9,7.1C9,7.3,9.1,7,9,7.3C9,7.5,9,7.2,9,7.4c0,0.1,0,0,0,0.1
	c0,0.1,0,0,0,0.1c0,0.1,0,0,0,0.1c0,0.1,0,0,0,0c0,0.1,0,0,0,0c0,0.1,0,0,0,0.1s0,0,0,0.1c0,0.1,0,0,0,0.1c0,0.1,0,0,0,0.1
	c0,0.2,0-0.1,0,0.1c0,0.2,0-0.1,0,0.1c0,0.2,0-0.1,0,0.1c0.1,0.2,0-0.1,0,0.1C9.2,8.9,9,8.5,9.1,8.8C9.3,9.2,9.1,8.7,9.3,9
	c0.2,0.3-0.1-0.1,0.1,0.2c0.2,0.3-0.1-0.1,0.2,0.2c0.2,0.3-0.1-0.1,0.2,0.2C10,9.9,9.6,9.6,9.9,9.8c0.3,0.2-0.1-0.1,0.2,0.2
	c0.3,0.2-0.1-0.1,0.2,0.1c0.3,0.2-0.1,0,0.2,0.1c0.4,0.1-0.1,0,0.2,0.1c0.2,0-0.1,0,0.1,0c0.2,0-0.1,0,0.1,0c0.2,0-0.1,0,0.1,0
	c0.2,0-0.1,0,0.1,0c0.1,0,0,0,0.1,0c0.1,0,0,0,0.1,0s0,0,0.1,0c0.1,0,0,0,0,0c0.1,0,0,0,0,0s0,0,0,0c0.1,0,0,0,0,0c0.1,0,0,0,0.1,0
	c0.1,0,0,0,0.1,0c0.1,0,0,0,0.1,0c0.2,0-0.1,0,0.1,0c0.2,0-0.1,0,0.1,0c0.2,0-0.1,0,0.1,0c0.2,0-0.1,0,0.1,0c0.4-0.1-0.1,0,0.2-0.1
	c0.3-0.2-0.1,0.1,0.2-0.1"/>
<path class="st0" d="M12.8,5.5C12.7,5.4,12.8,5.5,12.8,5.5C12.7,5.4,12.7,5.4,12.8,5.5c-0.1-0.1-0.1-0.1-0.1-0.1c0,0,0,0,0,0
	c0-0.1,0,0,0,0c0,0,0,0,0,0c0,0,0,0,0,0s0,0,0,0c0,0,0,0,0,0c0,0,0,0,0,0c0,0,0,0,0,0s0,0,0,0c0,0,0,0,0,0s0,0,0,0c0,0,0,0,0,0
	c0-0.1,0,0,0,0c0.1-0.1,0,0,0,0c0.1,0,0,0,0,0c0.1,0,0,0,0.1,0c0.1,0,0,0,0.1,0c0,0,0,0,0,0c0,0,0,0,0,0c0,0,0,0,0,0c0,0,0,0,0,0
	c0,0,0,0,0,0c0.1,0,0,0,0,0c0.1,0,0,0,0,0c0.1,0,0,0,0,0"/>
<path class="st0" d="M13,5c0.6,0.3-0.2-0.1,0.4,0.2c0.5,0.4-0.2-0.1,0.3,0.3c0.4,0.5-0.1-0.2,0.3,0.3c0.4,0.5-0.1-0.2,0.2,0.4
	c0.3,0.6-0.1-0.2,0.2,0.4c0.1,0.3,0-0.1,0.1,0.2c0.1,0.3,0-0.1,0.1,0.2c0.1,0.3,0-0.1,0.1,0.2c0.1,0.3,0-0.1,0,0.2c0,0.2,0,0,0,0.1
	c0,0.2,0-0.1,0,0.1c0,0.2,0-0.1,0,0.1c0,0.1,0,0,0,0.1c0,0.1,0,0,0,0c0,0.1,0,0,0,0c0,0.1,0,0,0,0c0,0.1,0,0,0,0.1c0,0.1,0,0,0,0.1
	c0,0.1,0,0,0,0.1c0,0.2,0-0.1,0,0.2c0,0.2,0-0.1,0,0.2c-0.1,0.2,0-0.1,0,0.1c-0.1,0.2,0-0.1,0,0.1c-0.2,0.4,0.1-0.1-0.1,0.3
	c-0.2,0.4,0.1-0.1-0.1,0.3c-0.2,0.4,0.1-0.1-0.2,0.3C14,9.9,14.3,9.4,14,9.8c-0.3,0.3,0.1-0.1-0.2,0.2c-0.3,0.3,0.1-0.1-0.2,0.2
	c-0.4,0.3,0.1-0.1-0.2,0.2c-0.4,0.2,0.1-0.1-0.3,0.2c-0.4,0.2,0.1-0.1-0.3,0.1c-0.4,0.2,0.2,0-0.3,0.1c-0.2,0.1,0.1,0-0.2,0
	s0.1,0-0.2,0c-0.2,0,0.1,0-0.2,0c-0.2,0,0.1,0-0.2,0c-0.1,0,0,0-0.1,0s0,0-0.1,0c-0.1,0,0,0-0.1,0c-0.1,0,0,0,0,0s0,0,0,0s0,0,0,0
	s0,0,0,0c-0.1,0,0,0-0.1,0c-0.1,0,0,0-0.1,0s0,0-0.1,0c-0.2,0,0.1,0-0.2,0c-0.2,0,0.1,0-0.2,0c-0.2,0,0.1,0-0.2,0s0.1,0-0.2,0
	c-0.4-0.2,0.1,0.1-0.3-0.1c-0.4-0.2,0.1,0.1-0.3-0.1"/>
<path class="st0" d="M10.1,5C10.1,4.9,10.1,5,10.1,5C10.2,4.9,10.1,4.9,10.1,5C10.2,4.9,10.1,4.9,10.1,5C10.2,4.9,10.2,4.9,10.1,5
	c0.1,0,0.1,0,0.1,0c0,0,0,0,0,0s0,0,0,0c0,0,0,0,0,0c0,0,0,0,0,0c0.1,0,0,0,0.1,0c0.1,0,0,0,0.1,0c0.1,0,0,0,0,0c0.1,0.1,0,0,0,0
	c0,0.1,0,0,0,0c0,0,0,0,0,0s0,0,0,0s0,0,0,0c0,0,0,0,0,0s0,0,0,0s0,0,0,0c0,0,0,0,0,0c0,0,0,0,0,0s0,0,0,0c0,0,0,0,0,0c0,0,0,0,0,0
	c0,0,0,0,0,0c0,0,0,0,0,0c0,0,0,0,0,0c-0.1,0.1,0,0-0.1,0"/>
<path class="st0" d="M12.8,10.1c0.3-0.2-0.1,0.1,0.2-0.1c0.3-0.2-0.1,0.1,0.2-0.2c0.3-0.2-0.1,0.1,0.2-0.2c0.3-0.3-0.1,0.1,0.2-0.2
	c0.2-0.3-0.1,0.1,0.2-0.2c0.2-0.3-0.1,0.1,0.1-0.2C14,8.7,13.8,9.2,14,8.8c0.1-0.4,0,0.1,0.1-0.2c0.1-0.2,0,0.1,0-0.1
	c0.1-0.2,0,0.1,0-0.1c0-0.2,0,0.1,0-0.1c0-0.2,0,0.1,0-0.1c0-0.1,0,0,0-0.1s0,0,0-0.1s0,0,0-0.1s0,0,0-0.1c0-0.1,0,0,0,0
	c0-0.1,0,0,0,0c0-0.1,0,0,0-0.1c0-0.1,0,0,0-0.1c0-0.1,0,0,0-0.1c0-0.3,0,0.1,0-0.2c-0.1-0.3,0,0.1,0-0.2c-0.1-0.2,0,0.1-0.1-0.2
	c-0.1-0.2,0,0.1-0.1-0.2c-0.2-0.5,0.1,0.1-0.2-0.3c-0.3-0.4,0.1,0.1-0.2-0.3c-0.4-0.4,0.1,0.1-0.2-0.3c-0.4-0.4,0.1,0.1-0.3-0.2
	c-0.5-0.3,0.2,0.1-0.3-0.2"/>
<path class="st0" d="M10,10.6c-0.4-0.2,0.1,0.1-0.3-0.2c-0.4-0.3,0.1,0.1-0.2-0.2c-0.3-0.3,0.1,0.1-0.2-0.2C9,9.7,9.4,10.2,9.1,9.8
	C8.8,9.5,9.2,10,8.9,9.6C8.7,9.2,9,9.7,8.7,9.3C8.5,8.9,8.8,9.5,8.6,9C8.4,8.6,8.7,9.2,8.5,8.7c-0.1-0.2,0,0.1,0-0.1
	c-0.1-0.2,0,0.1,0-0.1c0-0.2,0,0.1,0-0.2c0-0.2,0,0.1,0-0.2c0-0.1,0,0,0-0.1s0,0,0-0.1c0-0.1,0,0,0-0.1c0-0.1,0,0,0,0c0-0.1,0,0,0,0
	c0-0.1,0,0,0,0s0,0,0-0.1c0-0.2,0,0.1,0-0.1c0-0.2,0,0,0-0.1c0-0.2,0,0,0-0.1c0.1-0.3,0,0.1,0-0.2c0.1-0.3,0,0.1,0.1-0.2
	c0.1-0.3,0,0.1,0.1-0.2c0.1-0.3,0,0.1,0.1-0.2C8.9,6,8.5,6.7,8.8,6.2c0.4-0.5-0.1,0.2,0.2-0.4C9.5,5.3,8.9,6,9.4,5.5
	c0.5-0.4-0.2,0.1,0.3-0.3c0.6-0.4-0.2,0.1,0.4-0.2"/>
<circle class="st0" cx="11.6" cy="7.8" r="5.3"/>
</svg>
