<?xml version="1.0" encoding="utf-8"?>
<!-- Generator: Adobe Illustrator 26.1.0, SVG Export Plug-In . SVG Version: 6.00 Build 0)  -->
<svg version="1.1" id="Layer_1" xmlns="http://www.w3.org/2000/svg" xmlns:xlink="http://www.w3.org/1999/xlink" x="0px" y="0px"
	 viewBox="0 0 23 15.3" style="enable-background:new 0 0 23 15.3;" xml:space="preserve">
<style type="text/css">
	.st0{fill:#231F20;}
	.st1{fill:none;stroke:#FFFFFF;stroke-width:0.4659;stroke-linecap:round;stroke-linejoin:round;stroke-miterlimit:500;}
	.st2{fill:none;stroke:#FFFFFF;stroke-miterlimit:10;}
</style>
<g id="XMLID_00000172404038202876754070000011244065445167230859_">
	<g>
		<path class="st0" d="M21.9,2.6C21.9,2.6,21.9,2.6,21.9,2.6L21.9,2.6L21.9,2.6z"/>
		<path class="st0" d="M21.9,13.1C21.9,13.1,21.9,13.1,21.9,13.1L21.9,13.1L21.9,13.1z"/>
		<path class="st0" d="M21.9,2.6L21.9,2.6C21.9,2.6,21.9,2.6,21.9,2.6L21.9,2.6z"/>
		<path class="st0" d="M21.9,13.1L21.9,13.1L21.9,13.1C21.9,13.1,21.9,13.1,21.9,13.1z"/>
		<path class="st0" d="M21.9,2.6C21.9,2.6,21.9,2.6,21.9,2.6L21.9,2.6L21.9,2.6z"/>
		<path class="st0" d="M21.9,13.1C21.9,13.1,21.9,13.1,21.9,13.1L21.9,13.1L21.9,13.1z"/>
		<path class="st0" d="M21.9,13.1L21.9,13.1C21.9,13.1,21.9,13.1,21.9,13.1C21.9,13.1,21.9,13.1,21.9,13.1z"/>
		<path class="st0" d="M21.9,2.6L21.9,2.6C21.9,2.6,21.9,2.6,21.9,2.6L21.9,2.6z"/>
		<path class="st0" d="M21.7,3.5C21.8,3.5,21.8,3.5,21.7,3.5L21.7,3.5z"/>
		<path class="st0" d="M21.7,3.1C21.7,3.2,21.7,3.2,21.7,3.1C21.7,3.2,21.7,3.1,21.7,3.1z"/>
		<path class="st0" d="M21.6,2.2C21.7,2.2,21.7,2.2,21.6,2.2C21.6,2.2,21.6,2.2,21.6,2.2L21.6,2.2z"/>
		<path class="st0" d="M21.6,2.2L21.6,2.2C21.6,2.2,21.6,2.2,21.6,2.2C21.6,2.2,21.6,2.1,21.6,2.2z"/>
		<path class="st0" d="M21.6,12.4C21.6,12.4,21.6,12.4,21.6,12.4C21.6,12.4,21.6,12.5,21.6,12.4C21.6,12.5,21.6,12.4,21.6,12.4z"/>
		<path class="st0" d="M21.2,13.1L21.2,13.1L21.2,13.1C21.2,13.1,21.2,13.1,21.2,13.1z"/>
		<path class="st0" d="M21,14C21,14,21,14,21,14L21,14C21,14,21,14,21,14z"/>
		<path class="st0" d="M21,1.5C21,1.5,21,1.5,21,1.5L21,1.5L21,1.5z"/>
		<path class="st0" d="M21,1.5L21,1.5L21,1.5C21,1.5,21,1.5,21,1.5z"/>
		<path class="st0" d="M21,14C21,14,21,14,21,14L21,14L21,14z"/>
		<path class="st0" d="M21,14L21,14L21,14C21,14,21,14,21,14z"/>
		<path class="st0" d="M21,1.5L21,1.5C21,1.5,21,1.5,21,1.5L21,1.5z"/>
		<path class="st0" d="M21,1.5L21,1.5L21,1.5C21,1.5,21,1.5,21,1.5z"/>
		<path class="st0" d="M21,14C21,14,21,14,21,14L21,14L21,14z"/>
		<path class="st0" d="M21,13.3L21,13.3L21,13.3C21,13.3,21,13.3,21,13.3z"/>
		<path class="st0" d="M20.7,13.5C20.7,13.5,20.7,13.5,20.7,13.5C20.7,13.5,20.7,13.5,20.7,13.5z"/>
		<path class="st0" d="M20.6,14.2C20.7,14.2,20.5,14.2,20.6,14.2C20.5,14.2,20.5,14.2,20.6,14.2C20.5,14.2,20.6,14.2,20.6,14.2z"/>
		<path class="st0" d="M20.4,1.9C20.4,1.9,20.4,1.9,20.4,1.9C20.4,1.9,20.4,1.9,20.4,1.9C20.4,1.9,20.4,1.9,20.4,1.9z"/>
		<path class="st0" d="M20.3,13.7C20.4,13.7,20.4,13.7,20.3,13.7C20.4,13.7,20.3,13.7,20.3,13.7L20.3,13.7z"/>
		<path class="st0" d="M20,13.7c0,0,0,0-0.1,0c0,0-0.1,0-0.1,0H3.2c0,0-0.1,0-0.1,0c0,0,0,0-0.2,0c-0.1,0-0.1,0-0.1,0
			c0,0-0.1,0-0.2-0.1c-0.1,0-0.1-0.1-0.1-0.1c0,0,0,0,0,0c0,0-0.1-0.1-0.2-0.1c-0.1,0-0.1-0.1-0.1-0.1c0,0,0,0,0,0c0,0,0,0,0,0
			c0,0-0.1,0-0.1-0.1c0-0.1-0.1-0.1-0.1-0.1c0,0,0,0,0,0c0,0,0-0.1-0.1-0.1c0,0,0-0.1-0.1-0.1c0,0,0,0,0,0c0,0,0,0,0,0
			c0,0,0-0.1-0.1-0.2c0-0.1-0.1-0.2-0.1-0.2c0,0,0-0.1,0-0.1c0-0.1,0-0.1,0-0.1c0,0,0,0,0-0.2V3.6c0-0.1,0-0.2,0-0.2
			c0,0,0-0.1,0-0.2c0-0.1,0-0.1,0-0.1c0,0,0-0.1,0.1-0.2c0-0.1,0-0.1,0.1-0.2c0,0,0.1,0,0.1-0.2c0.1-0.1,0.1-0.1,0.1-0.1
			c0,0,0,0,0,0.1c0,0,0,0,0,0c0,0,0,0,0.1-0.1c0.1-0.1,0.1-0.1,0.1-0.1c0,0,0,0,0,0c0,0,0.1,0,0.1-0.1c0.1-0.1,0.2-0.1,0.2-0.1
			c0,0,0.1,0,0.1-0.1c0.1,0,0.1-0.1,0.1-0.1l0,0c0,0,0.1,0,0.2,0c0,0,0.1,0,0.1,0c0,0,0,0,0.2,0h16.7c0.1,0,0.2,0,0.2,0
			c0,0,0.1,0,0.2,0c0,0,0.1,0,0.1,0c0,0,0,0,0,0h0c0,0,0.1,0,0.2,0.1c0.1,0,0.1,0,0.1,0.1c0,0,0,0,0.2,0.1C21,2.2,21,2.3,21,2.3
			c0,0,0,0,0,0c0,0,0,0,0,0c0,0,0.1,0,0.1,0.1c0,0.1,0.1,0.1,0.1,0.1c0,0,0,0,0,0c0,0,0,0.1,0.1,0.1c0,0.1,0.1,0.1,0.1,0.1
			c0,0,0-0.1,0.1,0.2c0,0.1,0.1,0.2,0.1,0.2c0,0,0,0.1,0,0.1c0,0.1,0,0.1,0,0.2c0,0,0,0,0,0.1h-0.1V12c0,0,0,0.1,0,0.1v0.1
			c0,0,0,0.1,0,0.1c0,0.1,0,0.1,0,0.1c0,0,0,0.1-0.1,0.2c0,0.1,0,0.1-0.1,0.1c0,0-0.1,0-0.1,0.1c0,0.1-0.1,0.1-0.1,0.1c0,0,0,0,0,0
			s0,0,0,0v0c0,0,0,0.1-0.1,0.1c-0.1,0-0.1,0.1-0.1,0.1c0,0,0,0,0,0c0,0,0,0,0,0s0,0,0,0c0,0-0.1,0-0.1,0.1c0,0-0.1,0.1-0.1,0.1
			c0,0,0,0,0,0c0,0,0,0,0,0c0,0-0.1,0-0.1,0.1c-0.1,0-0.2,0.1-0.2,0.1c0,0-0.1,0-0.1,0C20.1,13.7,20.1,13.7,20,13.7z"/>
		<path class="st0" d="M2.8,13.7L2.8,13.7C2.8,13.7,2.7,13.7,2.8,13.7C2.7,13.7,2.8,13.7,2.8,13.7z"/>
		<path class="st0" d="M2.7,1.9C2.6,1.9,2.8,1.9,2.7,1.9L2.7,1.9z"/>
		<path class="st0" d="M2.6,1.4C2.6,1.4,2.6,1.4,2.6,1.4C2.6,1.4,2.6,1.4,2.6,1.4C2.6,1.4,2.6,1.4,2.6,1.4z"/>
		<path class="st0" d="M2.5,1.4C2.5,1.4,2.5,1.4,2.5,1.4L2.5,1.4C2.5,1.4,2.5,1.4,2.5,1.4z"/>
		<path class="st0" d="M2.5,1.4L2.5,1.4C2.5,1.4,2.5,1.4,2.5,1.4C2.5,1.4,2.5,1.4,2.5,1.4z"/>
		<path class="st0" d="M2.1,1.6C2.1,1.6,2.1,1.6,2.1,1.6L2.1,1.6C2.1,1.6,2.1,1.6,2.1,1.6z"/>
		<path class="st0" d="M2.1,14.1C2.1,14.1,2.1,14.1,2.1,14.1L2.1,14.1L2.1,14.1z"/>
		<path class="st0" d="M2.1,1.6C2.1,1.6,2.1,1.6,2.1,1.6L2.1,1.6L2.1,1.6z"/>
		<path class="st0" d="M2.1,14.1L2.1,14.1L2.1,14.1C2.1,14.1,2.1,14.1,2.1,14.1z"/>
		<path class="st0" d="M2.1,1.6L2.1,1.6L2.1,1.6C2.1,1.6,2.1,1.6,2.1,1.6z"/>
		<path class="st0" d="M2.1,14.1L2.1,14.1C2.1,14.1,2.1,14.1,2.1,14.1L2.1,14.1z"/>
		<path class="st0" d="M2.1,1.6C2.1,1.6,2.1,1.6,2.1,1.6L2.1,1.6L2.1,1.6z"/>
		<path class="st0" d="M2.1,14.1L2.1,14.1L2.1,14.1C2.1,14.1,2.1,14.1,2.1,14.1z"/>
		<path class="st0" d="M1.9,2.5C1.9,2.5,1.9,2.5,1.9,2.5L1.9,2.5z"/>
		<path class="st0" d="M1.7,12.8C1.7,12.8,1.7,12.8,1.7,12.8C1.7,12.8,1.7,12.8,1.7,12.8z"/>
		<path class="st0" d="M1.5,3C1.5,3,1.5,3,1.5,3C1.5,3.1,1.5,3,1.5,3z"/>
		<path class="st0" d="M1.5,12.4C1.5,12.4,1.5,12.5,1.5,12.4C1.5,12.5,1.5,12.4,1.5,12.4C1.5,12.4,1.5,12.4,1.5,12.4z"/>
		<path class="st0" d="M1.5,12.1C1.5,12.1,1.5,12.1,1.5,12.1L1.5,12.1z M21.7,3.5C21.8,3.5,21.8,3.5,21.7,3.5L21.7,3.5z M19.9,13.7
			c0.2,0,0.2,0,0.1,0c0,0,0.1,0,0.2,0c0.1,0,0.1,0,0.1,0v0c0,0,0,0,0.1,0c0,0,0,0-0.1,0c0,0,0.1,0,0.2-0.1c0.1,0,0.1-0.1,0.1-0.1
			c0,0,0,0,0,0c0,0,0,0,0,0c0,0,0.1,0,0.1-0.1c0.1-0.1,0.1-0.1,0.1-0.1c0,0,0,0,0,0h0v0c0,0,0,0,0,0c0,0,0.1-0.1,0.1-0.1
			c0-0.1,0.1-0.1,0.1-0.1v0h0v0c0,0,0,0,0,0c0,0,0-0.1,0.1-0.1c0.1-0.1,0.1-0.1,0.1-0.1c0,0,0-0.1,0.1-0.1c0-0.1,0.1-0.2,0.1-0.2
			c0,0,0,0.1,0,0.1c0,0,0,0,0-0.1c0,0,0,0,0,0c0,0,0-0.1,0-0.1c0,0,0-0.1,0-0.1v-0.1c0,0,0-0.1,0-0.1V3.6h0.1c0-0.2,0-0.2,0-0.1
			c0,0,0-0.1,0-0.2c0-0.1,0-0.1,0-0.1c0,0,0,0,0-0.1c0,0,0,0,0,0.1c0,0,0-0.1-0.1-0.2c-0.2-0.3-0.1-0.2-0.1-0.2c0,0,0-0.1-0.1-0.1
			c0-0.1-0.1-0.1-0.1-0.1c0,0,0,0,0,0c0,0,0-0.1-0.1-0.1c-0.1-0.1-0.1-0.1-0.1-0.1c0,0,0,0,0,0c0,0,0,0,0,0c0,0-0.1,0-0.1-0.1
			c-0.1-0.1-0.2-0.1-0.2-0.1c0,0-0.1,0-0.1-0.1c-0.1,0-0.1,0-0.2-0.1h0c0,0,0,0,0,0c0,0,0,0,0,0c0,0-0.1,0-0.1,0c-0.1,0-0.2,0-0.2,0
			c0,0,0,0-0.2,0H3.2C3,1.9,3,1.9,3,1.9c0,0-0.1,0-0.1,0c-0.1,0-0.1,0-0.2,0c0,0-0.1,0,0,0c0,0-0.1,0-0.1,0.1C2.5,2,2.5,2,2.5,2.1
			c0,0,0,0-0.2,0.1c-0.1,0-0.1,0.1-0.1,0.1c0,0,0,0,0,0c0,0-0.1,0-0.1,0.1C1.9,2.5,1.9,2.5,1.9,2.5c0,0,0-0.1,0-0.1c0,0,0,0-0.1,0.1
			C1.7,2.7,1.7,2.8,1.7,2.8c0,0,0,0.1-0.1,0.2c0,0.1-0.1,0.2-0.1,0.2c0,0,0,0,0-0.1c0,0,0,0.1,0,0.1c0,0,0,0.1,0,0.1
			c0,0.1,0,0.2,0,0.2c0,0,0,0,0,0.2V12c0,0.1,0,0.2,0,0.2c0,0,0,0.1,0,0.1c0,0.1,0,0.1,0,0.1c0,0,0,0,0,0c0,0,0,0,0,0.1
			c0,0,0,0,0-0.1c0,0,0,0.1,0.1,0.2c0,0.1,0.1,0.1,0.1,0.2c0,0,0,0,0,0c0,0,0,0,0,0c0,0,0,0,0.1,0.1C1.9,13,1.9,13,1.9,13
			c0,0,0,0,0,0c0,0,0,0.1,0.1,0.1c0.1,0.1,0.1,0.1,0.1,0.1c0,0,0,0,0,0c0,0,0,0,0,0c0,0,0.1,0,0.1,0.1c0.1,0.1,0.1,0.1,0.2,0.1
			c0,0,0,0,0,0c0,0,0.1,0,0.1,0.1c0.1,0,0.2,0.1,0.2,0.1c0,0,0,0-0.1,0c0,0,0,0,0.1,0v0c0,0,0.1,0,0.1,0c0.1,0,0.2,0,0.2,0
			c0,0,0.1,0,0.1,0h16.6C19.8,13.7,19.9,13.7,19.9,13.7z M0.9,3.6C1,2.9,0.9,3.8,1,3.1c0.2-0.7-0.1,0.2,0.1-0.4
			c0-0.1,0.1-0.1,0.1-0.2c0,0,0,0,0,0c0,0,0,0,0,0c0,0,0,0,0,0c0,0,0,0,0,0c0,0,0-0.1,0.1-0.2c0,0,0.1-0.1,0.1-0.1c0,0,0,0,0,0
			c0,0,0.1,0,0.2-0.2c0.1-0.1,0.2-0.2,0.2-0.2c0,0,0,0,0,0c0,0,0.1,0,0.1-0.1C2,1.7,2,1.6,2.1,1.6c0,0,0,0,0,0c0,0,0,0,0,0
			c0,0,0,0,0,0c0,0,0.1,0,0.2-0.1c0.1,0,0.2,0,0.2-0.1c0,0,0,0,0,0c0,0,0,0,0,0c0,0,0,0,0,0c0,0,0.1,0,0.1,0c0.1,0,0.2,0,0.2,0
			c0,0,0,0,0.3,0V1.3h16.7c0.2,0,0.3,0,0.3,0c0,0,0.1,0,0.2,0c0.7,0.2-0.2-0.1,0.4,0.1c0.1,0,0.1,0.1,0.2,0.1l0,0c0,0,0,0,0,0
			c0,0,0,0,0,0c0,0,0.1,0,0.2,0.1C21.7,2.1,21,1.5,21.5,2c0.1,0.1,0.1,0.1,0.1,0.1v0c0,0,0,0,0,0c0,0,0,0,0,0s0,0,0,0
			c0,0,0.1,0.1,0.1,0.2c0,0.1,0.1,0.1,0.1,0.2v0c0,0,0,0,0,0c0,0,0,0,0,0l0,0c0,0,0,0.1,0.1,0.2c0.2,0.7-0.1-0.2,0.1,0.4
			c0.1,0.7,0-0.2,0.1,0.5V12c-0.1,0.7,0-0.2-0.1,0.5c-0.2,0.7,0.1-0.2-0.1,0.4c0,0.1-0.1,0.1-0.1,0.2l0,0c0,0,0,0,0,0c0,0,0,0,0,0
			c0,0,0,0.1-0.1,0.2c0,0.1-0.1,0.1-0.1,0.1c0,0,0,0-0.2,0.2c-0.1,0.1-0.2,0.2-0.2,0.2c0,0-0.1,0-0.1,0.1c-0.1,0-0.1,0.1-0.2,0.1
			c0,0,0,0,0,0c0,0,0,0,0,0l0,0c0,0-0.1,0-0.2,0.1c-0.1,0-0.2,0-0.2,0.1c0,0,0,0,0,0c0,0,0,0,0,0c0,0-0.1,0-0.1,0
			c-0.1,0-0.2,0-0.2,0c0,0,0,0-0.3,0v0.1H3.2c-0.1,0-0.2,0-0.2,0c0,0-0.1,0-0.3,0c-0.7-0.2,0.2,0.1-0.4-0.1c-0.1,0-0.1-0.1-0.2-0.1
			l0,0c0,0,0,0,0,0c0,0,0,0,0,0c0,0-0.1,0-0.2-0.1c0,0-0.1-0.1-0.1-0.1c0,0,0,0-0.2-0.2c-0.1-0.1-0.1-0.2-0.2-0.2c0,0,0,0,0,0.1
			c0,0-0.1-0.1-0.2-0.2c0-0.1-0.1-0.1-0.1-0.2c0,0,0,0,0,0c0,0,0,0,0,0c0,0,0,0,0,0l0,0c0,0,0-0.1-0.1-0.2c-0.1-0.4-0.1-0.2,0-0.2
			c0,0,0,0,0,0c0,0,0-0.1-0.1-0.2c-0.1-0.7,0,0.2-0.1-0.5V12V3.6z"/>
		<path class="st0" d="M1.5,12.1C1.5,12.1,1.5,12.1,1.5,12.1L1.5,12.1z"/>
		<path class="st0" d="M1.2,13.2C1.2,13.2,1.2,13.2,1.2,13.2L1.2,13.2L1.2,13.2z"/>
		<path class="st0" d="M1.2,2.5C1.2,2.5,1.2,2.5,1.2,2.5L1.2,2.5L1.2,2.5z"/>
		<path class="st0" d="M1.2,2.5L1.2,2.5C1.2,2.5,1.2,2.5,1.2,2.5L1.2,2.5C1.2,2.5,1.2,2.5,1.2,2.5z"/>
		<path class="st0" d="M1.2,13.2C1.2,13.2,1.2,13.2,1.2,13.2L1.2,13.2L1.2,13.2z"/>
		<path class="st0" d="M1.2,2.5L1.2,2.5C1.2,2.5,1.2,2.5,1.2,2.5L1.2,2.5z"/>
		<path class="st0" d="M1.2,13.2C1.2,13.2,1.2,13.2,1.2,13.2L1.2,13.2C1.2,13.2,1.2,13.2,1.2,13.2L1.2,13.2z"/>
		<path class="st0" d="M1.2,2.5L1.2,2.5C1.2,2.5,1.2,2.5,1.2,2.5C1.2,2.5,1.2,2.5,1.2,2.5z"/>
		<path class="st0" d="M1.2,13.2L1.2,13.2C1.2,13.2,1.2,13.2,1.2,13.2L1.2,13.2z"/>
		<path class="st0" d="M1.1,12.8C1.1,12.8,1.1,12.8,1.1,12.8L1.1,12.8z"/>
	</g>
	<g>
		<line class="st1" x1="0.9" y1="12" x2="0.9" y2="3.6"/>
		<line class="st1" x1="1.5" y1="12" x2="1.5" y2="3.6"/>
		<line class="st1" x1="21.6" y1="3.6" x2="21.6" y2="12"/>
		<polyline class="st1" points="22.2,3.6 22.2,3.7 22.2,12 		"/>
		<line class="st1" x1="19.9" y1="14.3" x2="3.2" y2="14.3"/>
		<line class="st1" x1="19.8" y1="13.7" x2="3.2" y2="13.7"/>
		<line class="st1" x1="3.2" y1="1.9" x2="19.9" y2="1.9"/>
		<line class="st1" x1="3.2" y1="1.3" x2="19.9" y2="1.3"/>
		<path class="st1" d="M2.9,1.4c0,0,0,0,0.3,0"/>
		<path class="st1" d="M2.6,1.4c0,0,0.1,0,0.1,0c0.1,0,0.2,0,0.2,0c0,0,0.1,0,0.1,0"/>
		<path class="st1" d="M2.5,1.4C2.5,1.4,2.5,1.4,2.5,1.4C2.5,1.4,2.5,1.4,2.5,1.4L2.5,1.4"/>
		<path class="st1" d="M2.5,1.4C2.5,1.4,2.5,1.4,2.5,1.4"/>
		<path class="st1" d="M2.5,1.4C2.5,1.4,2.5,1.4,2.5,1.4"/>
		<path class="st1" d="M2.1,1.6C2.1,1.6,2.1,1.6,2.1,1.6C2.1,1.6,2.1,1.6,2.1,1.6c0.1-0.1,0.2-0.1,0.2-0.1c0.1,0,0.2,0,0.2-0.1
			c0,0,0,0,0,0c0,0,0,0,0,0c0,0,0,0,0,0c0,0,0,0,0,0"/>
		<polyline class="st1" points="2.1,1.6 2.1,1.6 2.1,1.6 2.1,1.6 2.1,1.6 		"/>
		<path class="st1" d="M2.1,1.6C2.1,1.6,2.1,1.6,2.1,1.6C2.1,1.6,2.1,1.6,2.1,1.6C2.1,1.6,2.1,1.6,2.1,1.6"/>
		<path class="st1" d="M1.8,1.8C1.7,1.8,1.7,1.9,1.8,1.8"/>
		<path class="st1" d="M1.4,2.2c0,0,0.1,0,0.2-0.2c0.1-0.1,0.2-0.2,0.2-0.2c0,0,0,0,0,0c0,0,0.1,0,0.1-0.1C2,1.7,2,1.6,2.1,1.6"/>
		<path class="st1" d="M1.2,2.5C1.2,2.5,1.2,2.5,1.2,2.5c0-0.1,0-0.1,0.1-0.2c0,0,0.1-0.1,0.1-0.1c0,0,0,0,0,0c0,0,0,0,0,0
			c0,0,0.1-0.1,0.1-0.1"/>
		<path class="st1" d="M1.2,2.5C1.2,2.5,1.2,2.5,1.2,2.5C1.2,2.5,1.2,2.5,1.2,2.5"/>
		<polyline class="st1" points="1.2,2.5 1.2,2.5 1.2,2.5 		"/>
		<path class="st1" d="M1.2,2.5C1.2,2.5,1.2,2.5,1.2,2.5"/>
		<polyline class="st1" points="1.2,2.5 1.2,2.5 1.2,2.5 		"/>
		<path class="st1" d="M0.9,3.6C1,2.9,0.9,3.8,1,3.1c0.2-0.7-0.1,0.2,0.1-0.4c0-0.1,0.1-0.1,0.1-0.2c0,0,0,0,0,0c0,0,0,0,0,0"/>
		<path class="st1" d="M21.9,2.6C21.9,2.6,21.9,2.6,21.9,2.6C21.9,2.6,21.9,2.6,21.9,2.6C21.9,2.7,22,2.7,22,2.8
			c0.2,0.7-0.1-0.2,0.1,0.4c0.1,0.7,0-0.2,0.1,0.5"/>
		<polyline class="st1" points="21.9,2.6 21.9,2.6 21.9,2.6 21.9,2.6 21.9,2.6 21.9,2.6 		"/>
		<path class="st1" d="M21.9,2.6C21.9,2.6,21.9,2.6,21.9,2.6C21.9,2.6,21.9,2.6,21.9,2.6"/>
		<path class="st1" d="M21.6,2.2C21.6,2.2,21.6,2.1,21.6,2.2L21.6,2.2"/>
		<path class="st1" d="M21.6,2.2L21.6,2.2C21.7,2.2,21.7,2.2,21.6,2.2"/>
		<path class="st1" d="M21.9,2.6L21.9,2.6c0,0,0-0.1-0.1-0.2c-0.1-0.1-0.1-0.2-0.1-0.2c0,0,0,0,0,0"/>
		<path class="st1" d="M21,1.5C21,1.5,21,1.5,21,1.5C21,1.5,21,1.5,21,1.5c0.1,0,0.2,0.1,0.2,0.1C21.7,2.1,21,1.5,21.5,2
			c0.1,0.1,0.1,0.1,0.1,0.1v0c0,0,0,0,0,0c0,0,0,0,0,0"/>
		<polyline class="st1" points="21,1.5 21,1.5 21,1.5 21,1.5 21,1.5 21,1.5 		"/>
		<path class="st1" d="M19.9,1.3c0.2,0,0.3,0,0.3,0c0,0,0.1,0,0.2,0c0.7,0.2-0.2-0.1,0.4,0.1c0.1,0,0.1,0.1,0.2,0.1c0,0,0,0,0,0
			c0,0,0,0,0,0"/>
		<path class="st1" d="M20.2,14.2c0,0,0,0-0.3,0"/>
		<path class="st1" d="M20.5,14.2c0,0-0.1,0-0.1,0c-0.1,0-0.2,0-0.2,0c0,0-0.1,0-0.1,0"/>
		<path class="st1" d="M21,14C21,14,21,14,21,14C21,14,21,14,21,14C21,14,21,14,21,14c-0.1,0.1-0.2,0.1-0.2,0.1
			c-0.1,0-0.2,0-0.2,0.1c0,0,0,0,0,0c0,0,0,0,0,0c0,0,0.2,0,0.1,0"/>
		<polyline class="st1" points="21,14 21,14 21,14 21,14 21,14 		"/>
		<path class="st1" d="M21.3,13.8c0,0-0.1,0-0.1,0.1c-0.1,0-0.1,0.1-0.2,0.1c0,0,0,0,0,0c0,0,0,0,0,0"/>
		<path class="st1" d="M21.6,13.5C21.6,13.5,21.7,13.4,21.6,13.5c0.1-0.1,0-0.1-0.1,0.1c-0.1,0.1-0.2,0.2-0.2,0.2c0,0,0,0,0,0
			s0,0,0,0c0,0,0,0,0,0"/>
		<path class="st1" d="M21.9,13.1C21.9,13.1,21.9,13.1,21.9,13.1C21.9,13.1,21.9,13.1,21.9,13.1c0,0.1-0.1,0.2-0.1,0.2
			c0,0.1-0.1,0.1-0.1,0.1"/>
		<polyline class="st1" points="21.9,13.1 21.9,13.1 21.9,13.1 21.9,13.1 21.9,13.1 		"/>
		<path class="st1" d="M22.2,12c-0.1,0.7,0-0.2-0.1,0.5c-0.2,0.7,0.1-0.2-0.1,0.4c0,0.1-0.1,0.1-0.1,0.2c0,0,0,0,0,0c0,0,0,0,0,0
			c0,0,0,0,0,0"/>
		<path class="st1" d="M1.1,12.8c0,0,0-0.1-0.1-0.2c-0.1-0.7,0,0.2-0.1-0.5"/>
		<path class="st1" d="M1.1,12.8C1.1,12.8,1.1,12.8,1.1,12.8L1.1,12.8z"/>
		<path class="st1" d="M1.2,13.2C1.2,13.2,1.2,13.2,1.2,13.2C1.2,13.2,1.2,13.2,1.2,13.2c-0.1-0.1-0.1-0.2-0.1-0.2
			c-0.1-0.4-0.1-0.2,0-0.2"/>
		<polyline class="st1" points="1.2,13.2 1.2,13.2 1.2,13.2 		"/>
		<polyline class="st1" points="1.2,13.2 1.2,13.2 1.2,13.2 1.2,13.2 		"/>
		<path class="st1" d="M1.5,13.6c0,0-0.1-0.1-0.2-0.2c0-0.1-0.1-0.1-0.1-0.2c0,0,0,0,0,0c0,0,0,0,0,0c0,0,0,0,0,0"/>
		<path class="st1" d="M1.4,13.5C1.4,13.5,1.4,13.5,1.4,13.5C1.4,13.5,1.5,13.6,1.4,13.5C1.5,13.6,1.5,13.6,1.4,13.5"/>
		<path class="st1" d="M1.7,13.9C1.7,13.9,1.7,13.9,1.7,13.9C1.8,13.9,1.8,13.9,1.7,13.9c0.1,0.1,0.1,0-0.1-0.2
			c-0.1-0.1-0.1-0.2-0.2-0.2"/>
		<path class="st1" d="M2.1,14.1C2.1,14.1,2.1,14.1,2.1,14.1C2.1,14.1,2.1,14.1,2.1,14.1C2,14.1,2,14,1.9,14c0,0-0.1-0.1-0.1-0.1"/>
		<polyline class="st1" points="2.1,14.1 2.1,14.1 2.1,14.1 2.1,14.1 2.1,14.1 2.1,14.1 		"/>
		<path class="st1" d="M3.2,14.3c-0.1,0-0.2,0-0.2,0c0,0-0.1,0-0.3,0c-0.7-0.2,0.2,0.1-0.4-0.1c-0.1,0-0.1-0.1-0.2-0.1c0,0,0,0,0,0
			c0,0,0,0,0,0"/>
		<path class="st1" d="M3.1,1.9C3.1,1.9,3.1,1.9,3.1,1.9C3,1.9,3,1.9,3.1,1.9c-0.1,0,0,0,0.1,0"/>
		<path class="st1" d="M2.7,1.9c0,0,0.1,0,0.2,0c0,0,0.1,0,0.1,0"/>
		<path class="st1" d="M2.4,2.1C2.4,2.1,2.4,2.1,2.4,2.1L2.4,2.1C2.5,2,2.5,2,2.6,2c0.1,0,0.1-0.1,0.1-0.1l0,0c0,0-0.1,0,0,0"/>
		<path class="st1" d="M2.2,2.3c0,0,0.1,0,0.1-0.1c0.1-0.1,0.2-0.1,0.2-0.1"/>
		<path class="st1" d="M2.1,2.3C2.1,2.3,2.1,2.3,2.1,2.3"/>
		<path class="st1" d="M1.9,2.5c0,0,0,0,0.1-0.1c0.1-0.1,0.1-0.1,0.1-0.1c0,0,0,0,0,0v0"/>
		<path class="st1" d="M1.9,2.5C1.9,2.5,1.9,2.5,1.9,2.5L1.9,2.5z"/>
		<path class="st1" d="M1.9,2.5C1.9,2.5,1.9,2.5,1.9,2.5C1.9,2.5,1.9,2.5,1.9,2.5"/>
		<path class="st1" d="M1.7,2.7C1.7,2.7,1.7,2.7,1.7,2.7C1.7,2.7,1.7,2.7,1.7,2.7L1.7,2.7c0,0.1,0,0,0.1-0.1
			c0.1-0.1,0.1-0.1,0.1-0.1"/>
		<path class="st1" d="M1.5,3C1.5,3,1.5,3,1.5,3C1.5,3,1.5,3.1,1.5,3c0,0,0,0,0.1-0.1c0-0.1,0-0.1,0.1-0.2"/>
		<path class="st1" d="M1.5,3.6c0-0.1,0-0.2,0-0.2c0,0,0-0.1,0-0.2c0-0.1,0-0.1,0-0.1c0,0,0,0,0-0.1"/>
		<path class="st1" d="M21.7,3.5c0,0,0,0,0,0.1c0,0,0,0.1,0,0.1"/>
		<path class="st1" d="M21.7,3.5C21.8,3.5,21.8,3.5,21.7,3.5L21.7,3.5z"/>
		<path class="st1" d="M21.7,3.1C21.7,3.1,21.7,3.2,21.7,3.1c0,0.1,0,0.1,0,0.2c0,0.1,0,0.1,0,0.2c0,0,0,0,0,0"/>
		<path class="st1" d="M21.5,2.8C21.5,2.8,21.5,2.8,21.5,2.8c0-0.1,0-0.1,0.1,0.2c0,0.1,0.1,0.2,0.1,0.2c0,0,0,0,0-0.1c0,0,0,0,0,0"
			/>
		<path class="st1" d="M21.3,2.6c0,0,0,0.1,0.1,0.1c0,0.1,0.1,0.1,0.1,0.1"/>
		<path class="st1" d="M21.3,2.5C21.3,2.5,21.3,2.5,21.3,2.5"/>
		<line class="st1" x1="21.3" y1="2.6" x2="21.3" y2="2.6"/>
		<path class="st1" d="M21.1,2.3c0,0,0.1,0,0.1,0.1c0,0.1,0.1,0.1,0.1,0.1c0,0,0,0,0,0"/>
		<line class="st1" x1="21" y1="2.3" x2="21" y2="2.3"/>
		<path class="st1" d="M21.1,2.3C21.1,2.3,21.1,2.3,21.1,2.3"/>
		<path class="st1" d="M20.8,2.1C20.8,2.1,20.8,2.1,20.8,2.1c0,0,0,0,0.1,0.1C21,2.2,21,2.3,21,2.3c0,0,0,0,0,0c0,0,0,0,0,0"/>
		<path class="st1" d="M20.4,1.9c0,0,0.1,0,0.2,0.1c0.1,0,0.1,0,0.1,0.1"/>
		<path class="st1" d="M20.4,1.9C20.4,1.9,20.4,1.9,20.4,1.9"/>
		<path class="st1" d="M20.4,1.9C20.4,1.9,20.4,1.9,20.4,1.9"/>
		<path class="st1" d="M19.9,1.9c0.1,0,0.2,0,0.2,0c0,0,0.1,0,0.2,0c0,0,0.1,0,0.1,0c0,0,0,0,0,0c0,0,0,0,0,0h0c0,0,0,0,0,0"/>
		<path class="st1" d="M20,13.7C20,13.7,20,13.7,20,13.7c0.1,0,0,0-0.1,0c0,0-0.1,0-0.1,0"/>
		<path class="st1" d="M20.4,13.7C20.4,13.7,20.4,13.7,20.4,13.7c-0.1,0-0.1,0-0.2,0c-0.1,0-0.1,0-0.2,0"/>
		<path class="st1" d="M20.3,13.7C20.3,13.7,20.3,13.7,20.3,13.7C20.3,13.7,20.4,13.7,20.3,13.7C20.4,13.7,20.4,13.7,20.3,13.7"/>
		<line class="st1" x1="20.3" y1="13.7" x2="20.3" y2="13.7"/>
		<path class="st1" d="M20.7,13.5C20.7,13.5,20.7,13.5,20.7,13.5"/>
		<path class="st1" d="M20.9,13.3c0,0-0.1,0-0.1,0.1c0,0-0.1,0.1-0.1,0.1c0,0,0,0,0,0c0,0,0,0,0,0c0,0-0.1,0-0.1,0.1
			c-0.1,0-0.2,0.1-0.2,0.1"/>
		<path class="st1" d="M21,13.3C21,13.3,21,13.3,21,13.3"/>
		<line class="st1" x1="21" y1="13.3" x2="21" y2="13.3"/>
		<path class="st1" d="M20.9,13.3C20.9,13.3,20.9,13.3,20.9,13.3"/>
		<path class="st1" d="M21.2,13.1c0,0,0,0.1-0.1,0.1c-0.1,0-0.1,0.1-0.1,0.1c0,0,0,0,0,0v0h0c0,0,0,0,0,0"/>
		<path class="st1" d="M21.2,13C21.2,13,21.2,13,21.2,13"/>
		<polyline class="st1" points="21.2,13.1 21.2,13.1 21.2,13.1 		"/>
		<line class="st1" x1="21.2" y1="13.1" x2="21.2" y2="13.1"/>
		<path class="st1" d="M21.4,12.8C21.4,12.8,21.4,12.8,21.4,12.8C21.4,12.8,21.4,12.8,21.4,12.8c0-0.1,0,0-0.1,0.1
			c0,0.1-0.1,0.1-0.1,0.1c0,0,0,0,0,0s0,0,0,0v0"/>
		<path class="st1" d="M21.6,12.4L21.6,12.4C21.6,12.4,21.6,12.4,21.6,12.4c0,0,0,0.1-0.1,0.2c0,0.1,0,0.1-0.1,0.1"/>
		<path class="st1" d="M21.6,12.5C21.6,12.5,21.6,12.5,21.6,12.5C21.6,12.5,21.6,12.4,21.6,12.5"/>
		<path class="st1" d="M21.6,12c0,0,0,0.1,0,0.1v0.1c0,0,0,0.1,0,0.1c0,0.1,0,0.1,0,0.1c0,0,0,0.1,0,0.1"/>
		<path class="st1" d="M1.5,12.2c0,0,0,0,0-0.2"/>
		<path class="st1" d="M1.5,12.1C1.5,12.1,1.5,12.1,1.5,12.1L1.5,12.1z"/>
		<path class="st1" d="M1.5,12.5C1.5,12.5,1.5,12.5,1.5,12.5C1.5,12.5,1.5,12.4,1.5,12.5c0-0.1,0-0.1,0-0.2c0-0.1,0-0.1,0-0.1
			c0,0,0,0,0,0"/>
		<path class="st1" d="M1.5,12.4C1.5,12.4,1.5,12.5,1.5,12.4"/>
		<path class="st1" d="M1.5,12.4C1.5,12.4,1.5,12.4,1.5,12.4L1.5,12.4"/>
		<path class="st1" d="M1.7,12.8C1.7,12.8,1.7,12.8,1.7,12.8"/>
		<path class="st1" d="M1.9,13c0,0,0-0.1-0.1-0.1c0,0,0-0.1-0.1-0.1c0,0,0,0,0,0c0,0,0,0,0,0c0,0,0-0.1-0.1-0.2
			c0-0.1-0.1-0.2-0.1-0.2"/>
		<line class="st1" x1="1.9" y1="13.1" x2="1.9" y2="13.1"/>
		<path class="st1" d="M1.9,13C1.9,13,1.9,13,1.9,13"/>
		<path class="st1" d="M2.1,13.3c0,0-0.1,0-0.1-0.1c0-0.1-0.1-0.1-0.1-0.1c0,0,0,0,0,0"/>
		<path class="st1" d="M2.2,13.3C2.2,13.3,2.2,13.3,2.2,13.3"/>
		<line class="st1" x1="2.1" y1="13.3" x2="2.1" y2="13.3"/>
		<path class="st1" d="M2.1,13.3C2.1,13.3,2.1,13.3,2.1,13.3C2.2,13.3,2.2,13.3,2.1,13.3"/>
		<path class="st1" d="M2.5,13.5c0,0-0.1-0.1-0.2-0.1c-0.1,0-0.1-0.1-0.1-0.1"/>
		<line class="st1" x1="2.4" y1="13.5" x2="2.5" y2="13.5"/>
		<path class="st1" d="M2.5,13.5C2.5,13.5,2.5,13.5,2.5,13.5c0,0,0.1,0,0.1,0.1c0.1,0,0.2,0.1,0.2,0.1"/>
		<line class="st1" x1="2.8" y1="13.7" x2="2.8" y2="13.7"/>
		<path class="st1" d="M2.7,13.7C2.7,13.7,2.7,13.7,2.7,13.7C2.7,13.7,2.8,13.7,2.7,13.7C2.8,13.7,2.8,13.7,2.7,13.7"/>
		<path class="st1" d="M3.2,13.7c0,0-0.1,0-0.1,0c0,0,0,0-0.2,0c-0.1,0-0.1,0-0.1,0c0,0,0,0-0.1,0"/>
	</g>
</g>
<circle class="st1" cx="11.6" cy="7.8" r="5.3"/>
<path class="st2" d="M13.3,4.7c0.9,0.6,1.4,1.6,1.4,2.7c0,1.8-1.5,3.3-3.3,3.3S8.3,9.2,8.3,7.4c0-1.1,0.5-2,1.3-2.6"/>
<polyline class="st2" points="11.5,4 11.5,7.1 11.5,7.8 "/>
</svg>
