<svg class="svg-icon" style="width: 1em; height: 1em;vertical-align: middle;fill: currentColor;overflow: hidden;" viewBox="0 0 1024 1024" version="1.1" xmlns="http://www.w3.org/2000/svg"><path d="M512 213.333333c-164.650667 0-298.666667 134.016-298.666667 298.666667s134.016 298.666667 298.666667 298.666667 298.666667-134.016 298.666667-298.666667-134.016-298.666667-298.666667-298.666667z m0 512c-117.632 0-213.333333-95.701333-213.333333-213.333333s95.701333-213.333333 213.333333-213.333333 213.333333 95.701333 213.333333 213.333333-95.701333 213.333333-213.333333 213.333333z" fill="" /><path d="M512 384c-69.418667 0-128 58.581333-128 128s58.581333 128 128 128 128-58.581333 128-128-58.581333-128-128-128z" fill="" /></svg>