<?xml version="1.0" encoding="utf-8"?>
<!-- Generator: Adobe Illustrator 26.1.0, SVG Export Plug-In . SVG Version: 6.00 Build 0)  -->
<svg version="1.1" id="Layer_1" xmlns="http://www.w3.org/2000/svg" xmlns:xlink="http://www.w3.org/1999/xlink" x="0px" y="0px"
	 viewBox="0 0 21.1 21.1" style="enable-background:new 0 0 21.1 21.1;" xml:space="preserve">
<style type="text/css">
	.st0{font-family:'ArialMT';}
	.st1{font-size:2.7952px;}
	.st2{fill:none;stroke:#000000;stroke-width:0.6522;}
</style>
<path d="M9.3,10.9c-0.1-0.1-0.4-0.3-0.5-0.4L4,16.1c0.2,0.2,0.5,0.4,0.8,0.6L9.3,10.9L9.3,10.9z"/>
<text transform="matrix(1 0 0 1 1.5531 20.7223)" class="st0 st1">30</text>
<text transform="matrix(1 0 0 1 13.6942 20.7223)" class="st0 st1">200</text>
<path class="st2" d="M15.1,0.5c3,1.6,5.1,4.8,5.1,8.5c0,3.7-2.1,6.9-5.1,8.5"/>
<path d="M8.9,10.5c-0.1-0.1-0.3-0.4-0.4-0.5l-5.7,4.8c0.2,0.3,0.4,0.5,0.7,0.7L8.9,10.5L8.9,10.5z"/>
<path d="M8.6,10c0-0.1-0.3-0.4-0.3-0.5l-6.4,3.8c0.2,0.3,0.4,0.5,0.5,0.8L8.6,10L8.6,10z"/>
<path d="M8.4,9.5c0-0.1-0.2-0.5-0.2-0.6l-6.9,2.8c0.1,0.3,0.3,0.6,0.4,0.9L8.4,9.5L8.4,9.5z"/>
<path d="M8.3,9.1c0-0.1-0.1-0.5-0.2-0.6l-7.3,1.6c0.1,0.3,0.2,0.6,0.3,1L8.3,9.1L8.3,9.1z"/>
<path d="M8.2,8.8c0-0.1-0.1-0.5,0-0.6L0.7,8.5c0,0.3,0.1,0.7,0.1,1L8.2,8.8L8.2,8.8z"/>
<path d="M8.3,8.5c0-0.1,0-0.5,0-0.6L0.9,6.9c-0.1,0.3,0,0.7-0.1,1L8.3,8.5L8.3,8.5z"/>
<path d="M8.4,8.1c0-0.1,0.1-0.5,0.2-0.6L1.4,5.3c-0.1,0.3-0.2,0.6-0.2,1L8.4,8.1L8.4,8.1z"/>
<path d="M8.6,7.6c0-0.1,0.2-0.5,0.3-0.6L2.3,3.7C2.1,4,2,4.3,1.9,4.6L8.6,7.6L8.6,7.6z"/>
<path d="M8.8,7.3c0-0.1,0.3-0.4,0.3-0.5L3.3,2.3C3,2.6,2.9,2.9,2.7,3.2L8.8,7.3L8.8,7.3z"/>
</svg>
