<?xml version="1.0" encoding="utf-8"?>
<!-- Generator: Adobe Illustrator 26.1.0, SVG Export Plug-In . SVG Version: 6.00 Build 0)  -->
<svg version="1.1" id="Layer_1" xmlns="http://www.w3.org/2000/svg" xmlns:xlink="http://www.w3.org/1999/xlink" x="0px" y="0px"
	 viewBox="0 0 9.2 6.8" style="enable-background:new 0 0 9.2 6.8;" xml:space="preserve">
<style type="text/css">
	.st0{enable-background:new    ;}
	.st1{fill:#5BBA47;}
</style>
<g class="st0">
	<path d="M0,6.2l0.2,0c0,0.1,0,0.2,0.1,0.2c0,0.1,0.1,0.1,0.2,0.2c0.1,0,0.2,0.1,0.3,0.1c0.1,0,0.2,0,0.3,0c0.1,0,0.1-0.1,0.2-0.1
		c0-0.1,0.1-0.1,0.1-0.2c0-0.1,0-0.1-0.1-0.2S1.2,6,1.1,6C1,6,0.9,5.9,0.7,5.9c-0.2,0-0.3-0.1-0.4-0.1C0.3,5.7,0.2,5.7,0.1,5.6
		S0.1,5.4,0.1,5.3c0-0.1,0-0.2,0.1-0.3C0.2,5,0.3,4.9,0.4,4.8s0.2-0.1,0.4-0.1c0.1,0,0.3,0,0.4,0.1c0.1,0,0.2,0.1,0.3,0.2
		c0.1,0.1,0.1,0.2,0.1,0.3l-0.3,0c0-0.1-0.1-0.2-0.1-0.3C1.1,5,0.9,5,0.8,5C0.6,5,0.5,5,0.4,5.1S0.3,5.2,0.3,5.3
		c0,0.1,0,0.1,0.1,0.2c0.1,0,0.2,0.1,0.4,0.1c0.2,0,0.4,0.1,0.4,0.1C1.4,5.8,1.5,5.9,1.5,6s0.1,0.2,0.1,0.3c0,0.1,0,0.2-0.1,0.3
		C1.4,6.6,1.4,6.7,1.2,6.8C1.1,6.8,1,6.8,0.9,6.8c-0.2,0-0.3,0-0.5-0.1C0.3,6.7,0.2,6.6,0.1,6.5S0,6.3,0,6.2z"/>
	<path d="M2,6.8v-2h1.4V5H2.2v0.6h1.1v0.2H2.2v0.7h1.2v0.2H2z"/>
	<path d="M3.8,6.8v-2h0.3l1.1,1.6V4.8h0.3v2H5.1L4.1,5.2v1.6H3.8z"/>
	<path d="M5.7,6.2l0.2,0c0,0.1,0,0.2,0.1,0.2c0,0.1,0.1,0.1,0.2,0.2c0.1,0,0.2,0.1,0.3,0.1c0.1,0,0.2,0,0.3,0C6.9,6.5,7,6.5,7,6.4
		c0-0.1,0.1-0.1,0.1-0.2c0-0.1,0-0.1-0.1-0.2C7,6.1,6.9,6,6.9,6C6.8,6,6.7,5.9,6.5,5.9c-0.2,0-0.3-0.1-0.4-0.1
		C6,5.7,5.9,5.7,5.9,5.6S5.8,5.4,5.8,5.3c0-0.1,0-0.2,0.1-0.3s0.1-0.2,0.3-0.2c0.1,0,0.2-0.1,0.4-0.1c0.1,0,0.3,0,0.4,0.1
		C7,4.9,7.1,5,7.2,5.1c0.1,0.1,0.1,0.2,0.1,0.3L7,5.4C7,5.3,7,5.2,6.9,5.1C6.8,5,6.7,5,6.5,5C6.4,5,6.3,5,6.2,5.1S6.1,5.2,6.1,5.3
		c0,0.1,0,0.1,0.1,0.2c0.1,0,0.2,0.1,0.4,0.1c0.2,0,0.4,0.1,0.4,0.1C7.1,5.8,7.2,5.9,7.3,6C7.3,6,7.3,6.1,7.3,6.2
		c0,0.1,0,0.2-0.1,0.3C7.2,6.6,7.1,6.7,7,6.8C6.9,6.8,6.7,6.8,6.6,6.8c-0.2,0-0.3,0-0.5-0.1C6,6.7,5.9,6.6,5.9,6.5
		C5.8,6.4,5.8,6.3,5.7,6.2z"/>
	<path d="M7.7,6.8v-2h1.4V5H8v0.6h1.1v0.2H8v0.7h1.2v0.2H7.7z"/>
</g>
<path class="st1" d="M6.3,1.7c0,0.9-0.8,1.7-1.7,1.7S2.9,2.7,2.9,1.7C2.9,0.8,3.7,0,4.6,0S6.3,0.8,6.3,1.7"/>
</svg>
