<?xml version="1.0" encoding="utf-8"?>
<!-- Generator: Adobe Illustrator 26.1.0, SVG Export Plug-In . SVG Version: 6.00 Build 0)  -->
<svg version="1.1" id="Layer_1" xmlns="http://www.w3.org/2000/svg" xmlns:xlink="http://www.w3.org/1999/xlink" x="0px" y="0px"
	 viewBox="0 0 9.2 6.8" style="enable-background:new 0 0 9.2 6.8;" xml:space="preserve">
<style type="text/css">
	.st0{enable-background:new    ;}
	.st1{fill:#D1D3D4;}
</style>
<g class="st0">
	<path d="M0,6.2h0.2c0,0.1,0,0.2,0.1,0.2c0,0.1,0.1,0.1,0.2,0.2c0.1,0,0.2,0.1,0.3,0.1s0.2,0,0.3,0s0.1-0.1,0.2-0.1
		c0-0.1,0.1-0.1,0.1-0.2s0-0.1-0.1-0.2S1.2,6,1.1,6S0.9,5.9,0.7,5.9S0.4,5.8,0.3,5.8c0-0.1-0.1-0.1-0.2-0.2s0-0.2,0-0.3
		s0-0.2,0.1-0.3c0,0,0.1-0.1,0.2-0.2s0.2-0.1,0.4-0.1c0.1,0,0.3,0,0.4,0.1c0.1,0,0.2,0.1,0.3,0.2c0.1,0.1,0.1,0.2,0.1,0.3H1.3
		c0-0.1-0.1-0.2-0.1-0.3C1.1,5,0.9,5,0.8,5C0.6,5,0.5,5,0.4,5.1S0.3,5.2,0.3,5.3c0,0.1,0,0.1,0.1,0.2c0.1,0,0.2,0.1,0.4,0.1
		s0.4,0.1,0.4,0.1C1.4,5.8,1.5,5.9,1.5,6s0.1,0.2,0.1,0.3c0,0.1,0,0.2-0.1,0.3c-0.1,0-0.1,0.1-0.3,0.2c-0.1,0-0.2,0-0.3,0
		c-0.2,0-0.3,0-0.5-0.1c-0.1,0-0.2-0.1-0.3-0.2S0,6.3,0,6.2z"/>
	<path d="M2,6.8v-2h1.4V5H2.2v0.6h1.1v0.2H2.2v0.7h1.2v0.2H2V6.8z"/>
	<path d="M3.8,6.8v-2h0.3l1.1,1.6V4.8h0.3v2H5.1l-1-1.6v1.6C4.1,6.8,3.8,6.8,3.8,6.8z"/>
	<path d="M5.7,6.2h0.2c0,0.1,0,0.2,0.1,0.2c0,0.1,0.1,0.1,0.2,0.2c0.1,0,0.2,0.1,0.3,0.1c0.1,0,0.2,0,0.3,0C6.9,6.5,7,6.5,7,6.4
		s0.1-0.1,0.1-0.2S7.1,6.1,7,6c0,0.1-0.1,0-0.1,0C6.8,6,6.7,5.9,6.5,5.9S6.2,5.8,6.1,5.8C6,5.7,5.9,5.7,5.9,5.6S5.8,5.4,5.8,5.3
		s0-0.2,0.1-0.3S6,4.8,6.2,4.8c0.1,0,0.2-0.1,0.4-0.1c0.1,0,0.3,0,0.4,0.1C7,4.9,7.1,5,7.2,5.1s0.1,0.2,0.1,0.3H7
		c0-0.1,0-0.2-0.1-0.3S6.7,5,6.5,5C6.4,5,6.3,5,6.2,5.1S6.1,5.2,6.1,5.3c0,0.1,0,0.1,0.1,0.2c0.1,0,0.2,0.1,0.4,0.1
		C6.8,5.6,7,5.7,7,5.7C7.1,5.8,7.2,5.9,7.3,6c0,0,0,0.1,0,0.2s0,0.2-0.1,0.3c0,0.1-0.1,0.2-0.2,0.3c-0.1,0-0.3,0-0.4,0
		c-0.2,0-0.3,0-0.5-0.1C6,6.7,5.9,6.6,5.9,6.5C5.8,6.4,5.8,6.3,5.7,6.2z"/>
	<path d="M7.7,6.8v-2h1.4V5H8v0.6h1.1v0.2H8v0.7h1.2v0.2H7.7V6.8z"/>
</g>
<path class="st1" d="M6.3,1.7c0,0.9-0.8,1.7-1.7,1.7S2.9,2.7,2.9,1.7C2.9,0.8,3.7,0,4.6,0S6.3,0.8,6.3,1.7"/>
</svg>
