<?xml version="1.0" encoding="utf-8"?>
<!-- Generator: Adobe Illustrator 26.1.0, SVG Export Plug-In . SVG Version: 6.00 Build 0)  -->
<svg version="1.1" id="Layer_1" xmlns="http://www.w3.org/2000/svg" xmlns:xlink="http://www.w3.org/1999/xlink" x="0px" y="0px"
	 viewBox="0 0 22.4 14.2" style="enable-background:new 0 0 22.4 14.2;" xml:space="preserve">
<style type="text/css">
	.st0{fill:#231F20;}
	.st1{fill:none;stroke:#FFFFFF;stroke-width:0.4659;stroke-linecap:round;stroke-linejoin:round;stroke-miterlimit:500;}
	.st2{fill:#FFFFFF;}
</style>
<g id="XMLID_00000041983691786471153550000017358764347176340159_">
	<g>
		<path class="st0" d="M21.6,1.9C21.6,1.9,21.6,1.9,21.6,1.9L21.6,1.9L21.6,1.9z"/>
		<path class="st0" d="M21.6,12.4C21.6,12.4,21.6,12.4,21.6,12.4L21.6,12.4L21.6,12.4z"/>
		<path class="st0" d="M21.6,1.9L21.6,1.9C21.6,1.9,21.6,1.9,21.6,1.9L21.6,1.9z"/>
		<path class="st0" d="M21.6,12.4L21.6,12.4L21.6,12.4C21.6,12.4,21.6,12.4,21.6,12.4z"/>
		<path class="st0" d="M21.6,1.9C21.6,1.9,21.6,1.9,21.6,1.9L21.6,1.9L21.6,1.9z"/>
		<path class="st0" d="M21.6,12.4C21.6,12.4,21.6,12.4,21.6,12.4L21.6,12.4L21.6,12.4z"/>
		<path class="st0" d="M21.6,12.4L21.6,12.4C21.6,12.4,21.6,12.4,21.6,12.4C21.6,12.4,21.6,12.4,21.6,12.4z"/>
		<path class="st0" d="M21.6,1.9L21.6,1.9C21.6,1.9,21.6,1.9,21.6,1.9L21.6,1.9z"/>
		<path class="st0" d="M21.4,1.5C21.4,1.5,21.4,1.5,21.4,1.5C21.4,1.5,21.4,1.5,21.4,1.5L21.4,1.5z"/>
		<path class="st0" d="M21.3,1.5L21.3,1.5C21.3,1.5,21.3,1.5,21.3,1.5C21.3,1.5,21.3,1.4,21.3,1.5z"/>
		<path class="st0" d="M21.3,2.8C21.4,2.8,21.4,2.8,21.3,2.8L21.3,2.8z"/>
		<path class="st0" d="M21.3,2.4C21.3,2.5,21.3,2.5,21.3,2.4C21.3,2.5,21.3,2.4,21.3,2.4z"/>
		<path class="st0" d="M21.3,11.8C21.3,11.8,21.3,11.8,21.3,11.8C21.3,11.8,21.3,11.9,21.3,11.8C21.3,11.9,21.3,11.9,21.3,11.8z"/>
		<path class="st0" d="M20.9,1.8C20.9,1.8,20.9,1.8,20.9,1.8L20.9,1.8z"/>
		<path class="st0" d="M20.7,13.4C20.7,13.4,20.7,13.4,20.7,13.4L20.7,13.4C20.7,13.4,20.7,13.4,20.7,13.4z"/>
		<path class="st0" d="M20.7,0.9C20.7,0.9,20.7,0.9,20.7,0.9L20.7,0.9L20.7,0.9z"/>
		<path class="st0" d="M20.7,0.9L20.7,0.9L20.7,0.9C20.7,0.9,20.7,0.9,20.7,0.9z"/>
		<path class="st0" d="M20.7,13.4C20.7,13.4,20.7,13.4,20.7,13.4L20.7,13.4L20.7,13.4z"/>
		<path class="st0" d="M20.7,13.4L20.7,13.4L20.7,13.4C20.7,13.4,20.7,13.4,20.7,13.4z"/>
		<path class="st0" d="M20.7,0.9L20.7,0.9C20.7,0.9,20.7,0.9,20.7,0.9L20.7,0.9z"/>
		<path class="st0" d="M20.7,0.9L20.7,0.9L20.7,0.9C20.7,0.9,20.7,0.9,20.7,0.9z"/>
		<path class="st0" d="M20.7,13.4C20.7,13.4,20.7,13.4,20.7,13.4L20.7,13.4L20.7,13.4z"/>
		<path class="st0" d="M20.7,12.7L20.7,12.7L20.7,12.7C20.6,12.7,20.6,12.7,20.7,12.7z"/>
		<path class="st0" d="M20.4,12.9C20.4,12.9,20.4,12.9,20.4,12.9C20.4,12.9,20.4,12.9,20.4,12.9z"/>
		<path class="st0" d="M20.1,1.2C20.1,1.2,20.1,1.2,20.1,1.2C20.2,1.2,20.1,1.2,20.1,1.2z"/>
		<path class="st0" d="M20.1,13.1C20.1,13.1,20,13.1,20.1,13.1L20.1,13.1C20,13.1,20.1,13.1,20.1,13.1z"/>
		<path class="st0" d="M2.4,1.2C2.5,1.2,2.5,1.2,2.4,1.2C2.5,1.2,2.4,1.2,2.4,1.2z"/>
		<path class="st0" d="M2.5,13.1L2.5,13.1C2.5,13.1,2.4,13.1,2.5,13.1C2.4,13.1,2.5,13.1,2.5,13.1z"/>
		<path class="st0" d="M1.4,2.2C1.4,2.2,1.4,2.2,1.4,2.2C1.4,2.2,1.4,2.2,1.4,2.2c0-0.1,0.1-0.1,0.1-0.2c0-0.1,0.1-0.1,0.1-0.1v0
			c0,0,0,0,0,0c0,0,0-0.1,0.1-0.1c0.2-0.2,0.2-0.1,0.1-0.1c0,0,0.1,0,0.1-0.1c0.1-0.1,0.1-0.1,0.1-0.1c0,0,0.1,0,0.2-0.1
			c0.1,0,0.2-0.1,0.2-0.1c0,0,0.1,0,0.1,0c0.1,0,0.1,0,0.1,0c0,0,0,0,0.2,0h16.7c0.1,0,0.2,0,0.2,0c0,0,0.1,0,0.2,0
			c0.1,0,0.1,0,0.1,0c0,0,0.1,0,0.2,0.1c0.1,0,0.1,0.1,0.1,0.1c0,0,0,0,0.2,0.1c0.1,0,0.1,0.1,0.1,0.1c0,0,0,0,0,0c0,0,0,0,0,0
			c0,0,0.1,0,0.1,0.1c0.1,0.3,0,0.1,0,0.1c0,0,0,0,0,0c0,0,0,0.1,0.1,0.2c0,0.1,0,0.1,0.1,0.1v0c0,0,0,0,0.1,0.2
			c0,0.1,0.1,0.2,0.1,0.2c0,0,0,0.1,0,0.1c0,0.1,0,0.1,0,0.2c0,0,0,0,0,0.2v8.3c0,0.1,0,0.1,0,0.1v0.1c0,0,0,0.1,0,0.2
			c0,0.1,0,0.1,0,0.1c0,0,0,0.1-0.1,0.2c0,0.1-0.1,0.1-0.1,0.1v0c0,0,0,0-0.1,0.2c0,0.1-0.1,0.1-0.1,0.1c0,0,0,0,0,0v0
			c0,0,0,0.1-0.1,0.1c-0.1,0-0.1,0.1-0.1,0.1c0,0,0,0,0,0c0,0,0,0,0,0s0,0,0,0c0,0-0.1,0-0.1,0.1c0,0-0.1,0.1-0.1,0.1c0,0,0,0,0,0
			c0,0,0,0,0,0c0,0-0.1,0-0.1,0.1c-0.1,0-0.2,0.1-0.2,0.1c0,0-0.1,0-0.1,0c-0.1,0-0.1,0-0.1,0c0,0,0,0-0.1,0c0,0-0.1,0-0.1,0H2.9
			c0,0-0.1,0-0.1,0c0,0,0,0-0.2,0c-0.1,0-0.1,0-0.1,0c0,0-0.1,0-0.2-0.1c-0.3-0.2-0.2-0.1-0.2-0.1c0,0-0.1,0-0.1-0.1
			c-0.1-0.1-0.1-0.1-0.1-0.1c0,0,0,0,0,0c0,0,0,0,0,0c0,0-0.1,0-0.1-0.1c0-0.1-0.1-0.1-0.1-0.1c0,0,0,0,0,0c0,0,0-0.1-0.1-0.1
			c0,0,0-0.1-0.1-0.1c0,0,0,0,0,0c0,0,0,0,0,0c0,0,0-0.1-0.1-0.2c0-0.1-0.1-0.2-0.1-0.2c0,0,0-0.1,0-0.1c0-0.1,0-0.1,0-0.1
			c0,0,0,0,0-0.2V3c0-0.2,0-0.2,0-0.2c0,0,0-0.1,0-0.2c0-0.1,0-0.1,0-0.1C1.2,2.5,1.3,2.4,1.4,2.2C1.3,2.3,1.4,2.2,1.4,2.2z"/>
		<path class="st0" d="M1.8,0.9C1.8,0.9,1.8,0.9,1.8,0.9L1.8,0.9C1.8,0.9,1.8,0.9,1.8,0.9z"/>
		<path class="st0" d="M1.8,13.4C1.8,13.4,1.8,13.4,1.8,13.4L1.8,13.4L1.8,13.4z"/>
		<path class="st0" d="M1.8,0.9C1.8,0.9,1.8,0.9,1.8,0.9L1.8,0.9L1.8,0.9z"/>
		<path class="st0" d="M1.8,13.4L1.8,13.4L1.8,13.4C1.8,13.4,1.8,13.4,1.8,13.4z"/>
		<path class="st0" d="M1.8,0.9L1.8,0.9L1.8,0.9C1.8,0.9,1.8,0.9,1.8,0.9z"/>
		<path class="st0" d="M1.8,13.4L1.8,13.4C1.8,13.4,1.8,13.4,1.8,13.4L1.8,13.4z"/>
		<path class="st0" d="M1.8,0.9C1.8,0.9,1.8,0.9,1.8,0.9L1.8,0.9L1.8,0.9z"/>
		<path class="st0" d="M1.8,13.4L1.8,13.4L1.8,13.4C1.8,13.4,1.8,13.4,1.8,13.4z"/>
		<path class="st0" d="M1.4,12.2C1.4,12.2,1.4,12.2,1.4,12.2C1.4,12.2,1.4,12.2,1.4,12.2z"/>
		<path class="st0" d="M1.4,2.2C1.4,2.2,1.4,2.2,1.4,2.2C1.4,2.2,1.4,2.2,1.4,2.2z"/>
		<path class="st0" d="M1.2,2.4C1.2,2.4,1.2,2.5,1.2,2.4C1.2,2.5,1.2,2.5,1.2,2.4z"/>
		<path class="st0" d="M1.2,11.8C1.2,11.9,1.2,11.9,1.2,11.8C1.2,11.9,1.2,11.8,1.2,11.8C1.2,11.8,1.2,11.8,1.2,11.8z"/>
		<path class="st0" d="M1.2,12.9C1.2,12.8,1.2,12.9,1.2,12.9C1.2,12.9,1.2,12.9,1.2,12.9z"/>
		<path class="st0" d="M21.3,2.8C21.4,2.8,21.4,2.8,21.3,2.8L21.3,2.8z M1.2,11.3c0,0.3,0,0.3,0,0.2c0,0,0,0.1,0,0.1
			c0,0.1,0,0.1,0,0.1c0,0,0,0,0,0c0,0,0,0,0,0.1c0,0,0,0,0-0.1c0,0,0,0.1,0.1,0.2c0.1,0.1,0.1,0.1,0.1,0.2c0,0,0,0,0,0c0,0,0,0,0,0
			c0,0,0.1,0.1,0.1,0.1c0.1,0.1,0.1,0.1,0.1,0.1c0,0,0,0,0,0c0,0,0,0.1,0.1,0.1c0.1,0,0.1,0.1,0.1,0.1c0,0,0,0,0,0c0,0,0,0,0,0
			c0,0,0.1,0,0.1,0.1c0.1,0,0.1,0.1,0.1,0.1c0,0-0.1,0,0.2,0.1c0.1,0,0.2,0.1,0.2,0.1c0,0,0,0-0.1,0c0,0,0,0,0.1,0v0
			c0,0,0.1,0,0.1,0c0.2,0,0.2,0,0.2,0c0,0,0.1,0,0.1,0h16.6c0,0,0.1,0,0.1,0c0.2,0,0.2,0,0.1,0c0,0,0.1,0,0.1,0c0.1,0,0.1,0,0.1,0v0
			c0,0,0,0,0.1,0c0,0,0,0-0.1,0c0,0,0.1,0,0.2-0.1c0.1,0,0.1-0.1,0.1-0.1c0,0,0,0,0,0c0,0,0,0,0,0c0,0,0-0.1,0.1-0.1
			c0.1-0.1,0.1-0.1,0.1-0.1c0,0,0,0,0,0h0v0c0,0,0,0,0,0c0,0,0.1,0,0.1-0.1c0-0.1,0.1-0.1,0.1-0.1v0c0,0,0,0,0,0c0,0,0-0.1,0.1-0.1
			c0.1-0.1,0.1-0.2,0.1-0.2v0c0,0,0-0.1,0.1-0.1c0-0.1,0.1-0.2,0.1-0.2c0,0,0,0.1,0,0.1c0,0,0-0.1,0-0.1c0,0,0,0,0,0
			c0,0,0-0.1,0-0.1c0-0.1,0-0.2,0-0.2v-0.1c0,0,0-0.1,0-0.1V3c0-0.3,0-0.3,0-0.2c0,0,0-0.1,0-0.2c0-0.1,0-0.1,0-0.1c0,0,0,0,0-0.1
			c0,0,0,0,0,0.1c0,0,0-0.1-0.1-0.2c-0.1-0.1-0.1-0.2-0.1-0.2v0c0,0,0-0.1-0.1-0.1c-0.1-0.1-0.1-0.1-0.1-0.2c0,0,0.1,0.1,0-0.1
			c-0.1-0.1-0.1-0.1-0.1-0.1c0,0,0,0,0,0c0,0,0,0,0,0c0,0-0.1-0.1-0.1-0.1c-0.1-0.1-0.2-0.1-0.2-0.1c0,0-0.1,0-0.1-0.1
			c-0.1,0-0.2-0.1-0.2-0.1c0,0,0,0,0.1,0c0,0-0.1,0-0.1,0c0,0-0.1,0-0.1,0c-0.1,0-0.2,0-0.2,0c0,0,0,0-0.2,0H2.9c-0.2,0-0.2,0-0.2,0
			c0,0-0.1,0-0.1,0c-0.1,0-0.1,0-0.1,0c0,0,0,0-0.1,0c0,0,0,0,0.1,0c0,0-0.1,0-0.2,0.1C2.2,1.4,2.2,1.4,2.1,1.4c0,0-0.1,0-0.1,0.1
			C1.9,1.6,1.9,1.6,1.9,1.6c0,0,0-0.1-0.1,0.1C1.6,1.8,1.6,1.8,1.6,1.8c0,0,0,0,0,0v0c0,0,0,0.1-0.1,0.1c0,0.1-0.1,0.1-0.1,0.2
			c0,0,0,0,0,0c0,0,0,0,0,0c0,0,0,0-0.1,0.1c0,0.1-0.1,0.2-0.1,0.2c0,0,0,0,0-0.1c0,0,0,0.1,0,0.1c0,0,0,0.1,0,0.1
			c0,0.1,0,0.2,0,0.2c0,0,0,0,0,0.2V11.3z M0.8,12C0.8,12,0.8,12,0.8,12c0,0,0-0.1-0.1-0.2c-0.1-0.7,0,0.2-0.1-0.5V3
			c0.1-0.7,0,0.2,0.1-0.5c0.2-0.7-0.1,0.2,0.1-0.4C0.8,2,0.9,2,0.9,1.9c0,0,0,0,0,0c0,0,0,0,0,0c0,0,0,0,0,0v0c0,0,0-0.1,0.1-0.2
			c0.1-0.1,0.1-0.1,0.1-0.2c0,0,0,0,0,0c0,0,0.1-0.1,0.2-0.2c0.1,0,0.1-0.1,0.1-0.1c0,0,0,0,0.2-0.2c0.1,0,0.1-0.1,0.2-0.1
			c0,0,0,0,0,0c0,0,0,0,0,0c0,0,0,0,0,0c0,0,0.1,0,0.2-0.1c0.7-0.2-0.2,0.1,0.4-0.1c0.7-0.1-0.2,0,0.5-0.1h16.7
			c0.7,0.1-0.2,0,0.5,0.1c0.2,0.1,0.2,0.1,0.3,0.1c0,0-0.3-0.1,0.1,0c0.1,0,0.1,0.1,0.2,0.1l0,0c0,0,0,0,0,0c0,0,0,0,0,0
			c0,0,0.1,0,0.2,0.1C21,1,21,1.1,21,1.1c0,0,0,0,0.2,0.2c0.1,0.1,0.1,0.1,0.1,0.1v0c0,0,0,0,0,0c0,0,0,0,0,0s0,0,0,0
			c0,0,0.1,0.1,0.1,0.2c0,0.1,0.1,0.1,0.1,0.2v0c0,0,0,0,0,0c0,0,0,0,0,0l0,0c0,0,0,0.1,0.1,0.2c0.2,0.7-0.1-0.2,0.1,0.4
			c0.1,0.7,0-0.2,0.1,0.5v8.3c-0.1,0.7,0-0.2-0.1,0.5c-0.2,0.7,0.1-0.2-0.1,0.4c0,0.1-0.1,0.1-0.1,0.2l0,0c0,0,0,0,0,0c0,0,0,0,0,0
			c0,0,0,0.1-0.1,0.2c-0.1,0.1-0.1,0.1-0.1,0.2c0,0,0,0,0,0c0,0-0.1,0.1-0.2,0.2c-0.1,0.1-0.2,0.1-0.2,0.2c0,0,0,0,0.1,0
			c0,0-0.1,0.1-0.2,0.2c-0.1,0-0.1,0.1-0.2,0.1c0,0,0,0,0,0c0,0,0,0,0,0l0,0c0,0-0.1,0-0.2,0.1c-0.7,0.2,0.2-0.1-0.4,0.1
			c-0.7,0.1,0.2,0-0.5,0.1H2.9c-0.7-0.1,0.2,0-0.5-0.1c-0.2-0.1-0.2-0.1-0.3-0.1c0,0,0.3,0.1-0.1,0c-0.1,0-0.1-0.1-0.2-0.1l0,0
			c0,0,0,0,0,0c0,0,0,0,0,0c0,0-0.1,0-0.2-0.1c-0.1,0-0.1-0.1-0.1-0.1c0,0,0,0-0.2-0.2c-0.1-0.1-0.1-0.1-0.1-0.1c0,0,0,0,0,0v0h0v0
			l0,0c0,0,0,0,0,0c0,0-0.1-0.1-0.1-0.2c0-0.1-0.1-0.1-0.1-0.2c0,0,0,0,0,0c0,0,0,0,0,0c0,0,0,0,0,0c0,0,0,0,0,0l0,0
			c0,0,0-0.1-0.1-0.2C0.7,11.8,0.8,11.9,0.8,12z"/>
		<polygon class="st0" points="1.2,12.8 1.2,12.9 1.1,12.8 		"/>
		<path class="st0" d="M1.1,12.8C1.1,12.8,1.1,12.8,1.1,12.8C1.1,12.8,1.1,12.8,1.1,12.8z"/>
		<path class="st0" d="M0.9,12.4C0.9,12.4,0.9,12.4,0.9,12.4L0.9,12.4L0.9,12.4z"/>
		<path class="st0" d="M0.9,1.9L0.9,1.9C0.9,1.9,0.9,1.9,0.9,1.9L0.9,1.9z"/>
		<path class="st0" d="M0.9,12.4C0.9,12.4,0.9,12.4,0.9,12.4C0.9,12.4,0.9,12.4,0.9,12.4L0.9,12.4z"/>
		<path class="st0" d="M0.9,1.9L0.9,1.9L0.9,1.9C0.9,1.9,0.9,1.9,0.9,1.9z"/>
		<path class="st0" d="M0.9,1.9C0.9,1.9,0.9,1.9,0.9,1.9L0.9,1.9L0.9,1.9z"/>
		<path class="st0" d="M0.9,12.4C0.9,12.4,0.9,12.4,0.9,12.4L0.9,12.4L0.9,12.4z"/>
		<path class="st0" d="M0.9,12.4C0.9,12.4,0.9,12.4,0.9,12.4L0.9,12.4C0.9,12.4,0.9,12.4,0.9,12.4L0.9,12.4z"/>
		<path class="st0" d="M0.9,1.9L0.9,1.9C0.9,1.9,0.9,1.9,0.9,1.9C0.9,1.9,0.9,1.9,0.9,1.9z"/>
		<path class="st0" d="M0.9,12.4L0.9,12.4C0.9,12.4,0.9,12.4,0.9,12.4L0.9,12.4z"/>
		<path class="st0" d="M0.8,12C0.8,12,0.8,12,0.8,12L0.8,12z"/>
	</g>
	<g>
		<line class="st1" x1="0.6" y1="11.3" x2="0.6" y2="3"/>
		<line class="st1" x1="1.2" y1="11.3" x2="1.2" y2="3"/>
		<line class="st1" x1="21.3" y1="3" x2="21.3" y2="11.3"/>
		<line class="st1" x1="21.9" y1="3" x2="21.9" y2="11.3"/>
		<line class="st1" x1="19.6" y1="13.7" x2="2.9" y2="13.7"/>
		<line class="st1" x1="19.5" y1="13.1" x2="2.9" y2="13.1"/>
		<line class="st1" x1="2.9" y1="1.2" x2="19.6" y2="1.2"/>
		<line class="st1" x1="2.9" y1="0.6" x2="19.6" y2="0.6"/>
		<path class="st1" d="M1.8,0.9C1.8,0.9,1.8,0.9,1.8,0.9C1.8,0.9,1.8,0.9,1.8,0.9C1.9,0.9,1.9,0.8,2,0.8c0.7-0.2-0.2,0.1,0.4-0.1
			c0.7-0.1-0.2,0,0.5-0.1"/>
		<polyline class="st1" points="1.8,0.9 1.8,0.9 1.8,0.9 1.8,0.9 1.8,0.9 		"/>
		<path class="st1" d="M1.4,1.2c0,0,0,0,0.2-0.2c0.1,0,0.1-0.1,0.2-0.1c0,0,0,0,0,0c0,0,0,0,0,0c0,0,0,0,0,0"/>
		<path class="st1" d="M1.1,1.5c0,0,0.1-0.1,0.2-0.2c0.1,0,0.1-0.1,0.1-0.1c0,0,0,0,0,0c0,0,0,0,0,0c0,0,0,0,0,0"/>
		<path class="st1" d="M1.1,1.5C1.1,1.5,1.1,1.5,1.1,1.5C1.1,1.6,1.1,1.6,1.1,1.5"/>
		<path class="st1" d="M1.1,1.5C1.1,1.5,1.1,1.5,1.1,1.5C1.1,1.5,1.1,1.5,1.1,1.5"/>
		<path class="st1" d="M0.9,1.9C0.9,1.9,0.9,1.9,0.9,1.9C0.9,1.9,0.9,1.9,0.9,1.9C0.9,1.9,0.9,1.9,0.9,1.9"/>
		<polyline class="st1" points="0.9,1.9 0.9,1.9 0.9,1.9 0.9,1.9 		"/>
		<path class="st1" d="M0.9,1.9L0.9,1.9c0,0,0-0.1,0.1-0.2c0.1-0.1,0.1-0.1,0.1-0.2"/>
		<line class="st1" x1="0.9" y1="1.9" x2="0.9" y2="1.9"/>
		<path class="st1" d="M0.6,3c0.1-0.7,0,0.2,0.1-0.5c0.2-0.7-0.1,0.2,0.1-0.4C0.8,2,0.9,2,0.9,1.9c0,0,0,0,0,0c0,0,0,0,0,0"/>
		<path class="st1" d="M21.6,1.9C21.6,1.9,21.6,1.9,21.6,1.9C21.6,1.9,21.6,1.9,21.6,1.9c0,0.1,0.1,0.2,0.1,0.2
			c0.2,0.7-0.1-0.2,0.1,0.4c0.1,0.7,0-0.2,0.1,0.5"/>
		<polyline class="st1" points="21.6,1.9 21.6,1.9 21.6,1.9 21.6,1.9 21.6,1.9 21.6,1.9 		"/>
		<path class="st1" d="M21.6,1.9C21.6,1.9,21.6,1.9,21.6,1.9C21.6,1.9,21.6,1.9,21.6,1.9"/>
		<path class="st1" d="M21.3,1.5C21.3,1.5,21.3,1.4,21.3,1.5L21.3,1.5"/>
		<path class="st1" d="M21.3,1.5L21.3,1.5C21.4,1.5,21.4,1.5,21.3,1.5"/>
		<path class="st1" d="M21.6,1.9L21.6,1.9c0,0,0-0.1-0.1-0.2c-0.1-0.1-0.1-0.2-0.1-0.2c0,0,0,0,0,0"/>
		<path class="st1" d="M21,1.1c0,0,0,0,0.2,0.2c0.1,0.1,0.1,0.1,0.1,0.1v0c0,0,0,0,0,0c0,0,0,0,0,0"/>
		<path class="st1" d="M20.7,0.9C20.7,0.9,20.7,0.9,20.7,0.9C20.7,0.9,20.7,0.9,20.7,0.9C20.8,0.9,20.8,1,20.9,1C21,1,21,1.1,21,1.1
			c0,0,0.1,0,0.1,0"/>
		<polyline class="st1" points="20.7,0.9 20.7,0.9 20.7,0.9 20.7,0.9 20.7,0.9 20.7,0.9 		"/>
		<path class="st1" d="M20.4,0.8c0,0-0.3-0.1,0.1,0c0.1,0,0.1,0.1,0.2,0.1c0,0,0,0,0,0c0,0,0,0,0,0"/>
		<path class="st1" d="M19.6,0.6c0.7,0.1-0.2,0,0.5,0.1c0.2,0.1,0.2,0.1,0.3,0.1h0"/>
		<path class="st1" d="M20.7,13.4C20.7,13.4,20.7,13.4,20.7,13.4C20.7,13.4,20.7,13.4,20.7,13.4C20.7,13.4,20.7,13.4,20.7,13.4
			c-0.1,0.1-0.2,0.1-0.2,0.1c-0.7,0.2,0.2-0.1-0.4,0.1c-0.7,0.1,0.2,0-0.5,0.1"/>
		<polyline class="st1" points="20.7,13.4 20.7,13.4 20.7,13.4 20.7,13.4 20.7,13.4 		"/>
		<path class="st1" d="M21.1,13.1C21.1,13.1,21.1,13.1,21.1,13.1c0,0-0.1,0.1-0.2,0.2c-0.1,0-0.1,0.1-0.2,0.1c0,0,0,0,0,0
			c0,0,0,0,0,0"/>
		<path class="st1" d="M21,13.2C21,13.2,21,13.2,21,13.2C21,13.2,21.1,13.1,21,13.2"/>
		<path class="st1" d="M21.4,12.7C21.4,12.7,21.4,12.7,21.4,12.7c0,0-0.1,0.1-0.2,0.3c-0.1,0.1-0.2,0.1-0.2,0.2"/>
		<path class="st1" d="M21.4,12.8C21.4,12.8,21.4,12.8,21.4,12.8"/>
		<path class="st1" d="M21.6,12.4C21.6,12.4,21.6,12.4,21.6,12.4C21.6,12.4,21.6,12.4,21.6,12.4c-0.1,0.1-0.1,0.2-0.1,0.2
			c-0.1,0.1-0.1,0.1-0.1,0.2c0,0,0,0,0,0"/>
		<polyline class="st1" points="21.6,12.4 21.6,12.4 21.6,12.4 21.6,12.4 21.6,12.4 		"/>
		<path class="st1" d="M21.9,11.3c-0.1,0.7,0-0.2-0.1,0.5c-0.2,0.7,0.1-0.2-0.1,0.4c0,0.1-0.1,0.1-0.1,0.2c0,0,0,0,0,0c0,0,0,0,0,0
			c0,0,0,0,0,0"/>
		<path class="st1" d="M0.8,12c0,0,0-0.1-0.1-0.2c-0.1-0.7,0,0.2-0.1-0.5"/>
		<path class="st1" d="M0.8,12C0.8,12,0.8,12,0.8,12L0.8,12z"/>
		<path class="st1" d="M0.9,12.4C0.9,12.4,0.9,12.4,0.9,12.4C0.9,12.4,0.9,12.4,0.9,12.4C0.9,12.4,0.9,12.4,0.9,12.4
			c-0.1-0.1-0.1-0.2-0.1-0.2c-0.1-0.4-0.1-0.2,0-0.2"/>
		<polyline class="st1" points="0.9,12.4 0.9,12.4 0.9,12.4 		"/>
		<polyline class="st1" points="0.9,12.4 0.9,12.4 0.9,12.4 0.9,12.4 		"/>
		<path class="st1" d="M1.1,12.8C1.1,12.8,1.1,12.8,1.1,12.8c0,0-0.1-0.1-0.1-0.2c0-0.1-0.1-0.1-0.1-0.2c0,0,0,0,0,0c0,0,0,0,0,0
			c0,0,0,0,0,0c0,0,0,0,0,0"/>
		<path class="st1" d="M1.1,12.8L1.1,12.8C1.2,12.9,1.2,12.9,1.1,12.8"/>
		<path class="st1" d="M1.1,12.8C1.1,12.8,1.1,12.8,1.1,12.8"/>
		<polyline class="st1" points="1.1,12.8 1.1,12.8 1.1,12.8 		"/>
		<path class="st1" d="M1.4,13.1C1.4,13.2,1.4,13.2,1.4,13.1C1.5,13.2,1.5,13.2,1.4,13.1c0.1,0.1,0.1,0-0.1-0.1
			c-0.1-0.1-0.1-0.1-0.1-0.1c0,0,0,0,0,0v0h0"/>
		<path class="st1" d="M1.8,13.4C1.8,13.4,1.8,13.4,1.8,13.4C1.8,13.4,1.8,13.4,1.8,13.4c-0.1-0.1-0.2-0.1-0.2-0.1
			c-0.1,0-0.1-0.1-0.1-0.1"/>
		<polyline class="st1" points="1.8,13.4 1.8,13.4 1.8,13.4 1.8,13.4 1.8,13.4 1.8,13.4 		"/>
		<path class="st1" d="M2.1,13.5L2.1,13.5c0,0,0.3,0.1-0.1,0c-0.1,0-0.1-0.1-0.2-0.1c0,0,0,0,0,0c0,0,0,0,0,0"/>
		<path class="st1" d="M2.9,13.7c-0.7-0.1,0.2,0-0.5-0.1c-0.2-0.1-0.2-0.1-0.3-0.1"/>
		<path class="st1" d="M2.8,1.2C2.8,1.2,2.8,1.2,2.8,1.2C2.7,1.2,2.7,1.2,2.8,1.2c-0.1,0,0,0,0.1,0"/>
		<path class="st1" d="M2.4,1.2C2.4,1.2,2.4,1.2,2.4,1.2C2.4,1.2,2.5,1.2,2.4,1.2c0.1,0,0.1,0,0.2,0c0.1,0,0.1,0,0.1,0"/>
		<path class="st1" d="M2.5,1.2C2.5,1.2,2.5,1.2,2.5,1.2"/>
		<path class="st1" d="M2.1,1.4C2.1,1.4,2.1,1.4,2.1,1.4C2.1,1.4,2.1,1.4,2.1,1.4"/>
		<path class="st1" d="M1.9,1.6c0,0,0.1,0,0.1-0.1c0.1-0.1,0.1-0.1,0.1-0.1c0,0,0.1,0,0.2-0.1c0.1,0,0.2-0.1,0.2-0.1"/>
		<path class="st1" d="M1.6,1.8c0,0,0-0.1,0.1-0.1c0.2-0.2,0.2-0.1,0.1-0.1c0,0,0,0,0,0"/>
		<path class="st1" d="M1.6,1.9C1.6,1.9,1.6,1.9,1.6,1.9"/>
		<path class="st1" d="M1.6,1.8C1.6,1.8,1.6,1.8,1.6,1.8"/>
		<path class="st1" d="M1.6,1.9L1.6,1.9C1.6,1.9,1.6,1.9,1.6,1.9"/>
		<path class="st1" d="M1.6,1.9c0,0,0,0.1-0.1,0.1c0,0.1-0.1,0.1-0.1,0.2c0,0,0,0,0,0c0,0,0,0,0,0"/>
		<path class="st1" d="M1.2,2.4C1.2,2.4,1.2,2.4,1.2,2.4C1.2,2.5,1.2,2.5,1.2,2.4c0,0,0,0,0.1-0.1c0,0,0.1-0.1,0.1-0.1c0,0,0,0,0,0"
			/>
		<path class="st1" d="M1.2,3c0-0.2,0-0.2,0-0.2c0,0,0-0.1,0-0.2c0-0.1,0-0.1,0-0.1c0,0,0,0,0-0.1"/>
		<path class="st1" d="M21.3,2.8c0,0,0,0,0,0.2"/>
		<path class="st1" d="M21.3,2.8C21.4,2.8,21.4,2.8,21.3,2.8L21.3,2.8z"/>
		<path class="st1" d="M21.3,2.4C21.3,2.4,21.3,2.5,21.3,2.4c0,0.1,0,0.1,0,0.2c0,0.1,0,0.1,0,0.2c0,0,0,0,0,0"/>
		<path class="st1" d="M21.1,2.1c0,0,0,0,0.1,0.2c0,0.1,0.1,0.2,0.1,0.2c0,0,0,0,0-0.1c0,0,0,0,0,0"/>
		<path class="st1" d="M20.9,1.8c0,0,0,0.1,0.1,0.2c0,0.1,0,0.1,0.1,0.1v0c0,0,0,0,0,0"/>
		<path class="st1" d="M20.9,1.8C20.9,1.8,20.9,1.8,20.9,1.8L20.9,1.8z"/>
		<path class="st1" d="M20.8,1.6c0,0,0.1,0,0.1,0.1c0.1,0.3,0,0.1,0,0.1"/>
		<line class="st1" x1="20.7" y1="1.6" x2="20.7" y2="1.6"/>
		<path class="st1" d="M20.8,1.6C20.8,1.6,20.8,1.6,20.8,1.6"/>
		<path class="st1" d="M20.5,1.4C20.5,1.4,20.5,1.4,20.5,1.4c0,0,0,0,0.1,0.1c0.1,0,0.1,0.1,0.1,0.1c0,0,0,0,0,0c0,0,0,0,0,0"/>
		<path class="st1" d="M20.2,1.2C20.1,1.2,20.1,1.2,20.2,1.2c0,0,0,0,0.1,0.1c0.1,0,0.1,0.1,0.1,0.1"/>
		<path class="st1" d="M19.6,1.2c0.1,0,0.2,0,0.2,0c0,0,0.1,0,0.2,0c0.1,0,0.1,0,0.1,0c0,0,0,0,0.1,0s0,0,0,0"/>
		<path class="st1" d="M19.7,13.1C19.7,13.1,19.7,13.1,19.7,13.1c0.1,0,0.1,0-0.1,0c0,0-0.1,0-0.1,0"/>
		<path class="st1" d="M20.1,13.1C20.1,13.1,20,13.1,20.1,13.1c-0.1,0-0.1,0-0.2,0c-0.1,0-0.1,0-0.1,0"/>
		<path class="st1" d="M20,13.1C20,13.1,20,13.1,20,13.1C20,13.1,20.1,13.1,20,13.1C20.1,13.1,20.1,13.1,20,13.1"/>
		<line class="st1" x1="20" y1="13.1" x2="20" y2="13.1"/>
		<path class="st1" d="M20.4,12.9C20.4,12.9,20.4,12.9,20.4,12.9"/>
		<path class="st1" d="M20.6,12.7c0,0-0.1,0-0.1,0.1c0,0-0.1,0.1-0.1,0.1c0,0,0,0,0,0c0,0,0,0,0,0c0,0-0.1,0-0.1,0.1
			c-0.1,0-0.2,0.1-0.2,0.1"/>
		<path class="st1" d="M20.7,12.7C20.6,12.7,20.6,12.7,20.7,12.7"/>
		<line class="st1" x1="20.7" y1="12.7" x2="20.7" y2="12.7"/>
		<path class="st1" d="M20.6,12.7C20.6,12.7,20.6,12.7,20.6,12.7"/>
		<path class="st1" d="M20.9,12.5c0,0,0,0.1-0.1,0.1c-0.1,0-0.1,0.1-0.1,0.1c0,0,0,0,0,0v0h0c0,0,0,0,0,0"/>
		<path class="st1" d="M20.9,12.4C20.9,12.4,20.9,12.4,20.9,12.4"/>
		<line class="st1" x1="20.9" y1="12.5" x2="20.9" y2="12.5"/>
		<path class="st1" d="M21.1,12.1c0,0,0,0-0.1,0.2c0,0.1-0.1,0.1-0.1,0.1c0,0,0,0,0,0v0"/>
		<line class="st1" x1="21.1" y1="12.2" x2="21.1" y2="12.1"/>
		<path class="st1" d="M21.1,12.1L21.1,12.1c0,0,0-0.1,0.1-0.1c0-0.1,0.1-0.2,0.1-0.2"/>
		<path class="st1" d="M21.3,11.8L21.3,11.8C21.3,11.8,21.3,11.8,21.3,11.8"/>
		<path class="st1" d="M21.3,11.9C21.3,11.9,21.3,11.9,21.3,11.9C21.3,11.9,21.3,11.8,21.3,11.9"/>
		<path class="st1" d="M21.3,11.3c0,0.1,0,0.1,0,0.1v0.1c0,0,0,0.1,0,0.2c0,0.1,0,0.1,0,0.1c0,0,0,0.1,0,0.1"/>
		<path class="st1" d="M1.2,11.5C1.1,11.5,1.2,11.5,1.2,11.5c0,0.1,0,0.1,0-0.2"/>
		<path class="st1" d="M1.2,11.9C1.2,11.9,1.2,11.9,1.2,11.9C1.2,11.9,1.2,11.9,1.2,11.9c0-0.1,0-0.1,0-0.2c0-0.1,0-0.1,0-0.1"/>
		<path class="st1" d="M1.2,11.8C1.2,11.8,1.2,11.9,1.2,11.8"/>
		<path class="st1" d="M1.2,11.8C1.2,11.8,1.2,11.8,1.2,11.8L1.2,11.8"/>
		<path class="st1" d="M1.4,12.2C1.4,12.2,1.4,12.2,1.4,12.2"/>
		<path class="st1" d="M1.6,12.4c0,0,0-0.1-0.1-0.1c0,0,0-0.1-0.1-0.1c0,0,0,0,0,0c0,0,0,0,0,0c0,0,0-0.1-0.1-0.2
			c0-0.1-0.1-0.2-0.1-0.2"/>
		<line class="st1" x1="1.6" y1="12.5" x2="1.6" y2="12.5"/>
		<path class="st1" d="M1.6,12.4C1.6,12.4,1.6,12.4,1.6,12.4"/>
		<path class="st1" d="M1.8,12.7c0,0-0.1,0-0.1-0.1c0-0.1-0.1-0.1-0.1-0.1c0,0,0,0,0,0"/>
		<path class="st1" d="M1.9,12.7C1.9,12.7,1.9,12.7,1.9,12.7"/>
		<line class="st1" x1="1.8" y1="12.7" x2="1.8" y2="12.7"/>
		<path class="st1" d="M1.8,12.7C1.8,12.7,1.8,12.7,1.8,12.7C1.9,12.7,1.9,12.7,1.8,12.7"/>
		<path class="st1" d="M2.1,12.9c0,0-0.1,0-0.1-0.1c-0.1-0.1-0.1-0.1-0.1-0.1"/>
		<path class="st1" d="M2.5,13.1L2.5,13.1c0,0-0.1-0.1-0.2-0.1c-0.3-0.2-0.2-0.1-0.2-0.1c0,0,0,0,0,0"/>
		<path class="st1" d="M2.4,13.1C2.4,13.1,2.4,13.1,2.4,13.1C2.4,13.1,2.5,13.1,2.4,13.1C2.5,13.1,2.5,13.1,2.4,13.1"/>
		<path class="st1" d="M2.9,13.1c0,0-0.1,0-0.1,0c0,0,0,0-0.2,0c-0.1,0-0.1,0-0.1,0c0,0,0,0-0.1,0"/>
	</g>
</g>
<circle class="st1" cx="11.3" cy="7.2" r="5.4"/>
<g id="XMLID_00000060010983971910216320000003746399112137328522_">
	<g>
		<polygon class="st2" points="11.2,4.1 15.2,8.9 7.3,8.9 		"/>
	</g>
	<g>
		<line class="st1" x1="11.2" y1="4.1" x2="7.3" y2="8.9"/>
		<line class="st1" x1="15.2" y1="8.9" x2="11.2" y2="4.1"/>
		<line class="st1" x1="7.3" y1="8.9" x2="15.2" y2="8.9"/>
	</g>
</g>
</svg>
